<?xml version="1.0" encoding="UTF-8"?>
<!DOCTYPE svg PUBLIC "-//W3C//DTD SVG 1.1//EN" "http://www.w3.org/Graphics/SVG/1.1/DTD/svg11.dtd">
<!-- Creator: CorelDRAW -->
<svg xmlns="http://www.w3.org/2000/svg" xml:space="preserve" width="16.9332mm" height="16.9332mm" style="shape-rendering:geometricPrecision; text-rendering:geometricPrecision; image-rendering:optimizeQuality; fill-rule:evenodd; clip-rule:evenodd"
viewBox="0 0 0.926856 0.926856"
 xmlns:xlink="http://www.w3.org/1999/xlink">
 <defs>
  <style type="text/css">
   <![CDATA[
    .fil2 {fill:#007A5C}
    .fil1 {fill:#F9B101}
    .fil0 {fill:#010101;fill-rule:nonzero}
   ]]>
  </style>
 </defs>
<symbol id="Fm4-477-0" viewBox="-0.338301 -3.79559 0.714436 1.00617">
 <polygon class="fil0" points="-0.338301,-3.37375 -0.338301,-2.78942 0.376135,-3.79559 "/>
</symbol>
<symbol id="Fm0-469-0" viewBox="-1.05232 -4.25552 1.42803 0.746588">
 <polygon class="fil0" points="-0.338301,-4.25552 -1.05232,-3.93098 -0.338301,-3.50893 0.375713,-3.93098 "/>
</symbol>
<symbol id="Fm1-471-0" viewBox="-1.05231 -5.11572 0.714015 1.60678">
 <polygon class="fil0" points="-1.05231,-3.93099 -0.338296,-3.50894 -0.338296,-4.25553 -0.338296,-5.11572 "/>
</symbol>
<symbol id="Fm2-473-0" viewBox="-0.338301 -5.11572 0.714015 1.60678">
 <polygon class="fil0" points="-0.338301,-5.11572 -0.338301,-4.25553 -0.338301,-3.50894 0.375713,-3.93099 "/>
</symbol>
<symbol id="Fm3-475-0" viewBox="-1.05231 -3.79559 0.714015 1.00617">
 <polygon class="fil0" points="-1.05231,-3.79559 -0.338296,-2.78942 -0.338296,-3.37376 "/>
</symbol>
 <g id="__x0023_Layer_x0020_1">
  <metadata id="CorelCorpID_0Corel-Layer"/>
  <g id="_392159816">
   <path id="_402614640" class="fil1" d="M0.463439 0c0.255935,0 0.463417,0.207482 0.463417,0.463439 0,0.255935 -0.207482,0.463417 -0.463417,0.463417 -0.255957,0 -0.463439,-0.207482 -0.463439,-0.463417 0,-0.255957 0.207482,-0.463439 0.463439,-0.463439z"/>
   <g>
    <path id="_392888576" class="fil2" d="M0.148712 0.463428l0.314716 -0.314716 0.314716 0.314716 -0.314716 0.314716 -0.314716 -0.314716zm0.0603848 -0.254325l0.126506 0 0.127825 -0.127825 0.127825 0.127825 0.126506 0 0 0.1265 0.127825 0.127825 -0.127825 0.127825 0 0.126506 -0.126506 0 -0.127825 0.127825 -0.127825 -0.127825 -0.126506 0 0 -0.126506 -0.127825 -0.127825 0.127825 -0.127825 0 -0.1265zm0.117195 0.0317907l-0.0853991 0 0 0.0853991 -0.0317962 0.0317907 0 0 -0.105345 0.105345 0.105345 0.105345 0 5.4736e-006 0.0317962 0.0317852 0 0.0853991 0.0853991 0 0.0317852 0.0317962 5.4736e-006 0 0.105345 0.105345 0.105345 -0.105345 5.4736e-006 0 0.0317852 -0.0317962 0.0853991 0 0 -0.0853991 0.0317962 -0.0317852 0 -5.4736e-006 0.105345 -0.105345 -0.105345 -0.105345 0 0 -0.0317962 -0.0317907 0 -0.0853991 -0.0853991 0 -0.0317852 -0.0317907 -5.4736e-006 0 -0.105345 -0.105345 -0.137136 0.137136z"/>
    <path id="_392888816" class="fil1" d="M0.103752 0.463428l0.137141 -0.137136 0 -0.0853991 0.0853991 0 0.137136 -0.137136 0.137136 0.137136 0.0853991 0 0 0.0853991 0.137141 0.137136 -0.137141 0.137136 0 0.0853991 -0.0853991 0 -0.137136 0.137141 -0.137136 -0.137141 -0.0853991 0 0 -0.0853991 -0.137141 -0.137136zm0.137141 0.09217c0.0530994,-0.0640192 0.133189,-0.104885 0.222535,-0.104885 0.0689674,-5.4736e-006 0.125209,-0.0562467 0.125209,-0.125214 0,-0.0325679 -0.01254,-0.0622951 -0.0330387,-0.0846055l1.09472e-005 0 -0.0921809 -0.0921809 -0.0921809 0.0921809 -0.130354 0.130359 -0.0921809 0.0921755 0.0921809 0.0921809 0 -1.09472e-005zm0.44507 -0.184345l0 5.4736e-006c-0.0530994,0.0640192 -0.133189,0.104885 -0.222535,0.104885 -0.0689674,5.4736e-006 -0.125209,0.0562467 -0.125209,0.125214 0,0.0325679 0.01254,0.0623005 0.0330387,0.0846055l-1.09472e-005 0 0.0921809 0.0921809 0.0921809 -0.0921809 0.130354 -0.130354 0.0921809 -0.0921809 -0.0921809 -0.0921755z"/>
   </g>
  </g>
 </g>
</svg>
