<?xml version="1.0" encoding="UTF-8"?>
<!DOCTYPE svg PUBLIC "-//W3C//DTD SVG 1.1//EN" "http://www.w3.org/Graphics/SVG/1.1/DTD/svg11.dtd">
<!-- Creator: CorelDRAW -->
<svg xmlns="http://www.w3.org/2000/svg" xml:space="preserve" width="16.9332mm" height="16.9332mm" style="shape-rendering:geometricPrecision; text-rendering:geometricPrecision; image-rendering:optimizeQuality; fill-rule:evenodd; clip-rule:evenodd"
viewBox="0 0 1.37754 1.37754"
 xmlns:xlink="http://www.w3.org/1999/xlink">
 <defs>
  <style type="text/css">
   <![CDATA[
    .str0 {stroke:#015836;stroke-width:0.0162702}
    .fil1 {fill:none}
    .fil4 {fill:#EBECEC}
    .fil2 {fill:#FEFEFE}
    .fil3 {fill:#015836}
    .fil0 {fill:#010101;fill-rule:nonzero}
   ]]>
  </style>
 </defs>
<symbol id="Fm4-477-0" viewBox="3.61405 -10.0959 1.06183 1.49541">
 <polygon class="fil0" points="3.61405,-9.46891 3.61405,-8.60046 4.67588,-10.0959 "/>
</symbol>
<symbol id="Fm0-469-0" viewBox="2.55285 -10.7794 2.1224 1.10961">
 <polygon class="fil0" points="3.61405,-10.7794 2.55285,-10.2971 3.61405,-9.66983 4.67525,-10.2971 "/>
</symbol>
<symbol id="Fm1-471-0" viewBox="2.55286 -12.0579 1.0612 2.38806">
 <polygon class="fil0" points="2.55286,-10.2971 3.61406,-9.66984 3.61406,-10.7795 3.61406,-12.0579 "/>
</symbol>
<symbol id="Fm2-473-0" viewBox="3.61405 -12.0579 1.0612 2.38806">
 <polygon class="fil0" points="3.61405,-12.0579 3.61405,-10.7795 3.61405,-9.66984 4.67525,-10.2971 "/>
</symbol>
<symbol id="Fm3-475-0" viewBox="2.55286 -10.0959 1.0612 1.49541">
 <polygon class="fil0" points="2.55286,-10.0959 3.61406,-8.60046 3.61406,-9.46893 "/>
</symbol>
 <g id="__x0023_Layer_x0020_1">
  <metadata id="CorelCorpID_0Corel-Layer"/>
  <g id="_394599424">
   <g>
    <polygon id="_78946472" class="fil1 str0" points="0.369188,0.255793 1.01087,0.255793 1.01087,1.12174 0.369188,1.12174 "/>
    <polygon id="_78946664" class="fil1 str0" points="0.339812,0.217118 1.03772,0.217118 1.03772,1.16041 0.339812,1.16041 "/>
    <polygon id="_78946856" class="fil2" points="0.693633,0.238457 0.696879,0.238457 1.02564,0.238457 1.02564,1.12916 0.694153,1.12916 0.693633,1.12916 "/>
    <polygon id="_78947048" class="fil3" points="0.369188,0.255793 0.688768,0.255793 0.688768,1.12174 0.369188,1.12174 "/>
    <path id="_78947240" class="fil2" d="M0.371702 0.585639c-0.00251375,-0.181438 0.144707,-0.329847 0.31958,-0.329847l0 0.865951 -0.31958 0 0 -0.536104z"/>
    <path id="_78947432" class="fil3" d="M1.01087 0.585639c0.00251375,-0.181438 -0.144707,-0.329847 -0.319588,-0.329847l0 0.869652 0.319588 0 0 -0.539806z"/>
    <path id="_78947624" class="fil3" d="M0.690932 1.00652c-0.0571492,-0.00133416 -0.103072,-0.0480867 -0.103072,-0.105561 0,-0.0574746 0.0459227,-0.104227 0.103072,-0.105561l0 0.211123z"/>
    <path id="_78947816" class="fil2" d="M0.693804 0.795362c0.0583125,0 0.105594,0.0472813 0.105594,0.105594 0,0.0583207 -0.0472813,0.105594 -0.105594,0.105594l-0.00165956 -1.62702e-005 -0.000862323 -1.62702e-005 0 -0.211123 0.00149686 -1.62702e-005 0.00102502 -1.62702e-005z"/>
   </g>
   <path id="_393187384" class="fil4" d="M0.688784 0c0.380366,0 0.688752,0.308386 0.688752,0.688784 0,0.380366 -0.308386,0.688752 -0.688752,0.688752 -0.380398,0 -0.688784,-0.308386 -0.688784,-0.688752 0,-0.380398 0.308386,-0.688784 0.688784,-0.688784zm0 0.0981665c0.326161,0 0.590585,0.264424 0.590585,0.590618 0,0.326161 -0.264424,0.590585 -0.590585,0.590585 -0.326194,0 -0.590618,-0.264424 -0.590618,-0.590585 0,-0.326194 0.264424,-0.590618 0.590618,-0.590618z"/>
  </g>
 </g>
</svg>
