<?xml version="1.0" encoding="UTF-8"?>
<!DOCTYPE svg PUBLIC "-//W3C//DTD SVG 1.1//EN" "http://www.w3.org/Graphics/SVG/1.1/DTD/svg11.dtd">
<!-- Creator: CorelDRAW -->
<svg xmlns="http://www.w3.org/2000/svg" xml:space="preserve" width="16.9332mm" height="16.9332mm" style="shape-rendering:geometricPrecision; text-rendering:geometricPrecision; image-rendering:optimizeQuality; fill-rule:evenodd; clip-rule:evenodd"
viewBox="0 0 1.52476 1.52476"
 xmlns:xlink="http://www.w3.org/1999/xlink">
 <defs>
  <style type="text/css">
   <![CDATA[
    .fil1 {fill:#F48F1D}
    .fil0 {fill:#010101;fill-rule:nonzero}
   ]]>
  </style>
 </defs>
<symbol id="Fm4-477-0" viewBox="21.8384 -12.2141 1.17531 1.65524">
 <polygon class="fil0" points="21.8384,-11.5201 21.8384,-10.5589 23.0137,-12.2141 "/>
</symbol>
<symbol id="Fm0-469-0" viewBox="20.6638 -12.9707 2.34924 1.22821">
 <polygon class="fil0" points="21.8384,-12.9707 20.6638,-12.4368 21.8384,-11.7425 23.013,-12.4368 "/>
</symbol>
<symbol id="Fm1-471-0" viewBox="20.6638 -14.3858 1.17462 2.64329">
 <polygon class="fil0" points="20.6638,-12.4369 21.8384,-11.7426 21.8384,-12.9708 21.8384,-14.3858 "/>
</symbol>
<symbol id="Fm2-473-0" viewBox="21.8384 -14.3858 1.17462 2.64329">
 <polygon class="fil0" points="21.8384,-14.3858 21.8384,-12.9708 21.8384,-11.7426 23.013,-12.4369 "/>
</symbol>
<symbol id="Fm3-475-0" viewBox="20.6638 -12.2141 1.17462 1.65524">
 <polygon class="fil0" points="20.6638,-12.2141 21.8384,-10.5589 21.8384,-11.5202 "/>
</symbol>
 <g id="Слой_x0020_1">
  <metadata id="CorelCorpID_0Corel-Layer"/>
  <g id="_393682416">
   <path id="_391961464" class="fil1" d="M0.762399 0c0.421018,0 0.762363,0.341345 0.762363,0.762399 0,0.421018 -0.341345,0.762363 -0.762363,0.762363 -0.421054,0 -0.762399,-0.341345 -0.762399,-0.762363 0,-0.421054 0.341345,-0.762399 0.762399,-0.762399zm0 0.108658c0.36102,0 0.653705,0.292685 0.653705,0.653741 0,0.36102 -0.292685,0.653705 -0.653705,0.653705 -0.361056,0 -0.653741,-0.292685 -0.653741,-0.653705 0,-0.361056 0.292685,-0.653741 0.653741,-0.653741z"/>
   <path id="_391960720" class="fil1" d="M0.61811 0.273298l0.0892443 0 0 0.153618 0.0731891 0.000864439 0 -0.154482 0.0892443 0 0 0.155545 0.0567018 0.000675343c0.101968,0.000342174 0.165756,0.0943499 0.163784,0.171582 -0.001972,0.0772322 -0.0230247,0.0919096 -0.0682456,0.12673 0.0874884,0.0387737 0.122678,0.0823288 0.120886,0.167683 -0.0017829,0.0853543 -0.0446266,0.195021 -0.210572,0.208627l-0.0625547 0.000747379 0 0.146558 -0.0892443 0 0 -0.145505 -0.0731891 0.000864439 0 0.14464 -0.0892443 0 0 -0.143578 -0.179065 0.00212508c0.00822117,-0.0421774 0.0116429,-0.0757284 0.0132277,-0.113088 0.0234029,0 0.043312,0 0.0667149,0 0.0207735,-0.00114358 0.0338302,-0.0013867 0.0358292,-0.0206835 0,-0.137392 0,-0.274783 0,-0.412175 -9.90503e-005,-0.0279322 -0.0151637,-0.0456892 -0.0452119,-0.0452119 -0.0248166,0 -0.0496422,0 -0.0744588,0 -0.000648329,-0.0317231 -0.00129666,-0.0634462 -0.00195399,-0.0951693l0.184918 0.00219711 0 -0.152564zm0.08865 0.254649c-0.000396201,0.0600965 -0.000801407,0.120193 -0.00119761,0.18028 0.210428,0.0111026 0.218262,-0.0605197 0.218757,-0.098609 0.000495251,-0.0380803 -0.015857,-0.0896045 -0.217559,-0.0816714zm0.000189096 0.265635c-0.000459233,0.0700646 -0.000918466,0.140129 -0.0013867,0.210194 0.245356,0.0129486 0.254487,-0.0705688 0.255063,-0.11497 0.000576292,-0.0444015 -0.0184954,-0.104471 -0.253677,-0.0952233z"/>
  </g>
 </g>
</svg>
