<?xml version="1.0" encoding="UTF-8"?>
<!DOCTYPE svg PUBLIC "-//W3C//DTD SVG 1.1//EN" "http://www.w3.org/Graphics/SVG/1.1/DTD/svg11.dtd">
<!-- Creator: CorelDRAW -->
<svg xmlns="http://www.w3.org/2000/svg" xml:space="preserve" width="16.9332mm" height="16.9332mm" style="shape-rendering:geometricPrecision; text-rendering:geometricPrecision; image-rendering:optimizeQuality; fill-rule:evenodd; clip-rule:evenodd"
viewBox="0 0 1.5394 1.5394"
 xmlns:xlink="http://www.w3.org/1999/xlink">
 <defs>
  <style type="text/css">
   <![CDATA[
    .fil3 {fill:#EBECEC}
    .fil1 {fill:#2299D6}
    .fil2 {fill:#273982}
    .fil0 {fill:#010101;fill-rule:nonzero}
   ]]>
  </style>
     <mask id="id0">
  <linearGradient id="id1" gradientUnits="userSpaceOnUse" x1="0.315594" y1="0.714643" x2="1.143" y2="0.700952">
   <stop offset="0" style="stop-opacity:1; stop-color:white"/>
   <stop offset="0.941176" style="stop-opacity:0.501961; stop-color:white"/>
   <stop offset="1" style="stop-opacity:0; stop-color:white"/>
  </linearGradient>
      <rect style="fill:url(#id1)" x="0.314176" y="0.228448" width="0.830244" height="0.9587"/>
     </mask>
 </defs>
<symbol id="Fm4-477-0" viewBox="21.9667 -10.3491 1.18659 1.67113">
 <polygon class="fil0" points="21.9667,-9.64849 21.9667,-8.67799 23.1533,-10.3491 "/>
</symbol>
<symbol id="Fm0-469-0" viewBox="20.7808 -11.113 2.37179 1.23999">
 <polygon class="fil0" points="21.9667,-11.113 20.7808,-10.574 21.9667,-9.87302 23.1526,-10.574 "/>
</symbol>
<symbol id="Fm1-471-0" viewBox="20.7808 -12.5417 1.18589 2.66866">
 <polygon class="fil0" points="20.7808,-10.574 21.9667,-9.87303 21.9667,-11.113 21.9667,-12.5417 "/>
</symbol>
<symbol id="Fm2-473-0" viewBox="21.9667 -12.5417 1.18589 2.66866">
 <polygon class="fil0" points="21.9667,-12.5417 21.9667,-11.113 21.9667,-9.87303 23.1526,-10.574 "/>
</symbol>
<symbol id="Fm3-475-0" viewBox="20.7808 -10.3491 1.18589 1.67113">
 <polygon class="fil0" points="20.7808,-10.3491 21.9667,-8.678 21.9667,-9.64851 "/>
</symbol>
 <g id="__x0023_Layer_x0020_1">
  <metadata id="CorelCorpID_0Corel-Layer"/>
  <g id="_394756352">
   <g>
    <path id="_393681024" class="fil1" d="M0.540232 1.2582c0.0380367,-0.238466 0.0667734,-0.496978 0.110565,-0.739034 0.00529096,-0.0334458 0.0127183,-0.0476096 0.0633824,-0.0470914 0.0953918,-0.00180911 0.139374,0.000100001 0.234766,-0.00170911 0.337094,-0.0193638 0.304176,0.299494 0.178174,0.434568 -0.0573278,0.0614551 -0.12201,0.0985555 -0.259457,0.09861 -0.0463277,0.000809099 -0.0575096,0.0185184 -0.0615824,0.0507096 -0.00982737,0.0687916 -0.0173547,0.126483 -0.0270275,0.193756 -0.00220911,0.015382 -0.00462732,0.0539914 -0.0376822,0.0534914 -0.0579551,-0.000600006 -0.121447,0.000772735 -0.179402,0.000163638 -0.0249821,-0.00081819 -0.0259912,-0.0142365 -0.0217366,-0.0434641z"/>
    <path id="_389584496" class="fil2" style="mask:url(#id0)" d="M0.32553 1.12542c0.0441822,-0.277048 0.0883827,-0.554105 0.132574,-0.831144 0.00612733,-0.0388731 0.0147729,-0.0553278 0.0736371,-0.0547187 0.110828,-0.00210911 0.161929,0.000109092 0.272757,-0.00200002 0.455041,-0.00137274 0.353413,0.347976 0.206993,0.504914 -0.0666006,0.0713916 -0.185402,0.0819917 -0.345094,0.0820553 -0.0538278,0.000954555 -0.0668006,0.0215002 -0.0715371,0.0589097 -0.0140365,0.0982009 -0.028073,0.196402 -0.0420731,0.294621 -0.0673552,-0.000718189 -0.134683,-0.0014182 -0.201993,-0.00212729 -0.0290457,-0.000954555 -0.0302185,-0.0165456 -0.0252639,-0.0505096z"/>
   </g>
   <path id="_394542848" class="fil3" d="M0.769717 0c0.425059,0 0.76968,0.344622 0.76968,0.769717 0,0.425059 -0.344622,0.76968 -0.76968,0.76968 -0.425095,0 -0.769717,-0.344622 -0.769717,-0.76968 0,-0.425095 0.344622,-0.769717 0.769717,-0.769717zm0 0.109701c0.364485,0 0.659979,0.295494 0.659979,0.660015 0,0.364485 -0.295494,0.659979 -0.659979,0.659979 -0.364522,0 -0.660015,-0.295494 -0.660015,-0.659979 0,-0.364522 0.295494,-0.660015 0.660015,-0.660015z"/>
  </g>
 </g>
</svg>
