<?xml version="1.0" encoding="UTF-8"?>
<!DOCTYPE svg PUBLIC "-//W3C//DTD SVG 1.1//EN" "http://www.w3.org/Graphics/SVG/1.1/DTD/svg11.dtd">
<!-- Creator: CorelDRAW X7 -->
<svg xmlns="http://www.w3.org/2000/svg" xml:space="preserve" width="16.9332mm" height="16.9332mm" version="1.1" style="shape-rendering:geometricPrecision; text-rendering:geometricPrecision; image-rendering:optimizeQuality; fill-rule:evenodd; clip-rule:evenodd"
viewBox="0 0 200 200"
 xmlns:xlink="http://www.w3.org/1999/xlink">
 <defs>
  <style type="text/css">
   <![CDATA[
    .fil1 {fill:#FEFEFE}
    .fil0 {fill:#898989}
   ]]>
  </style>
 </defs>
 <g id="Layer_x0020_1">
  <metadata id="CorelCorpID_0Corel-Layer"/>
  <circle id="_466879672" class="fil0" cx="100" cy="100" r="100"/>
  <g id="_1099544256">
   <path class="fil1" d="M138 66l0 -5c0,-4 -4,-8 -8,-8l-81 0c-5,0 -9,4 -9,8l0 5 98 0z"/>
   <path class="fil1" d="M40 78l0 39c0,4 4,8 9,8l81 0c4,0 8,-4 8,-8l0 -39 -98 0z"/>
   <path class="fil1" d="M159 83l0 -5c0,-4 -3,-8 -8,-8l-4 0 0 13 12 0z"/>
   <path class="fil1" d="M147 96l0 29c0,5 -4,9 -9,9l-77 0 0 4c0,5 4,9 9,9l81 0c5,0 8,-4 8,-9l0 -42 -12 0z"/>
  </g>
 </g>
</svg>
