<?xml version="1.0" encoding="UTF-8"?>
<!DOCTYPE svg PUBLIC "-//W3C//DTD SVG 1.1//EN" "http://www.w3.org/Graphics/SVG/1.1/DTD/svg11.dtd">
<!-- Creator: CorelDRAW -->
<svg xmlns="http://www.w3.org/2000/svg" xml:space="preserve" width="16.9332mm" height="16.9332mm" style="shape-rendering:geometricPrecision; text-rendering:geometricPrecision; image-rendering:optimizeQuality; fill-rule:evenodd; clip-rule:evenodd"
viewBox="0 0 0.927112 0.927112"
 xmlns:xlink="http://www.w3.org/1999/xlink">
 <defs>
  <style type="text/css">
   <![CDATA[
    .fil2 {fill:#10B8C0}
    .fil1 {fill:#901848}
    .fil0 {fill:#010101;fill-rule:nonzero}
   ]]>
  </style>
 </defs>
<symbol id="Fm4-477-0" viewBox="-0.336052 -5.97247 0.714634 1.00645">
 <polygon class="fil0" points="-0.336052,-5.55051 -0.336052,-4.96602 0.378582,-5.97247 "/>
</symbol>
<symbol id="Fm0-469-0" viewBox="-1.05026 -6.43253 1.42843 0.746795">
 <polygon class="fil0" points="-0.336052,-6.43253 -1.05026,-6.1079 -0.336052,-5.68573 0.378161,-6.1079 "/>
</symbol>
<symbol id="Fm1-471-0" viewBox="-1.05026 -7.29296 0.714213 1.60722">
 <polygon class="fil0" points="-1.05026,-6.1079 -0.336046,-5.68574 -0.336046,-6.43253 -0.336046,-7.29296 "/>
</symbol>
<symbol id="Fm2-473-0" viewBox="-0.336052 -7.29296 0.714213 1.60722">
 <polygon class="fil0" points="-0.336052,-7.29296 -0.336052,-6.43253 -0.336052,-5.68574 0.378161,-6.1079 "/>
</symbol>
<symbol id="Fm3-475-0" viewBox="-1.05026 -5.97247 0.714213 1.00645">
 <polygon class="fil0" points="-1.05026,-5.97247 -0.336046,-4.96602 -0.336046,-5.55052 "/>
</symbol>
 <g id="__x0023_Layer_x0020_1">
  <metadata id="CorelCorpID_0Corel-Layer"/>
  <g id="_394610608">
   <circle id="_394607800" class="fil1" cx="0.463556" cy="0.463556" r="0.463559"/>
   <path id="_391020192" class="fil2" d="M0.722683 0.411915c0.021342,0.0011881 0.0426895,0.00237073 0.0640315,0.00355883 0.024315,0.00672344 0.0238441,0.0225356 0.00711765,0.0409101 -0.104586,0.114862 -0.171672,0.0966577 -0.222344,0.0907172l-0.000333982 -0.000208054c0.0219826,0.109453 -0.0260397,0.24177 -0.178177,0.258234 -0.162069,0.0175368 -0.243714,-0.183778 -0.115618,-0.268587 0.0691781,-0.0457994 0.162819,0.00415561 0.131627,0.074708 -0.0204824,0.046325 -0.048838,0.0382984 -0.0839171,0.0361248 -0.0474857,-0.00295109 -0.00965811,0.0629912 0.0465604,0.0688167 0.0760822,0.00788964 0.142818,-0.0719868 0.11028,-0.154749 -0.0209204,-0.0532181 -0.128063,-0.158412 -0.277479,-0.0462428 -0.0213475,-0.0011881 -0.0426895,-0.00237073 -0.0640315,-0.00355883 -0.0243205,-0.00672344 -0.0238441,-0.0225356 -0.00711765,-0.0409101 0.0952068,-0.104564 0.170369,-0.101996 0.221321,-0.0980867 -0.020362,-0.0984754 0.021019,-0.233503 0.179535,-0.250656 0.162069,-0.0175423 0.243708,0.183778 0.115618,0.268587 -0.0691781,0.0457994 -0.162824,-0.00415561 -0.131627,-0.074708 0.0204824,-0.046325 0.048838,-0.0382984 0.0839171,-0.0361248 0.0474857,0.00295109 0.00965811,-0.0629912 -0.0465604,-0.0688167 -0.0760822,-0.00788964 -0.142818,0.0719868 -0.110285,0.154749 0.0209259,0.0532181 0.128063,0.158412 0.277484,0.0462428z"/>
  </g>
 </g>
</svg>
