<?xml version="1.0" encoding="UTF-8"?>
<!DOCTYPE svg PUBLIC "-//W3C//DTD SVG 1.1//EN" "http://www.w3.org/Graphics/SVG/1.1/DTD/svg11.dtd">
<!-- Creator: CorelDRAW -->
<svg xmlns="http://www.w3.org/2000/svg" xml:space="preserve" width="16.9332mm" height="16.9332mm" style="shape-rendering:geometricPrecision; text-rendering:geometricPrecision; image-rendering:optimizeQuality; fill-rule:evenodd; clip-rule:evenodd"
viewBox="0 0 0.943601 0.943601"
 xmlns:xlink="http://www.w3.org/1999/xlink">
 <defs>
  <style type="text/css">
   <![CDATA[
    .fil2 {fill:#FEFEFE}
    .fil1 {fill:#005031}
    .fil0 {fill:#010101;fill-rule:nonzero}
   ]]>
  </style>
 </defs>
<symbol id="Fm4-477-0" viewBox="-0.191449 0.552886 0.727344 1.02435">
 <polygon class="fil0" points="-0.191449,0.982347 -0.191449,1.57723 0.535895,0.552886 "/>
</symbol>
<symbol id="Fm0-469-0" viewBox="-0.918363 0.0846406 1.45383 0.760077">
 <polygon class="fil0" points="-0.191449,0.0846406 -0.918363,0.415045 -0.191449,0.844717 0.535466,0.415045 "/>
</symbol>
<symbol id="Fm1-471-0" viewBox="-0.918358 -0.791093 0.726915 1.63581">
 <polygon class="fil0" points="-0.918358,0.415039 -0.191443,0.844712 -0.191443,0.084635 -0.191443,-0.791093 "/>
</symbol>
<symbol id="Fm2-473-0" viewBox="-0.191449 -0.791093 0.726915 1.63581">
 <polygon class="fil0" points="-0.191449,-0.791093 -0.191449,0.084635 -0.191449,0.844712 0.535466,0.415039 "/>
</symbol>
<symbol id="Fm3-475-0" viewBox="-0.918358 0.55288 0.726915 1.02435">
 <polygon class="fil0" points="-0.918358,0.55288 -0.191443,1.57723 -0.191443,0.982336 "/>
</symbol>
 <g id="__x0023_Layer_x0020_1">
  <metadata id="CorelCorpID_0Corel-Layer"/>
  <g id="_401089152">
   <circle id="_391747496" class="fil1" cx="0.471801" cy="0.471801" r="0.471803"/>
   <g>
    <path id="_394606696" class="fil2" d="M0.792715 0.14172l-0.472224 0c-0.106184,-0.00254106 -0.169092,0.0381939 -0.169632,0.141291l0 0.518977 0.473885 0c0.121597,0 0.169454,-0.0567726 0.167972,-0.168769l0 -0.491499zm-0.030136 0.0309998l-0.427878 0c-0.0962091,-0.00230701 -0.15321,0.0346052 -0.1537,0.128022l0 0.470235 0.429377 0c0.110179,0 0.153539,-0.0514397 0.152201,-0.15292l0 -0.445337z"/>
    <path id="_394608328" class="fil2" d="M0.3582 0.265841c-0.00567837,-0.00516013 -0.0113567,-0.0103203 -0.0170351,-0.015486 -0.103609,0.0387288 -0.126005,0.115473 -0.124679,0.173461 0.00164389,0.0716734 0.0650421,0.116142 0.140165,0.0751172 0.112297,-0.0613364 0.123018,-0.20256 0.0766608,-0.236959 0.00981316,-0.00103648 0.0196207,-0.00206739 0.0294283,-0.00309831 0.0143993,0.0316908 0.0587898,0.0954568 -0.0487872,0.216051 -0.0656217,0.0735625 -0.106596,0.134604 -0.127565,0.214502l0.162221 0c-0.0443348,-0.0437496 -0.0443125,-0.10946 -0.00838103,-0.160298 0.0480405,-0.0679565 0.154013,-0.0711217 0.160298,0.0193588 0.00376143,0.0541423 -0.0430754,0.111951 -0.0991179,0.126228 0.00567837,0.00516013 0.0113567,0.0103258 0.0170351,0.015486 0.103609,-0.0387288 0.126,-0.115473 0.124673,-0.173461 -0.00163831,-0.0716734 -0.0650421,-0.116142 -0.140159,-0.0751172 -0.112302,0.0613364 -0.131656,0.19414 -0.0853037,0.228539 -0.00980759,0.00103091 -0.0163943,-0.000785721 -0.0262019,0.00024519 -0.0143993,-0.0316908 -0.0487314,-0.087282 0.0541981,-0.204778 0.00539975,-0.00616318 0.0106379,-0.0122372 0.01572,-0.0182332 0.0536464,-0.0352014 0.106596,-0.0475891 0.126819,-0.0359704 0.0573855,0.0329557 0.0930996,0.0329836 0.0859557,-0.00154915 0.0453657,-0.000601829 0.0643289,-0.0142544 0.0487872,-0.0333012 0.05227,-0.0575806 0.0098243,-0.0622057 -0.020908,-0.0379431 -0.0135356,-0.0257839 -0.0371685,-0.00699348 -0.0557528,0.00697119 0.00396204,-0.0436995 -0.062345,-0.01207 -0.0836375,0.0309719 0.0540476,-0.00167175 0.107789,0.0119084 0.141714,-0.0185843 0.0072331,-0.00649753 0.0119419,0.00134297 0.00774576,0.00464746 -0.0129449,0.0101865 -0.0316796,0.0235048 -0.0463408,0.0254886 -0.0589403,0.00798538 -0.112191,-0.0172134 -0.172853,0.0202003l-5.57249e-006 1.1145e-005c0.0385449,-0.050654 0.0649697,-0.0987223 0.0803219,-0.157211l-0.162215 0c0.0445688,0.0440227 0.0493946,0.115635 0.00837546,0.160298 -0.0638663,0.0695391 -0.154007,0.0711217 -0.160298,-0.0193588 -0.00376143,-0.0541368 0.0430754,-0.111951 0.0991235,-0.126228zm0.0381994 0.422016c-0.000640837,-0.000105877 -0.0012761,-0.000217327 -0.00190579,-0.000328777 0.000629692,0.00011145 0.00126496,0.0002229 0.00190579,0.000328777z"/>
   </g>
  </g>
 </g>
</svg>
