<svg width="255" height="255" viewBox="0 0 255 255" fill="none" xmlns="http://www.w3.org/2000/svg">
<path fill-rule="evenodd" clip-rule="evenodd" d="M127.5 2.18564C196.714 2.18564 252.814 59.0142 252.814 127.5C252.814 196.714 195.985 252.814 127.5 252.814C58.2854 253.543 1.45679 197.443 1.45679 127.5C1.45679 59.0142 58.2854 2.18564 127.5 2.18564Z" fill="#F91F2B"/>
<path fill-rule="evenodd" clip-rule="evenodd" d="M222.943 83.7857H224.4C223.671 87.4286 222.214 89.6143 220.029 91.8C217.114 93.2571 214.2 93.9857 209.1 93.9857H204.729C188.7 93.2571 185.057 110.014 186.514 123.129C187.971 131.143 190.886 139.157 195.257 144.986C199.629 149.357 205.457 152.271 211.286 147.9C215.657 144.257 217.114 135.514 217.114 131.143C217.114 122.4 214.2 109.286 203.271 109.286C200.357 109.286 197.443 110.743 194.529 113.657C193.071 115.843 192.343 120.214 192.343 125.314H190.157C188.7 115.114 193.8 106.371 204.729 105.643C217.843 105.643 225.857 115.843 225.857 128.957C225.857 142.071 217.843 154.457 204.729 154.457C197.443 154.457 192.343 152.271 187.971 146.443C183.6 141.343 182.143 133.329 182.143 123.129C182.143 110.014 184.329 102 187.971 96.1714C192.343 90.3428 197.443 87.4286 205.457 87.4286H212.014C216.386 88.1571 219.3 87.4286 220.757 86.7C221.486 85.9714 222.943 85.2428 222.943 83.7857Z" fill="white"/>
<path fill-rule="evenodd" clip-rule="evenodd" d="M131.143 105.643L147.171 141.343L161.743 108.557L163.2 105.643H175.586V107.1H174.129C172.671 107.1 170.486 108.557 170.486 110.743V137.7V148.629C170.486 150.814 171.943 152.271 174.129 152.271H175.586V153H167.571H158.829V151.543H160.286C161.743 151.543 163.929 150.086 163.929 147.9V136.971V112.929L145.714 153H144.986L127.5 112.2V147.9C127.5 150.086 128.957 151.543 130.414 151.543H131.143V153H123.129H118.757V151.543H120.214C121.671 151.543 123.857 150.086 123.857 147.9V110.743C123.857 108.557 123.129 107.1 120.214 107.1C118.029 107.1 115.843 109.286 114.386 112.2L97.6286 149.357C96.1714 152.271 93.9857 153.729 91.0714 153.729L87.4286 153L86.7 147.9C88.1571 149.357 89.6143 150.086 90.3429 150.086C92.5286 150.814 93.9857 150.086 94.7143 148.629L96.9 144.257L81.6 112.929C80.1429 110.014 78.6857 107.829 76.5 107.829V106.371H85.2429H91.8V107.829H90.3429C88.8857 107.829 88.8857 110.014 89.6143 111.471L101.271 136.243L112.2 112.929C113.657 110.743 112.2 108.557 110.743 108.557V107.1H131.143V105.643Z" fill="white"/>
<path fill-rule="evenodd" clip-rule="evenodd" d="M61.9279 137.7V110.743V109.285H40.0707V111.471V138.428V149.357C40.0707 151.543 41.5279 153 42.985 153H44.4421H36.4279H28.4136V151.543H29.1421C30.5993 151.543 32.0564 150.085 32.0564 147.9V136.971V110.014C32.0564 107.828 30.5993 106.371 29.1421 106.371H28.4136V104.914H36.4279H37.885H45.1707H57.5564H63.385H65.5707H73.585V106.371H72.8564C71.3993 106.371 69.9421 107.828 69.9421 110.014V136.971V147.9C69.9421 150.085 71.3993 151.543 72.8564 151.543H74.3136V153H66.2993H57.5564V151.543H59.0136C60.4707 151.543 61.9279 150.085 61.9279 147.9V137.7Z" fill="white"/>
</svg>
