<?xml version="1.0" standalone="no"?>
<!DOCTYPE svg PUBLIC "-//W3C//DTD SVG 20010904//EN"
 "http://www.w3.org/TR/2001/REC-SVG-20010904/DTD/svg10.dtd">
<svg version="1.0" xmlns="http://www.w3.org/2000/svg"
 width="246.000000pt" height="246.000000pt" viewBox="0 0 246.000000 246.000000"
 preserveAspectRatio="xMidYMid meet">

<g transform="translate(0.000000,246.000000) scale(0.100000,-0.100000)"
fill="#000000" stroke="none">
<path d="M482 2449 c-216 -32 -386 -181 -449 -395 -16 -53 -18 -131 -21 -792
-3 -813 -2 -831 59 -959 64 -134 205 -246 359 -284 80 -20 1527 -20 1615 -1
193 44 350 194 400 383 12 45 15 189 15 829 0 496 -4 791 -11 820 -31 134
-152 287 -273 343 -134 63 -102 61 -901 63 -406 1 -758 -2 -793 -7z m179
-1075 l22 -23 33 25 c48 37 116 37 152 0 27 -26 27 -28 27 -169 l0 -142 -42
-3 -43 -3 0 105 c0 132 -8 156 -52 156 -62 -1 -68 -14 -68 -144 l0 -116 -45 0
-45 0 0 111 c0 127 -8 149 -52 149 -59 0 -68 -19 -68 -147 l0 -113 -45 0 -45
0 0 170 0 170 45 0 c39 0 45 -3 45 -21 0 -18 2 -19 15 -9 24 20 83 37 114 32
16 -2 39 -15 52 -28z m576 1 c97 -57 97 -234 1 -293 -78 -48 -178 -34 -237 34
-34 38 -46 86 -38 146 16 120 161 180 274 113z m426 -6 c27 -29 27 -30 27
-169 l0 -140 -45 0 -45 0 0 118 c0 131 -5 142 -58 142 -68 0 -72 -7 -72 -140
l0 -120 -45 0 -45 0 0 170 0 170 41 0 c33 0 42 -4 46 -20 4 -16 8 -18 19 -9
25 20 88 37 119 32 17 -3 42 -18 58 -34z m353 16 c72 -29 112 -134 85 -218
-26 -78 -127 -130 -209 -108 -90 24 -132 79 -132 174 0 132 124 205 256 152z"/>
<path d="M1080 1300 c-54 -54 -27 -152 47 -166 27 -5 37 -1 64 25 28 29 31 37
26 77 -2 25 -13 54 -22 64 -24 27 -88 27 -115 0z"/>
<path d="M1871 1294 c-41 -53 -17 -143 43 -158 84 -21 139 101 75 165 -30 30
-92 26 -118 -7z"/>
</g>
</svg>
