<?xml version="1.0" encoding="UTF-8"?>
<!DOCTYPE svg PUBLIC "-//W3C//DTD SVG 1.1//EN" "http://www.w3.org/Graphics/SVG/1.1/DTD/svg11.dtd">
<!-- Creator: CorelDRAW -->
<svg xmlns="http://www.w3.org/2000/svg" xml:space="preserve" width="17.0318mm" height="17.0314mm" style="shape-rendering:geometricPrecision; text-rendering:geometricPrecision; image-rendering:optimizeQuality; fill-rule:evenodd; clip-rule:evenodd"
viewBox="0 0 1.40879 1.40875"
 xmlns:xlink="http://www.w3.org/1999/xlink">
 <defs>
  <style type="text/css">
   <![CDATA[
    .str0 {stroke:#655C4B;stroke-width:0.00630289}
    .fil4 {fill:none;fill-rule:nonzero}
    .fil3 {fill:#FEFEFE;fill-rule:nonzero}
    .fil0 {fill:#010101;fill-rule:nonzero}
    .fil1 {fill:#655C4B;fill-rule:nonzero}
    .fil2 {fill:#DDDFDC;fill-rule:nonzero}
   ]]>
  </style>
 </defs>
<symbol id="Fm4-477-0" viewBox="3.76729 -8.73479 1.07963 1.52049">
 <polygon class="fil0" points="3.76729,-8.09732 3.76729,-7.2143 4.84692,-8.73479 "/>
</symbol>
<symbol id="Fm0-469-0" viewBox="2.6883 -9.42983 2.15799 1.12822">
 <polygon class="fil0" points="3.76729,-9.42983 2.6883,-8.93939 3.76729,-8.30161 4.84629,-8.93939 "/>
</symbol>
<symbol id="Fm1-471-0" viewBox="2.68831 -10.7297 1.07899 2.4281">
 <polygon class="fil0" points="2.68831,-8.9394 3.7673,-8.30162 3.7673,-9.42984 3.7673,-10.7297 "/>
</symbol>
<symbol id="Fm2-473-0" viewBox="3.76729 -10.7297 1.07899 2.4281">
 <polygon class="fil0" points="3.76729,-10.7297 3.76729,-9.42984 3.76729,-8.30162 4.84629,-8.9394 "/>
</symbol>
<symbol id="Fm3-475-0" viewBox="2.68831 -8.7348 1.07899 1.52049">
 <polygon class="fil0" points="2.68831,-8.7348 3.7673,-7.21431 3.7673,-8.09734 "/>
</symbol>
 <g id="__x0023_Layer_x0020_1">
  <metadata id="CorelCorpID_0Corel-Layer"/>
  <g id="_78948032">
   <path id="_389591864" class="fil1" d="M0.704394 0.0445338c-0.364377,0 -0.659785,0.295409 -0.659785,0.659678 0,0.364509 0.295409,0.660083 0.659785,0.660083 0.364492,0 0.659942,-0.295574 0.659942,-0.660083 0,-0.255399 -0.145537,-0.476513 -0.358032,-0.586152 -0.00196862,-0.00183628 -0.00366428,-0.00345749 -0.00579833,-0.00535994 0,0 -0.000124073,0.00098431 -0.000124073,0.00248145 -0.025865,-0.0130773 -0.0528549,-0.0243844 -0.0805562,-0.0339876 0.00213405,-0.00897459 0.00495463,-0.0222586 0.00608783,-0.0320686 0.00126554,-0.0120102 -0.00833768,-0.0245829 -0.0281066,-0.0198516 -0.0137142,0.00302737 -0.0488846,0.0153188 -0.0796877,0.0257079 -0.0370067,-0.00642696 -0.0748737,-0.0104469 -0.113725,-0.0104469z"/>
   <g>
    <path id="_389591960" class="fil2" d="M0.0486696 0.704212l-0.00810608 0 0 0 0.000860237 -0.0341448 0.00256417 -0.0336981 0.00421847 -0.0332184 0.00584796 -0.0326807 0.007403 -0.03211 0.00894977 -0.0314979 0.0104386 -0.0308445 0.0118862 -0.0301331 0.0132923 -0.0294052 0.0146571 -0.0286194 0.0159888 -0.0278005 0.0172709 -0.0269155 0.0185034 -0.0260304 0.019711 -0.0250709 0.0208607 -0.0240866 0.0219774 -0.0230527 0.0230527 -0.0219774 0.0240866 -0.0208607 0.0250792 -0.019711 0.0260304 -0.0184951 0.0269238 -0.0172709 0.0278088 -0.0159888 0.0286194 -0.0146571 0.0294052 -0.0133006 0.0301579 -0.0118779 0.0308362 -0.0104386 0.0315062 -0.00894977 0.0321183 -0.007403 0.032689 -0.00584796 0.0332267 -0.00421847 0.0336981 -0.00256417 0.0341613 -0.000860237 0 0.00810608 -0.0337478 0.000860237 -0.0333011 0.00253108 -0.0328131 0.00416884 -0.032292 0.00576524 -0.0317212 0.00732029 -0.0311091 0.00883397 -0.0304722 0.0103063 -0.0297774 0.0117455 -0.0290413 0.0131352 -0.028272 0.0144751 -0.0274614 0.0157903 -0.0266094 0.0170559 -0.0256996 0.01828 -0.0247814 0.0194629 -0.0237889 0.0206126 -0.0227715 0.0217127 -0.0217127 0.0227715 -0.0206126 0.0237889 -0.0194629 0.0247732 -0.0182883 0.0256996 -0.0170559 0.0266012 -0.0157903 0.0274531 -0.0144751 0.028272 -0.0131434 0.0290413 -0.0117373 0.0297692 -0.0103063 0.030464 -0.00883397 0.0311009 -0.00732029 0.031713 -0.00576524 0.0322837 -0.00416884 0.0328048 -0.00253108 0.0333011 -0.000860237 0.0337312 0 0zm-0.00810608 0l0.00810608 0 -8.27151e-006 0.000206788 -1.6543e-005 0.000206788 -2.48145e-005 0.000198516 -3.3086e-005 0.000206788 -4.13575e-005 0.000190245 -5.79006e-005 0.000190245 -6.61721e-005 0.000190245 -7.44436e-005 0.000181973 -7.44436e-005 0.000181973 -9.09866e-005 0.000173702 -9.92581e-005 0.000173702 -0.00010753 0.00016543 -0.000115801 0.000157159 -0.000115801 0.000148887 -0.000132344 0.000148887 -0.000132344 0.000140616 -0.000140616 0.000132344 -0.000148887 0.000132344 -0.000148887 0.000115801 -0.000157159 0.000115801 -0.00016543 0.00010753 -0.000173702 9.92581e-005 -0.000173702 9.09866e-005 -0.000181973 7.44436e-005 -0.000181973 7.44436e-005 -0.000190245 6.61721e-005 -0.000190245 5.79006e-005 -0.000190245 4.13575e-005 -0.000206788 3.3086e-005 -0.000198516 2.48145e-005 -0.000206788 1.6543e-005 -0.000206788 8.27151e-006 -0.000206788 -8.27151e-006 -0.000206788 -1.6543e-005 -0.000198516 -2.48145e-005 -0.000206788 -3.3086e-005 -0.000190245 -4.13575e-005 -0.000190245 -5.79006e-005 -0.000190245 -6.61721e-005 -0.000181973 -7.44436e-005 -0.000181973 -7.44436e-005 -0.000173702 -9.09866e-005 -0.000173702 -9.92581e-005 -0.00016543 -0.00010753 -0.000157159 -0.000115801 -0.000148887 -0.000115801 -0.000148887 -0.000132344 -0.000140616 -0.000132344 -0.000132344 -0.000140616 -0.000132344 -0.000148887 -0.000115801 -0.000148887 -0.000115801 -0.000157159 -0.00010753 -0.00016543 -9.92581e-005 -0.000173702 -9.09866e-005 -0.000173702 -7.44436e-005 -0.000181973 -7.44436e-005 -0.000181973 -6.61721e-005 -0.000190245 -5.79006e-005 -0.000190245 -4.13575e-005 -0.000190245 -3.3086e-005 -0.000206788 -2.48145e-005 -0.000198516 -1.6543e-005 -0.000206788 -8.27151e-006 -0.000206788zm0.66383 0.65603l0 0.00810608 0 0 -0.0341613 -0.000860237 -0.0336981 -0.00256417 -0.0332267 -0.00422674 -0.032689 -0.00584796 -0.0321183 -0.00741127 -0.0315062 -0.00894977 -0.0308445 -0.0104469 -0.0301497 -0.0118944 -0.0294052 -0.0132923 -0.0286194 -0.0146737 -0.0278088 -0.0159888 -0.026932 -0.0172792 -0.0260222 -0.0185116 -0.0250792 -0.0197276 -0.0240866 -0.020869 -0.0230527 -0.0219939 -0.0219774 -0.023061 -0.0208607 -0.0241032 -0.019711 -0.0250875 -0.0185034 -0.0260387 -0.0172709 -0.0269486 -0.0159888 -0.0278088 -0.0146571 -0.028636 -0.0133006 -0.0294218 -0.0118779 -0.0301662 -0.0104386 -0.0308527 -0.00894977 -0.0315145 -0.007403 -0.0321348 -0.00584796 -0.0326973 -0.00421847 -0.0332432 -0.00256417 -0.0337147 -0.000860237 -0.0341696 0.00810608 0 0.000860237 0.033756 0.00253108 0.0333176 0.00416884 0.0328296 0.00576524 0.0323002 0.00732029 0.0317378 0.00883397 0.031134 0.0103063 0.0304722 0.0117455 0.0297857 0.0131352 0.0290578 0.0144751 0.0282886 0.0157903 0.027478 0.0170559 0.0266177 0.0182883 0.0257079 0.0194629 0.0247897 0.0206126 0.0238054 0.0217127 0.0227797 0.0227715 0.0217293 0.0237889 0.0206209 0.0247814 0.0194794 0.0257079 0.0182966 0.0266012 0.0170641 0.0274614 0.0157903 0.028272 0.0144917 0.0290413 0.0131434 0.0297857 0.0117455 0.030464 0.0103146 0.0311091 0.00883397 0.0317212 0.00732856 0.032292 0.00576524 0.0328131 0.00417711 0.0333011 0.00253108 0.0337478 0.000860237 0 0zm0 0.00810608l0 -0.00810608 0.000206788 8.27151e-006 0.000206788 1.6543e-005 0.000198516 2.48145e-005 0.000206788 3.3086e-005 0.000190245 4.13575e-005 0.000190245 5.79006e-005 0.000190245 6.61721e-005 0.000181973 7.44436e-005 0.000181973 7.44436e-005 0.000173702 9.09866e-005 0.000173702 9.92581e-005 0.00016543 0.00010753 0.000157159 0.000115801 0.000148887 0.000115801 0.000148887 0.000132344 0.000140616 0.000132344 0.000132344 0.000140616 0.000132344 0.000148887 0.000115801 0.000148887 0.000115801 0.000157159 0.00010753 0.00016543 9.92581e-005 0.000173702 9.09866e-005 0.000173702 7.44436e-005 0.000181973 7.44436e-005 0.000181973 6.61721e-005 0.000190245 5.79006e-005 0.000190245 4.13575e-005 0.000190245 3.3086e-005 0.000206788 2.48145e-005 0.000198516 1.6543e-005 0.000206788 8.27151e-006 0.000206788 -8.27151e-006 0.000206788 -1.6543e-005 0.000206788 -2.48145e-005 0.000198516 -3.3086e-005 0.000206788 -4.13575e-005 0.000190245 -5.79006e-005 0.000190245 -6.61721e-005 0.000190245 -7.44436e-005 0.000181973 -7.44436e-005 0.000181973 -9.09866e-005 0.000173702 -9.92581e-005 0.000173702 -0.00010753 0.00016543 -0.000115801 0.000157159 -0.000115801 0.000148887 -0.000132344 0.000148887 -0.000132344 0.000140616 -0.000140616 0.000132344 -0.000148887 0.000132344 -0.000148887 0.000115801 -0.000157159 0.000115801 -0.00016543 0.00010753 -0.000173702 9.92581e-005 -0.000173702 9.09866e-005 -0.000181973 7.44436e-005 -0.000181973 7.44436e-005 -0.000190245 6.61721e-005 -0.000190245 5.79006e-005 -0.000190245 4.13575e-005 -0.000206788 3.3086e-005 -0.000198516 2.48145e-005 -0.000206788 1.6543e-005 -0.000206788 8.27151e-006zm0.655889 -0.664136l0.00810608 0 0 0 -0.000860237 0.0341696 -0.00256417 0.0337147 -0.00421847 0.0332432 -0.00584796 0.0326973 -0.00741127 0.0321348 -0.00894977 0.0315145 -0.0104386 0.0308527 -0.0118862 0.0301662 -0.0132923 0.0294218 -0.0146654 0.028636 -0.0159888 0.0278171 -0.0172792 0.0269403 -0.0185034 0.0260387 -0.019711 0.0250875 -0.020869 0.0241032 -0.0219857 0.023061 -0.023061 0.0219939 -0.0240949 0.020869 -0.0250792 0.0197276 -0.0260387 0.0185116 -0.026932 0.0172792 -0.0278088 0.0159888 -0.0286277 0.0146737 -0.0294135 0.0132923 -0.0301497 0.0118944 -0.030861 0.0104469 -0.0315145 0.00894977 -0.0321265 0.00741127 -0.0326973 0.00584796 -0.0332349 0.00422674 -0.0337147 0.00256417 -0.0341696 0.000860237 0 -0.00810608 0.033756 -0.000860237 0.0333176 -0.00253108 0.0328214 -0.00417711 0.0323002 -0.00576524 0.0317295 -0.00732856 0.0311174 -0.00883397 0.0304805 -0.0103146 0.0297857 -0.0117455 0.0290495 -0.0131434 0.0282803 -0.0144917 0.0274614 -0.0157903 0.0266177 -0.0170641 0.0257079 -0.0182966 0.0247814 -0.0194794 0.0237971 -0.0206209 0.0227797 -0.0217293 0.021721 -0.0227797 0.0206209 -0.0238054 0.0194629 -0.0247897 0.0182883 -0.0257079 0.0170641 -0.026626 0.0157903 -0.0274697 0.0144834 -0.0282886 0.0131269 -0.0290578 0.0117538 -0.0297857 0.0103063 -0.0304722 0.00883397 -0.031134 0.00732856 -0.0317378 0.00576524 -0.0323002 0.00416884 -0.0328296 0.00253108 -0.0333176 0.000860237 -0.033756 0 0zm0.00810608 0l-0.00810608 0 8.27151e-006 -0.000206788 1.6543e-005 -0.000206788 2.48145e-005 -0.000198516 3.3086e-005 -0.000206788 4.13575e-005 -0.000190245 5.79006e-005 -0.000190245 6.61721e-005 -0.000190245 7.44436e-005 -0.000181973 7.44436e-005 -0.000181973 9.09866e-005 -0.000173702 9.92581e-005 -0.000173702 0.00010753 -0.00016543 0.000115801 -0.000157159 0.000115801 -0.000148887 0.000132344 -0.000148887 0.000132344 -0.000140616 0.000140616 -0.000132344 0.000148887 -0.000132344 0.000148887 -0.000115801 0.000157159 -0.000115801 0.00016543 -0.00010753 0.000173702 -9.92581e-005 0.000173702 -9.09866e-005 0.000181973 -7.44436e-005 0.000181973 -7.44436e-005 0.000190245 -6.61721e-005 0.000190245 -5.79006e-005 0.000190245 -4.13575e-005 0.000206788 -3.3086e-005 0.000198516 -2.48145e-005 0.000206788 -1.6543e-005 0.000206788 -8.27151e-006 0.000206788 8.27151e-006 0.000206788 1.6543e-005 0.000198516 2.48145e-005 0.000206788 3.3086e-005 0.000190245 4.13575e-005 0.000190245 5.79006e-005 0.000190245 6.61721e-005 0.000181973 7.44436e-005 0.000181973 7.44436e-005 0.000173702 9.09866e-005 0.000173702 9.92581e-005 0.00016543 0.00010753 0.000157159 0.000115801 0.000148887 0.000115801 0.000148887 0.000132344 0.000140616 0.000132344 0.000132344 0.000140616 0.000132344 0.000148887 0.000115801 0.000148887 0.000115801 0.000157159 0.00010753 0.00016543 9.92581e-005 0.000173702 9.09866e-005 0.000173702 7.44436e-005 0.000181973 7.44436e-005 0.000181973 6.61721e-005 0.000190245 5.79006e-005 0.000190245 4.13575e-005 0.000190245 3.3086e-005 0.000206788 2.48145e-005 0.000198516 1.6543e-005 0.000206788 8.27151e-006 0.000206788zm-0.364848 -0.583183l0.00552537 -0.0059224 -0.000901595 -0.000645178 0.0198351 0.0106702 0.0194463 0.0113072 0.0190079 0.0119358 0.0185695 0.0125644 0.0181229 0.0131434 0.0176514 0.013739 0.0171717 0.014318 0.0166671 0.0148722 0.0161708 0.0154098 0.0156414 0.0159392 0.0150955 0.0164603 0.0145413 0.0169566 0.0139871 0.0174446 0.0133916 0.0179161 0.012796 0.0183793 0.0121839 0.0188177 0.0115553 0.0192478 0.0109267 0.0196614 0.0102567 0.0200667 0.00959495 0.0204472 0.00891669 0.0208359 0.00820534 0.0211833 0.00750226 0.0215307 0.0067661 0.0218533 0.00602993 0.0221842 0.00526895 0.0224737 0.00450797 0.0227632 0.00370564 0.0230444 0.00291157 0.0232926 0.00210096 0.0235324 0.00127381 0.0237806 0.000421847 0.0239791 -0.00810608 0 -0.000421847 -0.0236979 -0.00125727 -0.0234828 -0.00206788 -0.0232512 -0.00287849 -0.0230113 -0.00367255 -0.0227467 -0.0044418 -0.0224985 -0.00520278 -0.0221925 -0.00596376 -0.021903 -0.00668338 -0.0215886 -0.007403 -0.0212661 -0.00810608 -0.0209186 -0.00880089 -0.0205712 -0.00947915 -0.020199 -0.0101409 -0.0198185 -0.0107778 -0.0194298 -0.011423 -0.0190162 -0.012035 -0.0185861 -0.0126471 -0.0181477 -0.0132261 -0.017701 -0.0138052 -0.0172296 -0.0143759 -0.0167581 -0.0149135 -0.0162618 -0.0154429 -0.0157407 -0.0159723 -0.0152278 -0.0164686 -0.0146902 -0.0169731 -0.014136 -0.0174363 -0.0135735 -0.0178913 -0.0129945 -0.0183545 -0.012399 -0.0187763 -0.0117869 -0.0191982 -0.0111748 -0.0196035 -0.0105379 -0.000901595 -0.000645178zm0.00462377 -0.00656758l-0.00372218 0.00721276 -0.000181973 -9.92581e-005 -0.000173702 -0.00010753 -0.000173702 -0.000115801 -0.000157159 -0.000124073 -0.000157159 -0.000132344 -0.000140616 -0.000132344 -0.000140616 -0.000148887 -0.000132344 -0.000148887 -0.000115801 -0.000157159 -0.000115801 -0.000157159 -0.00010753 -0.00016543 -9.92581e-005 -0.00016543 -9.09866e-005 -0.000173702 -8.27151e-005 -0.000181973 -6.61721e-005 -0.000181973 -6.61721e-005 -0.000181973 -5.79006e-005 -0.000190245 -4.13575e-005 -0.000190245 -4.13575e-005 -0.000190245 -2.48145e-005 -0.000190245 -1.6543e-005 -0.000198516 -8.27151e-006 -0.000190245 0 -0.000198516 8.27151e-006 -0.000198516 1.6543e-005 -0.000198516 3.3086e-005 -0.000198516 4.13575e-005 -0.000190245 4.96291e-005 -0.000198516 5.79006e-005 -0.000190245 6.61721e-005 -0.000190245 8.27151e-005 -0.000190245 9.09866e-005 -0.000190245 9.92581e-005 -0.000181973 0.00010753 -0.000173702 0.000115801 -0.000173702 0.000124073 -0.000157159 0.000132344 -0.000157159 0.000132344 -0.000140616 0.000148887 -0.000140616 0.000148887 -0.000132344 0.000157159 -0.000115801 0.000157159 -0.000115801 0.00016543 -0.00010753 0.00016543 -9.92581e-005 0.000173702 -9.09866e-005 0.000181973 -8.27151e-005 0.000181973 -6.61721e-005 0.000181973 -6.61721e-005 0.000190245 -5.79006e-005 0.000190245 -4.13575e-005 0.000190245 -4.13575e-005 0.000190245 -2.48145e-005 0.000198516 -1.6543e-005 0.000190245 -8.27151e-006 0.000198516 0 0.000198516 8.27151e-006 0.000198516 1.6543e-005 0.000198516 3.3086e-005 0.000190245 4.13575e-005 0.000198516 4.96291e-005 0.000190245 5.79006e-005 0.000190245 6.61721e-005 0.000190245 8.27151e-005 0.000190245 9.09866e-005zm-0.00363119 -0.00122418l-0.00803991 -0.0010753 0.00672474 -0.00248145 0.000198516 0.000173702 0.000231602 0.000206788 0.000190245 0.000173702 0.000190245 0.000173702 0.000148887 0.000140616 0.000223331 0.000198516 0.000215059 0.000198516 0.000181973 0.00016543 0.000181973 0.000173702 0.000148887 0.000132344 0.000181973 0.00016543 0.000215059 0.000198516 0.000173702 0.00016543 0.000181973 0.00016543 0.000173702 0.00016543 0.000173702 0.000157159 0.000206788 0.000198516 0.000140616 0.000132344 0.000181973 0.00016543 0.000206788 0.000198516 0.000140616 0.000132344 0.000173702 0.000157159 0.000206788 0.000198516 0.000140616 0.000132344 0.000181973 0.00016543 0.000206788 0.000198516 0.000181973 0.000173702 0.000140616 0.000132344 0.000181973 0.00016543 0.000181973 0.000173702 0.000181973 0.00016543 0.000181973 0.000181973 -0.00552537 0.0059224 -0.000181973 -0.00016543 -0.000181973 -0.00016543 -0.000181973 -0.000173702 -0.000181973 -0.00016543 -0.000206788 -0.000198516 -0.000181973 -0.000173702 -0.000140616 -0.000132344 -0.000181973 -0.00016543 -0.000206788 -0.000198516 -0.000140616 -0.000132344 -0.000173702 -0.000157159 -0.000206788 -0.000198516 -0.000140616 -0.000132344 -0.000181973 -0.00016543 -0.000206788 -0.000198516 -0.000140616 -0.000132344 -0.000173702 -0.000157159 -0.000173702 -0.00016543 -0.000181973 -0.00016543 -0.000173702 -0.00016543 -0.000148887 -0.000132344 -0.000181973 -0.00016543 -0.000215059 -0.000198516 -0.000181973 -0.000173702 -0.000181973 -0.00016543 -0.000148887 -0.000148887 -0.000157159 -0.000132344 -0.000231602 -0.000206788 -0.000190245 -0.000173702 -0.000190245 -0.000173702 -0.00016543 -0.000157159 -0.000198516 -0.000173702 0.00672474 -0.00248145zm-0.00131517 -0.00355675l-0.00540957 0.0060382 -0.000148887 -0.000140616 -0.000148887 -0.000148887 -0.000132344 -0.000157159 -0.000124073 -0.000157159 -0.000115801 -0.00016543 -0.00010753 -0.00016543 -9.09866e-005 -0.000173702 -9.09866e-005 -0.000181973 -8.27151e-005 -0.000181973 -6.61721e-005 -0.000181973 -6.61721e-005 -0.000181973 -4.96291e-005 -0.000190245 -4.13575e-005 -0.000190245 -3.3086e-005 -0.000190245 -2.48145e-005 -0.000198516 -1.6543e-005 -0.000190245 -8.27151e-006 -0.000198516 8.27151e-006 -0.000190245 8.27151e-006 -0.000198516 2.48145e-005 -0.000190245 3.3086e-005 -0.000198516 4.13575e-005 -0.000190245 4.96291e-005 -0.000190245 5.79006e-005 -0.000181973 6.61721e-005 -0.000190245 7.44436e-005 -0.000181973 9.09866e-005 -0.000181973 9.92581e-005 -0.000173702 0.00010753 -0.000173702 0.000115801 -0.00016543 0.000124073 -0.00016543 0.000132344 -0.000157159 0.000140616 -0.000148887 0.000148887 -0.000148887 0.000157159 -0.000132344 0.000157159 -0.000124073 0.00016543 -0.000115801 0.00016543 -0.00010753 0.000173702 -9.09866e-005 0.000181973 -9.09866e-005 0.000181973 -8.27151e-005 0.000181973 -6.61721e-005 0.000181973 -6.61721e-005 0.000190245 -4.96291e-005 0.000190245 -4.13575e-005 0.000190245 -3.3086e-005 0.000198516 -2.48145e-005 0.000190245 -1.6543e-005 0.000198516 -8.27151e-006 0.000190245 8.27151e-006 0.000198516 8.27151e-006 0.000190245 2.48145e-005 0.000198516 3.3086e-005 0.000190245 4.13575e-005 0.000190245 4.96291e-005 0.000181973 5.79006e-005 0.000190245 6.61721e-005 0.000181973 7.44436e-005 0.000181973 9.09866e-005 0.000173702 9.92581e-005 0.000173702 0.00010753 0.00016543 0.000115801 0.00016543 0.000124073 0.000157159 0.000132344zm-0.00466513 0.0091152l0.00365601 -0.00724584 -0.00588104 0.00362292 0 -0.000140616 0 -0.000132344 0 -0.000264688 8.27151e-006 -0.000124073 0 8.27151e-006 0 -0.000264688 1.6543e-005 -0.000264688 0 3.3086e-005 0 -0.000124073 8.27151e-006 -0.000124073 0 -9.92581e-005 1.6543e-005 -0.00027296 1.6543e-005 -0.00010753 -8.27151e-006 7.44436e-005 0 -9.92581e-005 2.48145e-005 -0.000314317 0 0.000124073 0 -7.44436e-005 2.48145e-005 -0.000322589 1.6543e-005 -0.000132344 -1.6543e-005 0.000190245 0 -8.27151e-005 6.61721e-005 -0.000463205 -4.13575e-005 0.000281231 0 -4.13575e-005 2.48145e-005 -0.000140616 -3.3086e-005 0.000479748 4.96291e-005 -0.000694807 3.3086e-005 -0.000148887 -7.44436e-005 0.000777522 0 -8.27151e-006 3.3086e-005 -0.000537648 0.00803991 0.0010753 3.3086e-005 -0.000537648 0 8.27151e-006 -7.44436e-005 0.000810608 1.6543e-005 -9.92581e-005 4.96291e-005 -0.000645178 -3.3086e-005 0.000529377 8.27151e-006 -5.79006e-005 0 4.13575e-005 -5.79006e-005 0.000363946 4.96291e-005 -0.000363946 0 3.3086e-005 -3.3086e-005 0.000306046 0 0 8.27151e-006 -0.000173702 0 7.44436e-005 -1.6543e-005 0.00027296 8.27151e-006 -0.000148887 0 8.27151e-005 -2.48145e-005 0.000256417 0 9.09866e-005 0 -7.44436e-005 0 9.92581e-005 -8.27151e-006 9.09866e-005 0 0.00010753 -1.6543e-005 0.000264688 0 -3.3086e-005 0 -1.6543e-005 0 0.000256417 -8.27151e-006 0.000124073 0 0 0 0.000132344 0 0.000140616 -0.00588104 0.00362292zm-0.00222504 -0.00362292l0.00810608 0 -8.27151e-006 0.000206788 -1.6543e-005 0.000206788 -2.48145e-005 0.000198516 -3.3086e-005 0.000206788 -4.13575e-005 0.000190245 -5.79006e-005 0.000190245 -6.61721e-005 0.000190245 -7.44436e-005 0.000181973 -7.44436e-005 0.000181973 -9.09866e-005 0.000173702 -9.92581e-005 0.000173702 -0.00010753 0.00016543 -0.000115801 0.000157159 -0.000115801 0.000148887 -0.000132344 0.000148887 -0.000132344 0.000140616 -0.000140616 0.000132344 -0.000148887 0.000132344 -0.000148887 0.000115801 -0.000157159 0.000115801 -0.00016543 0.00010753 -0.000173702 9.92581e-005 -0.000173702 9.09866e-005 -0.000181973 7.44436e-005 -0.000181973 7.44436e-005 -0.000190245 6.61721e-005 -0.000190245 5.79006e-005 -0.000190245 4.13575e-005 -0.000206788 3.3086e-005 -0.000198516 2.48145e-005 -0.000206788 1.6543e-005 -0.000206788 8.27151e-006 -0.000206788 -8.27151e-006 -0.000206788 -1.6543e-005 -0.000198516 -2.48145e-005 -0.000206788 -3.3086e-005 -0.000190245 -4.13575e-005 -0.000190245 -5.79006e-005 -0.000190245 -6.61721e-005 -0.000181973 -7.44436e-005 -0.000181973 -7.44436e-005 -0.000173702 -9.09866e-005 -0.000173702 -9.92581e-005 -0.00016543 -0.00010753 -0.000157159 -0.000115801 -0.000148887 -0.000115801 -0.000148887 -0.000132344 -0.000140616 -0.000132344 -0.000132344 -0.000140616 -0.000132344 -0.000148887 -0.000115801 -0.000148887 -0.000115801 -0.000157159 -0.00010753 -0.00016543 -9.92581e-005 -0.000173702 -9.09866e-005 -0.000173702 -7.44436e-005 -0.000181973 -7.44436e-005 -0.000181973 -6.61721e-005 -0.000190245 -5.79006e-005 -0.000190245 -4.13575e-005 -0.000190245 -3.3086e-005 -0.000206788 -2.48145e-005 -0.000198516 -1.6543e-005 -0.000206788 -8.27151e-006 -0.000206788zm-0.080457 -0.0349223l0.00789102 0.0018859 -0.00262207 -0.00477266 0.0026138 0.000901595 0.0026138 0.000926409 0.00259725 0.000934681 0.00259725 0.000934681 0.00259725 0.000951224 0.00258898 0.000967767 0.00257244 0.000959495 0.00258071 0.00098431 0.00258071 0.000992581 0.00257244 0.00100912 0.00256417 0.00100085 0.0025559 0.00102567 0.0025559 0.00103394 0.00254763 0.00105048 0.00254763 0.00104221 0.00254763 0.00106702 0.00252281 0.0010753 0.00253108 0.00108357 0.00252281 0.00110011 0.00251454 0.00109184 0.00251454 0.00111665 0.00250627 0.00112493 0.002498 0.00114147 0.00248972 0.00114147 0.002498 0.00115801 0.00247318 0.00116628 0.00247318 0.00117455 0.00247318 0.00118283 0.00246491 0.0011911 0.00246491 0.00121591 0.0024401 0.00122418 0.00244837 0.00121591 -0.00365601 0.00724584 -0.00241528 -0.00121591 -0.00242355 -0.00120764 -0.00241528 -0.00118283 -0.00243182 -0.00117455 -0.0024401 -0.00118283 -0.0024401 -0.00115801 -0.00245664 -0.00114974 -0.00244837 -0.00114147 -0.00247318 -0.00112493 -0.00246491 -0.00112493 -0.00247318 -0.00110838 -0.00248145 -0.00110011 -0.00248145 -0.00109184 -0.00248972 -0.00108357 -0.002498 -0.00106702 -0.00250627 -0.00105875 -0.002498 -0.00105048 -0.00251454 -0.00104221 -0.00253108 -0.00103394 -0.00252281 -0.0010174 -0.00252281 -0.00100912 -0.00253108 -0.00100085 -0.00253935 -0.000992581 -0.00254763 -0.000976038 -0.00254763 -0.000967767 -0.0025559 -0.000959495 -0.0025559 -0.000951224 -0.00256417 -0.000934681 -0.00256417 -0.000934681 -0.00258071 -0.000918138 -0.00256417 -0.000909866 -0.00258071 -0.000901595 -0.00262207 -0.00477266zm0.00526895 -0.00288676l-0.00264688 0.00765942 -0.000198516 -7.44436e-005 -0.000181973 -8.27151e-005 -0.000181973 -9.09866e-005 -0.000181973 -9.92581e-005 -0.00016543 -9.92581e-005 -0.00016543 -0.000115801 -0.000157159 -0.000124073 -0.000148887 -0.000132344 -0.000148887 -0.000132344 -0.000132344 -0.000140616 -0.000132344 -0.000148887 -0.000115801 -0.000157159 -0.000115801 -0.000157159 -0.00010753 -0.00016543 -9.09866e-005 -0.00016543 -9.09866e-005 -0.000173702 -8.27151e-005 -0.000173702 -7.44436e-005 -0.000181973 -5.79006e-005 -0.000181973 -5.79006e-005 -0.000190245 -4.96291e-005 -0.000190245 -3.3086e-005 -0.000190245 -2.48145e-005 -0.000198516 -2.48145e-005 -0.000190245 -8.27151e-006 -0.000198516 0 -0.000198516 1.6543e-005 -0.000198516 1.6543e-005 -0.000206788 3.3086e-005 -0.000198516 4.13575e-005 -0.000198516 4.96291e-005 -0.000198516 6.61721e-005 -0.000198516 7.44436e-005 -0.000198516 8.27151e-005 -0.000181973 9.09866e-005 -0.000181973 9.92581e-005 -0.000181973 9.92581e-005 -0.00016543 0.000115801 -0.00016543 0.000124073 -0.000157159 0.000132344 -0.000148887 0.000132344 -0.000148887 0.000140616 -0.000132344 0.000148887 -0.000132344 0.000157159 -0.000115801 0.000157159 -0.000115801 0.00016543 -0.00010753 0.00016543 -9.09866e-005 0.000173702 -9.09866e-005 0.000173702 -8.27151e-005 0.000181973 -7.44436e-005 0.000181973 -5.79006e-005 0.000190245 -5.79006e-005 0.000190245 -4.96291e-005 0.000190245 -3.3086e-005 0.000198516 -2.48145e-005 0.000190245 -2.48145e-005 0.000198516 -8.27151e-006 0.000198516 0 0.000198516 1.6543e-005 0.000206788 1.6543e-005 0.000198516 3.3086e-005 0.000198516 4.13575e-005 0.000198516 4.96291e-005 0.000198516 6.61721e-005zm0.000736164 -0.0286608l0.00807299 0.000843694 -8.27151e-006 4.13575e-005 -0.00010753 0.000959495 -0.000132344 0.000992581 -0.000132344 0.000976038 -0.000140616 0.00100085 -0.000148887 0.00104221 -0.00016543 0.0010174 -0.000157159 0.00104221 -0.000181973 0.00105875 -0.00016543 0.00103394 -0.000181973 0.00108357 -0.000198516 0.0010753 -0.000190245 0.00106702 -0.000198516 0.00108357 -0.000198516 0.00108357 -0.000215059 0.0010753 -0.000206788 0.00106702 -0.000206788 0.0010753 -0.000223331 0.0010753 -0.000215059 0.00105048 -0.000215059 0.00105875 -0.000215059 0.00105875 -0.000231602 0.00103394 -0.000215059 0.00103394 -0.000223331 0.00100912 -0.000223331 0.00100912 -0.000223331 0.00098431 -0.000215059 0.000967767 -0.000215059 0.000926409 -0.000206788 0.000942952 -0.000223331 0.000909866 -0.000198516 0.000885052 -0.000206788 0.000868509 -0.00789102 -0.0018859 0.000206788 -0.000835423 0.000198516 -0.000868509 0.000206788 -0.000893323 0.000206788 -0.000909866 0.000215059 -0.000942952 0.000215059 -0.000951224 0.000223331 -0.000967767 0.000206788 -0.000976038 0.000223331 -0.000992581 0.000215059 -0.00100085 0.000215059 -0.00103394 0.000215059 -0.00100912 0.000215059 -0.00104221 0.000215059 -0.00105048 0.000206788 -0.00104221 0.000206788 -0.00104221 0.000206788 -0.00106702 0.000198516 -0.00104221 0.000198516 -0.00105048 0.000198516 -0.00105048 0.000190245 -0.00105048 0.000181973 -0.00102567 0.00016543 -0.0010174 0.000181973 -0.00105048 0.00016543 -0.00100912 0.000157159 -0.000992581 0.000148887 -0.00100085 0.000148887 -0.000959495 0.000124073 -0.000951224 0.000132344 -0.000959495 0.000115801 -0.000909866 0.00010753 -0.000893323 -8.27151e-006 4.13575e-005zm0.00806472 0.000885052l-0.00805645 -0.000926409 2.48145e-005 -0.000206788 4.13575e-005 -0.000198516 4.96291e-005 -0.000198516 5.79006e-005 -0.000198516 6.61721e-005 -0.000190245 7.44436e-005 -0.000181973 9.09866e-005 -0.000181973 9.09866e-005 -0.000173702 9.92581e-005 -0.00016543 0.00010753 -0.00016543 0.000115801 -0.000157159 0.000124073 -0.000148887 0.000132344 -0.000148887 0.000140616 -0.000132344 0.000140616 -0.000132344 0.000148887 -0.000124073 0.000157159 -0.000115801 0.00016543 -0.000115801 0.00016543 -9.92581e-005 0.00016543 -9.09866e-005 0.000181973 -9.09866e-005 0.000173702 -7.44436e-005 0.000190245 -7.44436e-005 0.000181973 -5.79006e-005 0.000190245 -4.96291e-005 0.000198516 -4.13575e-005 0.000198516 -3.3086e-005 0.000198516 -2.48145e-005 0.000198516 -1.6543e-005 0.000206788 0 0.000206788 8.27151e-006 0.000206788 1.6543e-005 0.000206788 2.48145e-005 0.000198516 4.13575e-005 0.000198516 4.96291e-005 0.000198516 5.79006e-005 0.000190245 6.61721e-005 0.000181973 7.44436e-005 0.000181973 9.09866e-005 0.000173702 9.09866e-005 0.00016543 9.92581e-005 0.00016543 0.00010753 0.000157159 0.000115801 0.000148887 0.000124073 0.000148887 0.000132344 0.000132344 0.000140616 0.000132344 0.000140616 0.000124073 0.000148887 0.000115801 0.000157159 0.000115801 0.00016543 9.92581e-005 0.00016543 9.09866e-005 0.00016543 9.09866e-005 0.000181973 7.44436e-005 0.000173702 7.44436e-005 0.000190245 5.79006e-005 0.000181973 4.96291e-005 0.000190245 4.13575e-005 0.000198516 3.3086e-005 0.000198516 2.48145e-005 0.000198516 1.6543e-005 0.000198516 0 0.000206788 -8.27151e-006 0.000206788 -1.6543e-005 0.000206788zm-0.031258 -0.0163528l-0.00175356 -0.00792411 -6.61721e-005 1.6543e-005 0.00200998 -0.000430119 0.00195208 -0.000322589 0.00189418 -0.000231602 0.00186936 -0.000124073 0.00179492 -1.6543e-005 0.00175356 6.61721e-005 0.00170393 0.000173702 0.00163776 0.000256417 0.00157986 0.000355675 0.0015385 0.000446662 0.00147233 0.000537648 0.00138134 0.00060382 0.00134826 0.000686535 0.00127381 0.000777522 0.0011911 0.000835423 0.00112493 0.000893323 0.00105048 0.000967767 0.00098431 0.00102567 0.000885052 0.00106702 0.000835423 0.00112493 0.000744436 0.00118283 0.000661721 0.00119937 0.000570734 0.00121591 0.000521105 0.00125727 0.000430119 0.00129863 0.000355675 0.0013069 0.00027296 0.00132344 0.000206788 0.00133998 0.000115801 0.00134826 4.96291e-005 0.00133998 -2.48145e-005 0.00135653 -9.92581e-005 0.00135653 -0.00807299 -0.000843694 6.61721e-005 -0.000893323 2.48145e-005 -0.000909866 -3.3086e-005 -0.000893323 -8.27151e-005 -0.000901595 -0.000124073 -0.000860237 -0.000190245 -0.00087678 -0.000223331 -0.000843694 -0.000281231 -0.000818879 -0.000322589 -0.000810608 -0.000388761 -0.000802336 -0.000413575 -0.00076925 -0.000463205 -0.000719621 -0.000504562 -0.000694807 -0.000570734 -0.000669992 -0.00060382 -0.000645178 -0.000653449 -0.000587277 -0.00071135 -0.000579006 -0.000760979 -0.000537648 -0.000794065 -0.000479748 -0.000851966 -0.00043839 -0.000934681 -0.000405304 -0.000976038 -0.000355675 -0.00102567 -0.000297774 -0.00110011 -0.000239874 -0.00115801 -0.000190245 -0.00122418 -0.000124073 -0.0013069 -4.96291e-005 -0.0013648 1.6543e-005 -0.0014227 9.09866e-005 -0.00151369 0.000181973 -0.00157159 0.000256417 -0.00164603 0.000363946 -6.61721e-005 1.6543e-005zm-0.00181973 -0.00790756l0.0018859 0.00789102 -0.000206788 4.13575e-005 -0.000198516 3.3086e-005 -0.000206788 2.48145e-005 -0.000198516 8.27151e-006 -0.000206788 0 -0.000198516 -8.27151e-006 -0.000198516 -1.6543e-005 -0.000198516 -3.3086e-005 -0.000190245 -3.3086e-005 -0.000190245 -4.96291e-005 -0.000190245 -4.96291e-005 -0.000181973 -6.61721e-005 -0.000181973 -7.44436e-005 -0.000181973 -8.27151e-005 -0.000173702 -9.09866e-005 -0.00016543 -9.92581e-005 -0.00016543 -9.92581e-005 -0.000157159 -0.000115801 -0.000148887 -0.000124073 -0.000148887 -0.000124073 -0.000140616 -0.000140616 -0.000132344 -0.000140616 -0.000132344 -0.000148887 -0.000115801 -0.000157159 -0.000115801 -0.000157159 -0.00010753 -0.000173702 -9.92581e-005 -0.000173702 -9.09866e-005 -0.000173702 -7.44436e-005 -0.000190245 -7.44436e-005 -0.000190245 -6.61721e-005 -0.000198516 -4.96291e-005 -0.000198516 -4.13575e-005 -0.000206788 -3.3086e-005 -0.000198516 -2.48145e-005 -0.000206788 -8.27151e-006 -0.000198516 0 -0.000206788 8.27151e-006 -0.000198516 1.6543e-005 -0.000198516 3.3086e-005 -0.000198516 3.3086e-005 -0.000190245 4.96291e-005 -0.000190245 4.96291e-005 -0.000190245 6.61721e-005 -0.000181973 7.44436e-005 -0.000181973 8.27151e-005 -0.000181973 9.09866e-005 -0.000173702 9.92581e-005 -0.00016543 9.92581e-005 -0.00016543 0.000115801 -0.000157159 0.000124073 -0.000148887 0.000124073 -0.000148887 0.000140616 -0.000140616 0.000140616 -0.000132344 0.000148887 -0.000132344 0.000157159 -0.000115801 0.000157159 -0.000115801 0.000173702 -0.00010753 0.000173702 -9.92581e-005 0.000173702 -9.09866e-005 0.000190245 -7.44436e-005 0.000190245 -7.44436e-005 0.000198516 -6.61721e-005 0.000198516 -4.96291e-005zm-0.0794396 0.0336485l0.00138961 -0.00799028 -0.00199343 0.000148887 0.0029033 -0.000967767 0.00291984 -0.000992581 0.00293639 -0.000992581 0.00293639 -0.00100085 0.00295293 -0.00100085 0.0029612 -0.00100912 0.00295293 -0.00100085 0.00295293 -0.00100085 0.00293639 -0.000992581 0.00291984 -0.00098431 0.00289503 -0.00098431 0.00287849 -0.000976038 0.0028454 -0.000951224 0.00280404 -0.000934681 0.00276268 -0.000918138 0.00271306 -0.000901595 0.00267997 -0.000893323 0.00263034 -0.000851966 0.00254763 -0.000827151 0.002498 -0.000818879 0.0024401 -0.00076925 0.00234911 -0.000752707 0.00228294 -0.000703078 0.00220022 -0.000678264 0.00211751 -0.000636906 0.00202652 -0.000612092 0.00192726 -0.00054592 0.00183628 -0.000521105 0.00174529 -0.000471476 0.00162122 -0.000421847 0.00151369 -0.000380489 0.0014227 -0.00033086 0.00175356 0.00792411 -0.00127381 0.000297774 -0.00141443 0.000347403 -0.00155504 0.000405304 -0.00164603 0.00043839 -0.0017701 0.000504562 -0.00187763 0.00054592 -0.00197689 0.000579006 -0.00208442 0.000636906 -0.00216714 0.000661721 -0.00224985 0.000703078 -0.00233257 0.000736164 -0.00240701 0.00076925 -0.00246491 0.000802336 -0.00256417 0.000827151 -0.00259725 0.000851966 -0.00264688 0.00087678 -0.00271306 0.000901595 -0.00276268 0.000918138 -0.00280404 0.000934681 -0.00282886 0.000951224 -0.00286194 0.000959495 -0.00289503 0.00098431 -0.00291984 0.00098431 -0.00293639 0.000992581 -0.00293639 0.00100085 -0.00295293 0.00100085 -0.0029612 0.00100912 -0.00295293 0.00100085 -0.00295293 0.00100085 -0.00293639 0.000992581 -0.00291984 0.000992581 -0.0029033 0.00098431 -0.00199343 0.000148887zm-0.00060382 -0.00784139l0.00259725 0.0076925 -0.000198516 5.79006e-005 -0.000198516 5.79006e-005 -0.000198516 3.3086e-005 -0.000206788 3.3086e-005 -0.000198516 1.6543e-005 -0.000198516 8.27151e-006 -0.000198516 0 -0.000198516 -8.27151e-006 -0.000198516 -1.6543e-005 -0.000190245 -3.3086e-005 -0.000198516 -3.3086e-005 -0.000190245 -4.96291e-005 -0.000181973 -5.79006e-005 -0.000190245 -6.61721e-005 -0.000173702 -7.44436e-005 -0.000181973 -8.27151e-005 -0.000173702 -9.09866e-005 -0.00016543 -9.92581e-005 -0.00016543 -0.00010753 -0.000157159 -0.00010753 -0.000148887 -0.000124073 -0.000148887 -0.000132344 -0.000140616 -0.000132344 -0.000140616 -0.000148887 -0.000124073 -0.000148887 -0.000124073 -0.000157159 -0.00010753 -0.00016543 -0.00010753 -0.000173702 -9.92581e-005 -0.000173702 -9.09866e-005 -0.000181973 -7.44436e-005 -0.000190245 -7.44436e-005 -0.000198516 -5.79006e-005 -0.000198516 -5.79006e-005 -0.000198516 -3.3086e-005 -0.000198516 -3.3086e-005 -0.000206788 -1.6543e-005 -0.000198516 -8.27151e-006 -0.000198516 0 -0.000198516 8.27151e-006 -0.000198516 1.6543e-005 -0.000198516 3.3086e-005 -0.000190245 3.3086e-005 -0.000198516 4.96291e-005 -0.000190245 5.79006e-005 -0.000181973 6.61721e-005 -0.000190245 7.44436e-005 -0.000173702 8.27151e-005 -0.000181973 9.09866e-005 -0.000173702 9.92581e-005 -0.00016543 0.00010753 -0.00016543 0.00010753 -0.000157159 0.000124073 -0.000148887 0.000132344 -0.000148887 0.000132344 -0.000140616 0.000148887 -0.000140616 0.000148887 -0.000124073 0.000157159 -0.000124073 0.00016543 -0.00010753 0.000173702 -0.00010753 0.000173702 -9.92581e-005 0.000181973 -9.09866e-005 0.000190245 -7.44436e-005 0.000198516 -7.44436e-005zm-0.112426 -0.00254763l0 -0.00810608 0 0 0.00366428 8.27151e-006 0.00366428 4.13575e-005 0.00364774 5.79006e-005 0.00364774 7.44436e-005 0.00364774 0.00010753 0.00363946 0.000124073 0.00361465 0.000148887 0.00363119 0.00016543 0.00361465 0.000198516 0.00361465 0.000206788 0.00360638 0.000231602 0.00359811 0.000248145 0.00359811 0.00027296 0.00358156 0.000297774 0.00358984 0.000314317 0.00358156 0.00033086 0.00356502 0.000347403 0.00356502 0.000372218 0.00355675 0.000388761 0.00355675 0.000397032 0.00354848 0.000421847 0.00354848 0.000446662 0.00354021 0.000454933 0.00353193 0.000471476 0.00352366 0.000504562 0.00352366 0.000504562 0.00351539 0.000521105 0.00350712 0.000537648 0.00351539 0.000554191 0.00349885 0.000570734 0.00349058 0.000587277 0.00349058 0.000595549 -0.00138961 0.00799028 -0.00345749 -0.000595549 -0.00345749 -0.000570734 -0.00346576 -0.000570734 -0.00346576 -0.000554191 -0.00347403 -0.000521105 -0.00348231 -0.000521105 -0.00349058 -0.000504562 -0.00349058 -0.000488019 -0.00348231 -0.000471476 -0.00350712 -0.000454933 -0.00349885 -0.000430119 -0.00349885 -0.000421847 -0.00352366 -0.000397032 -0.00352366 -0.000388761 -0.00351539 -0.000355675 -0.00353193 -0.000347403 -0.00353193 -0.00033086 -0.00354021 -0.000314317 -0.00354848 -0.000281231 -0.00354848 -0.00027296 -0.00354848 -0.000248145 -0.00355675 -0.000231602 -0.00356502 -0.000206788 -0.00356502 -0.000181973 -0.00358156 -0.00016543 -0.00358156 -0.000148887 -0.00358984 -0.000124073 -0.00358156 -0.00010753 -0.00359811 -7.44436e-005 -0.00361465 -5.79006e-005 -0.00359811 -4.13575e-005 -0.00361465 -8.27151e-006 0 0zm0 -0.00810608l0 0.00810608 -0.000206788 -8.27151e-006 -0.000206788 -1.6543e-005 -0.000198516 -2.48145e-005 -0.000206788 -3.3086e-005 -0.000190245 -4.13575e-005 -0.000190245 -5.79006e-005 -0.000190245 -6.61721e-005 -0.000181973 -7.44436e-005 -0.000181973 -7.44436e-005 -0.000173702 -9.09866e-005 -0.000173702 -9.92581e-005 -0.00016543 -0.00010753 -0.000157159 -0.000115801 -0.000148887 -0.000115801 -0.000148887 -0.000132344 -0.000140616 -0.000132344 -0.000132344 -0.000140616 -0.000132344 -0.000148887 -0.000115801 -0.000148887 -0.000115801 -0.000157159 -0.00010753 -0.00016543 -9.92581e-005 -0.000173702 -9.09866e-005 -0.000173702 -7.44436e-005 -0.000181973 -7.44436e-005 -0.000181973 -6.61721e-005 -0.000190245 -5.79006e-005 -0.000190245 -4.13575e-005 -0.000190245 -3.3086e-005 -0.000206788 -2.48145e-005 -0.000198516 -1.6543e-005 -0.000206788 -8.27151e-006 -0.000206788 8.27151e-006 -0.000206788 1.6543e-005 -0.000206788 2.48145e-005 -0.000198516 3.3086e-005 -0.000206788 4.13575e-005 -0.000190245 5.79006e-005 -0.000190245 6.61721e-005 -0.000190245 7.44436e-005 -0.000181973 7.44436e-005 -0.000181973 9.09866e-005 -0.000173702 9.92581e-005 -0.000173702 0.00010753 -0.00016543 0.000115801 -0.000157159 0.000115801 -0.000148887 0.000132344 -0.000148887 0.000132344 -0.000140616 0.000140616 -0.000132344 0.000148887 -0.000132344 0.000148887 -0.000115801 0.000157159 -0.000115801 0.00016543 -0.00010753 0.000173702 -9.92581e-005 0.000173702 -9.09866e-005 0.000181973 -7.44436e-005 0.000181973 -7.44436e-005 0.000190245 -6.61721e-005 0.000190245 -5.79006e-005 0.000190245 -4.13575e-005 0.000206788 -3.3086e-005 0.000198516 -2.48145e-005 0.000206788 -1.6543e-005 0.000206788 -8.27151e-006z"/>
   </g>
   <path class="fil1" d="M0.704394 1.40469c0.386834,0 0.70034,-0.313639 0.70034,-0.700481 0,-0.302522 -0.191866,-0.560362 -0.460731,-0.658272l0.00282058 0.0158234c0.259543,0.0978437 0.444197,0.348619 0.444197,0.642448 0,0.379216 -0.307427,0.686643 -0.686626,0.686643 -0.379207,0 -0.686502,-0.307427 -0.686502,-0.686643 0,-0.379092 0.307295,-0.686461 0.686502,-0.686461 0.0408116,0 0.0809533,0.00353193 0.119929,0.010389l0.0237475 -0.00946261c-0.0463453,-0.00953705 -0.0943697,-0.0146323 -0.143676,-0.0146323 -0.38671,0 -0.70034,0.313441 -0.70034,0.700167 0,0.386842 0.313631,0.700481 0.70034,0.700481z"/>
   <g>
    <path class="fil2" d="M1.40068 0.704212l0.00810608 0 0 0 -0.000909866 0.036254 -0.00272133 0.035766 -0.00447489 0.0352614 -0.00620363 0.0346907 -0.00785793 0.0340869 -0.00949569 0.0334417 -0.0110756 0.0327221 -0.0126058 0.0320025 -0.0141029 0.0312084 -0.0155587 0.0303813 -0.0169649 0.0294962 -0.0183214 0.0285863 -0.0196283 0.0276268 -0.0209104 0.0266177 -0.0221428 0.0255672 -0.0233174 0.0244671 -0.0244589 0.0233257 -0.025559 0.0221428 -0.0266094 0.0209186 -0.0276186 0.0196448 -0.0285781 0.0183297 -0.0294962 0.0169649 -0.030373 0.0155587 -0.0312084 0.0141029 -0.0319859 0.0126223 -0.0327304 0.0110756 -0.0334334 0.00950396 -0.0340869 0.00785793 -0.0346824 0.00620363 -0.0352614 0.00448316 -0.035766 0.00272133 -0.036254 0.000909866 0 -0.00810608 0.0358405 -0.000909866 0.035369 -0.00268824 0.0348479 -0.00443353 0.0342854 -0.00612092 0.0336899 -0.00777522 0.0330364 -0.00938816 0.0323499 -0.0109432 0.031622 -0.0124734 0.0308445 -0.013954 0.0300256 -0.0153767 0.0291488 -0.0167664 0.0282637 -0.0181146 0.0272877 -0.0194298 0.0263117 -0.0206705 0.0252612 -0.0218947 0.0241776 -0.023061 0.0230527 -0.0241859 0.0218947 -0.0252695 0.0206622 -0.0263034 0.0194132 -0.0273125 0.0181063 -0.0282555 0.0167664 -0.0291653 0.0153767 -0.0300339 0.0139375 -0.0308445 0.0124734 -0.031622 0.0109432 -0.0323581 0.00937989 -0.0330447 0.00777522 -0.0336899 0.00612092 -0.0342937 0.00442526 -0.0348479 0.00268824 -0.035369 0.000909866 -0.0358405 0 0zm0.00810608 0l-0.00810608 0 8.27151e-006 -0.000206788 1.6543e-005 -0.000206788 2.48145e-005 -0.000198516 3.3086e-005 -0.000206788 4.13575e-005 -0.000190245 5.79006e-005 -0.000190245 6.61721e-005 -0.000190245 7.44436e-005 -0.000181973 7.44436e-005 -0.000181973 9.09866e-005 -0.000173702 9.92581e-005 -0.000173702 0.00010753 -0.00016543 0.000115801 -0.000157159 0.000115801 -0.000148887 0.000132344 -0.000148887 0.000132344 -0.000140616 0.000140616 -0.000132344 0.000148887 -0.000132344 0.000148887 -0.000115801 0.000157159 -0.000115801 0.00016543 -0.00010753 0.000173702 -9.92581e-005 0.000173702 -9.09866e-005 0.000181973 -7.44436e-005 0.000181973 -7.44436e-005 0.000190245 -6.61721e-005 0.000190245 -5.79006e-005 0.000190245 -4.13575e-005 0.000206788 -3.3086e-005 0.000198516 -2.48145e-005 0.000206788 -1.6543e-005 0.000206788 -8.27151e-006 0.000206788 8.27151e-006 0.000206788 1.6543e-005 0.000198516 2.48145e-005 0.000206788 3.3086e-005 0.000190245 4.13575e-005 0.000190245 5.79006e-005 0.000190245 6.61721e-005 0.000181973 7.44436e-005 0.000181973 7.44436e-005 0.000173702 9.09866e-005 0.000173702 9.92581e-005 0.00016543 0.00010753 0.000157159 0.000115801 0.000148887 0.000115801 0.000148887 0.000132344 0.000140616 0.000132344 0.000132344 0.000140616 0.000132344 0.000148887 0.000115801 0.000148887 0.000115801 0.000157159 0.00010753 0.00016543 9.92581e-005 0.000173702 9.09866e-005 0.000173702 7.44436e-005 0.000181973 7.44436e-005 0.000181973 6.61721e-005 0.000190245 5.79006e-005 0.000190245 4.13575e-005 0.000190245 3.3086e-005 0.000206788 2.48145e-005 0.000198516 1.6543e-005 0.000206788 8.27151e-006 0.000206788zm-0.460798 -0.658991l-0.00799028 0.0014227 0.00538475 -0.00452452 0.0251206 0.00970248 0.0246491 0.0106289 0.0241445 0.0115222 0.02364 0.012399 0.0230941 0.0132592 0.0225399 0.0140947 0.0219526 0.0149135 0.021357 0.0156993 0.0207284 0.0164768 0.0200832 0.0172296 0.0194132 0.0179492 0.018735 0.0186688 0.0180319 0.0193636 0.0172957 0.0200171 0.016543 0.0206705 0.015782 0.0212909 0.014988 0.0218864 0.0141691 0.0224737 0.0133337 0.0230444 0.0124817 0.0235738 0.0116049 0.0240949 0.0107033 0.0245829 0.0097852 0.0250709 0.00885052 0.0255176 0.00788275 0.025956 0.00690671 0.0263613 0.00589759 0.0267583 0.00487192 0.0271306 0.00382971 0.0274697 0.00276268 0.0277923 0.00166257 0.0281149 0.000562463 0.0283796 -0.00810608 0 -0.000562463 -0.0280652 -0.00164603 -0.027784 -0.0027296 -0.027478 -0.00378008 -0.0271554 -0.00482229 -0.0268162 -0.00583141 -0.026444 -0.006824 -0.0260635 -0.00778349 -0.0256417 -0.00875126 -0.0252364 -0.0096694 -0.0247732 -0.0105875 -0.0243017 -0.0114726 -0.0238137 -0.0123328 -0.0233091 -0.0131848 -0.0227632 -0.0140037 -0.0222255 -0.014806 -0.0216383 -0.0156001 -0.0210427 -0.016361 -0.0204389 -0.0170972 -0.0197855 -0.0178168 -0.019132 -0.0185199 -0.0184537 -0.0191982 -0.0177507 -0.0198516 -0.017031 -0.0204968 -0.0162949 -0.0211089 -0.0155174 -0.0217044 -0.0147316 -0.0222752 -0.0139458 -0.0228294 -0.0130938 -0.0233587 -0.0122666 -0.0238798 -0.0113899 -0.0243513 -0.0104965 -0.0248393 -0.00958668 0.00538475 -0.00452452zm-0.00260553 -0.00310182l-0.00277923 0.00762633 -0.000190245 -7.44436e-005 -0.000190245 -8.27151e-005 -0.000181973 -9.92581e-005 -0.000173702 -9.92581e-005 -0.000173702 -0.00010753 -0.000157159 -0.000115801 -0.000157159 -0.000124073 -0.000148887 -0.000132344 -0.000140616 -0.000140616 -0.000132344 -0.000140616 -0.000124073 -0.000157159 -0.000124073 -0.000148887 -0.00010753 -0.00016543 -9.92581e-005 -0.00016543 -9.92581e-005 -0.000173702 -8.27151e-005 -0.000173702 -8.27151e-005 -0.000173702 -6.61721e-005 -0.000181973 -5.79006e-005 -0.000190245 -5.79006e-005 -0.000190245 -4.13575e-005 -0.000190245 -3.3086e-005 -0.000190245 -2.48145e-005 -0.000198516 -1.6543e-005 -0.000198516 0 -0.000190245 0 -0.000206788 1.6543e-005 -0.000198516 2.48145e-005 -0.000198516 3.3086e-005 -0.000198516 4.13575e-005 -0.000198516 5.79006e-005 -0.000198516 6.61721e-005 -0.000198516 7.44436e-005 -0.000190245 8.27151e-005 -0.000190245 9.92581e-005 -0.000181973 9.92581e-005 -0.000173702 0.00010753 -0.000173702 0.000115801 -0.000157159 0.000124073 -0.000157159 0.000132344 -0.000148887 0.000140616 -0.000140616 0.000140616 -0.000132344 0.000157159 -0.000124073 0.000148887 -0.000124073 0.00016543 -0.00010753 0.00016543 -9.92581e-005 0.000173702 -9.92581e-005 0.000173702 -8.27151e-005 0.000173702 -8.27151e-005 0.000181973 -6.61721e-005 0.000190245 -5.79006e-005 0.000190245 -5.79006e-005 0.000190245 -4.13575e-005 0.000190245 -3.3086e-005 0.000198516 -2.48145e-005 0.000198516 -1.6543e-005 0.000190245 0 0.000206788 0 0.000198516 1.6543e-005 0.000198516 2.48145e-005 0.000198516 3.3086e-005 0.000198516 4.13575e-005 0.000198516 5.79006e-005 0.000198516 6.61721e-005zm-0.0025559 0.0203645l-0.00282886 -0.0158399 0.00799028 -0.0014227 0.00282886 0.0158399 -0.00542611 0.00450797 -0.00256417 -0.00308527zm0 0l0.00799028 -0.0014227 3.3086e-005 0.000206788 1.6543e-005 0.000206788 8.27151e-006 0.000198516 0 0.000206788 -8.27151e-006 0.000198516 -1.6543e-005 0.000198516 -3.3086e-005 0.000198516 -4.13575e-005 0.000198516 -4.96291e-005 0.000190245 -5.79006e-005 0.000181973 -6.61721e-005 0.000190245 -7.44436e-005 0.000181973 -8.27151e-005 0.000173702 -9.09866e-005 0.000173702 -9.92581e-005 0.00016543 -0.00010753 0.00016543 -0.000115801 0.000157159 -0.000124073 0.000148887 -0.000132344 0.000148887 -0.000132344 0.000132344 -0.000140616 0.000140616 -0.000157159 0.000124073 -0.000148887 0.000115801 -0.00016543 0.000115801 -0.000173702 9.92581e-005 -0.000173702 9.92581e-005 -0.000173702 8.27151e-005 -0.000190245 8.27151e-005 -0.000190245 6.61721e-005 -0.000190245 6.61721e-005 -0.000198516 4.96291e-005 -0.000206788 4.13575e-005 -0.000206788 3.3086e-005 -0.000206788 1.6543e-005 -0.000198516 8.27151e-006 -0.000206788 0 -0.000198516 -8.27151e-006 -0.000198516 -1.6543e-005 -0.000198516 -3.3086e-005 -0.000198516 -4.13575e-005 -0.000190245 -4.96291e-005 -0.000181973 -5.79006e-005 -0.000190245 -6.61721e-005 -0.000181973 -7.44436e-005 -0.000173702 -8.27151e-005 -0.000173702 -9.09866e-005 -0.00016543 -9.92581e-005 -0.00016543 -0.00010753 -0.000157159 -0.000115801 -0.000148887 -0.000124073 -0.000148887 -0.000132344 -0.000132344 -0.000132344 -0.000140616 -0.000140616 -0.000124073 -0.000157159 -0.000115801 -0.000148887 -0.000115801 -0.00016543 -9.92581e-005 -0.000173702 -9.92581e-005 -0.000173702 -8.27151e-005 -0.000173702 -8.27151e-005 -0.000190245 -6.61721e-005 -0.000190245 -6.61721e-005 -0.000190245 -4.96291e-005 -0.000198516 -4.13575e-005 -0.000206788zm0.452245 0.641729l-0.00810608 0 0 0 -0.000537648 -0.0272629 -0.00158813 -0.0269817 -0.00263034 -0.0266922 -0.00363946 -0.0263861 -0.00463205 -0.0260553 -0.00561636 -0.0256913 -0.00656758 -0.0253356 -0.00750226 -0.0249386 -0.0084204 -0.024525 -0.00931372 -0.0240949 -0.0101905 -0.0236482 -0.0110425 -0.0231768 -0.0118862 -0.0226805 -0.012705 -0.0221759 -0.0134908 -0.0216465 -0.0142684 -0.0210924 -0.0150293 -0.0205216 -0.0157655 -0.0199343 -0.0164768 -0.0193222 -0.0171717 -0.0186936 -0.0178499 -0.0180319 -0.0185116 -0.0173702 -0.0191403 -0.0166836 -0.0197524 -0.015964 -0.0203562 -0.0152361 -0.0209269 -0.0144834 -0.0214894 -0.0137142 -0.022027 -0.0129284 -0.0225399 -0.0121095 -0.0230279 -0.0112823 -0.0235076 -0.0104221 -0.0239708 -0.00956187 0.00286194 -0.00759325 0.0242521 0.00967767 0.0237889 0.0105544 0.0233091 0.0114147 0.0228046 0.0122584 0.0222917 0.0130773 0.0217375 0.0138796 0.0211751 0.0146488 0.0206043 0.0154181 0.019984 0.0161625 0.0193719 0.0168656 0.0187267 0.0175852 0.018065 0.018247 0.0173702 0.0189087 0.0166754 0.0195538 0.0159475 0.0201659 0.0152113 0.0207698 0.0144338 0.0213405 0.0136563 0.0218947 0.0128539 0.0224406 0.0120185 0.0229617 0.0111748 0.023458 0.0103228 0.0239295 0.00942952 0.0243761 0.00851966 0.0248228 0.00758497 0.0252364 0.00665029 0.0256334 0.00568253 0.0260056 0.00468167 0.0263696 0.00368909 0.0266839 0.00266343 0.027023 0.00160467 0.027296 0.000537648 0.0275772 0 0zm-0.00810608 0l0.00810608 0 -8.27151e-006 0.000206788 -1.6543e-005 0.000206788 -2.48145e-005 0.000198516 -3.3086e-005 0.000206788 -4.13575e-005 0.000190245 -5.79006e-005 0.000190245 -6.61721e-005 0.000190245 -7.44436e-005 0.000181973 -7.44436e-005 0.000181973 -9.09866e-005 0.000173702 -9.92581e-005 0.000173702 -0.00010753 0.00016543 -0.000115801 0.000157159 -0.000115801 0.000148887 -0.000132344 0.000148887 -0.000132344 0.000140616 -0.000140616 0.000132344 -0.000148887 0.000132344 -0.000148887 0.000115801 -0.000157159 0.000115801 -0.00016543 0.00010753 -0.000173702 9.92581e-005 -0.000173702 9.09866e-005 -0.000181973 7.44436e-005 -0.000181973 7.44436e-005 -0.000190245 6.61721e-005 -0.000190245 5.79006e-005 -0.000190245 4.13575e-005 -0.000206788 3.3086e-005 -0.000198516 2.48145e-005 -0.000206788 1.6543e-005 -0.000206788 8.27151e-006 -0.000206788 -8.27151e-006 -0.000206788 -1.6543e-005 -0.000198516 -2.48145e-005 -0.000206788 -3.3086e-005 -0.000190245 -4.13575e-005 -0.000190245 -5.79006e-005 -0.000190245 -6.61721e-005 -0.000181973 -7.44436e-005 -0.000181973 -7.44436e-005 -0.000173702 -9.09866e-005 -0.000173702 -9.92581e-005 -0.00016543 -0.00010753 -0.000157159 -0.000115801 -0.000148887 -0.000115801 -0.000148887 -0.000132344 -0.000140616 -0.000132344 -0.000132344 -0.000140616 -0.000132344 -0.000148887 -0.000115801 -0.000148887 -0.000115801 -0.000157159 -0.00010753 -0.00016543 -9.92581e-005 -0.000173702 -9.09866e-005 -0.000173702 -7.44436e-005 -0.000181973 -7.44436e-005 -0.000181973 -6.61721e-005 -0.000190245 -5.79006e-005 -0.000190245 -4.13575e-005 -0.000190245 -3.3086e-005 -0.000206788 -2.48145e-005 -0.000198516 -1.6543e-005 -0.000206788 -8.27151e-006 -0.000206788zm-0.682573 0.690696l0 -0.00810608 0 0 0.0351291 -0.000893323 0.0346659 -0.00263861 0.0341531 -0.00434254 0.0336154 -0.00599684 0.0330199 -0.00762633 0.0323912 -0.00918965 0.0317047 -0.0107281 0.0310016 -0.0122336 0.0302324 -0.0136645 0.02943 -0.015079 0.0285781 -0.0164272 0.0277013 -0.0177589 0.0267583 -0.0190327 0.0257906 -0.0202652 0.0247649 -0.0214563 0.0237061 -0.022606 0.022606 -0.0237061 0.0214563 -0.0247649 0.0202569 -0.0257906 0.019041 -0.0267501 0.0177507 -0.0277096 0.0164355 -0.0285781 0.0150707 -0.02943 0.0136645 -0.0302324 0.0122336 -0.0310016 0.0107281 -0.0317047 0.00918965 -0.0323912 0.00762633 -0.0330281 0.00599684 -0.0336071 0.00434254 -0.0341613 0.00263861 -0.0346659 0.000893323 -0.0351291 0.00810608 0 -0.000893323 0.0355427 -0.0026717 0.0350629 -0.00439217 0.0345749 -0.00607956 0.0340042 -0.00770905 0.0334252 -0.00930545 0.0327717 -0.0108605 0.0321017 -0.0123659 0.0313656 -0.01383 0.0305963 -0.0152527 0.0297774 -0.016634 0.0289255 -0.0179657 0.0280239 -0.0192561 0.0270809 -0.0205051 0.0260883 -0.0217044 0.0250627 -0.0228707 0.0239874 -0.0239874 0.0228707 -0.0250627 0.0217044 -0.0260883 0.0205133 -0.0270892 0.0192478 -0.0280156 0.017974 -0.0289255 0.0166257 -0.0297774 0.0152609 -0.0305963 0.01383 -0.0313656 0.0123659 -0.0321017 0.0108605 -0.0327717 0.00930545 -0.0334169 0.00770905 -0.0340124 0.00607956 -0.0345666 0.00439217 -0.0350629 0.0026717 -0.0355427 0.000893323 0 0zm0 -0.00810608l0 0.00810608 -0.000206788 -8.27151e-006 -0.000206788 -1.6543e-005 -0.000198516 -2.48145e-005 -0.000206788 -3.3086e-005 -0.000190245 -4.13575e-005 -0.000190245 -5.79006e-005 -0.000190245 -6.61721e-005 -0.000181973 -7.44436e-005 -0.000181973 -7.44436e-005 -0.000173702 -9.09866e-005 -0.000173702 -9.92581e-005 -0.00016543 -0.00010753 -0.000157159 -0.000115801 -0.000148887 -0.000115801 -0.000148887 -0.000132344 -0.000140616 -0.000132344 -0.000132344 -0.000140616 -0.000132344 -0.000148887 -0.000115801 -0.000148887 -0.000115801 -0.000157159 -0.00010753 -0.00016543 -9.92581e-005 -0.000173702 -9.09866e-005 -0.000173702 -7.44436e-005 -0.000181973 -7.44436e-005 -0.000181973 -6.61721e-005 -0.000190245 -5.79006e-005 -0.000190245 -4.13575e-005 -0.000190245 -3.3086e-005 -0.000206788 -2.48145e-005 -0.000198516 -1.6543e-005 -0.000206788 -8.27151e-006 -0.000206788 8.27151e-006 -0.000206788 1.6543e-005 -0.000206788 2.48145e-005 -0.000198516 3.3086e-005 -0.000206788 4.13575e-005 -0.000190245 5.79006e-005 -0.000190245 6.61721e-005 -0.000190245 7.44436e-005 -0.000181973 7.44436e-005 -0.000181973 9.09866e-005 -0.000173702 9.92581e-005 -0.000173702 0.00010753 -0.00016543 0.000115801 -0.000157159 0.000115801 -0.000148887 0.000132344 -0.000148887 0.000132344 -0.000140616 0.000140616 -0.000132344 0.000148887 -0.000132344 0.000148887 -0.000115801 0.000157159 -0.000115801 0.00016543 -0.00010753 0.000173702 -9.92581e-005 0.000173702 -9.09866e-005 0.000181973 -7.44436e-005 0.000181973 -7.44436e-005 0.000190245 -6.61721e-005 0.000190245 -5.79006e-005 0.000190245 -4.13575e-005 0.000206788 -3.3086e-005 0.000198516 -2.48145e-005 0.000206788 -1.6543e-005 0.000206788 -8.27151e-006zm-0.690547 -0.68259l0.00810608 0 0 0 0.000893323 0.0351291 0.00263034 0.0346659 0.00434254 0.0341613 0.00599684 0.0336071 0.00761806 0.0330281 0.00919792 0.0323912 0.0107199 0.031713 0.0122253 0.0309933 0.0136645 0.0302324 0.0150624 0.02943 0.0164355 0.0285863 0.0177424 0.0277013 0.0190327 0.0267501 0.0202487 0.0257906 0.0214563 0.0247649 0.0225978 0.0237061 0.0236979 0.022606 0.0247566 0.0214563 0.0257823 0.0202652 0.0267501 0.0190327 0.027693 0.0177589 0.0285781 0.0164272 0.02943 0.015079 0.0302241 0.0136728 0.0309933 0.0122253 0.0317047 0.0107281 0.0323912 0.00918965 0.0330116 0.00762633 0.0336154 0.00599684 0.0341531 0.00434254 0.0346659 0.00263861 0.0351291 0.000893323 0 0.00810608 -0.0355427 -0.000893323 -0.0350629 -0.0026717 -0.0345666 -0.00439217 -0.0340124 -0.00607956 -0.0334086 -0.00770905 -0.0327717 -0.00930545 -0.0321017 -0.0108605 -0.0313573 -0.0123742 -0.030588 -0.0138217 -0.0297774 -0.0152609 -0.0289255 -0.0166257 -0.0280073 -0.017974 -0.0270809 -0.0192478 -0.0260801 -0.0205133 -0.0250544 -0.0217044 -0.0239791 -0.0228707 -0.0228625 -0.0239874 -0.0217044 -0.0250627 -0.0204968 -0.0260883 -0.0192478 -0.0270809 -0.0179574 -0.0280321 -0.016634 -0.0289172 -0.0152444 -0.0297774 -0.01383 -0.0305963 -0.0123576 -0.0313738 -0.0108522 -0.0320935 -0.00931372 -0.0327717 -0.00770078 -0.0334252 -0.00607956 -0.0340042 -0.00439217 -0.0345749 -0.00266343 -0.0350629 -0.000893323 -0.0355427 0 0zm0.00810608 0l-0.00810608 0 8.27151e-006 -0.000206788 1.6543e-005 -0.000206788 2.48145e-005 -0.000198516 3.3086e-005 -0.000206788 4.13575e-005 -0.000190245 5.79006e-005 -0.000190245 6.61721e-005 -0.000190245 7.44436e-005 -0.000181973 7.44436e-005 -0.000181973 9.09866e-005 -0.000173702 9.92581e-005 -0.000173702 0.00010753 -0.00016543 0.000115801 -0.000157159 0.000115801 -0.000148887 0.000132344 -0.000148887 0.000132344 -0.000140616 0.000140616 -0.000132344 0.000148887 -0.000132344 0.000148887 -0.000115801 0.000157159 -0.000115801 0.00016543 -0.00010753 0.000173702 -9.92581e-005 0.000173702 -9.09866e-005 0.000181973 -7.44436e-005 0.000181973 -7.44436e-005 0.000190245 -6.61721e-005 0.000190245 -5.79006e-005 0.000190245 -4.13575e-005 0.000206788 -3.3086e-005 0.000198516 -2.48145e-005 0.000206788 -1.6543e-005 0.000206788 -8.27151e-006 0.000206788 8.27151e-006 0.000206788 1.6543e-005 0.000198516 2.48145e-005 0.000206788 3.3086e-005 0.000190245 4.13575e-005 0.000190245 5.79006e-005 0.000190245 6.61721e-005 0.000181973 7.44436e-005 0.000181973 7.44436e-005 0.000173702 9.09866e-005 0.000173702 9.92581e-005 0.00016543 0.00010753 0.000157159 0.000115801 0.000148887 0.000115801 0.000148887 0.000132344 0.000140616 0.000132344 0.000132344 0.000140616 0.000132344 0.000148887 0.000115801 0.000148887 0.000115801 0.000157159 0.00010753 0.00016543 9.92581e-005 0.000173702 9.09866e-005 0.000173702 7.44436e-005 0.000181973 7.44436e-005 0.000181973 6.61721e-005 0.000190245 5.79006e-005 0.000190245 4.13575e-005 0.000190245 3.3086e-005 0.000206788 2.48145e-005 0.000198516 1.6543e-005 0.000206788 8.27151e-006 0.000206788zm0.682441 -0.690514l0 0.00810608 0 0 -0.0351291 0.000893323 -0.0346659 0.00263861 -0.0341531 0.00433427 -0.0336154 0.00599684 -0.0330116 0.00762633 -0.0323912 0.00918965 -0.031713 0.0107281 -0.0309851 0.0122253 -0.0302241 0.0136645 -0.02943 0.0150707 -0.0285781 0.0164355 -0.027693 0.0177424 -0.0267501 0.0190327 -0.0257823 0.0202569 -0.0247566 0.021448 -0.0236979 0.0225978 -0.0225978 0.0237061 -0.0214563 0.0247566 -0.0202487 0.0257823 -0.0190327 0.0267501 -0.0177424 0.027693 -0.0164355 0.0285781 -0.0150624 0.0294218 -0.0136645 0.0302241 -0.0122253 0.0309851 -0.0107199 0.031713 -0.00919792 0.0323747 -0.00761806 0.0330116 -0.00599684 0.0336071 -0.00434254 0.0341448 -0.00263034 0.0346659 -0.000893323 0.0351126 -0.00810608 0 0.000893323 -0.0355261 0.00266343 -0.0350629 0.00439217 -0.0345584 0.00607956 -0.0340042 0.00770078 -0.0334086 0.00931372 -0.0327717 0.0108522 -0.0320769 0.0123576 -0.0313656 0.01383 -0.030588 0.0152444 -0.0297692 0.016634 -0.0289255 0.0179574 -0.0280073 0.0192478 -0.0270809 0.0204968 -0.0260801 0.0217044 -0.0250544 0.0228625 -0.0239874 0.0239791 -0.0228625 0.0250544 -0.0216962 0.0260801 -0.0205051 0.0270809 -0.0192478 0.0280073 -0.0179574 0.0289255 -0.016634 0.0297774 -0.0152527 0.030588 -0.01383 0.0313656 -0.0123576 0.0320935 -0.0108605 0.0327717 -0.00930545 0.0334086 -0.00770905 0.0340124 -0.00607956 0.0345666 -0.0043839 0.0350629 -0.0026717 0.0355427 -0.000893323 0 0zm0 0.00810608l0 -0.00810608 0.000206788 8.27151e-006 0.000206788 1.6543e-005 0.000198516 2.48145e-005 0.000206788 3.3086e-005 0.000190245 4.13575e-005 0.000190245 5.79006e-005 0.000190245 6.61721e-005 0.000181973 7.44436e-005 0.000181973 7.44436e-005 0.000173702 9.09866e-005 0.000173702 9.92581e-005 0.00016543 0.00010753 0.000157159 0.000115801 0.000148887 0.000115801 0.000148887 0.000132344 0.000140616 0.000132344 0.000132344 0.000140616 0.000132344 0.000148887 0.000115801 0.000148887 0.000115801 0.000157159 0.00010753 0.00016543 9.92581e-005 0.000173702 9.09866e-005 0.000173702 7.44436e-005 0.000181973 7.44436e-005 0.000181973 6.61721e-005 0.000190245 5.79006e-005 0.000190245 4.13575e-005 0.000190245 3.3086e-005 0.000206788 2.48145e-005 0.000198516 1.6543e-005 0.000206788 8.27151e-006 0.000206788 -8.27151e-006 0.000206788 -1.6543e-005 0.000206788 -2.48145e-005 0.000198516 -3.3086e-005 0.000206788 -4.13575e-005 0.000190245 -5.79006e-005 0.000190245 -6.61721e-005 0.000190245 -7.44436e-005 0.000181973 -7.44436e-005 0.000181973 -9.09866e-005 0.000173702 -9.92581e-005 0.000173702 -0.00010753 0.00016543 -0.000115801 0.000157159 -0.000115801 0.000148887 -0.000132344 0.000148887 -0.000132344 0.000140616 -0.000140616 0.000132344 -0.000148887 0.000132344 -0.000148887 0.000115801 -0.000157159 0.000115801 -0.00016543 0.00010753 -0.000173702 9.92581e-005 -0.000173702 9.09866e-005 -0.000181973 7.44436e-005 -0.000181973 7.44436e-005 -0.000190245 6.61721e-005 -0.000190245 5.79006e-005 -0.000190245 4.13575e-005 -0.000206788 3.3086e-005 -0.000198516 2.48145e-005 -0.000206788 1.6543e-005 -0.000206788 8.27151e-006zm0.118423 0.00257244l0.00301083 0.00752707 -0.00220849 0.000231602 -0.00363119 -0.000636906 -0.00364774 -0.00060382 -0.00364774 -0.000595549 -0.00364774 -0.000562463 -0.00366428 -0.000554191 -0.00367255 -0.000537648 -0.00366428 -0.000504562 -0.00368909 -0.000496291 -0.00368082 -0.000479748 -0.00368909 -0.000446662 -0.00370564 -0.000430119 -0.00370564 -0.000421847 -0.00370564 -0.000388761 -0.00371391 -0.000372218 -0.00372218 -0.000355675 -0.00373045 -0.000339132 -0.00373045 -0.000306046 -0.00373872 -0.000297774 -0.00373872 -0.00027296 -0.00375527 -0.000256417 -0.00374699 -0.000239874 -0.00375527 -0.000206788 -0.00377181 -0.000190245 -0.00376354 -0.000173702 -0.00378008 -0.000157159 -0.00377181 -0.000132344 -0.00378008 -0.000115801 -0.00378835 -9.09866e-005 -0.00378835 -7.44436e-005 -0.00379662 -4.96291e-005 -0.00380489 -3.3086e-005 -0.00379662 -8.27151e-006 0 -0.00810608 0.00384625 8.27151e-006 0.00383798 3.3086e-005 0.00384625 4.96291e-005 0.00383798 7.44436e-005 0.00382144 9.09866e-005 0.00382971 0.000115801 0.00382144 0.000132344 0.00381317 0.000157159 0.00381317 0.000173702 0.00380489 0.000190245 0.00380489 0.000223331 0.00379662 0.000239874 0.00378835 0.000256417 0.00378835 0.00027296 0.00378835 0.000297774 0.00378008 0.000322589 0.00376354 0.000339132 0.00375527 0.000355675 0.00376354 0.000372218 0.00375527 0.000405304 0.00375527 0.000421847 0.00373872 0.000430119 0.00373872 0.000463205 0.00373045 0.000479748 0.00372218 0.000496291 0.00371391 0.000521105 0.00372218 0.000537648 0.00369736 0.000554191 0.00369736 0.000579006 0.00369736 0.000595549 0.00368082 0.000620363 0.00368082 0.000636906 -0.00220849 0.000231602zm0.000802336 0.00775868l0.00140616 -0.00799028 0.000206788 4.13575e-005 0.000198516 4.96291e-005 0.000190245 5.79006e-005 0.000190245 7.44436e-005 0.000190245 7.44436e-005 0.000173702 9.09866e-005 0.000181973 9.09866e-005 0.00016543 0.00010753 0.00016543 0.00010753 0.000148887 0.000124073 0.000157159 0.000124073 0.000140616 0.000132344 0.000132344 0.000140616 0.000132344 0.000140616 0.000124073 0.000157159 0.000115801 0.000148887 0.00010753 0.00016543 9.92581e-005 0.00016543 9.09866e-005 0.000173702 8.27151e-005 0.000181973 8.27151e-005 0.000173702 6.61721e-005 0.000190245 5.79006e-005 0.000181973 4.96291e-005 0.000190245 3.3086e-005 0.000198516 3.3086e-005 0.000198516 2.48145e-005 0.000198516 8.27151e-006 0.000198516 0 0.000206788 -8.27151e-006 0.000198516 -1.6543e-005 0.000206788 -3.3086e-005 0.000206788 -4.13575e-005 0.000206788 -4.96291e-005 0.000198516 -5.79006e-005 0.000190245 -7.44436e-005 0.000190245 -7.44436e-005 0.000190245 -9.09866e-005 0.000173702 -9.09866e-005 0.000181973 -0.00010753 0.00016543 -0.00010753 0.00016543 -0.000124073 0.000148887 -0.000124073 0.000157159 -0.000132344 0.000140616 -0.000140616 0.000132344 -0.000140616 0.000132344 -0.000157159 0.000124073 -0.000148887 0.000115801 -0.00016543 0.00010753 -0.00016543 9.92581e-005 -0.000173702 9.09866e-005 -0.000181973 8.27151e-005 -0.000173702 8.27151e-005 -0.000190245 6.61721e-005 -0.000181973 5.79006e-005 -0.000190245 4.96291e-005 -0.000198516 3.3086e-005 -0.000198516 3.3086e-005 -0.000198516 2.48145e-005 -0.000198516 8.27151e-006 -0.000206788 0 -0.000198516 -8.27151e-006 -0.000206788 -1.6543e-005 -0.000206788 -3.3086e-005zm0.0259477 -0.00969421l-0.0237392 0.00946261 -0.00301083 -0.00752707 0.0237392 -0.00946261 0.00232429 -0.000206788 0.000686535 0.00773386zm0 0l-0.00301083 -0.00752707 0.000198516 -7.44436e-005 0.000190245 -5.79006e-005 0.000198516 -4.96291e-005 0.000198516 -4.13575e-005 0.000198516 -3.3086e-005 0.000198516 -1.6543e-005 0.000198516 -1.6543e-005 0.000198516 0 0.000198516 8.27151e-006 0.000198516 1.6543e-005 0.000190245 3.3086e-005 0.000190245 3.3086e-005 0.000190245 4.96291e-005 0.000190245 4.96291e-005 0.000181973 6.61721e-005 0.000181973 7.44436e-005 0.000181973 8.27151e-005 0.00016543 8.27151e-005 0.000173702 9.92581e-005 0.00016543 0.00010753 0.000157159 0.000115801 0.000157159 0.000115801 0.000140616 0.000132344 0.000148887 0.000132344 0.000132344 0.000148887 0.000132344 0.000148887 0.000115801 0.000157159 0.000115801 0.00016543 0.00010753 0.000173702 9.92581e-005 0.000173702 9.09866e-005 0.000190245 8.27151e-005 0.000190245 7.44436e-005 0.000198516 5.79006e-005 0.000190245 4.96291e-005 0.000198516 4.13575e-005 0.000198516 3.3086e-005 0.000198516 1.6543e-005 0.000198516 1.6543e-005 0.000198516 0 0.000198516 -8.27151e-006 0.000198516 -1.6543e-005 0.000198516 -3.3086e-005 0.000190245 -3.3086e-005 0.000190245 -4.96291e-005 0.000190245 -4.96291e-005 0.000190245 -6.61721e-005 0.000181973 -7.44436e-005 0.000181973 -8.27151e-005 0.000181973 -8.27151e-005 0.00016543 -9.92581e-005 0.000173702 -0.00010753 0.00016543 -0.000115801 0.000157159 -0.000115801 0.000157159 -0.000132344 0.000140616 -0.000132344 0.000148887 -0.000148887 0.000132344 -0.000148887 0.000132344 -0.000157159 0.000115801 -0.00016543 0.000115801 -0.000173702 0.00010753 -0.000173702 9.92581e-005 -0.000190245 9.09866e-005 -0.000190245 8.27151e-005zm-0.145173 -0.0143345l0 -0.00810608 0 0 0.00464032 1.6543e-005 0.00464032 4.13575e-005 0.00463205 7.44436e-005 0.00462377 0.00010753 0.00460723 0.000132344 0.00460723 0.000157159 0.00459896 0.000190245 0.00459069 0.000223331 0.00458242 0.000256417 0.00458242 0.000281231 0.00454933 0.000306046 0.0045576 0.00033086 0.0045576 0.000372218 0.00454106 0.000397032 0.00452452 0.000413575 0.00452452 0.000454933 0.00451624 0.000479748 0.0044997 0.000504562 0.0044997 0.000529377 0.00449143 0.000570734 0.00447489 0.000587277 0.00447489 0.000620363 0.00445834 0.000645178 0.0044418 0.000661721 0.00445007 0.000703078 0.00443353 0.000727893 0.00441699 0.000752707 0.00441699 0.000785793 0.00440044 0.000802336 0.00439217 0.000835423 0.0043839 0.000851966 0.00437563 0.000893323 -0.00163776 0.00794065 -0.004326 -0.00087678 -0.00433427 -0.000851966 -0.00434254 -0.000818879 -0.00435081 -0.000802336 -0.00436736 -0.00076925 -0.00436736 -0.000736164 -0.0043839 -0.000727893 -0.0043839 -0.000686535 -0.00440871 -0.000661721 -0.00440871 -0.000645178 -0.00440871 -0.00060382 -0.0044418 -0.000587277 -0.00442526 -0.000554191 -0.00445007 -0.000529377 -0.00445007 -0.000504562 -0.00446662 -0.000463205 -0.00447489 -0.000454933 -0.00447489 -0.000413575 -0.00449143 -0.000397032 -0.00449143 -0.000355675 -0.00450797 -0.00033086 -0.00451624 -0.000306046 -0.00451624 -0.000281231 -0.00453279 -0.000239874 -0.00454106 -0.000223331 -0.00454933 -0.000190245 -0.00454106 -0.000157159 -0.00457415 -0.000132344 -0.00457415 -0.00010753 -0.00456587 -7.44436e-005 -0.00459069 -4.13575e-005 -0.00459069 -1.6543e-005 0 0zm0 -0.00810608l0 0.00810608 -0.000206788 -8.27151e-006 -0.000206788 -1.6543e-005 -0.000198516 -2.48145e-005 -0.000206788 -3.3086e-005 -0.000190245 -4.13575e-005 -0.000190245 -5.79006e-005 -0.000190245 -6.61721e-005 -0.000181973 -7.44436e-005 -0.000181973 -7.44436e-005 -0.000173702 -9.09866e-005 -0.000173702 -9.92581e-005 -0.00016543 -0.00010753 -0.000157159 -0.000115801 -0.000148887 -0.000115801 -0.000148887 -0.000132344 -0.000140616 -0.000132344 -0.000132344 -0.000140616 -0.000132344 -0.000148887 -0.000115801 -0.000148887 -0.000115801 -0.000157159 -0.00010753 -0.00016543 -9.92581e-005 -0.000173702 -9.09866e-005 -0.000173702 -7.44436e-005 -0.000181973 -7.44436e-005 -0.000181973 -6.61721e-005 -0.000190245 -5.79006e-005 -0.000190245 -4.13575e-005 -0.000190245 -3.3086e-005 -0.000206788 -2.48145e-005 -0.000198516 -1.6543e-005 -0.000206788 -8.27151e-006 -0.000206788 8.27151e-006 -0.000206788 1.6543e-005 -0.000206788 2.48145e-005 -0.000198516 3.3086e-005 -0.000206788 4.13575e-005 -0.000190245 5.79006e-005 -0.000190245 6.61721e-005 -0.000190245 7.44436e-005 -0.000181973 7.44436e-005 -0.000181973 9.09866e-005 -0.000173702 9.92581e-005 -0.000173702 0.00010753 -0.00016543 0.000115801 -0.000157159 0.000115801 -0.000148887 0.000132344 -0.000148887 0.000132344 -0.000140616 0.000140616 -0.000132344 0.000148887 -0.000132344 0.000148887 -0.000115801 0.000157159 -0.000115801 0.00016543 -0.00010753 0.000173702 -9.92581e-005 0.000173702 -9.09866e-005 0.000181973 -7.44436e-005 0.000181973 -7.44436e-005 0.000190245 -6.61721e-005 0.000190245 -5.79006e-005 0.000190245 -4.13575e-005 0.000206788 -3.3086e-005 0.000198516 -2.48145e-005 0.000206788 -1.6543e-005 0.000206788 -8.27151e-006zm-0.696287 0.704212l-0.00810608 0 0 0 0.000909866 -0.0362375 0.00272133 -0.0357577 0.00448316 -0.0352532 0.00620363 -0.0346824 0.00785793 -0.0340703 0.00949569 -0.0334252 0.0110838 -0.0327221 0.0126141 -0.0319777 0.0141029 -0.0312001 0.0155587 -0.0303647 0.0169649 -0.0294962 0.0183297 -0.0285615 0.0196283 -0.0276186 0.0209186 -0.0265929 0.0221428 -0.025559 0.0233257 -0.0244506 0.0244589 -0.0233174 0.0255672 -0.0221263 0.0266012 -0.0209104 0.0276268 -0.0196283 0.0285781 -0.0183131 0.0294962 -0.0169649 0.030373 -0.0155504 0.0312001 -0.0141029 0.0319942 -0.0125975 0.0327304 -0.0110756 0.0334169 -0.00948742 0.0340786 -0.00785793 0.0346824 -0.00620363 0.0352532 -0.00447489 0.0357577 -0.00272133 0.0362375 -0.000909866 0 0.00810608 -0.0358239 0.000909866 -0.0353607 0.00268824 -0.0348396 0.00442526 -0.0342854 0.00612092 -0.0336816 0.00777522 -0.0330364 0.00937162 -0.0323499 0.0109432 -0.0316137 0.0124652 -0.0308362 0.0139375 -0.0300256 0.0153685 -0.0291653 0.0167664 -0.0282472 0.0180981 -0.027296 0.0194132 -0.0263034 0.0206622 -0.0252695 0.0218781 -0.0241776 0.0230527 -0.023061 0.0241694 -0.0218947 0.0252612 -0.0206705 0.0262951 -0.0194132 0.0272877 -0.0181146 0.0282472 -0.0167664 0.0291488 -0.0153767 0.0300173 -0.013954 0.0308362 -0.0124652 0.0316137 -0.0109515 0.0323416 -0.00937989 0.0330281 -0.00777522 0.0336733 -0.00612092 0.0342854 -0.00443353 0.0348396 -0.00268824 0.0353607 -0.000909866 0.0358239 0 0zm-0.00810608 0l0.00810608 0 -8.27151e-006 0.000206788 -1.6543e-005 0.000206788 -2.48145e-005 0.000198516 -3.3086e-005 0.000206788 -4.13575e-005 0.000190245 -5.79006e-005 0.000190245 -6.61721e-005 0.000190245 -7.44436e-005 0.000181973 -7.44436e-005 0.000181973 -9.09866e-005 0.000173702 -9.92581e-005 0.000173702 -0.00010753 0.00016543 -0.000115801 0.000157159 -0.000115801 0.000148887 -0.000132344 0.000148887 -0.000132344 0.000140616 -0.000140616 0.000132344 -0.000148887 0.000132344 -0.000148887 0.000115801 -0.000157159 0.000115801 -0.00016543 0.00010753 -0.000173702 9.92581e-005 -0.000173702 9.09866e-005 -0.000181973 7.44436e-005 -0.000181973 7.44436e-005 -0.000190245 6.61721e-005 -0.000190245 5.79006e-005 -0.000190245 4.13575e-005 -0.000206788 3.3086e-005 -0.000198516 2.48145e-005 -0.000206788 1.6543e-005 -0.000206788 8.27151e-006 -0.000206788 -8.27151e-006 -0.000206788 -1.6543e-005 -0.000198516 -2.48145e-005 -0.000206788 -3.3086e-005 -0.000190245 -4.13575e-005 -0.000190245 -5.79006e-005 -0.000190245 -6.61721e-005 -0.000181973 -7.44436e-005 -0.000181973 -7.44436e-005 -0.000173702 -9.09866e-005 -0.000173702 -9.92581e-005 -0.00016543 -0.00010753 -0.000157159 -0.000115801 -0.000148887 -0.000115801 -0.000148887 -0.000132344 -0.000140616 -0.000132344 -0.000132344 -0.000140616 -0.000132344 -0.000148887 -0.000115801 -0.000148887 -0.000115801 -0.000157159 -0.00010753 -0.00016543 -9.92581e-005 -0.000173702 -9.09866e-005 -0.000173702 -7.44436e-005 -0.000181973 -7.44436e-005 -0.000181973 -6.61721e-005 -0.000190245 -5.79006e-005 -0.000190245 -4.13575e-005 -0.000190245 -3.3086e-005 -0.000206788 -2.48145e-005 -0.000198516 -1.6543e-005 -0.000206788 -8.27151e-006 -0.000206788zm0.704394 0.696436l0 0.00810608 0 0 -0.0362375 -0.000909866 -0.0357577 -0.00272133 -0.0352532 -0.00448316 -0.0346824 -0.00620363 -0.0340786 -0.00785793 -0.0334252 -0.00950396 -0.0327304 -0.0110756 -0.0319859 -0.0126223 -0.0312001 -0.0141029 -0.030373 -0.0155587 -0.0295045 -0.0169649 -0.0285698 -0.0183297 -0.0276268 -0.0196448 -0.0266012 -0.0209186 -0.0255672 -0.0221428 -0.0244589 -0.0233257 -0.0233257 -0.0244671 -0.0221428 -0.0255672 -0.0209186 -0.0266094 -0.0196283 -0.0276351 -0.0183297 -0.0285781 -0.0169649 -0.0295045 -0.0155587 -0.0303813 -0.0141112 -0.0312084 -0.0126058 -0.0319942 -0.0110838 -0.0327304 -0.00949569 -0.0334417 -0.00785793 -0.0340869 -0.00620363 -0.0346907 -0.00448316 -0.0352614 -0.00272133 -0.035766 -0.000909866 -0.036254 0.00810608 0 0.000909866 0.0358405 0.00268824 0.035369 0.00443353 0.0348479 0.00612092 0.0342937 0.00777522 0.0336899 0.00937989 0.0330447 0.0109515 0.0323499 0.0124734 0.0316303 0.0139458 0.0308445 0.0153767 0.0300339 0.0167664 0.0291571 0.0181146 0.0282637 0.0194132 0.0273043 0.0206705 0.0263117 0.0218947 0.0252695 0.023061 0.0241859 0.0241776 0.023061 0.0252695 0.0218947 0.0263034 0.0206705 0.027296 0.0194298 0.0282555 0.0181146 0.0291571 0.0167664 0.0300256 0.0153767 0.0308362 0.013954 0.031622 0.0124734 0.0323499 0.0109432 0.0330281 0.00938816 0.0336816 0.00777522 0.0342854 0.00612092 0.0348396 0.00443353 0.0353607 0.00268824 0.0358239 0.000909866 0 0zm0 0.00810608l0 -0.00810608 0.000206788 8.27151e-006 0.000206788 1.6543e-005 0.000198516 2.48145e-005 0.000206788 3.3086e-005 0.000190245 4.13575e-005 0.000190245 5.79006e-005 0.000190245 6.61721e-005 0.000181973 7.44436e-005 0.000181973 7.44436e-005 0.000173702 9.09866e-005 0.000173702 9.92581e-005 0.00016543 0.00010753 0.000157159 0.000115801 0.000148887 0.000115801 0.000148887 0.000132344 0.000140616 0.000132344 0.000132344 0.000140616 0.000132344 0.000148887 0.000115801 0.000148887 0.000115801 0.000157159 0.00010753 0.00016543 9.92581e-005 0.000173702 9.09866e-005 0.000173702 7.44436e-005 0.000181973 7.44436e-005 0.000181973 6.61721e-005 0.000190245 5.79006e-005 0.000190245 4.13575e-005 0.000190245 3.3086e-005 0.000206788 2.48145e-005 0.000198516 1.6543e-005 0.000206788 8.27151e-006 0.000206788 -8.27151e-006 0.000206788 -1.6543e-005 0.000206788 -2.48145e-005 0.000198516 -3.3086e-005 0.000206788 -4.13575e-005 0.000190245 -5.79006e-005 0.000190245 -6.61721e-005 0.000190245 -7.44436e-005 0.000181973 -7.44436e-005 0.000181973 -9.09866e-005 0.000173702 -9.92581e-005 0.000173702 -0.00010753 0.00016543 -0.000115801 0.000157159 -0.000115801 0.000148887 -0.000132344 0.000148887 -0.000132344 0.000140616 -0.000140616 0.000132344 -0.000148887 0.000132344 -0.000148887 0.000115801 -0.000157159 0.000115801 -0.00016543 0.00010753 -0.000173702 9.92581e-005 -0.000173702 9.09866e-005 -0.000181973 7.44436e-005 -0.000181973 7.44436e-005 -0.000190245 6.61721e-005 -0.000190245 5.79006e-005 -0.000190245 4.13575e-005 -0.000206788 3.3086e-005 -0.000198516 2.48145e-005 -0.000206788 1.6543e-005 -0.000206788 8.27151e-006z"/>
   </g>
   <path class="fil3" d="M0.0446083 0.704212c0,-0.364269 0.295409,-0.659678 0.659785,-0.659678 0.364492,0 0.659942,0.295409 0.659942,0.659678 0,0.364509 -0.29545,0.660083 -0.659942,0.660083 -0.364377,0 -0.659785,-0.295574 -0.659785,-0.660083l0 0z"/>
   <g>
    <path class="fil4 str0" d="M0.0446165 0.704212c0,-0.364269 0.2954,-0.659678 0.659777,-0.659678 0.364492,0 0.659942,0.295409 0.659942,0.659678 0,0.364509 -0.29545,0.660083 -0.659942,0.660083 -0.364377,0 -0.659777,-0.295574 -0.659777,-0.660083l0 0z"/>
   </g>
   <path class="fil1" d="M0.946823 0.0617634c0.259543,0.0978437 0.444197,0.348619 0.444197,0.642448 0,0.379216 -0.307427,0.686643 -0.686626,0.686643 -0.379207,0 -0.686502,-0.307427 -0.686502,-0.686643 0,-0.379092 0.307295,-0.686461 0.686502,-0.686461 0.0408116,0 0.0809533,0.00353193 0.119929,0.010389l0.0237475 -0.00946261c-0.0463453,-0.00953705 -0.0943697,-0.0146323 -0.143676,-0.0146323 -0.38671,0 -0.70034,0.313441 -0.70034,0.700167 0,0.386842 0.313631,0.700481 0.70034,0.700481 0.386834,0 0.70034,-0.313639 0.70034,-0.700481 0,-0.302522 -0.191866,-0.560362 -0.460731,-0.658272l0.00282058 0.0158234 0 0z"/>
   <path class="fil1" d="M1.06367 0.255391c-0.00564117,0.0435826 -0.0216135,0.0397032 -0.0288179,0.0375857 -0.00775868,-0.00226639 -0.00988445,-0.0055171 -0.0332018,-0.00770078 -0.00735337,-0.000703078 -0.0413824,-0.00451624 -0.0231685,0.00981828 0.0292398,0.0233836 0.0541039,0.0708538 0.0541039,0.0708538 0.00339132,-0.015476 -0.00450797,-0.0375775 -0.00875953,-0.0452865 -0.00436736,-0.00783312 0.00114147,-0.0099589 0.00649314,-0.00889187 0.00565771,0.00105875 0.00878434,0.00317626 0.01895,0.00889187 0.00989273,0.00544265 0.0165182,0.00445834 0.0187846,-0.00889187 0.00184455,-0.0115305 0.00126554,-0.0350381 -0.000992581,-0.0563042 -0.000289503,-0.00155504 -0.00282058,-0.00232429 -0.00339132,-7.44436e-005l0 0zm-0.25784 -0.0532603c-0.0575118,0.0465603 -0.152163,0.157887 -0.196804,0.262215 -0.00339959,0.00779176 0,0.00897459 0.0110094,0.00227467 0.0111665,-0.00671647 0.0432269,-0.022118 0.0586367,-0.0265681 0,0 -0.0166671,0.0577848 -0.0221842,0.0896384 -0.00437563,0.0262124 0.0173867,0.0241611 0.0309603,0.021051 0.0135487,-0.00304392 0.0697785,-0.00550883 0.0796629,-0.00670819 0,0 -0.0519782,-0.012217 -0.0574953,-0.033268 -0.00550883,-0.0209104 0.00932199,-0.0676775 0.0199095,-0.0993987 0.00228294,-0.00677437 -0.00111665,-0.0165926 -0.0121426,-0.0122915 -0.0111583,0.00439217 -0.0265515,0.00770078 -0.0343185,0.0122915 0,0 0.048744,-0.119515 0.123899,-0.205853l-0.0011332 -0.00338305 0 0zm0.0730292 -0.119317c0.00326725,-0.00366428 0,-0.00663375 -0.00874299,-0.00105875 -0.00890842,0.00544265 -0.0479086,0.0288924 -0.0741872,0.0729051 -0.00322589,0.005575 -0.00125727,0.0138465 0.0127216,0.00904076 0.0171055,-0.00601339 0.0347569,-0.00904076 0.0425238,-0.010174 0.00778349,-0.0011332 0.00778349,-0.00657585 0.00228294,-0.00869336 -0.0055171,-0.00232429 -0.00679091,-0.00445007 -0.00439217,-0.0133419 0.00210924,-0.00883397 0.0176597,-0.0343268 0.029794,-0.0486778l0 0zm-0.508475 0.752095c0.00678264,-0.00833768 0.0209186,-0.0200584 0.0395709,-0.0292481 0.0265598,-0.0134329 0.102285,-0.0221925 0.144247,-0.0216135 0.0248724,0.000264688 0.0415395,0.0115884 0.0531362,0.0231685 0.0115636,0.0115801 -0.00833768,0.0132758 -0.0182552,0.00493809 -0.0100085,-0.00819707 -0.0210427,-0.0110177 -0.0326311,-0.0110177 -0.0115718,0 -0.0238633,0.00452452 -0.0303564,0.00932199 -0.00665029,0.00507871 -0.00833768,0.0118696 -0.0248724,0.0166671 -0.0200584,0.00564944 -0.0432269,-0.0124321 -0.0432269,-0.0124321 0.0162535,0.0306708 0.0442112,0.0296699 0.0597617,0.025865 0.0113072,-0.00296947 0.0148308,-0.00820534 0.0314896,-0.00847003 0.0265598,-0.000430119 0.0381647,0.0149714 0.0381647,0.0149714 -0.0332101,-0.00169566 -0.0894316,0.0190741 -0.11614,0.0248559 -0.0332018,0.00735337 -0.0646998,0.00833768 -0.0646998,0.00833768 0.0214563,0.0265681 0.0531114,0.0265681 0.0764205,0.0265681 0.0231685,0 0.0977692,-0.0055171 0.142559,-0.00170393 0.0562215,0.00466513 0.101152,0.0415478 0.101152,0.0962225 0,0.0546747 -0.0379993,0.0844769 -0.0379993,0.0844769 0.0480409,-0.0148225 0.067967,-0.052979 0.067967,-0.052979 0.0255755,0.0986129 -0.0275607,0.177457 -0.0761641,0.209666 -0.0403981,0.026841 -0.161642,0.0545423 -0.254729,0.0100416 -0.102989,-0.0493065 -0.141989,-0.0973474 -0.141989,-0.0973474 0.223935,0.0182139 0.333425,-0.0437976 0.333425,-0.0437976 -0.202313,0.0117207 -0.34345,-0.0394386 -0.434726,-0.0794065 -0.0364525,-0.0579254 -0.0630041,-0.121219 -0.0785628,-0.19003l0 0.000140616c0.167432,0.126016 0.315922,0.147646 0.315922,0.147646 -0.18084,-0.0979099 -0.270834,-0.207549 -0.330612,-0.316865 0.00312663,-0.0638561 0.0158234,-0.123552 0.036742,-0.180848l0.000413575 -0.00098431c0.067115,0.178507 0.140856,0.23166 0.140856,0.23166 -0.0730374,-0.166026 -0.072475,-0.28492 -0.0658247,-0.374501 0.0279825,-0.0397032 0.0597534,-0.0748737 0.0960736,-0.106951l0.000554191 -0.000645178c-0.0282389,0.159375 0.00565771,0.262943 0.00565771,0.262943 0,-0.126033 0.0707876,-0.276004 0.127158,-0.352432 0.0357495,-0.0178747 0.0702168,-0.0310843 0.109358,-0.0420358l0.000132344 0c-0.051424,0.0646419 -0.07403,0.127365 -0.07403,0.127365 0.105544,-0.100441 0.280305,-0.160773 0.306856,-0.167564 0.0265598,-0.00649314 0.103013,-0.0347569 0.124627,-0.0396205 0.0197689,-0.0047313 0.0293721,0.00784139 0.0281066,0.0198516 -0.00167085,0.0156001 -0.00833768,0.0415313 -0.00833768,0.0415313 0.0586285,0.0142684 0.0840716,0.0430946 0.0840716,0.0430946 -0.00224985,-0.00776695 -0.00114147,-0.021051 -0.00114147,-0.021051 0.0808209,0.0719042 0.102864,0.106173 0.105131,0.171361 0.00225812,0.0652788 0.0309354,0.0752459 0.0474785,0.0840716 0.0166588,0.00884224 0.0576359,0.0322175 0.0707793,0.0432352 0.00988445,0.00833768 0.00564117,0.0176679 0,0.02431 -0.00550883,0.00655931 -0.00550883,0.0088257 -0.00650968,0.0165182 -0.00495463,0.0339215 -0.0200667,0.0476191 -0.0409853,0.0552537 -0.0210344,0.0076925 -0.0443601,-0.00439217 -0.0443601,-0.00439217 -0.0231602,0.0254432 -0.0275441,0.00883397 -0.0286691,-0.00105048 -0.00098431,-0.00996717 -0.0132923,-0.00219195 -0.0220436,0.00105048 -0.00889187,0.00333342 -0.0121508,-0.0088257 -0.0121508,-0.0088257 -0.0420854,-0.00550883 -0.0604565,0.0193553 -0.0604565,0.0193553 0.0365849,0.00493809 0.0549476,0.0298105 0.0565027,0.0397694 0.00169566,0.010174 0.0182304,0.00333342 0.0182304,0.00333342 0,0 0.00156332,-0.00333342 0.00834595,-0.00657585 0.00662548,-0.00333342 0.00832941,-0.00169566 0.00662548,0.00657585 -0.00168739,0.00825497 -0.00339132,0.0149714 -0.00339132,0.0149714l0.0183793 0.0116546c-0.00679091,0.0448564 -0.0265515,0.0429374 -0.0366014,0.0380738 -0.0637237,-0.0318536 -0.177449,-0.0380738 -0.177449,-0.0380738 0.00662548,-0.00996717 0.0225978,-0.0227467 0.0225978,-0.0227467 -0.291902,0 -0.3412,0.03546 -0.356163,0.0541784 -0.0103311,0.0129945 -0.00143097,0.0331274 -0.00143097,0.0331274 -0.0347486,0.00665029 -0.122915,0.0289007 -0.156679,0.0598692 -0.0324905,0.0296782 -0.0433593,0.0993243 -0.044509,0.125032 -0.000264688,0.00537648 0.00495463,0.00523587 0.00720449,0.00213405l0 0z"/>
   <path class="fil1" d="M1.13742 1.14686c-0.0260056,-0.0870411 -0.0977775,-0.142559 -0.137605,-0.190741 -0.0162535,-0.0196366 -0.0402823,-0.0471807 -0.0402823,-0.0471807 0.0233257,0.0132758 0.0675617,0.0199095 0.0675617,0.0199095 -0.0121674,-0.0100168 -0.0398604,-0.0430946 -0.0508863,-0.056511 -0.0307948,-0.0368661 -0.0841957,-0.0781161 -0.123899,-0.0960653 -0.0779921,-0.0353276 -0.159218,-0.0398439 -0.170244,-0.0419614 -0.0111665,-0.00225812 -0.0343185,0.00211751 -0.0200584,-0.0200667 0.014409,-0.0221428 0.0984723,-0.0873471 0.0984723,-0.0873471 -0.0176514,0 -0.0950893,0.00678264 -0.118398,0.0099589 -0.0231768,0.00338305 -0.0285367,-0.00437563 -0.0298023,-0.0197772 0,0 -0.0466348,0.0438721 -0.02431,0.0662631 0.00339959,0.00331688 0.013284,0.00445007 0.0255755,-0.00106702 0.0120102,-0.005575 0.0363202,-0.0133419 0.0452121,-0.0143345 0,0 -0.0199178,0.0309024 -0.0242934,0.0441947 -0.00440044,0.0132758 -0.00550883,0.0199178 0.0154016,0.0265515 0.0210344,0.00650141 0.12729,0.0398439 0.19242,0.0840634 0.0652705,0.0442278 0.132816,0.100739 0.182685,0.204579 0.0497283,0.104122 0.0223083,0.182966 0.0145413,0.197366 0.0357495,-0.0227301 0.0682317,-0.0487275 0.0984806,-0.078265l-0.000570734 0.000430119 0 0z"/>
   <path class="fil1" d="M1.28293 0.926442c-0.0639801,-0.0519699 -0.176307,-0.144809 -0.31335,-0.176737 0,0 0.195538,0.0781327 0.265325,0.274804 0.0189335,-0.0312332 0.0347569,-0.0635831 0.0480244,-0.098067l0 0z"/>
   <path class="fil1" d="M0.899072 1.29153c0.0209186,-0.048744 0.0439465,-0.164595 0.0196531,-0.254308 0,0 0.0044997,0.211072 -0.14031,0.280735 0.0406876,-0.00480575 0.0825083,-0.0138548 0.120375,-0.0262869l0.000281231 -0.000140616 0 0z"/>
   <path class="fil1" d="M1.32405 0.696023c-0.0187763,-0.00760152 -0.134503,-0.0403732 -0.134503,-0.0403732 0.0387189,-0.00211751 0.0542446,-0.0308031 0.0542446,-0.0308031 -0.036436,0.00981828 -0.0918303,0.0142766 -0.138159,0.0076346 0,0 0.107232,0.0464032 0.21405,0.147746l0 -0.000992581c0.00282058,-0.024434 0.00450797,-0.0494471 0.00450797,-0.0750226 0,-0.00311009 0,-0.00480575 -0.000140616,-0.00818879l0 0z"/>
  </g>
 </g>
</svg>
