<?xml version="1.0" encoding="UTF-8"?>
<!DOCTYPE svg PUBLIC "-//W3C//DTD SVG 1.1//EN" "http://www.w3.org/Graphics/SVG/1.1/DTD/svg11.dtd">
<!-- Creator: CorelDRAW -->
<svg xmlns="http://www.w3.org/2000/svg" xml:space="preserve" width="16.9332mm" height="16.9332mm" style="shape-rendering:geometricPrecision; text-rendering:geometricPrecision; image-rendering:optimizeQuality; fill-rule:evenodd; clip-rule:evenodd"
viewBox="0 0 1.37695 1.37695"
 xmlns:xlink="http://www.w3.org/1999/xlink">
 <defs>
  <style type="text/css">
   <![CDATA[
    .fil3 {fill:#EBECEC}
    .fil0 {fill:#010101;fill-rule:nonzero}
    .fil1 {fill:#294594;fill-rule:nonzero}
    .fil2 {fill:#EA5E20;fill-rule:nonzero}
   ]]>
  </style>
 </defs>
<symbol id="Fm4-477-0" viewBox="3.60892 -11.5433 1.06138 1.49478">
 <polygon class="fil0" points="3.60892,-10.9166 3.60892,-10.0485 4.6703,-11.5433 "/>
</symbol>
<symbol id="Fm0-469-0" viewBox="2.54817 -12.2265 2.1215 1.10914">
 <polygon class="fil0" points="3.60892,-12.2265 2.54817,-11.7444 3.60892,-11.1174 4.66967,-11.7444 "/>
</symbol>
<symbol id="Fm1-471-0" viewBox="2.54818 -13.5045 1.06075 2.38705">
 <polygon class="fil0" points="2.54818,-11.7444 3.60893,-11.1174 3.60893,-12.2266 3.60893,-13.5045 "/>
</symbol>
<symbol id="Fm2-473-0" viewBox="3.60892 -13.5045 1.06075 2.38705">
 <polygon class="fil0" points="3.60892,-13.5045 3.60892,-12.2266 3.60892,-11.1174 4.66967,-11.7444 "/>
</symbol>
<symbol id="Fm3-475-0" viewBox="2.54818 -11.5433 1.06075 1.49478">
 <polygon class="fil0" points="2.54818,-11.5433 3.60893,-10.0485 3.60893,-10.9166 "/>
</symbol>
 <g id="__x0023_Layer_x0020_1">
  <metadata id="CorelCorpID_0Corel-Layer"/>
  <g id="_394736400">
   <g>
    <path id="_394729968" class="fil1" d="M1.15569 0.448949c0,-0.125577 -0.101784,-0.227345 -0.227353,-0.227345l-0.321176 0c-0.10363,0 -0.192021,0.0698429 -0.218856,0.166398l0.388238 0c0.149346,0 0.212732,0.0694688 0.212732,0.232517l0 0.368446c0.0963602,-0.0268101 0.166415,-0.115527 0.166415,-0.21875l0 -0.321266z"/>
    <path id="_394734000" class="fil2" d="M0.221271 0.92801c0,0.125618 0.101808,0.227337 0.227361,0.227337l0.321184 0c0.103671,0 0.192046,-0.0697941 0.218847,-0.166382l-0.388222 0c-0.149362,0 -0.212765,-0.0694607 -0.212765,-0.232517l0 -0.368446c-0.0963277,0.0268264 -0.166406,0.115559 -0.166406,0.218791l0 0.321217z"/>
    <g>
     <path id="_394733928" class="fil1" d="M0.871812 0.580674l0 -0.000983931c0.0180116,-0.00568403 0.0420326,-0.0207032 0.0420326,-0.0601093 0,-0.0443501 -0.0360395,-0.0647118 -0.0867649,-0.0647118l-0.0860899 0 0 0.106126 -0.0506847 0c-0.0680864,0 -0.0821217,0.0477654 -0.0821217,0.0737705 0,0.0370153 0.0213944,0.0534169 0.0607761,0.0730467 0.0240047,0.0119779 0.0526769,0.0193371 0.0526769,0.0467489 0,0.014393 -0.0133359,0.0317542 -0.0420163,0.0317542l-0.0533844 0c0.00800156,-0.0137344 0.0113193,-0.0287454 0.0113193,-0.0417724 0,-0.0169789 -0.00600117,-0.085106 -0.100784,-0.085106l-0.0774134 0 0 0.26262 0.0527013 0 0 -0.114453 0.0213538 0.0213863 0.144231 0c0.0673139,0 0.0993852,-0.0346897 0.0993852,-0.0760799 0,-0.0146614 -0.00267532,-0.0264523 -0.00733476,-0.0360233l0.054043 0c0.0834471,0 0.102833,-0.0413902 0.102833,-0.0738111 0,-0.0329902 -0.0213863,-0.0573933 -0.0547586,-0.0624024zm-0.335041 0.205642l0 0 -0.0247121 0 0 -0.0858622 0.0247121 0c0.030697,0 0.044716,0.0186622 0.044716,0.0413739 0,0.0211098 -0.0126691,0.0444883 -0.044716,0.0444883zm0.204219 -0.162877l0 0 0 0.0636791c-0.0127179,-0.0076275 -0.0273468,-0.0136449 -0.042675,-0.020321 -0.0166943,-0.00735916 -0.0347059,-0.0167187 -0.0347059,-0.0377797 0,-0.010685 0.00666797,-0.0266149 0.0387393,-0.0266149l0.0212806 0 0.0173611 0 0.0206788 0 -0.0206788 0.0210366zm0.0527257 -0.12748l0 0 0.0240291 0c0.040699,0 0.0427319,0.0249805 0.0427319,0.0326324 0,0.0113437 -0.00601743,0.0324047 -0.0407396,0.0324047l-0.0260213 0 0 -0.0650371zm0.0300221 0.179539l0 0 -0.0300221 0 0 -0.0730955 0.0300221 0c0.0367389,0 0.0467571,0.0176945 0.0467571,0.0363973 0,0.0186784 -0.0133685,0.0366982 -0.0467571,0.0366982z"/>
    </g>
   </g>
   <path id="_394614112" class="fil3" d="M0.688492 0c0.380204,0 0.688459,0.308255 0.688459,0.688492 0,0.380204 -0.308255,0.688459 -0.688459,0.688459 -0.380237,0 -0.688492,-0.308255 -0.688492,-0.688459 0,-0.380237 0.308255,-0.688492 0.688492,-0.688492zm0 0.0981248c0.326023,0 0.590334,0.264312 0.590334,0.590367 0,0.326023 -0.264312,0.590334 -0.590334,0.590334 -0.326055,0 -0.590367,-0.264312 -0.590367,-0.590334 0,-0.326055 0.264312,-0.590367 0.590367,-0.590367z"/>
  </g>
 </g>
</svg>
