<?xml version="1.0" encoding="UTF-8"?>
<!DOCTYPE svg PUBLIC "-//W3C//DTD SVG 1.1//EN" "http://www.w3.org/Graphics/SVG/1.1/DTD/svg11.dtd">
<!-- Creator: CorelDRAW -->
<svg xmlns="http://www.w3.org/2000/svg" xml:space="preserve" width="16.9354mm" height="16.9332mm" style="shape-rendering:geometricPrecision; text-rendering:geometricPrecision; image-rendering:optimizeQuality; fill-rule:evenodd; clip-rule:evenodd"
viewBox="0 0 1.37512 1.37494"
 xmlns:xlink="http://www.w3.org/1999/xlink">
 <defs>
  <style type="text/css">
   <![CDATA[
    .fil0 {fill:#010101;fill-rule:nonzero}
    .fil1 {fill:#00B4E2;fill-rule:nonzero}
   ]]>
  </style>
 </defs>
<symbol id="Fm4-477-0" viewBox="3.59018 -13.1295 1.05983 1.49259">
 <polygon class="fil0" points="3.59018,-12.5038 3.59018,-11.6369 4.65001,-13.1295 "/>
</symbol>
<symbol id="Fm0-469-0" viewBox="2.53098 -13.8118 2.1184 1.10752">
 <polygon class="fil0" points="3.59018,-13.8118 2.53098,-13.3304 3.59018,-12.7043 4.64938,-13.3304 "/>
</symbol>
<symbol id="Fm1-471-0" viewBox="2.53099 -15.0879 1.0592 2.38356">
 <polygon class="fil0" points="2.53099,-13.3304 3.59019,-12.7043 3.59019,-13.8118 3.59019,-15.0879 "/>
</symbol>
<symbol id="Fm2-473-0" viewBox="3.59018 -15.0879 1.0592 2.38356">
 <polygon class="fil0" points="3.59018,-15.0879 3.59018,-13.8118 3.59018,-12.7043 4.64938,-13.3304 "/>
</symbol>
<symbol id="Fm3-475-0" viewBox="2.53099 -13.1295 1.0592 1.49259">
 <polygon class="fil0" points="2.53099,-13.1295 3.59019,-11.6369 3.59019,-12.5038 "/>
</symbol>
 <g id="__x0023_Layer_x0020_1">
  <metadata id="CorelCorpID_0Corel-Layer"/>
  <path class="fil1" d="M0.687518 -8.11978e-006c-0.379657,0 -0.687518,0.307813 -0.687518,0.687429 0,0.379705 0.307862,0.687526 0.687518,0.687526 0.379681,0 0.6876,-0.307821 0.6876,-0.687526 0,-0.379616 -0.307918,-0.687429 -0.6876,-0.687429zm-0.144735 1.02481l0 0c0.00551333,0.00301244 0.0242782,0.0150541 0.0291744,0.0389993 0.00328039,0.0172789 0.00107993,0.0323817 -0.00735652,0.0463802 -0.0103202,0.0169622 -0.0276722,0.0262025 -0.0495956,0.0262025 -0.0112215,0 -0.0227598,-0.00276073 -0.0335428,-0.00762448l-0.0321381 -0.0152165c-0.140277,-0.0742635 -0.227313,-0.224366 -0.227313,-0.391609l0 -0.0689613c0,-0.167194 0.0873364,-0.317337 0.22793,-0.392064 0.00138036,-0.000470947 0.031521,-0.0148186 0.031521,-0.0148186 0.0107831,-0.00499367 0.0223213,-0.00754328 0.0334535,-0.00754328 0.0218585,0 0.0393647,0.00949203 0.049685,0.026235 0.00843646,0.0138929 0.0106369,0.029012 0.00735652,0.0463234 -0.00552957,0.0277778 -0.0298727,0.0394378 -0.0301406,0.0396245 -0.0818231,0.0371399 -0.134723,0.121407 -0.134723,0.214809l0 0.243967c0,0.0933694 0.0529816,0.177734 0.13569,0.215296zm0.610267 -0.302868l0 0c0,0.167243 -0.0869791,0.317345 -0.227273,0.391609l-0.0321706 0.0152165c-0.010572,0.00486375 -0.0222157,0.00762448 -0.0335185,0.00762448 -0.0218422,0 -0.0391942,-0.00924031 -0.0495713,-0.0262025 -0.00827406,-0.0139985 -0.0105801,-0.0291013 -0.00730781,-0.0463802 0.00486375,-0.0239452 0.0235393,-0.0359869 0.0290445,-0.0389993 0.0826919,-0.0375621 0.135917,-0.121927 0.135917,-0.215296l0 -0.243967c0,-0.0934019 -0.0530141,-0.177669 -0.134845,-0.214809 -0.000186755,-0.000186755 -0.0246029,-0.0118468 -0.0301163,-0.0396245 -0.00327227,-0.0173114 -0.000966254,-0.0324304 0.00730781,-0.0463234 0.0103771,-0.016743 0.0277291,-0.026235 0.0495713,-0.026235 0.0113027,0 0.0229465,0.00254961 0.0335185,0.00754328 0,0 0.0302218,0.0143477 0.0314723,0.0148186 0.140894,0.0747264 0.227971,0.224869 0.227971,0.392064l0 0.0689613z"/>
 </g>
</svg>
