<?xml version="1.0" encoding="UTF-8"?>
<!DOCTYPE svg PUBLIC "-//W3C//DTD SVG 1.1//EN" "http://www.w3.org/Graphics/SVG/1.1/DTD/svg11.dtd">
<!-- Creator: CorelDRAW -->
<svg xmlns="http://www.w3.org/2000/svg" xml:space="preserve" width="16.9332mm" height="16.9332mm" style="shape-rendering:geometricPrecision; text-rendering:geometricPrecision; image-rendering:optimizeQuality; fill-rule:evenodd; clip-rule:evenodd"
viewBox="0 0 0.922926 0.922926"
 xmlns:xlink="http://www.w3.org/1999/xlink">
 <defs>
  <style type="text/css">
   <![CDATA[
    .str0 {stroke:#FEFEFE;stroke-width:0.0041532}
    .fil4 {fill:none;fill-rule:nonzero}
    .fil2 {fill:#E41D2C}
    .fil1 {fill:#FAB62A}
    .fil3 {fill:#FEFEFE}
    .fil7 {fill:#EBECEC}
    .fil5 {fill:#0060AA;fill-rule:nonzero}
    .fil6 {fill:#F7A82D;fill-rule:nonzero}
    .fil0 {fill:#010101;fill-rule:nonzero}
   ]]>
  </style>
 </defs>
<symbol id="Fm4-477-0" viewBox="-0.372769 -8.12353 0.711407 1.0019">
 <polygon class="fil0" points="-0.372769,-7.70348 -0.372769,-7.12163 0.338638,-8.12353 "/>
</symbol>
<symbol id="Fm0-469-0" viewBox="-1.08376 -8.58152 1.42197 0.743422">
 <polygon class="fil0" points="-0.372769,-8.58152 -1.08376,-8.25835 -0.372769,-7.83809 0.338219,-8.25835 "/>
</symbol>
<symbol id="Fm1-471-0" viewBox="-1.08375 -9.43806 0.710987 1.59996">
 <polygon class="fil0" points="-1.08375,-8.25836 -0.372763,-7.8381 -0.372763,-8.58152 -0.372763,-9.43806 "/>
</symbol>
<symbol id="Fm2-473-0" viewBox="-0.372769 -9.43806 0.710987 1.59996">
 <polygon class="fil0" points="-0.372769,-9.43806 -0.372769,-8.58152 -0.372769,-7.8381 0.338219,-8.25836 "/>
</symbol>
<symbol id="Fm3-475-0" viewBox="-1.08375 -8.12354 0.710987 1.0019">
 <polygon class="fil0" points="-1.08375,-8.12354 -0.372763,-7.12163 -0.372763,-7.70349 "/>
</symbol>
 <g id="__x0023_Layer_x0020_1">
  <metadata id="CorelCorpID_0Corel-Layer"/>
  <g id="_391019616">
   <g>
    <polygon id="_78934736" class="fil1" points="0.607642,0.773945 0.616183,0.773721 0.624615,0.773105 0.632878,0.772048 0.641086,0.770593 0.649065,0.76875 0.656941,0.766516 0.664648,0.763894 0.672186,0.760935 0.679555,0.757588 0.6867,0.753953 0.693628,0.749936 0.700381,0.745635 0.706856,0.741003 0.713113,0.736092 0.719141,0.730897 0.724891,0.725371 0.730423,0.719615 0.735612,0.713587 0.740528,0.707335 0.745161,0.70086 0.749456,0.694102 0.753478,0.68718 0.757108,0.680029 0.760455,0.67266 0.763415,0.665128 0.766042,0.657415 0.768276,0.649545 0.770119,0.64156 0.771568,0.633352 0.772631,0.625089 0.773242,0.616657 0.773471,0.608117 0.773242,0.59963 0.772631,0.591258 0.771568,0.58299 0.770119,0.574896 0.768276,0.566912 0.766042,0.559096 0.763415,0.551389 0.760455,0.543905 0.757108,0.536591 0.753478,0.529446 0.749456,0.522578 0.745161,0.51582 0.740528,0.509345 0.735612,0.503147 0.730423,0.497119 0.724891,0.491369 0.719141,0.485897 0.713113,0.480703 0.706856,0.475792 0.700381,0.471154 0.693628,0.466853 0.6867,0.462896 0.679555,0.459266 0.672186,0.455914 0.664648,0.452955 0.656941,0.450328 0.649065,0.448093 0.641086,0.446251 0.632878,0.444801 0.624615,0.443738 0.616183,0.443128 0.607642,0.442904 0.599151,0.443128 0.590724,0.443738 0.582456,0.444801 0.574302,0.446251 0.566323,0.448093 0.558453,0.450328 0.5508,0.452955 0.543262,0.455914 0.535948,0.459266 0.528857,0.462896 0.521935,0.466853 0.515236,0.471154 0.508756,0.475792 0.502504,0.480703 0.496531,0.485897 0.490781,0.491369 0.485308,0.497119 0.480114,0.503147 0.475203,0.509345 0.470625,0.51582 0.466319,0.522578 0.462362,0.529446 0.458678,0.536591 0.45538,0.543905 0.452421,0.551389 0.449854,0.559096 0.447619,0.566912 0.445777,0.574896 0.444327,0.58299 0.443264,0.591258 0.442648,0.59963 0.442425,0.608117 0.442648,0.616657 0.443264,0.625089 0.444327,0.633352 0.445777,0.64156 0.447619,0.649545 0.449854,0.657415 0.452421,0.665128 0.45538,0.67266 0.458678,0.680029 0.462362,0.68718 0.466319,0.694102 0.470625,0.70086 0.475203,0.707335 0.480114,0.713587 0.485308,0.719615 0.490781,0.725371 0.496531,0.730897 0.502504,0.736092 0.508756,0.741003 0.515236,0.745635 0.521935,0.749936 0.528857,0.753953 0.535948,0.757588 0.543262,0.760935 0.5508,0.763894 0.558453,0.766516 0.566323,0.76875 0.574302,0.770593 0.582456,0.772048 0.590724,0.773105 0.599151,0.773721 0.607642,0.773945 "/>
    <polygon id="_78934832" class="fil2" points="0.386204,0.773945 0.39469,0.773721 0.403122,0.773105 0.411385,0.772048 0.419533,0.770593 0.427518,0.76875 0.435394,0.766516 0.443041,0.763894 0.450578,0.760935 0.457893,0.757588 0.464984,0.753953 0.471911,0.749936 0.47861,0.745635 0.485085,0.741003 0.491336,0.736092 0.49731,0.730897 0.503066,0.725371 0.508538,0.719615 0.513727,0.713587 0.518643,0.707335 0.523221,0.70086 0.527516,0.694102 0.531484,0.68718 0.535168,0.680029 0.538461,0.67266 0.54142,0.665128 0.543987,0.657415 0.546222,0.649545 0.548064,0.64156 0.549514,0.633352 0.550577,0.625089 0.551193,0.616657 0.551416,0.608117 0.551193,0.59963 0.550577,0.591258 0.549514,0.58299 0.548064,0.574896 0.546222,0.566912 0.543987,0.559096 0.54142,0.551389 0.538461,0.543905 0.535168,0.536591 0.531484,0.529446 0.527516,0.522578 0.523221,0.51582 0.518643,0.509345 0.513727,0.503147 0.508538,0.497119 0.503066,0.491369 0.49731,0.485897 0.491336,0.480703 0.485085,0.475792 0.47861,0.471154 0.471911,0.466853 0.464984,0.462896 0.457893,0.459266 0.450578,0.455914 0.443041,0.452955 0.435394,0.450328 0.427518,0.448093 0.419533,0.446251 0.411385,0.444801 0.403122,0.443738 0.39469,0.443128 0.386204,0.442904 0.377663,0.443128 0.369231,0.443738 0.360963,0.444801 0.352755,0.446251 0.344775,0.448093 0.3369,0.450328 0.329193,0.452955 0.321655,0.455914 0.314286,0.459266 0.30714,0.462896 0.300218,0.466853 0.29346,0.471154 0.286985,0.475792 0.280728,0.480703 0.2747,0.485897 0.26895,0.491369 0.263423,0.497119 0.258229,0.503147 0.253318,0.509345 0.24868,0.51582 0.244385,0.522578 0.240362,0.529446 0.236732,0.536591 0.233386,0.543905 0.230426,0.551389 0.227799,0.559096 0.225564,0.566912 0.223722,0.574896 0.222272,0.58299 0.22121,0.591258 0.220594,0.59963 0.220376,0.608117 0.220594,0.616657 0.22121,0.625089 0.222272,0.633352 0.223722,0.64156 0.225564,0.649545 0.227799,0.657415 0.230426,0.665128 0.233386,0.67266 0.236732,0.680029 0.240362,0.68718 0.244385,0.694102 0.24868,0.70086 0.253318,0.707335 0.258229,0.713587 0.263423,0.719615 0.26895,0.725371 0.2747,0.730897 0.280728,0.736092 0.286985,0.741003 0.29346,0.745635 0.300218,0.749936 0.30714,0.753953 0.314286,0.757588 0.321655,0.760935 0.329193,0.763894 0.3369,0.766516 0.344775,0.76875 0.352755,0.770593 0.360963,0.772048 0.369231,0.773105 0.377663,0.773721 0.386204,0.773945 "/>
    <polygon id="_78934928" class="fil1" points="0.477547,0.50639 0.565489,0.50639 0.565489,0.497397 0.485139,0.497397 0.477547,0.50639 "/>
    <polygon id="_78935024" class="fil1" points="0.464368,0.526377 0.565489,0.526377 0.565489,0.517384 0.469671,0.517384 0.464368,0.526377 "/>
    <polygon id="_78935120" class="fil1" points="0.454541,0.546309 0.565489,0.546309 0.565489,0.537316 0.458454,0.537316 0.454541,0.546309 "/>
    <polygon id="_78935216" class="fil1" points="0.447788,0.566296 0.565489,0.566296 0.565489,0.557308 0.450578,0.557308 0.447788,0.566296 "/>
    <polygon id="_78935312" class="fil1" points="0.451696,0.662893 0.565767,0.662893 0.565767,0.6539 0.448905,0.6539 0.451696,0.662893 "/>
    <polygon id="_78935408" class="fil1" points="0.460128,0.68288 0.565767,0.68288 0.565767,0.673886 0.455936,0.673886 0.460128,0.68288 "/>
    <polygon id="_78935504" class="fil1" points="0.47196,0.702812 0.565767,0.702812 0.565767,0.693824 0.466319,0.693824 0.47196,0.702812 "/>
    <polygon id="_78935600" class="fil1" points="0.488268,0.722798 0.565767,0.722798 0.565767,0.713756 0.480392,0.713756 0.488268,0.722798 "/>
    <polygon id="_78935696" class="fil1" points="0.443825,0.586233 0.565489,0.586233 0.565489,0.57724 0.445553,0.57724 0.443825,0.586233 "/>
    <polygon id="_78935792" class="fil1" points="0.517973,0.642961 0.564366,0.642961 0.564366,0.633968 0.519646,0.633968 0.517973,0.642961 "/>
    <polygon id="_78935888" class="fil1" points="0.521657,0.623023 0.564366,0.623023 0.564366,0.613976 0.52333,0.613976 0.521657,0.623023 "/>
    <polygon id="_78935984" class="fil1" points="0.440751,0.613976 0.452813,0.613976 0.452813,0.623023 0.441313,0.623023 0.440751,0.613976 "/>
    <polygon id="_78936080" class="fil3" points="0.418252,0.603091 0.417467,0.603037 0.416688,0.602922 0.415958,0.602813 0.415238,0.602704 0.414562,0.60259 0.413843,0.602475 0.413112,0.602366 0.412333,0.602252 0.411554,0.602143 0.410654,0.602083 0.409651,0.602034 0.408594,0.601974 0.407417,0.601974 0.406136,0.602034 0.404681,0.602143 0.403062,0.602252 0.401945,0.602421 0.400887,0.60259 0.399939,0.602922 0.399099,0.60326 0.398315,0.603647 0.39759,0.604094 0.397034,0.604656 0.396532,0.605157 0.396194,0.605773 0.395916,0.606389 0.395802,0.607059 0.395802,0.60773 0.395971,0.608454 0.396194,0.609179 0.396641,0.609904 0.397203,0.610629 0.398315,0.611687 0.399661,0.612526 0.40122,0.613256 0.402898,0.613867 0.404681,0.614423 0.406523,0.615039 0.408371,0.615709 0.410153,0.616439 0.411832,0.617382 0.413396,0.618559 0.414791,0.619955 0.415958,0.621683 0.416857,0.623808 0.417413,0.626321 0.417636,0.629335 0.417413,0.63285 0.41702,0.635472 0.416355,0.637767 0.415456,0.639887 0.414339,0.641729 0.413058,0.643348 0.411608,0.644743 0.410038,0.645969 0.408311,0.647032 0.406523,0.647872 0.404681,0.648597 0.402784,0.649153 0.400833,0.649605 0.398931,0.649937 0.397088,0.650106 0.395246,0.650215 0.393513,0.65027 0.391115,0.65027 0.388885,0.650215 0.386929,0.650215 0.385087,0.650155 0.383408,0.650106 0.381903,0.649992 0.380563,0.649883 0.379276,0.649714 0.378105,0.649605 0.377047,0.649376 0.375984,0.649212 0.375036,0.648929 0.374088,0.648711 0.373194,0.648373 0.3723,0.648041 0.371352,0.647703 0.373859,0.635363 0.374366,0.635472 0.374981,0.635641 0.375761,0.635864 0.376709,0.636088 0.377712,0.636311 0.378829,0.63654 0.380061,0.636813 0.381402,0.637042 0.382797,0.63726 0.384247,0.637483 0.385757,0.637658 0.387321,0.637821 0.38894,0.637876 0.390559,0.63793 0.392177,0.63793 0.393796,0.637876 0.395415,0.637543 0.396701,0.637096 0.397704,0.63648 0.398484,0.635701 0.399045,0.634916 0.399492,0.634022 0.39977,0.633128 0.399993,0.632294 0.400108,0.630676 0.399601,0.62928 0.398653,0.628163 0.397257,0.627209 0.395584,0.626375 0.393627,0.625536 0.391447,0.624757 0.389272,0.623863 0.387043,0.62286 0.384918,0.621683 0.382966,0.620233 0.381173,0.6185 0.379778,0.616379 0.378775,0.613867 0.378274,0.610853 0.378328,0.607277 0.378611,0.605102 0.378998,0.603037 0.37956,0.60114 0.380225,0.599352 0.381119,0.597679 0.382127,0.596224 0.383299,0.594828 0.384694,0.593602 0.386313,0.592539 0.388101,0.591645 0.390112,0.590812 0.392346,0.590196 0.394859,0.589694 0.39759,0.589302 0.400604,0.589078 0.403901,0.589024 0.405967,0.589024 0.407864,0.589078 0.409597,0.589133 0.411161,0.589187 0.412556,0.589302 0.413843,0.589416 0.414955,0.589525 0.415958,0.589634 0.416911,0.589749 0.417691,0.589912 0.418416,0.590027 0.419086,0.590136 0.419647,0.59025 0.420149,0.590305 0.42065,0.590419 0.421097,0.590474 0.418252,0.603091 "/>
    <g>
     <polygon id="_78936176" class="fil4 str0" points="0.418252,0.603091 0.418252,0.603091 0.417467,0.603037 0.416688,0.602922 0.415963,0.602813 0.415238,0.602699 0.414568,0.60259 0.413843,0.602475 0.413112,0.602366 0.412333,0.602252 0.411554,0.602143 0.410654,0.602083 0.409651,0.602028 0.408594,0.601974 0.407417,0.601974 0.406136,0.602028 0.404681,0.602143 0.403067,0.602252 0.403067,0.602252 0.401945,0.602421 0.400882,0.60259 0.399939,0.602922 0.399099,0.60326 0.39832,0.603647 0.39759,0.604094 0.397034,0.604656 0.396532,0.605157 0.396194,0.605773 0.395916,0.606389 0.395802,0.607059 0.395802,0.60773 0.395971,0.608454 0.396194,0.609174 0.396641,0.609904 0.397203,0.610629 0.397203,0.610629 0.39832,0.611687 0.399655,0.612526 0.40122,0.613251 0.402893,0.613867 0.404681,0.614423 0.406523,0.615039 0.408365,0.615709 0.410153,0.616439 0.411832,0.617382 0.413396,0.618559 0.414791,0.619955 0.415963,0.621683 0.416857,0.623808 0.417418,0.626321 0.417636,0.629335 0.417418,0.63285 0.417418,0.63285 0.41702,0.635472 0.416355,0.637761 0.415456,0.639892 0.414339,0.641729 0.413058,0.643348 0.411603,0.644743 0.410044,0.645975 0.408311,0.647032 0.406523,0.647872 0.404681,0.648602 0.402784,0.649153 0.400833,0.649605 0.398931,0.649937 0.397088,0.650106 0.395246,0.650221 0.393513,0.65027 0.391115,0.65027 0.38888,0.650221 0.386929,0.650221 0.385081,0.650161 0.383408,0.650106 0.381903,0.649992 0.380563,0.649877 0.379276,0.649714 0.378105,0.649605 0.377047,0.649381 0.375984,0.649212 0.375036,0.648929 0.374088,0.648711 0.373194,0.648373 0.372294,0.648041 0.371352,0.647703 0.373859,0.635363 0.373859,0.635363 0.374366,0.635472 0.374981,0.635641 0.375761,0.63587 0.376709,0.636088 0.377712,0.636311 0.378835,0.63654 0.380061,0.636813 0.381397,0.637042 0.382797,0.637265 0.384247,0.637483 0.385757,0.637658 0.387316,0.637821 0.38894,0.637881 0.390553,0.63793 0.392172,0.63793 0.393796,0.637881 0.393796,0.637881 0.39541,0.637543 0.396701,0.637096 0.397704,0.63648 0.398484,0.635696 0.399045,0.634916 0.399486,0.634022 0.399775,0.633128 0.399993,0.632289 0.399993,0.632289 0.400102,0.63067 0.399601,0.62928 0.398653,0.628163 0.397257,0.627209 0.395579,0.626375 0.393627,0.625536 0.391447,0.624751 0.389272,0.623868 0.387043,0.62286 0.384918,0.621683 0.382966,0.620233 0.381173,0.6185 0.379778,0.616379 0.378775,0.613867 0.378274,0.610853 0.378328,0.607277 0.378328,0.607277 0.378606,0.605097 0.378998,0.603037 0.37956,0.60114 0.380225,0.599352 0.381119,0.597679 0.382127,0.596224 0.383299,0.594828 0.384694,0.593602 0.386313,0.592539 0.388095,0.591645 0.390106,0.590812 0.392346,0.590196 0.394859,0.589689 0.39759,0.589302 0.400604,0.589078 0.403901,0.589018 0.405967,0.589018 0.407869,0.589078 0.409591,0.589133 0.411161,0.589193 0.412556,0.589302 0.413843,0.589416 0.414955,0.589525 0.415963,0.589634 0.416911,0.589749 0.417691,0.589912 0.418416,0.590027 0.419086,0.590136 0.419647,0.590245 0.420149,0.590305 0.420656,0.590419 0.421097,0.590474 "/>
    </g>
    <polygon id="_78936272" class="fil3" points="0.431486,0.576679 0.446948,0.576679 0.444659,0.590196 0.453985,0.590196 0.451974,0.602813 0.442147,0.602535 0.436789,0.63369 0.436729,0.634807 0.437007,0.635755 0.437568,0.63648 0.438293,0.637096 0.439302,0.637483 0.440419,0.637821 0.441645,0.638045 0.442986,0.638154 0.444212,0.638099 0.44533,0.637985 0.446338,0.637821 0.447226,0.637598 0.447951,0.637374 0.448458,0.637205 0.448796,0.637096 0.448905,0.637042 0.446948,0.647425 0.446556,0.647703 0.446169,0.647926 0.445777,0.64815 0.445384,0.648373 0.444992,0.648542 0.44455,0.648711 0.444043,0.64888 0.443542,0.649044 0.442986,0.649212 0.442425,0.649321 0.441754,0.649436 0.441084,0.649545 0.440359,0.649654 0.439525,0.649768 0.438631,0.649883 0.437683,0.649992 0.433437,0.649992 0.431202,0.649823 0.429251,0.649605 0.427463,0.649267 0.425954,0.64888 0.424673,0.648373 0.42361,0.647812 0.422662,0.647147 0.421937,0.646416 0.421381,0.645637 0.420988,0.644689 0.42071,0.643735 0.420541,0.642677 0.420481,0.641506 0.420481,0.640274 0.42065,0.638993 0.420819,0.637598 0.431486,0.576679 "/>
    <g>
     <polygon id="_78936368" class="fil4 str0" points="0.43148,0.576679 0.446948,0.576679 0.444659,0.590196 0.453985,0.590196 0.451974,0.602813 0.442147,0.602535 0.436783,0.633684 0.436783,0.633684 0.436729,0.634807 0.437007,0.635755 0.437568,0.63648 0.438299,0.637096 0.439302,0.637483 0.440419,0.637821 0.441645,0.638045 0.442986,0.638154 0.442986,0.638154 0.444212,0.638099 0.44533,0.637985 0.446333,0.637821 0.447226,0.637598 0.447951,0.637374 0.448458,0.637205 0.448791,0.637096 0.4489,0.637042 0.446948,0.647425 0.446948,0.647425 0.446556,0.647703 0.446169,0.647926 0.445777,0.64815 0.445384,0.648373 0.444997,0.648542 0.44455,0.648711 0.444043,0.64888 0.443542,0.649044 0.442986,0.649212 0.442425,0.649321 0.44176,0.649436 0.441084,0.649545 0.440364,0.649654 0.439525,0.649768 0.438626,0.649877 0.437683,0.649992 0.433437,0.649992 0.433437,0.649992 0.431202,0.649823 0.429246,0.649605 0.427463,0.649267 0.425954,0.64888 0.424673,0.648373 0.42361,0.647812 0.422662,0.647147 0.421937,0.646416 0.421375,0.645637 0.420983,0.644689 0.42071,0.643735 0.420541,0.642677 0.420487,0.641506 0.420487,0.640274 0.420656,0.638993 0.420819,0.637598 "/>
    </g>
    <polygon class="fil3" points="0.466319,0.623863 0.466156,0.624811 0.466101,0.625814 0.46621,0.626877 0.466439,0.62794 0.466826,0.628997 0.467273,0.630005 0.467889,0.631063 0.468559,0.632011 0.469339,0.632965 0.470178,0.633799 0.471066,0.634638 0.472075,0.635309 0.473078,0.635924 0.474195,0.636426 0.475312,0.636813 0.47643,0.637042 0.477879,0.63726 0.479275,0.637429 0.48073,0.637598 0.48218,0.637707 0.48363,0.637767 0.485139,0.637767 0.486589,0.637707 0.488099,0.637598 0.489609,0.637374 0.491113,0.637096 0.492677,0.636758 0.494187,0.636257 0.495751,0.635641 0.497365,0.634971 0.498929,0.634082 0.500548,0.633128 0.498313,0.646863 0.497425,0.64731 0.496531,0.647763 0.495637,0.648095 0.494803,0.648428 0.493964,0.648711 0.49307,0.648989 0.492176,0.649212 0.491227,0.649376 0.490219,0.649545 0.489107,0.649654 0.48793,0.649768 0.486644,0.649883 0.485199,0.649937 0.48369,0.649937 0.481956,0.649992 0.480114,0.649992 0.477378,0.649937 0.474587,0.649654 0.471797,0.649267 0.469001,0.648597 0.46627,0.647763 0.463643,0.646694 0.46113,0.645305 0.458787,0.643686 0.456607,0.641784 0.45471,0.6395 0.453091,0.636927 0.45175,0.633968 0.450802,0.630676 0.450186,0.626931 0.450022,0.6228 0.4503,0.618222 0.450524,0.616439 0.450862,0.614368 0.451303,0.612193 0.451919,0.609844 0.452759,0.607446 0.453761,0.605048 0.455048,0.60259 0.456607,0.600241 0.458394,0.598012 0.460574,0.595891 0.463027,0.593989 0.465823,0.592316 0.469061,0.590921 0.472691,0.589912 0.476708,0.589247 0.481231,0.589024 0.483412,0.589078 0.485695,0.589302 0.48799,0.589694 0.490279,0.59025 0.492508,0.59109 0.494688,0.592092 0.4967,0.593433 0.498542,0.594997 0.500215,0.596894 0.50161,0.599129 0.502728,0.601696 0.503507,0.604656 0.503954,0.608002 0.504014,0.611801 0.503622,0.616047 0.502782,0.620734 0.502504,0.624141 0.461801,0.624141 0.464368,0.613136 0.488824,0.613136 0.488938,0.611746 0.488884,0.610406 0.488769,0.609179 0.488546,0.608062 0.488153,0.606999 0.487766,0.606051 0.487205,0.605211 0.486644,0.604432 0.485979,0.603762 0.485248,0.6032 0.484414,0.602704 0.483575,0.602252 0.482687,0.601919 0.481787,0.601696 0.480839,0.601527 0.479836,0.601418 0.478773,0.601473 0.47777,0.601641 0.476822,0.601865 0.475868,0.602203 0.47492,0.602644 0.474086,0.603151 0.473247,0.603762 0.472522,0.604432 0.471797,0.605211 0.471126,0.606051 0.47051,0.606945 0.470009,0.607893 0.469508,0.608901 0.469115,0.610019 0.468783,0.611131 0.468559,0.612302 0.466319,0.623863 "/>
    <g>
     <polygon class="fil4 str0" points="0.466319,0.623868 0.466319,0.623868 0.466156,0.624811 0.466101,0.625814 0.46621,0.626877 0.466434,0.62794 0.466826,0.628997 0.467273,0.630005 0.467889,0.631063 0.468559,0.632011 0.469344,0.632965 0.470178,0.633804 0.471066,0.634638 0.472075,0.635309 0.473078,0.635924 0.4742,0.636426 0.475312,0.636813 0.47643,0.637042 0.47643,0.637042 0.477879,0.637265 0.479275,0.637429 0.48073,0.637598 0.48218,0.637707 0.48363,0.637761 0.485139,0.637761 0.486589,0.637707 0.488099,0.637598 0.489609,0.637374 0.491113,0.637096 0.492677,0.636758 0.494182,0.636257 0.495751,0.635641 0.497365,0.634971 0.498929,0.634082 0.500553,0.633128 0.498318,0.646863 0.498318,0.646863 0.497425,0.64731 0.496531,0.647763 0.495637,0.648095 0.494797,0.648428 0.493964,0.648711 0.49307,0.648989 0.49217,0.649212 0.491227,0.649381 0.490219,0.649545 0.489107,0.649654 0.48793,0.649768 0.486644,0.649877 0.485199,0.649937 0.48369,0.649937 0.481956,0.649992 0.480114,0.649992 0.480114,0.649992 0.477378,0.649937 0.474587,0.649654 0.471797,0.649267 0.469001,0.648602 0.46627,0.647763 0.463643,0.646694 0.46113,0.645305 0.458787,0.643686 0.456607,0.641784 0.45471,0.6395 0.453091,0.636927 0.45175,0.633968 0.450802,0.63067 0.450186,0.626931 0.450022,0.6228 0.4503,0.618222 0.4503,0.618222 0.450524,0.616439 0.450862,0.614368 0.451303,0.612193 0.451919,0.609844 0.452759,0.607446 0.453761,0.605048 0.455042,0.60259 0.456607,0.600241 0.458394,0.598012 0.460574,0.595891 0.463027,0.593989 0.465818,0.592316 0.469061,0.590915 0.472691,0.589912 0.476708,0.589247 0.481231,0.589018 0.481231,0.589018 0.483406,0.589078 0.485695,0.589302 0.48799,0.589689 0.490279,0.590245 0.492508,0.591084 0.494688,0.592092 0.4967,0.593433 0.498542,0.594997 0.500215,0.5969 0.50161,0.599129 0.502728,0.601696 0.503507,0.604656 0.503954,0.608008 0.504014,0.611801 0.503622,0.616041 0.502782,0.620734 0.502504,0.624135 0.461801,0.624135 0.464368,0.613136 0.488824,0.613136 0.488824,0.613136 0.488938,0.611746 0.488878,0.610406 0.488769,0.609174 0.488546,0.608062 0.488153,0.606999 0.487766,0.606051 0.487205,0.605211 0.486644,0.604432 0.485979,0.603762 0.485248,0.6032 0.484414,0.602699 0.483581,0.602252 0.482687,0.601919 0.481787,0.601696 0.480839,0.601532 0.479836,0.601418 0.479836,0.601418 0.478773,0.601473 0.47777,0.601641 0.476822,0.601859 0.475868,0.602203 0.47492,0.602644 0.474086,0.603151 0.473247,0.603762 0.472522,0.604432 0.471797,0.605211 0.471126,0.606051 0.47051,0.606945 0.470009,0.607893 0.469508,0.608901 0.469115,0.610013 0.468783,0.611131 0.468559,0.612302 "/>
    </g>
    <polygon class="fil3" points="0.599489,0.593542 0.598764,0.593155 0.598039,0.592817 0.597254,0.592425 0.59642,0.592038 0.595581,0.5917 0.594632,0.591367 0.593678,0.59103 0.592676,0.590697 0.591618,0.590419 0.590555,0.590196 0.589384,0.589972 0.588206,0.589803 0.586925,0.589694 0.585639,0.58958 0.581508,0.58958 0.580058,0.589694 0.578548,0.589858 0.576989,0.590136 0.575425,0.590583 0.573861,0.591199 0.572297,0.591978 0.570732,0.592986 0.569228,0.594213 0.567773,0.595662 0.566377,0.59745 0.565042,0.599521 0.56381,0.601974 0.562638,0.604765 0.561576,0.607893 0.560687,0.611463 0.560349,0.613474 0.560126,0.615431 0.560011,0.617382 0.560071,0.619284 0.56024,0.621181 0.560627,0.622969 0.561129,0.624642 0.561745,0.626321 0.562584,0.627825 0.563587,0.62928 0.564759,0.630561 0.566099,0.631733 0.567609,0.632741 0.569337,0.633581 0.571239,0.634306 0.573359,0.634807 0.574084,0.634971 0.574918,0.63514 0.575927,0.635254 0.577044,0.635363 0.57827,0.635472 0.580952,0.635472 0.582347,0.635363 0.583797,0.635194 0.585252,0.634916 0.586642,0.634529 0.588043,0.634082 0.589438,0.633466 0.590724,0.632741 0.591896,0.631848 0.593013,0.630839 0.590501,0.645751 0.590168,0.646029 0.58983,0.646362 0.589384,0.646754 0.588882,0.647087 0.588266,0.647534 0.587481,0.647926 0.586593,0.648313 0.585585,0.648651 0.584298,0.649044 0.582849,0.649321 0.581175,0.649545 0.579219,0.649768 0.577044,0.649883 0.574531,0.649937 0.571681,0.649883 0.568558,0.649714 0.56599,0.649436 0.563418,0.64888 0.560856,0.648041 0.558284,0.646918 0.555825,0.645583 0.553482,0.643904 0.551247,0.641953 0.549181,0.639718 0.547339,0.637205 0.545775,0.634415 0.54444,0.631286 0.543431,0.62788 0.542761,0.624141 0.542537,0.620178 0.542646,0.615823 0.543262,0.611191 0.543709,0.608901 0.544211,0.606667 0.544772,0.604487 0.545328,0.602421 0.545944,0.60047 0.546669,0.598513 0.547399,0.596671 0.548173,0.594943 0.549018,0.59321 0.549852,0.591591 0.5508,0.590027 0.551803,0.588577 0.552811,0.587182 0.553929,0.585841 0.555046,0.584609 0.556218,0.583437 0.557499,0.58232 0.558785,0.581262 0.560126,0.580314 0.561521,0.57942 0.563031,0.578581 0.564535,0.577856 0.566099,0.577186 0.567718,0.57657 0.569451,0.576008 0.571179,0.575567 0.572967,0.575174 0.574869,0.574842 0.57676,0.574558 0.578777,0.574335 0.580783,0.574226 0.582908,0.574166 0.584696,0.574226 0.586424,0.574335 0.588097,0.574504 0.589771,0.574727 0.591335,0.574951 0.592845,0.575283 0.594294,0.575567 0.595635,0.575899 0.596921,0.576237 0.598039,0.57657 0.599096,0.576908 0.59999,0.57724 0.600775,0.577523 0.60144,0.577741 0.601947,0.577965 0.602279,0.578079 0.599489,0.593542 "/>
    <g>
     <polygon class="fil4 str0" points="0.599489,0.593542 0.599489,0.593542 0.598764,0.593155 0.598039,0.592823 0.597254,0.59243 0.59642,0.592038 0.595581,0.5917 0.594632,0.591367 0.593684,0.59103 0.592676,0.590697 0.591618,0.590419 0.590555,0.590196 0.589384,0.589972 0.588206,0.589809 0.586925,0.589689 0.585639,0.58958 0.582908,0.58958 0.581513,0.58958 0.580058,0.589689 0.578548,0.589858 0.576989,0.590136 0.575425,0.590588 0.573861,0.591204 0.572297,0.591983 0.570732,0.592986 0.569228,0.594218 0.567773,0.595662 0.566377,0.597456 0.565042,0.599521 0.56381,0.601974 0.562638,0.60477 0.561576,0.607893 0.560687,0.611469 0.560687,0.611469 0.560349,0.61348 0.56012,0.615426 0.560011,0.617382 0.560071,0.619284 0.56024,0.621181 0.560627,0.622969 0.561129,0.624642 0.561745,0.626321 0.562584,0.627825 0.563587,0.62928 0.564759,0.630561 0.566099,0.631739 0.567609,0.632741 0.569342,0.633581 0.571234,0.6343 0.573359,0.634807 0.573359,0.634807 0.574084,0.634971 0.574918,0.63514 0.575927,0.635254 0.577044,0.635363 0.57827,0.635472 0.580952,0.635472 0.582347,0.635363 0.583797,0.6352 0.585252,0.634916 0.586642,0.634529 0.588043,0.634082 0.589438,0.633466 0.590719,0.632741 0.591896,0.631848 0.593013,0.630839 0.590501,0.645751 0.590501,0.645751 0.590163,0.646029 0.58983,0.646362 0.589384,0.646754 0.588877,0.647087 0.588266,0.647534 0.587481,0.647926 0.586593,0.648313 0.585585,0.648651 0.584304,0.649044 0.582849,0.649321 0.581175,0.649545 0.579219,0.649768 0.577044,0.649877 0.574531,0.649937 0.571681,0.649877 0.568558,0.649714 0.568558,0.649714 0.56599,0.649436 0.563423,0.64888 0.560856,0.648041 0.558278,0.646923 0.555825,0.645583 0.553482,0.643909 0.551247,0.641958 0.549181,0.639718 0.547339,0.637205 0.545775,0.634415 0.54444,0.631286 0.543431,0.627885 0.542761,0.624135 0.542537,0.620178 0.542646,0.615823 0.543262,0.611191 0.543262,0.611191 0.543709,0.608901 0.544211,0.606667 0.544772,0.604487 0.545328,0.602421 0.545944,0.600464 0.546669,0.598513 0.547399,0.596676 0.548173,0.594943 0.549018,0.59321 0.549857,0.591591 0.5508,0.590027 0.551803,0.588577 0.552811,0.587182 0.553929,0.585841 0.555041,0.584609 0.556212,0.583437 0.557499,0.58232 0.558785,0.581262 0.56012,0.580314 0.561521,0.57942 0.563031,0.578581 0.564535,0.577856 0.566099,0.577186 0.567718,0.57657 0.569451,0.576008 0.571179,0.575567 0.572967,0.575174 0.574869,0.574836 0.57676,0.574558 0.578772,0.57434 0.580783,0.574226 0.582908,0.574166 0.582908,0.574166 0.584691,0.574226 0.586424,0.57434 0.588097,0.574504 0.589776,0.574727 0.591335,0.574951 0.592845,0.575283 0.594294,0.575567 0.595635,0.575899 0.596921,0.576237 0.598039,0.57657 0.599096,0.576902 0.599995,0.57724 0.600775,0.577518 0.60144,0.577741 0.601947,0.577965 0.602274,0.578079 "/>
    </g>
    <polygon class="fil3" points="0.736953,0.649992 0.721485,0.649992 0.722602,0.643795 0.722602,0.643233 0.721714,0.644351 0.72076,0.645359 0.719811,0.646253 0.718803,0.647032 0.7178,0.647763 0.716797,0.648373 0.715794,0.64888 0.714726,0.649376 0.713669,0.649768 0.712611,0.650046 0.711549,0.65033 0.710431,0.650493 0.709314,0.650662 0.708257,0.650771 0.707139,0.650831 0.706016,0.650831 0.703117,0.650602 0.700435,0.649992 0.697977,0.649044 0.695748,0.647763 0.693737,0.646138 0.691949,0.644242 0.690385,0.642176 0.689044,0.639832 0.687932,0.637314 0.687038,0.634698 0.686422,0.631957 0.685975,0.629111 0.685806,0.626261 0.685866,0.623361 0.686139,0.620511 0.686646,0.617666 0.687485,0.614368 0.688488,0.611245 0.68966,0.608395 0.691055,0.605713 0.69251,0.6032 0.694184,0.600971 0.695917,0.59896 0.697754,0.597118 0.69971,0.595499 0.701782,0.594104 0.703902,0.592877 0.706016,0.591923 0.708257,0.591144 0.710486,0.590643 0.71272,0.590305 0.71501,0.590196 0.716628,0.59025 0.718193,0.590419 0.719642,0.590697 0.720983,0.59109 0.72227,0.591531 0.723387,0.592038 0.724504,0.592654 0.725507,0.593264 0.726401,0.593935 0.727235,0.59466 0.72796,0.595384 0.728636,0.596115 0.729192,0.59684 0.729693,0.597565 0.73014,0.598235 0.730478,0.598905 0.730478,0.598905 0.734386,0.576962 0.749571,0.576962 0.736953,0.649992 "/>
    <g>
     <polygon class="fil4 str0" points="0.736953,0.649992 0.72149,0.649992 0.722602,0.643795 0.722602,0.643233 0.721714,0.644351 0.72076,0.645359 0.719811,0.646253 0.718809,0.647032 0.7178,0.647763 0.716797,0.648373 0.715794,0.64888 0.714732,0.649381 0.713669,0.649768 0.712611,0.650052 0.711549,0.65033 0.710431,0.650493 0.709314,0.650662 0.708257,0.650771 0.707134,0.650831 0.706022,0.650831 0.706022,0.650831 0.703117,0.650608 0.700435,0.649992 0.697977,0.649044 0.695748,0.647763 0.693737,0.646144 0.691949,0.644242 0.690385,0.642176 0.689049,0.639832 0.687927,0.637314 0.687038,0.634698 0.686422,0.631962 0.685975,0.629111 0.685806,0.626261 0.685866,0.623356 0.686144,0.620511 0.68664,0.617666 0.68664,0.617666 0.68748,0.614368 0.688488,0.611245 0.68966,0.608395 0.691061,0.605713 0.69251,0.6032 0.694178,0.600971 0.695917,0.59896 0.697759,0.597118 0.69971,0.595499 0.701782,0.594104 0.703902,0.592877 0.706022,0.591923 0.708257,0.591144 0.710486,0.590643 0.71272,0.590305 0.71501,0.590196 0.71501,0.590196 0.716628,0.590245 0.718193,0.590419 0.719642,0.590697 0.720983,0.591084 0.72227,0.591531 0.723387,0.592038 0.724504,0.592654 0.725507,0.593264 0.726401,0.593935 0.727235,0.594665 0.72796,0.595384 0.728636,0.596115 0.729192,0.59684 0.729693,0.597565 0.73014,0.598235 0.730478,0.598905 0.730478,0.598905 0.734386,0.576962 0.749571,0.576962 "/>
    </g>
    <polygon class="fil1" points="0.711658,0.63648 0.713222,0.636371 0.714677,0.636033 0.716012,0.635641 0.717299,0.635025 0.718471,0.634355 0.719588,0.633521 0.720645,0.632572 0.721599,0.631564 0.722438,0.630452 0.723218,0.62922 0.723943,0.62794 0.724559,0.626599 0.725115,0.625204 0.725562,0.623754 0.725954,0.622244 0.726232,0.620734 0.726515,0.619175 0.726679,0.617551 0.726679,0.616047 0.726624,0.614483 0.726455,0.613027 0.726232,0.611632 0.72584,0.610297 0.725393,0.60901 0.724837,0.607893 0.724166,0.606836 0.723441,0.605936 0.722602,0.605157 0.721654,0.604487 0.720645,0.60404 0.719588,0.603762 0.718416,0.603647 0.716906,0.603762 0.715511,0.603985 0.714225,0.604432 0.712944,0.604993 0.711827,0.605713 0.710709,0.606607 0.709761,0.607561 0.708813,0.608618 0.707973,0.609844 0.707194,0.611131 0.706463,0.612471 0.705853,0.613921 0.705297,0.615431 0.70485,0.616941 0.704398,0.618559 0.704071,0.620178 0.703787,0.622636 0.703902,0.625313 0.704289,0.628049 0.705014,0.630676 0.706131,0.632965 0.707586,0.634807 0.709423,0.636033 0.711658,0.63648 "/>
    <polygon class="fil3" points="0.368779,0.637598 0.36655,0.649992 0.352477,0.649992 0.352869,0.647703 0.353147,0.645637 0.353371,0.644078 0.353594,0.643233 0.352815,0.644133 0.351921,0.645021 0.350858,0.64586 0.349686,0.646645 0.348345,0.647425 0.34695,0.648095 0.3455,0.64876 0.343991,0.649321 0.342372,0.649823 0.340753,0.650215 0.339134,0.650553 0.337461,0.650771 0.335842,0.650886 0.334218,0.65094 0.332654,0.650771 0.331149,0.650553 0.329193,0.650046 0.32741,0.64949 0.325846,0.64876 0.324451,0.647926 0.323225,0.647032 0.322107,0.646029 0.321213,0.644967 0.320429,0.643849 0.319758,0.642677 0.319202,0.641446 0.31875,0.640219 0.318417,0.638993 0.318199,0.637707 0.31803,0.636426 0.317916,0.635194 0.317916,0.633968 0.318085,0.631788 0.318417,0.629722 0.318979,0.627771 0.319704,0.625874 0.320597,0.624086 0.3216,0.622467 0.322772,0.620903 0.324113,0.619508 0.325508,0.618222 0.327073,0.61705 0.328691,0.615987 0.33037,0.615098 0.332152,0.614314 0.334,0.613703 0.335897,0.613196 0.337848,0.612864 0.337962,0.612864 0.33824,0.612809 0.338633,0.612749 0.339249,0.612695 0.339914,0.61258 0.340699,0.612526 0.341532,0.612417 0.342481,0.612302 0.343435,0.612193 0.344383,0.612079 0.345386,0.61203 0.34628,0.611915 0.347174,0.611861 0.348013,0.611801 0.348792,0.611746 0.350695,0.611746 0.35203,0.611801 0.353256,0.611861 0.354488,0.611861 0.355491,0.611915 0.356276,0.61197 0.356832,0.61203 0.357001,0.61203 0.357115,0.611632 0.357448,0.610629 0.357726,0.609457 0.35784,0.608395 0.357611,0.607168 0.357115,0.606051 0.356445,0.605048 0.355551,0.604209 0.354488,0.603484 0.353316,0.602982 0.351975,0.602644 0.350526,0.602535 0.348961,0.602475 0.347283,0.602421 0.345555,0.602421 0.343767,0.602475 0.341925,0.60259 0.340137,0.602759 0.338355,0.602922 0.336622,0.603151 0.334948,0.603369 0.33333,0.603647 0.331874,0.603931 0.330539,0.604209 0.329307,0.604547 0.328299,0.604879 0.327519,0.605266 0.326904,0.605604 0.330871,0.592147 0.332098,0.591645 0.33333,0.591199 0.334665,0.590812 0.336006,0.590528 0.337347,0.59025 0.338802,0.590027 0.340252,0.589803 0.341756,0.589694 0.343326,0.58958 0.344939,0.589525 0.346618,0.589465 0.351975,0.589465 0.353932,0.589525 0.355883,0.58958 0.357448,0.589694 0.359121,0.589972 0.360854,0.590365 0.362642,0.590866 0.36437,0.591531 0.366043,0.592316 0.367722,0.593264 0.369286,0.594327 0.370676,0.595553 0.371907,0.596894 0.373025,0.598398 0.373859,0.600077 0.37442,0.601865 0.374753,0.603762 0.374753,0.605882 0.37442,0.608117 0.368779,0.637598 "/>
    <g>
     <polygon class="fil4 str0" points="0.368779,0.637598 0.36655,0.649992 0.352482,0.649992 0.352482,0.649992 0.352869,0.647703 0.353153,0.645637 0.353371,0.644078 0.353594,0.643233 0.353594,0.643233 0.352809,0.644133 0.351921,0.645021 0.350858,0.64586 0.349692,0.646645 0.348345,0.647425 0.34695,0.648095 0.345495,0.648766 0.343991,0.649321 0.342372,0.649823 0.340753,0.650221 0.339134,0.650548 0.337461,0.650771 0.335842,0.650886 0.334223,0.65094 0.332654,0.650771 0.331149,0.650548 0.331149,0.650548 0.329193,0.650052 0.32741,0.64949 0.325841,0.648766 0.324451,0.647926 0.323219,0.647032 0.322107,0.646029 0.321208,0.644967 0.320429,0.643849 0.319758,0.642677 0.319202,0.641451 0.31875,0.640219 0.318423,0.638993 0.318199,0.637707 0.31803,0.636426 0.317916,0.6352 0.317916,0.633968 0.318085,0.631793 0.318423,0.629727 0.318979,0.627771 0.319698,0.625874 0.320597,0.624086 0.3216,0.622467 0.322772,0.620903 0.324118,0.619502 0.325514,0.618222 0.327073,0.61705 0.328691,0.615987 0.33037,0.615098 0.332152,0.614319 0.333995,0.613703 0.335897,0.613196 0.337848,0.612864 0.337962,0.612864 0.33824,0.612804 0.338633,0.612749 0.339243,0.612695 0.339914,0.61258 0.340699,0.612526 0.341538,0.612417 0.342481,0.612302 0.343429,0.612193 0.344383,0.612079 0.345386,0.612024 0.34628,0.611915 0.347174,0.611861 0.348013,0.611801 0.348792,0.611746 0.349408,0.611746 0.350695,0.611746 0.35203,0.611801 0.353262,0.611861 0.354488,0.611861 0.355491,0.611915 0.35627,0.611965 0.356832,0.612024 0.357001,0.612024 0.357001,0.612024 0.357115,0.611632 0.357448,0.610629 0.357726,0.609457 0.35784,0.608395 0.35784,0.608395 0.357611,0.607168 0.357115,0.606051 0.356445,0.605048 0.355551,0.604209 0.354488,0.603484 0.353316,0.602982 0.351975,0.602644 0.350526,0.602535 0.350526,0.602535 0.348961,0.602475 0.347283,0.602421 0.345555,0.602421 0.343767,0.602475 0.341925,0.60259 0.340137,0.602759 0.338355,0.602922 0.336622,0.603151 0.334948,0.603375 0.333324,0.603647 0.331874,0.603931 0.330534,0.604209 0.329307,0.604547 0.328299,0.604879 0.327519,0.605266 0.326909,0.605604 0.330871,0.592147 0.330871,0.592147 0.332098,0.591645 0.333324,0.591204 0.334665,0.590812 0.336006,0.590528 0.337347,0.590245 0.338796,0.590027 0.340252,0.589809 0.341761,0.589689 0.34332,0.58958 0.344939,0.589525 0.346618,0.589465 0.351975,0.589465 0.353932,0.589525 0.355883,0.58958 0.355883,0.58958 0.357448,0.589689 0.359121,0.589972 0.360854,0.590365 0.362642,0.590866 0.36437,0.591531 0.366048,0.592316 0.367722,0.593264 0.369286,0.594322 0.370676,0.595553 0.371907,0.5969 0.373025,0.598398 0.373859,0.600077 0.37442,0.601859 0.374753,0.603762 0.374753,0.605882 0.37442,0.608117 "/>
    </g>
    <polygon class="fil2" points="0.355327,0.623023 0.355267,0.622745 0.355049,0.622467 0.354711,0.622298 0.354156,0.622184 0.35354,0.622075 0.352815,0.62202 0.351141,0.62202 0.350242,0.622075 0.349294,0.622184 0.3484,0.622298 0.347512,0.622407 0.346672,0.622522 0.345887,0.622691 0.345222,0.62286 0.344606,0.623023 0.344214,0.623132 0.343767,0.623301 0.343151,0.623525 0.342541,0.623808 0.34181,0.624141 0.341085,0.624533 0.340306,0.62492 0.339581,0.625367 0.338802,0.625928 0.338071,0.626484 0.337406,0.62716 0.336791,0.627825 0.336229,0.628555 0.335842,0.629335 0.335504,0.630229 0.335335,0.631123 0.335281,0.633019 0.335559,0.634529 0.33612,0.635641 0.336845,0.63648 0.337684,0.637042 0.338633,0.637374 0.339521,0.637543 0.340421,0.637598 0.342094,0.637543 0.343598,0.637374 0.345053,0.637151 0.346334,0.636813 0.347452,0.636426 0.348514,0.635924 0.349463,0.635423 0.350302,0.634807 0.351027,0.634246 0.351697,0.633581 0.352253,0.632965 0.3527,0.632294 0.353093,0.631624 0.353425,0.630954 0.353703,0.630338 0.353872,0.629722 0.354319,0.628109 0.354711,0.626261 0.355049,0.624479 0.355327,0.623023 "/>
    <polygon class="fil3" points="0.251307,0.649992 0.236122,0.649992 0.248794,0.576679 0.275201,0.576679 0.277714,0.620178 0.295973,0.576679 0.323557,0.576679 0.310601,0.649992 0.295417,0.649992 0.305015,0.595221 0.304404,0.595221 0.281682,0.649992 0.26454,0.649992 0.264426,0.647703 0.264039,0.641615 0.263532,0.632965 0.262976,0.623023 0.262415,0.613027 0.261913,0.604263 0.261521,0.597897 0.261412,0.595221 0.260572,0.595221 0.260572,0.595221 0.251307,0.649992 "/>
    <g>
     <polygon class="fil4 str0" points="0.251307,0.649992 0.236122,0.649992 0.248794,0.576679 0.275201,0.576679 0.277714,0.620178 0.295973,0.576679 0.323557,0.576679 0.310601,0.649992 0.295411,0.649992 0.30502,0.595221 0.304404,0.595221 0.281682,0.649992 0.26454,0.649992 0.26454,0.649992 0.264426,0.647703 0.264039,0.641615 0.263532,0.632965 0.262976,0.623029 0.26242,0.613027 0.261913,0.604263 0.261521,0.597902 0.261412,0.595221 0.260578,0.595221 0.260578,0.595221 "/>
    </g>
    <polygon class="fil3" points="0.645888,0.637598 0.643599,0.649992 0.629586,0.649992 0.629695,0.647703 0.629749,0.645692 0.629749,0.644187 0.629858,0.643517 0.629139,0.644351 0.628299,0.64519 0.627296,0.645969 0.626179,0.646754 0.625007,0.647479 0.623666,0.64815 0.622271,0.64882 0.620876,0.649376 0.619366,0.649823 0.617802,0.65027 0.616238,0.650553 0.614679,0.650771 0.613055,0.650886 0.61149,0.65094 0.609986,0.650771 0.608476,0.650553 0.606465,0.650046 0.604683,0.64949 0.603119,0.64876 0.601669,0.647926 0.600437,0.647032 0.59938,0.646029 0.59848,0.644967 0.597701,0.643849 0.597036,0.642677 0.596529,0.641446 0.596082,0.640219 0.595804,0.638993 0.595581,0.637707 0.595412,0.636426 0.595303,0.635194 0.595303,0.633968 0.595412,0.631788 0.59575,0.629722 0.596251,0.627771 0.596976,0.625874 0.597815,0.624086 0.598878,0.622467 0.600045,0.620903 0.601331,0.619508 0.602781,0.618222 0.60429,0.61705 0.605909,0.615987 0.607642,0.615098 0.609376,0.614314 0.611218,0.613703 0.613055,0.613196 0.614957,0.612864 0.615066,0.612864 0.615344,0.612809 0.615736,0.612749 0.616292,0.612695 0.617022,0.61258 0.617802,0.612526 0.618641,0.612417 0.61953,0.612302 0.620483,0.612193 0.621486,0.612079 0.622435,0.61203 0.623389,0.611915 0.624277,0.611861 0.625062,0.611801 0.625841,0.611746 0.627798,0.611746 0.629139,0.611801 0.63042,0.611861 0.631651,0.611861 0.632709,0.611915 0.633603,0.61197 0.634104,0.61203 0.634333,0.61203 0.634442,0.611632 0.634611,0.610629 0.634774,0.609457 0.634889,0.608395 0.63466,0.607168 0.634218,0.606051 0.633494,0.605048 0.632654,0.604209 0.631651,0.603484 0.630474,0.602982 0.629248,0.602644 0.627907,0.602535 0.626348,0.602475 0.624669,0.602421 0.622942,0.602421 0.621154,0.602475 0.619312,0.60259 0.617524,0.602759 0.615736,0.602922 0.614008,0.603151 0.612335,0.603369 0.610711,0.603647 0.609261,0.603931 0.60792,0.604209 0.606689,0.604547 0.605686,0.604879 0.604901,0.605266 0.60429,0.605604 0.608198,0.592147 0.609425,0.591645 0.610711,0.591199 0.611992,0.590812 0.613338,0.590528 0.614728,0.59025 0.616129,0.590027 0.617578,0.589803 0.619088,0.589694 0.620647,0.58958 0.622271,0.589525 0.62389,0.589465 0.629139,0.589465 0.631035,0.589525 0.632932,0.58958 0.634496,0.589694 0.636175,0.589972 0.637903,0.590365 0.639691,0.590866 0.641424,0.591531 0.643152,0.592316 0.644825,0.593264 0.646389,0.594327 0.647784,0.595553 0.649065,0.596894 0.650188,0.598398 0.651027,0.600077 0.651638,0.601865 0.65203,0.603762 0.65203,0.605882 0.651752,0.608117 0.645888,0.637598 "/>
    <polygon class="fil3" points="0.643599,0.650384 0.643931,0.650046 0.646226,0.637658 0.645555,0.637543 0.643266,0.649937 0.643599,0.649605 0.643599,0.650384 0.643877,0.65033 0.643931,0.650046 0.643599,0.650384 "/>
    <polygon class="fil3" points="0.629248,0.649992 0.629586,0.650384 0.643599,0.650384 0.643599,0.649605 0.629586,0.649605 0.629918,0.649992 0.629248,0.649992 0.629193,0.650384 0.629586,0.650384 0.629248,0.649992 "/>
    <polygon class="fil3" points="0.630142,0.643735 0.62964,0.643293 0.629417,0.644187 0.629357,0.645692 0.629357,0.647703 0.629248,0.649992 0.629918,0.649992 0.630027,0.647703 0.630142,0.645692 0.630087,0.644187 0.630087,0.643735 0.629586,0.643293 0.630142,0.643735 "/>
    <polygon class="fil3" points="0.608422,0.650886 0.608422,0.650886 0.609986,0.651109 0.61149,0.651278 0.613055,0.651218 0.614679,0.651109 0.616292,0.650886 0.617856,0.650602 0.619421,0.650155 0.620985,0.649714 0.62238,0.649153 0.62383,0.648482 0.625171,0.647812 0.626348,0.647032 0.627514,0.646253 0.628523,0.645468 0.629417,0.644574 0.630142,0.643735 0.629586,0.643293 0.628861,0.644133 0.628076,0.644912 0.627068,0.645692 0.62601,0.646476 0.624838,0.647147 0.623498,0.647812 0.622157,0.648482 0.620761,0.649044 0.619312,0.64949 0.617747,0.649937 0.616183,0.650215 0.614679,0.650439 0.613055,0.650553 0.61149,0.650602 0.609986,0.650439 0.608536,0.650215 0.608536,0.650215 0.608422,0.650886 "/>
    <polygon class="fil3" points="0.59491,0.633968 0.59491,0.633968 0.594965,0.635194 0.595079,0.636426 0.595243,0.637767 0.595472,0.639048 0.59575,0.640274 0.596197,0.64156 0.596698,0.642841 0.597423,0.644018 0.598202,0.64519 0.599096,0.646253 0.600213,0.64731 0.6015,0.64821 0.602955,0.649098 0.604568,0.649823 0.606416,0.650384 0.608422,0.650886 0.608536,0.650215 0.606525,0.649714 0.604792,0.649153 0.603287,0.648428 0.601832,0.647648 0.60066,0.646754 0.599658,0.645806 0.598764,0.644743 0.597979,0.643686 0.597368,0.642509 0.596867,0.641342 0.59642,0.640165 0.596137,0.638938 0.595913,0.637658 0.59575,0.636426 0.595635,0.635194 0.59569,0.633968 0.59491,0.633968 "/>
    <polygon class="fil3" points="0.614957,0.612526 0.614957,0.612526 0.613,0.612864 0.611103,0.613365 0.609261,0.613976 0.607473,0.614761 0.60574,0.615654 0.604067,0.616766 0.602557,0.617944 0.601107,0.619284 0.599767,0.62068 0.598595,0.622244 0.597477,0.623917 0.596638,0.625759 0.595913,0.627662 0.595412,0.629667 0.595079,0.631788 0.59491,0.633968 0.59569,0.633968 0.59575,0.631788 0.596082,0.629782 0.596584,0.62788 0.597314,0.625983 0.598148,0.62425 0.599151,0.622691 0.600322,0.621127 0.601554,0.619731 0.603004,0.6185 0.604514,0.617333 0.606078,0.616325 0.607806,0.615431 0.609485,0.614652 0.611327,0.614036 0.613109,0.613534 0.614957,0.613196 "/>
    <polygon class="fil3" points="0.626457,0.611354 0.625841,0.611354 0.625062,0.611463 0.624277,0.611523 0.623389,0.611578 0.622435,0.611687 0.621486,0.611746 0.620483,0.611861 0.61953,0.61197 0.618641,0.612079 0.617802,0.612193 0.617022,0.612248 0.616292,0.612362 0.615736,0.612417 0.615289,0.612471 0.615066,0.612526 0.614957,0.612526 0.614957,0.613196 0.615066,0.613196 0.615404,0.613136 0.615736,0.613087 0.616292,0.613027 0.617022,0.612918 0.617802,0.612864 0.618641,0.612749 0.61953,0.61264 0.620483,0.612526 0.621486,0.612417 0.622435,0.612362 0.623389,0.612248 0.624277,0.612193 0.625062,0.612133 0.626457,0.612133 "/>
    <polygon class="fil3" points="0.633995,0.61197 0.634333,0.611687 0.634104,0.611687 0.633603,0.611632 0.632709,0.611578 0.631651,0.611463 0.629139,0.611463 0.627798,0.611354 0.626457,0.611354 0.626457,0.612133 0.629139,0.612133 0.63042,0.612248 0.632709,0.612248 0.633603,0.612302 0.634104,0.612362 0.634333,0.612362 0.63466,0.612079 0.634333,0.612362 0.634611,0.612417 0.63466,0.612079 0.633995,0.61197 "/>
    <polygon class="fil3" points="0.634551,0.608395 0.634496,0.608395 0.634442,0.609457 0.634273,0.610575 0.634104,0.611578 0.633995,0.61197 0.63466,0.612079 0.634774,0.611687 0.634943,0.610684 0.635112,0.609457 0.635276,0.608395 0.634551,0.608395 "/>
    <polygon class="fil3" points="0.627907,0.602868 0.627907,0.602922 0.629193,0.602982 0.630365,0.603315 0.631482,0.603816 0.632431,0.604487 0.63321,0.605266 0.633886,0.60622 0.634333,0.607223 0.634551,0.608395 0.635221,0.608395 0.634998,0.607114 0.634551,0.605882 0.633772,0.604824 0.632878,0.603931 0.631815,0.603151 0.630588,0.602644 0.629308,0.602312 0.627907,0.602143 "/>
    <polygon class="fil3" points="0.603958,0.605549 0.604514,0.605882 0.60507,0.605604 0.6058,0.605211 0.606748,0.604879 0.607975,0.604547 0.609316,0.604263 0.610765,0.603985 0.612384,0.603707 0.614008,0.603484 0.615736,0.60326 0.617524,0.603091 0.619312,0.602922 0.621154,0.602813 0.626348,0.602813 0.627907,0.602868 0.627907,0.602203 0.626348,0.602143 0.624669,0.602034 0.622942,0.602034 0.621154,0.602143 0.619312,0.602252 0.617524,0.602421 0.615736,0.60259 0.614008,0.602813 0.612275,0.603037 0.610651,0.603315 0.609207,0.603598 0.60786,0.603871 0.606634,0.604209 0.605577,0.604547 0.604737,0.604934 0.604067,0.605326 0.604623,0.605658 0.603958,0.605549 "/>
    <polygon class="fil3" points="0.608089,0.591814 0.60786,0.592092 0.603958,0.605549 0.604623,0.605658 0.608536,0.592201 0.608307,0.592485 0.608089,0.591814 0.60792,0.591869 0.60786,0.592092 0.608089,0.591814 "/>
    <polygon class="fil3" points="0.632932,0.589247 0.632932,0.589247 0.631035,0.589133 0.629139,0.589078 0.62389,0.589078 0.622271,0.589187 0.620647,0.589247 0.619088,0.589356 0.617578,0.589465 0.616069,0.589694 0.614679,0.589912 0.613278,0.590196 0.611937,0.590474 0.610602,0.590866 0.609316,0.591308 0.608089,0.591814 0.608307,0.592485 0.609539,0.591978 0.61082,0.591531 0.612052,0.591144 0.613393,0.590866 0.614788,0.590583 0.616183,0.590365 0.617578,0.590136 0.619088,0.590027 0.620647,0.589912 0.622271,0.589858 0.629139,0.589858 0.631035,0.589912 0.632932,0.589912 "/>
    <polygon class="fil3" points="0.652085,0.608171 0.652085,0.608171 0.652363,0.605882 0.652363,0.603762 0.651976,0.601805 0.65136,0.599968 0.650466,0.598235 0.649349,0.596671 0.648008,0.595275 0.646613,0.594049 0.644994,0.592986 0.643321,0.591978 0.641533,0.591199 0.6398,0.590528 0.637957,0.590027 0.63623,0.589634 0.634496,0.589356 0.632932,0.589247 0.632932,0.589912 0.634496,0.590027 0.636115,0.590305 0.637848,0.590697 0.639576,0.591199 0.641309,0.591869 0.642983,0.592654 0.644656,0.593542 0.646166,0.594605 0.647566,0.595837 0.648793,0.597118 0.64991,0.598567 0.65069,0.600192 0.6513,0.601919 0.651692,0.603762 0.651692,0.605882 0.651414,0.608062 0.651414,0.608062 0.652085,0.608171 "/>
    <polygon class="fil3" points="0.646226,0.637658 0.646226,0.637658 0.652085,0.608171 0.651414,0.608062 0.645555,0.637543 0.645555,0.637543 0.646226,0.637658 "/>
    <polygon class="fil1" points="0.632376,0.623023 0.632262,0.622691 0.632044,0.622407 0.631651,0.622244 0.63109,0.622075 0.630474,0.62202 0.629749,0.621966 0.62891,0.621966 0.628076,0.62202 0.627182,0.622129 0.626288,0.622244 0.625394,0.622353 0.624555,0.622467 0.623721,0.622636 0.622991,0.622745 0.622271,0.622914 0.62171,0.623023 0.621323,0.623083 0.620876,0.623247 0.620315,0.623416 0.619699,0.623634 0.618974,0.623972 0.618303,0.62431 0.617524,0.624702 0.616799,0.625204 0.616069,0.625705 0.615344,0.626321 0.614728,0.626931 0.614117,0.627662 0.613616,0.628436 0.613224,0.62928 0.612886,0.630169 0.612722,0.631123 0.612668,0.633019 0.612946,0.634529 0.613393,0.635641 0.614063,0.63648 0.614897,0.637042 0.615851,0.637374 0.616799,0.637543 0.617747,0.637598 0.619421,0.637543 0.620985,0.637374 0.622435,0.637096 0.623721,0.636704 0.624953,0.636257 0.62601,0.635755 0.627013,0.635194 0.627907,0.634529 0.628692,0.633908 0.629357,0.633183 0.629973,0.632512 0.630474,0.631788 0.630866,0.631123 0.631144,0.630452 0.631368,0.629782 0.631537,0.629166 0.63176,0.627602 0.632044,0.625983 0.632262,0.624419 0.632376,0.623023 "/>
    <polygon class="fil3" points="0.747396,0.642345 0.747505,0.641059 0.747952,0.639549 0.748731,0.638214 0.749685,0.637042 0.750857,0.636088 0.752192,0.635423 0.753647,0.634971 0.755212,0.634807 0.756776,0.634971 0.758226,0.635423 0.759567,0.636088 0.760738,0.637042 0.761687,0.638214 0.762472,0.639549 0.762913,0.641059 0.763028,0.642345 0.761354,0.642345 0.761294,0.641342 0.760962,0.64011 0.760406,0.638993 0.759676,0.638045 0.758782,0.63726 0.757719,0.636704 0.756493,0.636311 0.755212,0.636197 0.753925,0.636311 0.752699,0.636704 0.751642,0.63726 0.750742,0.638045 0.750017,0.638993 0.749456,0.64011 0.749124,0.641342 0.749015,0.642345 0.747396,0.642345 "/>
    <polygon class="fil3" points="0.752416,0.642345 0.752416,0.638993 0.75549,0.638993 0.75616,0.639048 0.756776,0.639162 0.757223,0.639331 0.75761,0.639549 0.757893,0.639887 0.758111,0.640219 0.758226,0.640612 0.75828,0.641004 0.758226,0.641506 0.758111,0.641893 0.757948,0.642231 0.757833,0.642345 0.75549,0.642345 0.755713,0.64229 0.756106,0.642231 0.756438,0.642122 0.756716,0.642007 0.756939,0.641844 0.757054,0.641675 0.757163,0.641391 0.757163,0.641004 0.757108,0.640726 0.756994,0.640503 0.75683,0.640388 0.756662,0.640274 0.756378,0.640219 0.756106,0.640165 0.753816,0.640165 0.753816,0.642345 0.752416,0.642345 "/>
    <polygon class="fil3" points="0.747396,0.642345 0.747336,0.642677 0.747505,0.644296 0.747952,0.645806 0.748731,0.647147 0.749685,0.648264 0.750857,0.649212 0.752192,0.649937 0.753647,0.650384 0.755212,0.650553 0.756776,0.650384 0.758226,0.649937 0.759567,0.649212 0.760738,0.648264 0.761687,0.647147 0.762472,0.645806 0.762913,0.644296 0.763082,0.642677 0.763028,0.642345 0.761354,0.642345 0.761409,0.642677 0.761294,0.644018 0.760962,0.64525 0.760406,0.646307 0.759676,0.647256 0.758782,0.648041 0.757719,0.648651 0.756493,0.649044 0.755212,0.649153 0.753925,0.649044 0.752699,0.648651 0.751642,0.648041 0.750742,0.647256 0.750017,0.646307 0.749456,0.64525 0.749124,0.644018 0.749015,0.642677 0.749015,0.642345 0.747396,0.642345 "/>
    <polygon class="fil3" points="0.752416,0.642345 0.752416,0.645751 0.753816,0.645751 0.753816,0.642961 0.755212,0.642961 0.756885,0.645751 0.758002,0.645751 0.756329,0.642961 0.756716,0.642961 0.757108,0.642841 0.757446,0.642732 0.757719,0.642509 0.757833,0.642345 0.75549,0.642345 0.755212,0.642399 0.753816,0.642399 0.753816,0.642345 0.752416,0.642345 "/>
    <g>
     <path class="fil4 str0" d="M0.755212 0.649153l0 0 0.00128084 -0.000109008 0.00122634 -0.000392428 0.00106828 -0.000610444 0.000888414 -0.000784856 0.000730352 -0.000948368 0.00055594 -0.00106283 0.000332474 -0.00122634 0.000114458 -0.0013408 0 0 -0.000114458 -0.00133535 -0.000332474 -0.00123179 -0.00055594 -0.00111733 -0.000730352 -0.000948368 -0.000888414 -0.000779406 -0.00106828 -0.00056139 -0.00122634 -0.000392428 -0.00128084 -0.000114458 0 0 -0.00128084 0.000114458 -0.00123179 0.000392428 -0.00106283 0.00056139 -0.000893864 0.000779406 -0.000724902 0.000948368 -0.00056139 0.00111733 -0.000332474 0.00123179 -0.000109008 0.00133535 0 0 0.000109008 0.0013408 0.000332474 0.00122634 0.00056139 0.00106283 0.000724902 0.000948368 0.000893864 0.000784856 0.00106283 0.000610444 0.00123179 0.000392428 0.00128084 0.000109008zm0 -0.00675849l0 0 0.000501436 -0.000103557 0.000392428 -5.99543e-005 0.000332474 -0.000109008 0.00027797 -0.000114458 0.000228916 -0.000168962 0.000109008 -0.000163512 0.000109008 -0.00028342 0 -0.000392428 -5.45039e-005 -0.00027252 -0.000114458 -0.000223466 -0.000163512 -0.000119909 -0.000168962 -0.000109008 -0.00028342 -5.45039e-005 -0.00027252 -5.45039e-005 -0.00229461 0 0 0.00222921 0.00140075 0zm-0.00140075 0.00335744l-0.0013953 0 0 -0.00675849 0.00307402 0 0 0 0.000670398 5.45039e-005 0.000615894 0.000114458 0.000446932 0.000168962 0.000386978 0.000218016 0.00027797 0.000343375 0.000223466 0.000327023 0.000114458 0.000392428 5.45039e-005 0.000386978 0 0 -5.45039e-005 0.000506886 -0.000114458 0.000392428 -0.000163512 0.000332474 -0.000228916 0.00028342 -0.00027252 0.000218016 -0.000337924 0.000109008 -0.000392428 0.000119909 -0.000386978 0 0.00167327 0.0027906 -0.00111733 0 -0.00167327 -0.0027906 -0.00140075 0 0 0.0027906zm-0.00647507 -0.00307402l0 0 0.000168962 -0.00161877 0.000446932 -0.00150976 0.000779406 -0.00133535 0.000953819 -0.00117183 0.00117183 -0.000953819 0.00133535 -0.000664948 0.00145525 -0.000452382 0.00156426 -0.000163512 0 0 0.00156426 0.000163512 0.0014498 0.000452382 0.0013408 0.000664948 0.00117183 0.000953819 0.000948368 0.00117183 0.000784856 0.00133535 0.000441482 0.00150976 0.000168962 0.00161877 0 0 -0.000168962 0.00161877 -0.000441482 0.00150976 -0.000784856 0.0013408 -0.000948368 0.00111733 -0.00117183 0.000948368 -0.0013408 0.000724902 -0.0014498 0.000446932 -0.00156426 0.000163512 0 0 -0.00156426 -0.000163512 -0.00145525 -0.000446932 -0.00133535 -0.000724902 -0.00117183 -0.000948368 -0.000953819 -0.00111733 -0.000779406 -0.0013408 -0.000446932 -0.00150976 -0.000168962 -0.00161877z"/>
    </g>
    <polygon class="fil3" points="0.650074,0.649992 0.66582,0.649992 0.66582,0.649992 0.671461,0.618222 0.671679,0.616995 0.672017,0.615763 0.672355,0.614537 0.672802,0.613311 0.673358,0.612079 0.674028,0.610907 0.674753,0.60979 0.675647,0.608732 0.676655,0.607784 0.677767,0.60689 0.679053,0.606051 0.680503,0.60538 0.682122,0.604824 0.68391,0.604378 0.685866,0.60404 0.688041,0.603931 0.689436,0.603931 0.689436,0.603931 0.691949,0.58958 0.690385,0.589694 0.68888,0.589858 0.687485,0.590136 0.686139,0.590528 0.684913,0.590975 0.683746,0.591531 0.682623,0.592147 0.681566,0.592817 0.680563,0.593602 0.679609,0.594382 0.678715,0.595275 0.677827,0.596169 0.676988,0.597118 0.676154,0.598175 0.675309,0.599183 0.67453,0.600301 0.676203,0.590196 0.660517,0.590196 0.650074,0.649992 "/>
    <g>
     <polygon class="fil4 str0" points="0.650074,0.649992 0.66582,0.649992 0.66582,0.649992 0.671461,0.618222 0.671461,0.618222 0.671679,0.616995 0.672017,0.615763 0.672355,0.614537 0.672802,0.613311 0.673358,0.612079 0.674028,0.610913 0.674753,0.60979 0.675652,0.608727 0.676655,0.607784 0.677767,0.60689 0.679053,0.606051 0.680503,0.60538 0.682122,0.604824 0.68391,0.604378 0.685866,0.60404 0.688041,0.603931 0.689436,0.603931 0.689436,0.603931 0.691949,0.58958 0.691949,0.58958 0.690385,0.589689 0.688875,0.589858 0.68748,0.590136 0.686144,0.590528 0.684918,0.590975 0.683746,0.591531 0.682623,0.592147 0.681566,0.592823 0.680563,0.593602 0.679609,0.594382 0.678715,0.595281 0.677827,0.596169 0.676988,0.597118 0.676148,0.598175 0.675309,0.599183 0.67453,0.600301 0.676208,0.590196 0.660517,0.590196 0.650074,0.649992 "/>
    </g>
    <polygon class="fil3" points="0.502226,0.649992 0.51825,0.649992 0.523608,0.618222 0.523832,0.616995 0.524115,0.615823 0.524393,0.614652 0.52478,0.613534 0.525227,0.612417 0.525783,0.611354 0.526459,0.610346 0.527238,0.609403 0.528132,0.608563 0.52914,0.60773 0.530367,0.607059 0.531702,0.606443 0.533272,0.605936 0.535,0.605495 0.536896,0.605211 0.539076,0.605048 0.539245,0.605048 0.539469,0.605102 0.539747,0.605157 0.540025,0.605157 0.540303,0.605211 0.540526,0.605266 0.540695,0.605326 0.54075,0.605326 0.540804,0.605102 0.540973,0.604432 0.541197,0.603429 0.54148,0.602203 0.541867,0.600748 0.542259,0.599183 0.542761,0.597619 0.543262,0.596055 0.543709,0.594997 0.544271,0.593935 0.544827,0.592877 0.545383,0.591923 0.545889,0.59109 0.546276,0.590419 0.54656,0.590027 0.546669,0.589858 0.546614,0.589858 0.546391,0.589803 0.546113,0.589749 0.54572,0.589694 0.545328,0.589694 0.544881,0.589634 0.544489,0.58958 0.544102,0.58958 0.542368,0.589694 0.540804,0.589858 0.539354,0.590136 0.538014,0.590474 0.536727,0.590921 0.535561,0.591476 0.534498,0.592038 0.53349,0.592708 0.532541,0.593433 0.531653,0.594267 0.530814,0.595106 0.529974,0.596055 0.52914,0.597003 0.528356,0.598066 0.527516,0.599183 0.526682,0.600301 0.528693,0.590196 0.512669,0.590196 0.502226,0.649992 "/>
    <g>
     <polygon class="fil4 str0" points="0.502226,0.649992 0.51825,0.649992 0.523608,0.618222 0.523608,0.618222 0.523832,0.616995 0.524115,0.615823 0.524393,0.614646 0.52478,0.613534 0.525227,0.612417 0.525783,0.611354 0.526453,0.610346 0.527238,0.609403 0.528132,0.608563 0.52914,0.60773 0.530367,0.607059 0.531702,0.606443 0.533272,0.605936 0.535,0.605495 0.536896,0.605211 0.539076,0.605048 0.53924,0.605048 0.539469,0.605097 0.539747,0.605157 0.540025,0.605157 0.540308,0.605211 0.540532,0.605266 0.540695,0.605326 0.54075,0.605326 0.54075,0.605326 0.540804,0.605097 0.540973,0.604432 0.541197,0.603429 0.541475,0.602203 0.541867,0.600748 0.542254,0.599183 0.542761,0.597619 0.543262,0.59606 0.543262,0.59606 0.543709,0.594997 0.544265,0.593935 0.544827,0.592877 0.545383,0.591923 0.545889,0.591084 0.546276,0.590419 0.54656,0.590027 0.546669,0.589858 0.546614,0.589858 0.546391,0.589809 0.546107,0.589749 0.54572,0.589689 0.545328,0.589689 0.544876,0.589634 0.544489,0.58958 0.544102,0.58958 0.544102,0.58958 0.542374,0.589689 0.540804,0.589858 0.539354,0.590136 0.538014,0.590474 0.536727,0.590915 0.535555,0.591476 0.534498,0.592038 0.53349,0.592708 0.532541,0.593433 0.531653,0.594267 0.530814,0.595106 0.529974,0.59606 0.52914,0.597003 0.528356,0.598066 0.527522,0.599183 0.526682,0.600301 0.528688,0.590196 0.512669,0.590196 0.502226,0.649992 "/>
    </g>
    <polygon class="fil1" points="0.747505,0.708731 0.747505,0.708502 0.747952,0.707052 0.748731,0.705771 0.749685,0.704654 0.750857,0.70376 0.752192,0.70309 0.753647,0.702703 0.755212,0.702534 0.756776,0.702703 0.758226,0.70309 0.759567,0.70376 0.760738,0.704654 0.761687,0.705771 0.762472,0.707052 0.762913,0.708502 0.762913,0.708731 0.761294,0.708731 0.760962,0.707559 0.760406,0.706496 0.759676,0.705542 0.758782,0.704768 0.757719,0.704152 0.756493,0.70376 0.755212,0.703651 0.753925,0.70376 0.752699,0.704152 0.751642,0.704768 0.750742,0.705542 0.750017,0.706496 0.749456,0.707559 0.749124,0.708731 0.747505,0.708731 "/>
    <polygon class="fil1" points="0.752416,0.708731 0.752416,0.706774 0.75616,0.706774 0.756776,0.706889 0.757223,0.706998 0.75761,0.707221 0.757893,0.707504 0.758111,0.707837 0.758226,0.708229 0.75828,0.708731 0.757163,0.708731 0.757163,0.708453 0.757108,0.708169 0.756994,0.707946 0.75683,0.707837 0.756662,0.707728 0.756378,0.707668 0.756106,0.707613 0.753816,0.707613 0.753816,0.708731 0.752416,0.708731 "/>
    <polygon class="fil1" points="0.747336,0.709957 0.747505,0.708731 0.749124,0.708731 0.749124,0.708785 0.749015,0.709957 0.747336,0.709957 "/>
    <polygon class="fil1" points="0.752416,0.709957 0.752416,0.708731 0.753816,0.708731 0.753816,0.709848 0.755212,0.709848 0.755713,0.709734 0.756106,0.709679 0.756438,0.70957 0.756716,0.709456 0.756939,0.709287 0.757054,0.709118 0.757163,0.70884 0.757163,0.708731 0.75828,0.708731 0.75828,0.708731 0.758226,0.709118 0.758111,0.709456 0.757948,0.709734 0.757719,0.709957 0.752416,0.709957 "/>
    <polygon class="fil1" points="0.761409,0.709957 0.761294,0.708785 0.761294,0.708731 0.762913,0.708731 0.763082,0.709957 0.761409,0.709957 "/>
    <polygon class="fil1" points="0.747336,0.709957 0.747336,0.710126 0.747505,0.711745 0.747952,0.713255 0.748731,0.71459 0.749685,0.715767 0.750857,0.716716 0.752192,0.717381 0.753647,0.717833 0.755212,0.717996 0.756776,0.717833 0.758226,0.717381 0.759567,0.716716 0.760738,0.715767 0.761687,0.71459 0.762472,0.713255 0.762913,0.711745 0.763082,0.710126 0.763082,0.709957 0.761409,0.709957 0.761409,0.710126 0.761294,0.711461 0.760962,0.712693 0.760406,0.713756 0.759676,0.714704 0.758782,0.715489 0.757719,0.7161 0.756493,0.716492 0.755212,0.716601 0.753925,0.716492 0.752699,0.7161 0.751642,0.715489 0.750742,0.714704 0.750017,0.713756 0.749456,0.712693 0.749124,0.711461 0.749015,0.710126 0.749015,0.709957 0.747336,0.709957 "/>
    <polygon class="fil1" points="0.752416,0.709957 0.752416,0.713195 0.753816,0.713195 0.753816,0.710404 0.755212,0.710404 0.756885,0.713195 0.758002,0.713195 0.756329,0.710404 0.756716,0.710404 0.757108,0.710295 0.757446,0.710181 0.757719,0.709957 0.752416,0.709957 "/>
    <g>
     <polygon class="fil5" points="0.41956,0.417582 0.36813,0.417582 0.400277,0.220054 0.451707,0.220054 "/>
     <path class="fil5" d="M0.324871 0.220054l-0.0490317 0.135856 -0.00579922 -0.0292577 5.45039e-006 1.09008e-005 -0.0173104 -0.0888196c0,0 -0.0020875,-0.0177901 -0.024396,-0.0177901l-0.0810419 0 -0.000953819 0.00334109c0,0 0.0247938,0.00515062 0.0537954,0.022581l0.0446769 0.171606 0.0535828 0 0.0818213 -0.197528 -0.0553487 0z"/>
     <path class="fil5" d="M0.672775 0.347708l0.0270285 -0.0739237 0.0152011 0.0739237 -0.0422296 0zm0.0565914 0.069874l0.0472222 0 -0.0411723 -0.197528 -0.0413467 0c-0.0190927,0 -0.0237365,0.0147161 -0.0237365,0.0147161l-0.0766979 0.182812 0.0535991 0 0.0107264 -0.0293395 0.0653774 0 0.00602813 0.0293395z"/>
     <path class="fil5" d="M0.597657 0.267554l0.00733623 -0.0424258c0,0 -0.0226464,-0.00861162 -0.046252,-0.00861162 -0.0255187,0 -0.0861216,0.0111624 -0.0861216,0.0653883 0,0.0510375 0.0711276,0.0516752 0.0711276,0.0784693 0,0.0267941 -0.0637968,0.0220087 -0.0848517,0.00510157l-0.00765235 0.0443444c0,0 0.0229625,0.0111624 0.0580521,0.0111624 0.0350896,0 0.0880402,-0.0181771 0.0880402,-0.0676285 0,-0.0513536 -0.0717708,-0.056139 -0.0717708,-0.0784638 0,-0.0223303 0.0500836,-0.0194633 0.0720923,-0.00733623z"/>
     <path class="fil6" d="M0.270045 0.326664l-0.0173104 -0.0888196c0,0 -0.0020875,-0.0177901 -0.024396,-0.0177901l-0.0810419 0 -0.000953819 0.00334109c0,0 0.0389594,0.00807203 0.0763327,0.0383217 0.0357164,0.0289089 0.0473694,0.0649469 0.0473694,0.0649469z"/>
    </g>
   </g>
   <path class="fil7" d="M0.461474 0c0.254839,0 0.461452,0.206613 0.461452,0.461474 0,0.254839 -0.206613,0.461452 -0.461452,0.461452 -0.25486,0 -0.461474,-0.206613 -0.461474,-0.461452 0,-0.25486 0.206613,-0.461474 0.461474,-0.461474zm0 0.0657699c0.218523,0 0.395682,0.17716 0.395682,0.395704 0,0.218523 -0.17716,0.395682 -0.395682,0.395682 -0.218544,0 -0.395704,-0.17716 -0.395704,-0.395682 0,-0.218544 0.17716,-0.395704 0.395704,-0.395704z"/>
  </g>
 </g>
</svg>
