<svg width="255" height="255" viewBox="0 0 255 255" fill="none" xmlns="http://www.w3.org/2000/svg">
<g clip-path="url(#clip0)">
<path d="M108.323 67.0979C105.999 66.7369 105.901 66.6942 106.995 66.5261C109.091 66.203 114.04 66.6432 117.451 67.4553C125.413 69.351 132.659 74.2072 140.393 82.8314L142.448 85.1228L145.387 84.6494C157.769 82.6564 170.366 84.2402 180.902 89.1151C183.801 90.4562 188.371 93.1262 188.942 93.8123C189.124 94.0306 189.458 95.4383 189.684 96.94C190.467 102.136 190.075 106.118 188.488 109.093C187.625 110.712 187.577 111.224 188.157 112.61C188.621 113.715 189.913 114.533 191.192 114.532C193.81 114.528 196.628 110.289 197.934 104.39L198.453 102.048L199.48 103.213C205.117 109.609 209.544 118.331 210.304 124.539L210.502 126.158L209.555 124.686C207.924 122.154 206.286 120.43 204.188 119.04C200.407 116.534 196.408 115.681 185.819 115.122C176.255 114.617 170.842 113.799 165.475 112.046C156.344 109.064 151.74 105.093 140.893 90.8391C136.075 84.5084 133.097 81.0053 130.135 78.1844C123.404 71.7747 116.79 68.4131 108.323 67.0979Z" fill="#FF007A"/>
<path d="M191.099 81.2336C191.34 76.9915 191.914 74.1929 193.069 71.6377C193.526 70.626 193.955 69.7981 194.021 69.7981C194.087 69.7981 193.888 70.5448 193.579 71.4572C192.74 73.9375 192.602 77.3294 193.18 81.2763C193.914 86.2838 194.332 87.0062 199.616 92.4158C202.095 94.953 204.978 98.1529 206.023 99.5267L207.923 102.025L206.023 100.24C203.699 98.0565 198.354 93.7988 197.174 93.19C196.382 92.782 196.265 92.7887 195.776 93.2756C195.326 93.7243 195.231 94.398 195.169 97.5843C195.072 102.55 194.396 105.738 192.765 108.925C191.883 110.648 191.744 110.281 192.542 108.335C193.138 106.882 193.199 106.244 193.194 101.436C193.185 91.7775 192.04 89.4554 185.326 85.4774C183.625 84.4697 180.822 83.0162 179.098 82.2477C177.374 81.4791 176.004 80.8093 176.054 80.7595C176.244 80.5698 182.792 82.4839 185.427 83.4992C189.347 85.0096 189.995 85.2053 190.471 85.0232C190.79 84.9013 190.944 83.9701 191.099 81.2336Z" fill="#FF007A"/>
<path d="M112.838 97.7572C108.12 91.2511 105.2 81.2755 105.832 73.8183L106.028 71.5106L107.102 71.707C109.119 72.0755 112.596 73.3721 114.225 74.3626C118.694 77.0807 120.628 80.6595 122.597 89.8494C123.173 92.5409 123.929 95.5869 124.277 96.6185C124.838 98.2784 126.955 102.156 128.676 104.674C129.916 106.487 129.093 107.346 126.352 107.099C122.166 106.72 116.496 102.801 112.838 97.7572Z" fill="#FF007A"/>
<path d="M185.376 146.18C163.325 137.288 155.559 129.569 155.559 116.546C155.559 114.629 155.625 113.061 155.705 113.061C155.785 113.061 156.638 113.694 157.601 114.467C162.072 118.059 167.079 119.593 180.941 121.618C189.098 122.811 193.688 123.773 197.923 125.18C211.382 129.65 219.709 138.723 221.694 151.08C222.271 154.67 221.933 161.404 220.997 164.952C220.259 167.755 218.005 172.808 217.407 173.001C217.241 173.055 217.079 172.419 217.037 171.553C216.81 166.914 214.469 162.396 210.537 159.012C206.067 155.165 200.061 152.102 185.376 146.18Z" fill="#FF007A"/>
<path d="M169.896 149.874C169.619 148.228 169.14 146.125 168.831 145.201L168.268 143.522L169.313 144.697C170.759 146.323 171.902 148.403 172.871 151.174C173.61 153.289 173.693 153.918 173.688 157.355C173.682 160.729 173.59 161.436 172.907 163.339C171.831 166.341 170.495 168.47 168.253 170.754C164.225 174.86 159.046 177.133 151.573 178.076C150.274 178.24 146.488 178.516 143.16 178.689C134.771 179.126 129.25 180.029 124.289 181.774C123.576 182.025 122.939 182.177 122.875 182.112C122.674 181.912 126.051 179.896 128.841 178.55C132.775 176.652 136.691 175.616 145.465 174.153C149.799 173.43 154.275 172.553 155.411 172.204C166.144 168.908 171.661 160.402 169.896 149.874Z" fill="#FF007A"/>
<path d="M180.004 167.854C177.074 161.546 176.401 155.456 178.006 149.776C178.178 149.169 178.454 148.672 178.62 148.672C178.786 148.672 179.478 149.047 180.156 149.504C181.507 150.415 184.214 151.948 191.428 155.887C200.43 160.802 205.562 164.609 209.053 168.957C212.109 172.766 214.001 177.103 214.911 182.393C215.426 185.389 215.124 192.598 214.357 195.615C211.937 205.127 206.312 212.599 198.288 216.959C197.113 217.598 196.058 218.123 195.944 218.125C195.83 218.127 196.258 217.037 196.895 215.701C199.594 210.05 199.902 204.554 197.861 198.436C196.612 194.69 194.064 190.119 188.921 182.394C182.941 173.412 181.475 171.022 180.004 167.854Z" fill="#FF007A"/>
<path d="M97.1784 201.889C105.361 194.969 115.543 190.053 124.817 188.544C128.814 187.893 135.473 188.152 139.174 189.1C145.107 190.621 150.414 194.027 153.174 198.085C155.871 202.051 157.029 205.507 158.234 213.197C158.709 216.23 159.226 219.276 159.382 219.966C160.287 223.951 162.048 227.137 164.229 228.736C167.695 231.277 173.663 231.435 179.533 229.142C180.53 228.752 181.394 228.483 181.455 228.544C181.668 228.756 178.712 230.738 176.627 231.781C173.821 233.185 171.589 233.728 168.625 233.728C163.248 233.728 158.784 230.988 155.059 225.402C154.327 224.303 152.679 221.01 151.398 218.086C147.466 209.102 145.524 206.365 140.958 203.37C136.984 200.764 131.859 200.297 128.004 202.191C122.94 204.677 121.527 211.159 125.154 215.267C126.595 216.899 129.284 218.307 131.482 218.581C135.594 219.093 139.128 215.96 139.128 211.802C139.128 209.101 138.092 207.561 135.484 206.382C131.921 204.772 128.091 206.653 128.11 210.006C128.118 211.435 128.739 212.333 130.17 212.981C131.087 213.397 131.109 213.43 130.36 213.274C127.091 212.595 126.326 208.648 128.954 206.028C132.109 202.882 138.635 204.27 140.876 208.564C141.817 210.368 141.926 213.96 141.106 216.129C139.269 220.983 133.913 223.536 128.479 222.147C124.78 221.201 123.274 220.177 118.814 215.576C111.065 207.58 108.056 206.031 96.8832 204.284L94.7422 203.949L97.1784 201.889Z" fill="#FF007A"/>
<path fill-rule="evenodd" clip-rule="evenodd" d="M38.7398 22.7825C64.6208 54.2434 104.521 103.226 106.502 105.969C108.138 108.233 107.522 110.269 104.721 111.864C103.162 112.751 99.9588 113.65 98.3548 113.65C96.5408 113.65 94.4972 112.775 93.0089 111.361C91.9567 110.362 87.7112 104.012 77.9102 88.7808C70.411 77.1265 64.1351 67.4584 63.964 67.2967C63.5682 66.9221 63.5749 66.9349 77.1456 91.2543C85.6669 106.525 88.5435 111.924 88.5435 112.646C88.5435 114.115 88.1437 114.886 86.3348 116.907C83.3193 120.277 81.9715 124.062 80.9985 131.897C79.9073 140.68 76.8401 146.884 68.3396 157.502C63.3637 163.717 62.5494 164.856 61.2939 167.362C59.7122 170.516 59.2773 172.283 59.1011 176.267C58.9149 180.479 59.2777 183.2 60.5627 187.227C61.6873 190.753 62.8613 193.08 65.8628 197.737C68.453 201.755 69.9448 204.741 69.9448 205.909C69.9448 206.838 70.1218 206.839 74.1358 205.932C83.741 203.759 91.541 199.938 95.9277 195.256C98.6424 192.357 99.2797 190.757 99.3004 186.785C99.3139 184.187 99.2228 183.644 98.5219 182.149C97.3805 179.717 95.3028 177.694 90.7231 174.559C84.7228 170.451 82.1601 167.143 81.452 162.595C80.8712 158.862 81.5451 156.229 84.8645 149.261C88.3004 142.049 89.1517 138.975 89.7278 131.705C90.0997 127.008 90.6149 125.156 91.9623 123.669C93.3674 122.118 94.6324 121.594 98.1101 121.118C103.78 120.342 107.39 118.873 110.358 116.134C112.932 113.758 114.009 111.469 114.175 108.022L114.3 105.41L112.862 103.73C107.652 97.6461 35.2508 18 34.9302 18C34.8617 18 36.5761 20.1523 38.7398 22.7825ZM72.8691 181.033C74.047 178.944 73.4213 176.257 71.4509 174.945C69.5891 173.705 66.697 174.29 66.697 175.905C66.697 176.398 66.9695 176.757 67.5829 177.073C68.6157 177.606 68.6909 178.204 67.8781 179.428C67.055 180.667 67.1215 181.756 68.0655 182.497C69.5871 183.69 71.7409 183.034 72.8691 181.033Z" fill="#FF007A"/>
<path fill-rule="evenodd" clip-rule="evenodd" d="M117.878 122.488C115.217 123.307 112.629 126.132 111.828 129.095C111.339 130.902 111.617 134.072 112.349 135.051C113.531 136.633 114.674 137.05 117.771 137.028C123.832 136.985 129.101 134.382 129.714 131.126C130.216 128.458 127.902 124.761 124.714 123.137C123.069 122.3 119.571 121.968 117.878 122.488ZM124.964 128.037C125.899 126.707 125.49 125.269 123.9 124.297C120.873 122.446 116.294 123.978 116.294 126.842C116.294 128.268 118.682 129.824 120.87 129.824C122.327 129.824 124.32 128.954 124.964 128.037Z" fill="#FF007A"/>
</g>
<defs>
<clipPath id="clip0">
<rect width="255" height="255" fill="white"/>
</clipPath>
</defs>
</svg>
