<svg width="400" height="400" viewBox="0 0 400 400" fill="none" xmlns="http://www.w3.org/2000/svg">
<path d="M258.357 193.943C278.856 180.829 291.089 157.66 291.089 126.623C291.089 75.9143 259.348 47.5 205.786 47.5H98V353.5H212.068C270.59 353.5 302 320.714 302 267.383C302 230.226 286.46 204.871 258.357 193.943ZM151.232 99.9571H201.157C224.301 99.9571 236.535 113.071 236.535 137.114C236.535 161.594 224.301 174.271 201.157 174.271H151.232V99.9571ZM210.084 301.043H151.232V223.669H210.084C234.882 223.669 247.776 235.909 247.776 261.7C247.776 288.366 234.882 301.043 210.084 301.043Z" fill="#0B2888"/>
</svg>
