<svg width="255" height="255" viewBox="0 0 255 255" fill="none" xmlns="http://www.w3.org/2000/svg">
<g clip-path="url(#clip0_305_15)">
<g clip-path="url(#clip1_305_15)">
<path fill-rule="evenodd" clip-rule="evenodd" d="M125.107 27.0062C110.061 27.0062 92.2223 41.4821 77.508 65.819C62.1716 91.0237 53.0225 122.227 53.0225 149.323C53.0225 188.992 75.267 228.996 125.111 228.996C174.896 228.996 197.2 188.992 197.2 149.323C197.2 122.227 188.055 91.0237 172.793 65.819C157.941 41.4821 140.104 27.0062 125.107 27.0062ZM514.369 86.522H564.831V218.179H618.898V86.522H669.339V37.8214H514.369V86.5158V86.522ZM784.681 86.522H863.979V37.8214H784.681C711.83 37.8214 672.923 74.0701 672.923 127.994C672.923 181.917 711.83 218.179 784.681 218.179H863.979V169.48H784.681C750.964 169.48 728.802 157.42 728.802 128C728.802 98.5801 750.964 86.522 784.681 86.522ZM637.889 33.9257L751.521 40.6788L806.895 51.24L528.871 10.2628L585.399 218.179L883.035 181.674L642.503 51.24L857.078 176.48L751.521 207.069L445.884 71.3926V218.179H499.951V37.8214L637.889 33.9257Z" fill="#E30613"/>
</g>
</g>
<defs>
<clipPath id="clip0_305_15">
<rect width="255" height="255" fill="white"/>
</clipPath>
<clipPath id="clip1_305_15">
<rect width="811" height="202" fill="white" transform="translate(53 27)"/>
</clipPath>
</defs>
</svg>
