<svg width="255" height="255" viewBox="0 0 255 255" fill="none" xmlns="http://www.w3.org/2000/svg">
<g clip-path="url(#clip0)">
<path d="M41.4207 180.647C42.9595 179.107 45.0754 178.208 47.3196 178.208H250.832C254.551 178.208 256.411 182.7 253.782 185.331L213.579 225.562C212.04 227.102 209.925 228 207.68 228H4.1677C0.448816 228 -1.41063 223.508 1.21824 220.878L41.4207 180.647Z" fill="url(#paint0_linear)"/>
<path d="M41.4192 30.4382C43.0222 28.8983 45.1381 28 47.3181 28H250.831C254.55 28 256.409 32.4915 253.78 35.1222L213.578 75.3532C212.039 76.8932 209.923 77.7915 207.679 77.7915H4.16623C0.447352 77.7915 -1.41209 73.3 1.21678 70.6692L41.4192 30.4382Z" fill="url(#paint1_linear)"/>
<path d="M213.579 105.061C212.04 103.521 209.925 102.623 207.68 102.623H4.1677C0.448816 102.623 -1.41063 107.115 1.21824 109.745L41.4207 149.976C42.9595 151.516 45.0754 152.414 47.3196 152.414H250.832C254.551 152.414 256.411 147.923 253.782 145.292L213.579 105.061Z" fill="url(#paint2_linear)"/>
</g>
<defs>
<linearGradient id="paint0_linear" x1="231.391" y1="3.96696" x2="90.3864" y2="273.855" gradientUnits="userSpaceOnUse">
<stop stop-color="#00FFA3"/>
<stop offset="1" stop-color="#DC1FFF"/>
</linearGradient>
<linearGradient id="paint1_linear" x1="169.803" y1="-28.2088" x2="28.7991" y2="241.679" gradientUnits="userSpaceOnUse">
<stop stop-color="#00FFA3"/>
<stop offset="1" stop-color="#DC1FFF"/>
</linearGradient>
<linearGradient id="paint2_linear" x1="200.402" y1="-12.2232" x2="59.3975" y2="257.665" gradientUnits="userSpaceOnUse">
<stop stop-color="#00FFA3"/>
<stop offset="1" stop-color="#DC1FFF"/>
</linearGradient>
<clipPath id="clip0">
<rect width="255" height="200" fill="white" transform="translate(0 28)"/>
</clipPath>
</defs>
</svg>
