<?xml version="1.0" encoding="UTF-8"?>
<!DOCTYPE svg PUBLIC "-//W3C//DTD SVG 1.1//EN" "http://www.w3.org/Graphics/SVG/1.1/DTD/svg11.dtd">
<!-- Creator: CorelDRAW X7 -->
<svg xmlns="http://www.w3.org/2000/svg" xml:space="preserve" width="16.9332mm" height="16.9332mm" version="1.1" style="shape-rendering:geometricPrecision; text-rendering:geometricPrecision; image-rendering:optimizeQuality; fill-rule:evenodd; clip-rule:evenodd"
viewBox="0 0 200 200"
 xmlns:xlink="http://www.w3.org/1999/xlink"
 enable-background="new 0 0 32 32"
 xmlns:cc="http://creativecommons.org/ns#"
 xmlns:dc="http://purl.org/dc/elements/1.1/"
 xmlns:inkscape="http://www.inkscape.org/namespaces/inkscape"
 xmlns:rdf="http://www.w3.org/1999/02/22-rdf-syntax-ns#"
 xmlns:sodipodi="http://sodipodi.sourceforge.net/DTD/sodipodi-0.dtd"
 xmlns:svg="http://www.w3.org/2000/svg">
 <defs>
  <style type="text/css">
   <![CDATA[
    .fil1 {fill:#FEFEFE}
    .fil0 {fill:#00A0E3}
   ]]>
  </style>
 </defs>
 <g id="Layer_x0020_1">
  <metadata id="CorelCorpID_0Corel-Layer"/>
  <circle id="_466879672" class="fil0" cx="100" cy="100" r="100"/>
  <g id="_1100746288">
   <g id="mobile_phone">
    <g>
     <path class="fil1" d="M66 33l0 134 67 0 0 -134 -67 0zm21 125l-8 0 0 -8 8 0 0 8zm0 -16l-8 0 0 -9 8 0 0 9zm0 -17l-8 0 0 -9 8 0 0 9zm17 33l-8 0 0 -8 8 0 0 8zm0 -16l-8 0 0 -9 8 0 0 9zm0 -17l-8 0 0 -9 8 0 0 9zm17 33l-9 0 0 -8 9 0 0 8zm0 -16l-9 0 0 -9 9 0 0 9zm0 -17l-9 0 0 -9 9 0 0 9zm0 -17l-42 0 0 -58 42 0 0 58z"/>
    </g>
   </g>
  </g>
 </g>
</svg>
