<?xml version="1.0" encoding="UTF-8"?>
<!DOCTYPE svg PUBLIC "-//W3C//DTD SVG 1.1//EN" "http://www.w3.org/Graphics/SVG/1.1/DTD/svg11.dtd">
<!-- Creator: CorelDRAW -->
<svg xmlns="http://www.w3.org/2000/svg" xml:space="preserve" width="16.9332mm" height="16.9332mm" style="shape-rendering:geometricPrecision; text-rendering:geometricPrecision; image-rendering:optimizeQuality; fill-rule:evenodd; clip-rule:evenodd"
viewBox="0 0 1.38148 1.38148"
 xmlns:xlink="http://www.w3.org/1999/xlink">
 <defs>
  <style type="text/css">
   <![CDATA[
    .fil2 {fill:#FEFEFE}
    .fil3 {fill:#66AA1F}
    .fil1 {fill:#69B121}
    .fil0 {fill:#010101;fill-rule:nonzero}
   ]]>
  </style>
 </defs>
<symbol id="Fm4-477-0" viewBox="3.64868 -14.8266 1.06487 1.4997">
 <polygon class="fil0" points="3.64868,-14.1979 3.64868,-13.3269 4.71355,-14.8266 "/>
</symbol>
<symbol id="Fm0-469-0" viewBox="2.58444 -15.5122 2.12849 1.11279">
 <polygon class="fil0" points="3.64868,-15.5122 2.58444,-15.0284 3.64868,-14.3994 4.71293,-15.0284 "/>
</symbol>
<symbol id="Fm1-471-0" viewBox="2.58445 -16.7943 1.06424 2.39491">
 <polygon class="fil0" points="2.58445,-15.0284 3.64869,-14.3994 3.64869,-15.5122 3.64869,-16.7943 "/>
</symbol>
<symbol id="Fm2-473-0" viewBox="3.64868 -16.7943 1.06424 2.39491">
 <polygon class="fil0" points="3.64868,-16.7943 3.64868,-15.5122 3.64868,-14.3994 4.71293,-15.0284 "/>
</symbol>
<symbol id="Fm3-475-0" viewBox="2.58445 -14.8266 1.06424 1.4997">
 <polygon class="fil0" points="2.58445,-14.8266 3.64869,-13.3269 3.64869,-14.1979 "/>
</symbol>
 <g id="__x0023_Layer_x0020_1">
  <metadata id="CorelCorpID_0Corel-Layer"/>
  <g id="_401084832">
   <circle id="_397505440" class="fil1" cx="0.690742" cy="0.690742" r="0.690747"/>
   <g>
    <path id="_394614856" class="fil2" d="M0.694471 0.276563c0.0968244,-0.0736625 0.236236,-0.0640437 0.321753,0.0262375 0.0915948,0.0966938 0.087434,0.250121 -0.00925983,0.341716l-0.0173856 0.0164637 0.102152 0.168504c0.0696975,0.114961 0.0324706,0.266789 -0.0824818,0.336487 -0.105799,0.0641417 -0.242836,0.0377165 -0.318326,-0.0565135 -0.0449448,0.056179 -0.114047,0.0922393 -0.191348,0.0922393 -0.134998,0 -0.244973,-0.109976 -0.244973,-0.244973l0 -0.531963c0,-0.134998 0.109976,-0.244973 0.244973,-0.244973 0.0793653,0 0.150091,0.0380102 0.194897,0.0967754z"/>
    <path id="_397507576" class="fil3" d="M0.499574 0.314671l0 0c0.0605438,0 0.110082,0.049538 0.110082,0.11009l0 0.115997 0.157613 -0.149291c0.0426605,-0.0404088 0.11062,-0.0385649 0.151021,0.00409554l8.15844e-006 0c0.0404006,0.0426523 0.0385568,0.110612 -0.00409554,0.151021l-0.0963756 0.0912848 0.158559 0.261543c0.0313855,0.0517816 0.0147097,0.119823 -0.0370719,0.151209l0 0c-0.0517735,0.0313937 -0.119815,0.0147097 -0.151209,-0.0370638l-0.133831 -0.220767 -0.0446185 0.0422607 0 0.121675c0,0.0605519 -0.049538,0.11009 -0.110082,0.11009l0 0c-0.0605519,0 -0.11009,-0.049538 -0.11009,-0.11009l0 -0.531963c0,-0.0605519 0.049538,-0.11009 0.11009,-0.11009z"/>
   </g>
  </g>
 </g>
</svg>
