<?xml version="1.0" encoding="UTF-8"?>
<!DOCTYPE svg PUBLIC "-//W3C//DTD SVG 1.1//EN" "http://www.w3.org/Graphics/SVG/1.1/DTD/svg11.dtd">
<!-- Creator: CorelDRAW -->
<svg xmlns="http://www.w3.org/2000/svg" xml:space="preserve" width="16.9332mm" height="16.9332mm" style="shape-rendering:geometricPrecision; text-rendering:geometricPrecision; image-rendering:optimizeQuality; fill-rule:evenodd; clip-rule:evenodd"
viewBox="0 0 1.37799 1.37799"
 xmlns:xlink="http://www.w3.org/1999/xlink">
 <defs>
  <style type="text/css">
   <![CDATA[
    .fil1 {fill:#20602E}
    .fil2 {fill:#FEFEFE;fill-rule:nonzero}
    .fil0 {fill:#010101;fill-rule:nonzero}
   ]]>
  </style>
 </defs>
<symbol id="Fm4-477-0" viewBox="3.61807 -18.0711 1.06218 1.49591">
 <polygon class="fil0" points="3.61807,-17.4439 3.61807,-16.5751 4.68025,-18.0711 "/>
</symbol>
<symbol id="Fm0-469-0" viewBox="2.55651 -18.7549 2.12311 1.10998">
 <polygon class="fil0" points="3.61807,-18.7549 2.55651,-18.2724 3.61807,-17.6449 4.67962,-18.2724 "/>
</symbol>
<symbol id="Fm1-471-0" viewBox="2.55652 -20.0337 1.06155 2.38886">
 <polygon class="fil0" points="2.55652,-18.2724 3.61808,-17.6449 3.61808,-18.7549 3.61808,-20.0337 "/>
</symbol>
<symbol id="Fm2-473-0" viewBox="3.61807 -20.0337 1.06155 2.38886">
 <polygon class="fil0" points="3.61807,-20.0337 3.61807,-18.7549 3.61807,-17.6449 4.67962,-18.2724 "/>
</symbol>
<symbol id="Fm3-475-0" viewBox="2.55652 -18.0711 1.06155 1.49591">
 <polygon class="fil0" points="2.55652,-18.0711 3.61808,-16.5752 3.61808,-17.4439 "/>
</symbol>
 <g id="__x0023_Layer_x0020_1">
  <metadata id="CorelCorpID_0Corel-Layer"/>
  <g id="_394606528">
   <circle id="_392887576" class="fil1" cx="0.688997" cy="0.688997" r="0.689001"/>
   <g>
    <path id="_393357280" class="fil2" d="M0.701708 0.682698c0.00937477,-0.00714501 0.0192053,-0.0138424 0.0290276,-0.0205399 0.0107257,-0.00804017 0.0214432,-0.0156409 0.0326083,-0.0236729 -0.00044758,-0.00983049 -0.000895161,-0.0201004 -0.00134274,-0.0303704 -0.0102699,0.00401195 -0.0209874,0.00803203 -0.0312655,0.0120521 -0.0111651,0.00446767 -0.0218826,0.00848775 -0.0326001,0.0129554 0.000895161,0.0178625 0.00222976,0.034838 0.0035725,0.0495756z"/>
    <path id="_393358528" class="fil2" d="M0.861161 0.623292c0.0107175,0.000455718 0.0201004,0.00446767 0.0308179,0.00446767 0.0129554,0.00267734 0.0196528,-0.0013346 0.0201004,-0.0116127 0.00134274,-0.00178218 0.00222976,-0.0035725 0.00312492,-0.00535469 0.00267734,-0.00402008 0.00491525,-0.00848775 0.00759259,-0.0129554 0.00625799,-0.0187577 0.00134274,-0.0241205 -0.00491525,-0.0272454 -0.000887023,-0.000895161 -0.00178218,-0.00178218 -0.00267734,-0.00222976 -0.0263503,-0.0250157 -0.049128,-0.0393057 -0.0638656,-0.0317131 -0.0107257,-0.00848775 -0.0214432,-0.0178707 -0.0326083,-0.0218826 -0.00714501,-0.0022379 -0.0147457,-0.00313306 -0.0227778,0 -0.00491525,0.00178218 -0.00983049,0.00490711 -0.0147376,0.00937477 -0.0022379,-0.00669743 -0.00134274,-0.0165279 -0.00893533,-0.0169755 -0.00402008,-0.00044758 -0.0102781,0.00179032 -0.020548,0.00893533 -0.00759259,0.00179032 -0.0151852,0.00491525 -0.0209956,0.0120603 -0.0035725,0.00446767 -0.00624985,0.0102699 -0.00847961,0.0183101 -0.00044758,0.00581041 -0.000895161,0.0120603 -0.00134274,0.0183101 -0.00624985,0.013403 -0.0125078,0.0272454 -0.0187577,0.0406484 0.00178218,0.00536283 -0.0022379,0.013403 0.0227778,0.00893533 0.00178218,-0.00179032 0.0035725,-0.00312492 0.00580227,-0.00491525 0.0129554,-0.0102699 0.026806,-0.0196528 0.0415436,-0.027693 0.00759259,-0.00402008 0.0156328,-0.00804017 0.0236729,-0.0111651 0.00446767,-0.00222976 0.00937477,-0.00402008 0.01429,-0.00581041 0.0035725,-0.00222976 0.00624985,-0.00356437 0.00848775,-0.00356437 0.00536283,-0.000895161 0.00624985,0.00490711 0.00178218,0.0169674 0.00134274,0.00446767 0.00312492,0.00848775 0.00446767,0.0125078 0.0366283,-0.00491525 0.0455555,-0.00044758 0.0259108,0.0125078 -0.0111651,0 -0.0223383,-0.00134274 -0.0321607,0.000895161 -0.0102699,0.00222976 -0.0187577,0.00803203 -0.0227778,0.021435 -0.000895161,0.00222976 -0.00134274,0.00490711 -0.00179032,0.00759259 -0.0129473,0.00669743 -0.021435,0.0151852 0.00179032,0.0321607 0.0013346,0.0013346 0.0035725,0.00312492 0.00580227,0.00446767 0.00581041,0.000439442 0.0116127,0.0013346 0.0169755,0.00178218 0.0361726,0.00312492 0.0535957,-0.00134274 0.0683333,-0.00714501 0.0196528,-0.0299228 0.00938291,-0.0303704 -0.00580227,-0.0263503 -0.00714501,0.00178218 -0.0142982,0.00312492 -0.0214432,0.00446767 -0.0187577,0.00535469 -0.0174149,-0.0209956 0.00134274,-0.0192134z"/>
    <path id="_393359632" class="fil2" d="M0.81873 0.721109c-0.00759259,0.013403 -0.0151852,0.0263503 -0.0227778,0.0393057 -0.00581041,0.00938291 -0.0111651,0.0192053 -0.0169755,0.0285882 0.00581041,0.00624985 0.0111651,0.0111651 0.0169755,0.01429 0.00759259,0.00402008 0.0151852,0.00581041 0.0227778,0.00536283 0.00267734,-0.00044758 0.00536283,-0.00044758 0.00804017,-0.00134274 0.0102699,-0.0294752 0.0209874,-0.059398 0.0312655,-0.0888813 -0.0116127,-0.00134274 -0.0236729,-0.00312492 -0.0352856,-0.00446767 -0.00134274,0.00268548 -0.00267734,0.00491525 -0.00402008,0.00714501z"/>
    <path id="_393357352" class="fil2" d="M0.604339 0.558084c0.00848775,0.00446767 0.0160803,0.00983049 0.0227778,0.0151852 0.0133949,0.0116127 0.021435,0.0254633 0.0169755,0.0455637 0.0013346,0.0393057 0.00267734,0.0786032 0.00445953,0.117909 0.0165279,0.0500232 0.0446685,0.0683414 0.0821839,0.062531 0.0120603,-0.00178218 0.0250157,-0.00624985 0.0388662,-0.0125078 0.000887023,-0.00178218 0.00178218,-0.0035725 0.00267734,-0.00535469 0.00804017,-0.0138424 0.0156328,-0.0281406 0.0236729,-0.041983 0.00535469,-0.0102781 0.0107175,-0.0201004 0.0165279,-0.0299309 -0.00581041,-0.00402008 -0.0111732,-0.00759259 -0.0165279,-0.0111651 -0.00446767,-0.00312492 -0.00848775,-0.00580227 -0.0129554,-0.00892719 -0.0035725,0.00624985 -0.00714501,0.0120521 -0.0107175,0.0178625 -0.00983049,0.0169674 -0.0201004,0.0339429 -0.0299309,0.0504708 -0.00402008,-0.00267734 -0.00759259,-0.00580227 -0.0116127,-0.00848775 -0.00127764,-0.000943988 -0.00255528,-0.00189611 -0.00383292,-0.00284824 0.00124509,-0.000146481 0.00251459,-0.00037434 0.00383292,-0.000724266 0.00313306,-0.000895161 0.00625799,-0.00222976 0.00983049,-0.00402008 0.0102699,-0.0192053 0.0209956,-0.0379629 0.0317131,-0.0567206 0.000895161,-0.00179032 0.00178218,-0.00313306 0.00222976,-0.00446767 -0.00044758,-0.00179032 -0.0013346,-0.00402008 -0.00222976,-0.00581041 -0.00267734,-0.00669743 -0.00536283,-0.0133949 -0.00804017,-0.0201004 -0.0111651,0.00804017 -0.0223302,0.0165279 -0.0335034,0.0245681 -0.0102699,0.00759259 -0.0205399,0.0151852 -0.0303704,0.0223302 0.000626612,0.0121254 0.00233556,0.0217524 0.00505359,0.0289869 -0.00719384,-0.00534655 -0.0143877,-0.0106931 -0.0215734,-0.0160315 0.000439442,-0.0290276 0.000887023,-0.0580634 0.0013346,-0.0870991 0,-0.0397451 -0.00669743,-0.0772686 -0.0571682,-0.101381 0,-0.00044758 -0.00044758,-0.00044758 -0.000895161,-0.00044758 -0.0442209,-0.0165279 -0.0879862,-0.0326083 -0.132207,-0.0486886 -0.0634262,-0.0232253 -0.126852,-0.0464507 -0.19027,-0.0701236 0,0.013403 0.00044758,0.0267979 0.00044758,0.0402008 0.0634262,0.0236729 0.126397,0.0468983 0.189823,0.0705712 0.0366283,0.0133949 0.0732486,0.0267979 0.109429,0.0406403z"/>
    <path id="_393359584" class="fil2" d="M1.0148 0.13779l-0.0995988 0 -0.0964739 0 -0.0227778 0 -0.0236729 0 -0.0415436 0 -0.103619 0 -0.132207 0 -0.104066 0 0 0.28541 0.104066 -0.00044758 0.132207 -0.000895161 0.103619 -0.00044758 0.0415436 -0.000439442 0.0236729 0 0.0227778 0 0.0964739 -0.000895161 0.0522611 0 0.00267734 0.68872c0.00581041,0.0366283 -0.0151852,0.0634262 -0.048241,0.0853088 -0.00222976,0.000895161 -0.00445953,0.00134274 -0.00669743,0.0022379 -0.0321607,0.00982235 -0.0643132,0.0192053 -0.0964739,0.0290358 -0.00759259,0.00222976 -0.0151852,0.00445953 -0.0227778,0.00669743 -0.00804017,0.00222976 -0.0156328,0.00490711 -0.0236729,0.00714501 -0.0116127,0.0035725 -0.0236729,0.00714501 -0.0352856,0.0102699 0.00535469,0.0125078 0.0107175,0.0245681 0.0160803,0.0370759 0.00624985,-0.00358064 0.0129473,-0.00625799 0.0192053,-0.00938291 0.00759259,-0.00312492 0.0156328,-0.00580227 0.0236729,-0.00848775 0.00714501,-0.00268548 0.0147376,-0.00491525 0.0227778,-0.00714501 0.0281406,-0.00759259 0.0580634,-0.0133949 0.0884337,-0.0178707 0.00267734,-0.000887023 0.00536283,-0.00177405 0.00804017,-0.00266921 0.0638738,-0.0201004 0.0946917,-0.0580634 0.100494,-0.110324l-0.000895161 -0.992896zm-0.46585 0.15588l0 0c0,0.020548 -0.0165279,0.0375235 -0.0370678,0.0375235l-0.0169755 0 -0.0129554 0 0 0.0500232c0,0.00312492 -0.00267734,0.00580227 -0.00580227,0.00580227l-0.034838 0c-0.00312492,0 -0.00581041,-0.00267734 -0.00581041,-0.00580227l0 -0.201883c0,-0.00312492 0.00268548,-0.00536283 0.00581041,-0.00536283l0.034838 0c0.000887023,0 0.00222976,0 0.00312492,0.000895161l0.0156328 0 0.0169755 0c0.0205399,0 0.0370678,0.0165198 0.0370678,0.0370678l0 0.0817363zm0.135332 0.0875467l0 0c0,0.00312492 -0.00267734,0.00580227 -0.00580227,0.00580227l-0.034838 0c-0.00313306,0 -0.00536283,-0.00267734 -0.00536283,-0.00580227l0 -0.0888813 -0.0111651 0 -0.0107175 0 0 0.0888813c0,0.00312492 -0.00267734,0.00580227 -0.00581041,0.00580227l-0.034838 0c-0.00312492,0 -0.00580227,-0.00267734 -0.00580227,-0.00580227l0 -0.201883c0,-0.00312492 0.00267734,-0.00536283 0.00580227,-0.00536283l0.034838 0c0.00313306,0 0.00581041,0.0022379 0.00581041,0.00536283l0 0.066543 0.0107175 0 0.0111651 0 0 -0.066543c0,-0.00312492 0.00222976,-0.00536283 0.00536283,-0.00536283l0.034838 0c0.00312492,0 0.00580227,0.0022379 0.00580227,0.00536283l0 0.201883zm0.111667 -0.0795065l0 0 0.0227778 0.0500232 0.0129473 0.0281406c0.00134274,0.00312492 0,0.00581041 -0.00312492,0.00581041l-0.00982235 0 -0.0227778 0 -0.0022379 0c-0.00312492,0 -0.00669743,-0.00268548 -0.00847961,-0.00581041l-0.0129554 -0.0281406 -0.013403 -0.0299228 0 0.0594061c0,0.00312492 -0.00267734,0.00580227 -0.00580227,0.00580227l-0.0223383 0 -0.0124997 0c-0.00313306,0 -0.00581041,-0.00267734 -0.00581041,-0.00580227l0 -0.201883c0,-0.00312492 0.00267734,-0.00536283 0.00581041,-0.00536283l0.0124997 0 0.0223383 0c0.00312492,0 0.00580227,0.0022379 0.00580227,0.00536283l0 0.058511 0.013403 -0.0299309 0.0129554 -0.02858c0.00178218,-0.00312492 0.00535469,-0.00536283 0.00847961,-0.00536283l0.0022379 0 0.0227778 0 0.00982235 0c0.00312492,0 0.00446767,0.0022379 0.00312492,0.00536283l-0.0129473 0.02858 -0.0227778 0.0500232 -0.0102781 0.0218907 0.0102781 0.0218826zm0.173295 0.0468983l0 0c0,0.020548 -0.0165279,0.0375154 -0.0370678,0.0375154l-0.0169755 0 -0.0156328 0c-0.000895161,0.00044758 -0.0022379,0.000895161 -0.00312492,0.000895161l-0.034838 0c-0.00312492,0 -0.00581041,-0.00267734 -0.00581041,-0.00580227l0 -0.201883c0,-0.00312492 0.00268548,-0.00536283 0.00581041,-0.00536283l0.00714501 0 0.027693 0 0.0187577 0 0.0388581 0c0.00312492,0 0.00536283,0.0022379 0.00536283,0.00536283l0 0.034838c0,0.00312492 -0.0022379,0.00580227 -0.00536283,0.00580227l-0.0388581 0 -0.0129554 0 0 0.0254633 0.0129554 0 0.0169755 0c0.0205399,0 0.0370678,0.0165198 0.0370678,0.0370678l0 0.0661035z"/>
    <path id="_393359176" class="fil2" d="M0.919224 0.28965l-0.00402008 0 -0.00402008 0c-0.00446767,0 -0.00804017,0.00402008 -0.00804017,0.00848775l0 0.0384105c0,0.00446767 0.0035725,0.00804017 0.00804017,0.00804017l0.00402008 0 0.00402008 0c0.00446767,0 0.00848775,-0.0035725 0.00848775,-0.00804017l0 -0.0384105c0,-0.00446767 -0.00402008,-0.00848775 -0.00848775,-0.00848775z"/>
    <path id="_393358984" class="fil2" d="M0.660165 1.23565c-0.011157,-0.00179032 -0.0223302,-0.0035725 -0.0330477,-0.00581041 -0.0531481,-0.0102699 -0.0991594,-0.0227778 -0.132207,-0.0406403 -0.0267979,-0.0142982 -0.0446604,-0.0317131 -0.0509184,-0.0540514 -0.00222976,-0.0321525 0.00178218,-0.0580552 -0.000895161,-0.0897683 0.00044758,-0.0160803 0.000895161,-0.0317131 0.00134274,-0.0473459 0.0169674,-0.0129554 0.0334953,-0.0259027 0.0504708,-0.0384105 0.0366283,-0.0285882 0.0736961,-0.0567206 0.110324,-0.0848612 0.00714501,0.00222976 0.0147376,0.00490711 0.0218826,0.00759259 0.0343904,0.0116127 0.0692285,0.0236729 0.103619,0.035725 0.0120603,0.00402008 0.0245681,0.00849589 0.0370759,0.0125078 0.00134274,0.00044758 0.00312492,0.00044758 0.00446767,0.000895161 0.00804017,0.00134274 0.0156328,0.00267734 0.0236729,0.0035725 0.00759259,0.00134274 0.0151852,0.00267734 0.0227778,0.00402008 0.0107175,0.00134274 0.021435,0.00312492 0.0321607,0.00491525 0.00490711,0.0388581 0.00982235,0.0772686 0.0147376,0.115679 0.000895161,0.0124997 0.00446767,0.0241205 0.0178625,0.0209956 0.0227778,0.00759259 0.027693,0.0401927 -0.00044758,0.0406403 -0.00759259,0.00669743 -0.0201004,-0.00490711 -0.0343904,-0.0205399 -0.00982235,-0.0263503 -0.0201004,-0.0527087 -0.0299228,-0.0795065 -0.00759259,-0.0187577 -0.0147457,-0.0379629 -0.0218826,-0.0571763 -0.000455718,0 -0.000895161,0 -0.000895161,0 -0.00804017,0 -0.0156328,0.00044758 -0.0236729,0.00044758 -0.0138506,0 -0.027693,0 -0.0415436,0 -0.02858,0.00044758 -0.0567206,0.00044758 -0.0848612,0.00044758 -0.00624985,0.00938291 -0.0124997,0.0183182 -0.0187577,0.027693 -0.0192053,0.0281406 -0.0384105,0.0562812 -0.0576158,0.0848694 0.0192053,0 0.0384105,0 0.0576158,0.00044758 0.0218907,0 0.0433258,0 0.0647608,0.000439442 0.0178707,0.00268548 0.0174231,0.0437734 0,0.0428782 -0.021435,0 -0.0433258,0 -0.0647608,-0.00044758 -0.0442209,0 -0.0879862,-0.000439442 -0.132207,-0.000887023 -0.00804017,0 -0.0165279,0 -0.0245681,0 0.00715315,0.0133949 0.0147457,0.0267979 0.0223302,0.0401927 0.000455718,0 0.00134274,0 0.0022379,0 0.0442209,0 0.0879862,-0.000439442 0.132207,-0.000439442 0.0343904,0 0.0692285,-0.00044758 0.103619,-0.00044758 0.00670557,0 0.0129554,0 0.0196528,0 -0.00580227,-0.0397533 -0.0120603,-0.0795065 -0.0178625,-0.118812 -0.00044758,0 -0.00134274,0 -0.00179032,0 -0.0290276,-0.000895161 -0.0585028,-0.00179032 -0.0875386,-0.00267734 0.00848775,-0.013403 0.0165279,-0.026806 0.0250157,-0.0402008 0.0205399,0.00044758 0.0415355,0.000895161 0.0625229,0.00134274 0.0116127,0 0.0227859,0 0.0343986,0.000439442 0.00267734,0.00581041 0.00490711,0.0116127 0.00714501,0.0178707 0.00804017,0.0192053 0.0156328,0.0384105 0.0236729,0.0576158 0.00759259,0.0192134 0.0151852,0.0379629 0.0227778,0.0567206 0.00312492,0.00760073 0.00624985,0.0156328 0.00892719,0.0232253 0.0294833,0 0.0585191,0.00044758 0.0875467,0.00044758 0.00804017,0 0.0156328,0 0.0236729,0 -0.00312492,-0.0375154 -0.00624985,-0.0754783 -0.00938291,-0.113441 -0.00445953,-0.000895161 -0.00937477,-0.00179032 -0.01429,-0.00268548 -0.00446767,-0.000887023 -0.00938291,-0.00178218 -0.0138424,-0.00267734 -0.00402822,-0.0397533 -0.00804017,-0.0794984 -0.0120603,-0.119699 0.00714501,-0.00848775 0.0138424,-0.0174231 0.0209874,-0.0263503 -0.00580227,-0.0567288 -0.0111651,-0.113897 -0.0165198,-0.170618 -0.00983049,0 -0.0192134,0 -0.0285882,0 -0.00938291,0.0312655 -0.0187577,0.062531 -0.0281406,0.0937966 0.0232253,-0.00134274 0.0339429,0.00804017 0.0321607,0.02858 0.00044758,0.0107257 0.00044758,0.0214432 0.000895161,0.0321607 -0.0116127,0.021435 -0.0294833,0.0294752 -0.0513659,0.0290276 -0.00714501,0 -0.0151852,-0.0013346 -0.0227778,-0.00312492 -0.00760073,-0.0013346 -0.0151933,-0.00402008 -0.0232253,-0.00669743 0,0 0,0 -0.00044758,0 -0.0138506,-0.00535469 -0.027693,-0.0107175 -0.0415436,-0.0160803 -0.0343904,-0.0129473 -0.0692285,-0.0259027 -0.103619,-0.0388581 -0.00402008,-0.00178218 -0.00848775,-0.0035725 -0.0129554,-0.00491525 0,-0.0460031 -0.000439442,-0.0915587 -0.000895161,-0.137562 -0.000439442,-0.0178707 -0.000887023,-0.0357332 -0.0013346,-0.0535957 0.00669743,-0.0406484 -0.0160803,-0.0540433 -0.0468983,-0.0603013 -0.0232253,-0.00893533 -0.0468983,-0.0178625 -0.0701236,-0.0263503 -0.062531,-0.0236729 -0.124614,-0.0468983 -0.187146,-0.0705712 0,0.0133949 0,0.0267979 -0.00044758,0.0402008 0.062531,0.0227778 0.125062,0.045108 0.187593,0.0678857 0.0183101,0.00670557 0.0366283,0.013403 0.055386,0.0201004 0.0165279,0.0035725 0.0223302,0.0169674 0.0236729,0.0281406 0.0013346,0.0107175 -0.00179032,0.0196528 -0.020548,0.0116127 -0.0201004,-0.00714501 -0.0397533,-0.0142982 -0.058511,-0.0209956 -0.0620835,-0.0223302 -0.118812,-0.0424306 -0.185803,-0.0665511 -0.00044758,0.0125078 -0.000895161,0.0250157 -0.00134274,0.0370759 0.062531,0.0241205 0.125062,0.0477853 0.187146,0.0714582 0.020548,0.00804017 0.041096,0.0156328 0.0616359,0.0236729 0.027693,0.0107175 0.0192053,0.049128 -0.00312492,0.0379629 -0.0196528,-0.00669743 -0.0388581,-0.0138424 -0.058511,-0.0209874 -0.062531,-0.0223302 -0.124614,-0.045108 -0.187146,-0.0678939 0.00044758,0.0120603 0.000895161,0.0241205 0.00178218,0.0366283 0.061644,0.0236729 0.123727,0.0477934 0.185363,0.0714664 0.0214432,0.00847961 0.0433258,0.0169674 0.0647608,0.0250075 0.0281406,0.0107175 0.0192053,0.041096 -0.00402008,0.0317131 -0.0201004,-0.00714501 -0.0406403,-0.01429 -0.0607407,-0.021435 -0.0620835,-0.0218907 -0.124614,-0.0437734 -0.186698,-0.065656 0,0.0124997 0.00044758,0.02456 0.00044758,0.0370678 0.0620835,0.0232253 0.124167,0.0460031 0.18625,0.0692285 0.0214432,0.00804017 0.0428782,0.0156328 0.0643132,0.0236729 -0.021435,0.0174149 -0.0428701,0.0343904 -0.0643132,0.0518135 -0.0312655,0.0250075 -0.0629786,0.0504708 -0.0942441,0.0754783 0.00044758,0.0464507 -0.00178218,0.092462 -0.0013346,0.138465 0.00222976,0.0424306 0.0232253,0.0826233 0.0955787,0.114336 0.0214432,0.00938291 0.0477934,0.0183101 0.079059,0.0259027 0.0178625,0.00358064 0.0361726,0.00581041 0.0531481,0.00983049 0.0326083,0.00804017 0.0607489,0.0227778 0.072801,0.0647608 0.0102781,0.00044758 0.020548,0.00134274 0.0308179,0.00179032 0.00358064,0 0.00715315,0.00044758 0.0107257,0.00044758 0.00044758,-0.0196528 -0.0035725,-0.0357332 -0.0107257,-0.0486886 -0.0151852,-0.0281406 -0.0437652,-0.0433176 -0.0705712,-0.0531481z"/>
    <path id="_393358312" class="fil2" d="M0.49893 0.215953l-0.00402008 0 -0.00402008 0c-0.00446767,0 -0.00804017,0.0035725 -0.00804017,0.00804017l0 0.0544909c0,0.00446767 0.0035725,0.00804017 0.00804017,0.00804017l0.00402008 0 0.00402008 0c0.00446767,0 0.00848775,-0.0035725 0.00848775,-0.00804017l0 -0.0544909c0,-0.00446767 -0.00402008,-0.00804017 -0.00848775,-0.00804017z"/>
   </g>
  </g>
 </g>
</svg>
