<?xml version="1.0" encoding="UTF-8"?>
<!DOCTYPE svg PUBLIC "-//W3C//DTD SVG 1.1//EN" "http://www.w3.org/Graphics/SVG/1.1/DTD/svg11.dtd">
<!-- Creator: CorelDRAW -->
<svg xmlns="http://www.w3.org/2000/svg" xml:space="preserve" width="16.9332mm" height="16.9332mm" style="shape-rendering:geometricPrecision; text-rendering:geometricPrecision; image-rendering:optimizeQuality; fill-rule:evenodd; clip-rule:evenodd"
viewBox="0 0 1.52907 1.52907"
 xmlns:xlink="http://www.w3.org/1999/xlink">
 <defs>
  <style type="text/css">
   <![CDATA[
    .fil2 {fill:#FEFEFE}
    .fil1 {fill:#F00F0F}
    .fil0 {fill:#010101;fill-rule:nonzero}
   ]]>
  </style>
 </defs>
<symbol id="Fm4-477-0" viewBox="21.8762 -6.8915 1.17864 1.65992">
 <polygon class="fil0" points="21.8762,-6.19557 21.8762,-5.23158 23.0548,-6.8915 "/>
</symbol>
<symbol id="Fm0-469-0" viewBox="20.6983 -7.65028 2.35588 1.23168">
 <polygon class="fil0" points="21.8762,-7.65028 20.6983,-7.11487 21.8762,-6.4186 23.0541,-7.11487 "/>
</symbol>
<symbol id="Fm1-471-0" viewBox="20.6983 -9.06937 1.17794 2.65077">
 <polygon class="fil0" points="20.6983,-7.11488 21.8762,-6.41861 21.8762,-7.65028 21.8762,-9.06937 "/>
</symbol>
<symbol id="Fm2-473-0" viewBox="21.8762 -9.06937 1.17794 2.65077">
 <polygon class="fil0" points="21.8762,-9.06937 21.8762,-7.65028 21.8762,-6.41861 23.0541,-7.11488 "/>
</symbol>
<symbol id="Fm3-475-0" viewBox="20.6983 -6.89151 1.17794 1.65992">
 <polygon class="fil0" points="20.6983,-6.89151 21.8762,-5.23159 21.8762,-6.19559 "/>
</symbol>
 <g id="__x0023_Layer_x0020_1">
  <metadata id="CorelCorpID_0Corel-Layer"/>
  <g id="_392623864">
   <path id="_393463584" class="fil1" d="M0.764537 -9.03004e-006c0.422236,0 0.764537,0.342302 0.764537,0.764546 0,0.422236 -0.342302,0.764537 -0.764537,0.764537 -0.422245,0 -0.764546,-0.342302 -0.764546,-0.764537 0,-0.422245 0.342302,-0.764546 0.764546,-0.764546z"/>
   <path id="_392889032" class="fil2" d="M0.205469 0.51315c0.21384,0.000270901 0.277565,-0.0229002 0.352533,0.0262503 0.0988338,0.0647996 0.0806834,0.206517 0.0197668,0.252651 -0.133726,0.101272 -0.402369,0.0545595 -0.468948,0.0223223 0.16981,0.0223945 0.322725,0.0367613 0.405927,-0.0392265 0.0556882,-0.0508662 0.0304854,-0.174235 -0.00409964,-0.203889 -0.0289052,-0.0247694 -0.035786,-0.0347566 -0.103367,-0.0358763 -0.053223,0.00351268 -0.0528167,0.0179156 -0.0525819,0.0407887l-0.00115584 0.23405 -0.0723758 0 0 -0.229724c0.00127324,-0.0260607 0.00262774,-0.0427843 -0.0756988,-0.0432539 0,-0.0100956 0,-0.0139966 0,-0.0240921zm0.147984 0.365753l-0.000912034 0.121174c0.000731433,0.0498097 0.0310814,0.0740915 0.0895419,0.0753918l-0.000875914 0.021934c-0.077857,0 -0.155714,0 -0.23358,0l-0.000650163 -0.0240651c0.0586501,-0.00374747 0.0740734,-0.0306841 0.0741908,-0.0711025l0 -0.126746c0.0244714,0.00417188 0.0489518,0.00295282 0.0722855,0.00341335z"/>
   <path id="_390100256" class="fil2" d="M0.72448 1.00694c0.0022846,0.0544782 0.0155317,0.0733239 0.0747777,0.0746152l-0.000875914 0.021934c-0.077857,0 -0.112189,0 -0.190046,0l-0.000659193 -0.0240651c0.0586501,-0.00374747 0.0725202,-0.0299075 0.0741908,-0.0710935l0.0227286 -0.427834c0.00127324,-0.0260607 0.00262774,-0.0427843 -0.0756988,-0.0432539 0,-0.0100956 0,-0.0139966 0,-0.0240921l0.149402 0.000595983c0.000153511,0.0302597 0.00670932,0.0482204 0.0186019,0.0740283l0.186199 0.391588 0.0028264 0.0059508 0.00306118 -0.00614946 0.195383 -0.393908c0.0118926,-0.0258078 0.0184484,-0.0437686 0.0186019,-0.0740283l0.149393 -0.000595983c0,0.0100956 0,0.0139966 0,0.0240921 -0.0783175,0.000469562 -0.076963,0.0171932 -0.0756898,0.0432539l0.00177892 0.427265c0.00167056,0.041195 0.0155407,0.067346 0.0741908,0.0710935l-0.000659193 0.0240651c-0.077857,0 -0.139758,0 -0.217615,0l-0.000875914 -0.021934c0.0592461,-0.0012913 0.0724931,-0.020137 0.0747777,-0.0746152l-0.00697119 -0.374313 -0.230681 0.475242 -0.00925579 -9.03004e-006 -0.00537287 9.03004e-006 -0.216188 -0.472154 -0.015324 0.374313z"/>
  </g>
 </g>
</svg>
