<?xml version="1.0" encoding="UTF-8"?>
<!DOCTYPE svg PUBLIC "-//W3C//DTD SVG 1.1//EN" "http://www.w3.org/Graphics/SVG/1.1/DTD/svg11.dtd">
<!-- Creator: CorelDRAW -->
<svg xmlns="http://www.w3.org/2000/svg" xml:space="preserve" width="16.9332mm" height="16.9332mm" style="shape-rendering:geometricPrecision; text-rendering:geometricPrecision; image-rendering:optimizeQuality; fill-rule:evenodd; clip-rule:evenodd"
viewBox="0 0 7.90234 7.90234"
 xmlns:xlink="http://www.w3.org/1999/xlink">
 <defs>
  <style type="text/css">
   <![CDATA[
    .fil2 {fill:#5B5B5B}
    .fil1 {fill:#0098DE}
    .fil3 {fill:#FEFEFE;fill-rule:nonzero}
    .fil0 {fill:#010101;fill-rule:nonzero}
   ]]>
  </style>
 </defs>
<symbol id="Fm4-477-0" viewBox="77.7682 -43.6866 6.09126 8.57856">
 <polygon class="fil0" points="77.7682,-40.09 77.7682,-35.108 83.8594,-43.6866 "/>
</symbol>
<symbol id="Fm0-469-0" viewBox="71.6805 -47.6079 12.1753 6.36539">
 <polygon class="fil0" points="77.7682,-47.6079 71.6805,-44.8409 77.7682,-41.2426 83.8558,-44.8409 "/>
</symbol>
<symbol id="Fm1-471-0" viewBox="71.6806 -54.9419 6.08767 13.6993">
 <polygon class="fil0" points="71.6806,-44.841 77.7682,-41.2426 77.7682,-47.608 77.7682,-54.9419 "/>
</symbol>
<symbol id="Fm2-473-0" viewBox="77.7682 -54.9419 6.08767 13.6993">
 <polygon class="fil0" points="77.7682,-54.9419 77.7682,-47.608 77.7682,-41.2426 83.8558,-44.841 "/>
</symbol>
<symbol id="Fm3-475-0" viewBox="71.6806 -43.6866 6.08767 8.57856">
 <polygon class="fil0" points="71.6806,-43.6866 77.7682,-35.108 77.7682,-40.0901 "/>
</symbol>
 <g id="__x0023_Layer_x0020_1">
  <metadata id="CorelCorpID_0Corel-Layer"/>
  <g id="_388820520">
   <path id="_78933848" class="fil1" d="M3.95117 0c2.18218,0 3.95117,1.76899 3.95117,3.95117 0,2.18218 -1.76899,3.95117 -3.95117,3.95117 -2.18218,0 -3.95117,-1.76899 -3.95117,-3.95117 0,-2.18218 1.76899,-3.95117 3.95117,-3.95117z"/>
   <g>
    <g>
     <path id="_78934184" class="fil2" d="M5.4353 4.90231c0.331061,0 0.598,0.265026 0.598,0.596227 0,0.333301 -0.263813,0.601127 -0.598,0.601127 -0.331621,0 -0.59842,-0.270066 -0.59842,-0.601127 0,-0.329008 0.269926,-0.596227 0.59842,-0.596227zm0 1.10127c0.279306,0 0.504572,-0.225778 0.504572,-0.505038 0,-0.27786 -0.227319,-0.501818 -0.504572,-0.501818 -0.277253,0 -0.503311,0.224238 -0.503311,0.501818 0,0.278933 0.224005,0.505038 0.503311,0.505038z"/>
     <path id="_78934352" class="fil2" d="M5.52261 5.53269c0.044241,0.0218872 0.0700016,0.0588013 0.087082,0.111396 0.0194604,0.060108 0.0391076,0.122036 0.0495145,0.184478l0.00228672 0.0138136 -0.0140003 0c-0.0281873,0 -0.056328,0 -0.0845153,0l-0.0108736 0 -0.000933355 -0.0108269c-0.00462011,-0.0534812 -0.0187138,-0.107429 -0.0322007,-0.159277 -0.0108736,-0.041861 -0.0619747,-0.0921688 -0.102669,-0.107196 -0.0371942,-0.0136736 -0.0601547,-0.015307 -0.100149,-0.015307l-0.0166137 0 0 0.292607 -0.0908621 0 0 -0.682796 0.236932 0c0.0347208,0 0.0770018,0.00326674 0.108502,0.0190871 0.0287473,0.014467 0.0483944,0.0394809 0.0618814,0.0681349 0.0154937,0.0329008 0.0221672,0.0682282 0.0221672,0.104489 0,0.0451277 -0.0104069,0.0882953 -0.0372409,0.125116 -0.0200671,0.0276273 -0.0474611,0.0454544 -0.0783085,0.0562813zm-0.223072 -0.0821352l0.132583 0c0.0212338,0 0.0474144,-0.00200671 0.0668282,-0.0112936 0.015447,-0.0073735 0.0264139,-0.0189004 0.0339741,-0.0341608 0.00840019,-0.0169404 0.0122736,-0.0349075 0.0122736,-0.0538079 0,-0.0255272 -0.00625348,-0.0495145 -0.0232405,-0.0691149 -0.0181537,-0.0209071 -0.0472744,-0.0259939 -0.0736417,-0.0259939l-0.148777 0 0 0.194371z"/>
    </g>
    <path id="_78934160" class="fil3" d="M2.77122 6.15566l0 -4.40903 1.14023 0c0.594874,0 1.3508,0.0681816 1.61755,0.536726 0.136083,0.238985 0.204078,0.547739 0.204078,0.925094 0,0.292093 -0.0395276,0.537706 -0.118023,0.735857 -0.27968,0.705989 -0.818879,0.765537 -1.67,0.762411l-0.30992 -0.00112003 0.013627 1.45006 -0.87754 0zm0.863913 -3.69436l0 1.48973c0.560479,0.0375209 1.21943,0.0676215 1.21943,-0.729323 0,-0.841606 -0.645368,-0.73217 -1.21943,-0.760404z"/>
   </g>
  </g>
 </g>
</svg>
