<?xml version="1.0" encoding="UTF-8"?>
<!DOCTYPE svg PUBLIC "-//W3C//DTD SVG 1.1//EN" "http://www.w3.org/Graphics/SVG/1.1/DTD/svg11.dtd">
<!-- Creator: CorelDRAW -->
<svg xmlns="http://www.w3.org/2000/svg" xml:space="preserve" width="16.9334mm" height="16.9334mm" style="shape-rendering:geometricPrecision; text-rendering:geometricPrecision; image-rendering:optimizeQuality; fill-rule:evenodd; clip-rule:evenodd"
viewBox="0 0 1.39218 1.39218"
 xmlns:xlink="http://www.w3.org/1999/xlink">
 <defs>
  <style type="text/css">
   <![CDATA[
    .fil1 {fill:#F23A35}
    .fil2 {fill:#FEFEFE;fill-rule:nonzero}
    .fil0 {fill:#010101;fill-rule:nonzero}
   ]]>
  </style>
 </defs>
<symbol id="Fm4-477-0" viewBox="3.74225 -2.33032 1.07311 1.5113">
 <polygon class="fil0" points="3.74225,-1.69671 3.74225,-0.819028 4.81536,-2.33032 "/>
</symbol>
<symbol id="Fm0-469-0" viewBox="2.66978 -3.02116 2.14494 1.1214">
 <polygon class="fil0" points="3.74225,-3.02116 2.66978,-2.53369 3.74225,-1.89976 4.81473,-2.53369 "/>
</symbol>
<symbol id="Fm1-471-0" viewBox="2.66979 -4.3132 1.07247 2.41343">
 <polygon class="fil0" points="2.66979,-2.5337 3.74226,-1.89977 3.74226,-3.02117 3.74226,-4.3132 "/>
</symbol>
<symbol id="Fm2-473-0" viewBox="3.74225 -4.3132 1.07247 2.41343">
 <polygon class="fil0" points="3.74225,-4.3132 3.74225,-3.02117 3.74225,-1.89977 4.81473,-2.5337 "/>
</symbol>
<symbol id="Fm3-475-0" viewBox="2.66979 -2.33033 1.07247 1.5113">
 <polygon class="fil0" points="2.66979,-2.33033 3.74226,-0.819036 3.74226,-1.69672 "/>
</symbol>
 <g id="__x0023_Layer_x0020_1">
  <metadata id="CorelCorpID_0Corel-Layer"/>
  <g id="_393187480">
   <circle id="_78946304" class="fil1" cx="0.696091" cy="0.696091" r="0.696087"/>
   <path id="_394193728" class="fil2" d="M0.696091 0.209279c0.0662819,0 0.0871234,0.047471 0.104528,0.0949832 0.00738292,0.0201263 0.179583,0.491639 0.184738,0.505771 0.00142232,0.00392989 0.000501513,0.010466 -0.00562352,0.0127598 -0.00610037,0.00232669 -0.0955669,0.0371119 -0.100483,0.0389864 -0.0049658,0.0018334 -0.0105318,-0.000912588 -0.0123569,-0.00580439 -0.00184984,-0.00488358 -0.0389042,-0.107685 -0.0431219,-0.11922 -0.0123076,0 -0.24279,0 -0.255097,0 -0.00420942,0.0115348 -0.0416584,0.114509 -0.0433767,0.11922 -0.00174296,0.00470271 -0.00711161,0.00785155 -0.0123323,0.00580439 -0.00522066,-0.00208827 -0.0951147,-0.0369393 -0.100524,-0.0389864 -0.00509734,-0.0019485 -0.0073747,-0.007794 -0.00559063,-0.0127598 0.00631413,-0.0176763 0.175899,-0.481592 0.184557,-0.505771 0.0167966,-0.0467804 0.0383863,-0.0949832 0.104685,-0.0949832zm-0.302864 0.843676l0 0c-0.00528644,0 -0.00957807,0.00442318 -0.00957807,0.00989049l0 0.11016c0,0.0055002 0.00429163,0.00989871 0.00957807,0.00989871l0.605729 0c0.0053111,0 0.00958629,-0.00439851 0.00958629,-0.00989871l0 -0.11016c0,-0.00546731 -0.00427519,-0.00989049 -0.00958629,-0.00989049l-0.605729 0zm0.30233 -0.689695l0 0 -0.0862766 0.259011 0.17391 0 -0.0865397 -0.259011 -0.00109346 0z"/>
  </g>
 </g>
</svg>
