<?xml version="1.0" encoding="UTF-8"?>
<!DOCTYPE svg PUBLIC "-//W3C//DTD SVG 1.1//EN" "http://www.w3.org/Graphics/SVG/1.1/DTD/svg11.dtd">
<!-- Creator: CorelDRAW X7 -->
<svg xmlns="http://www.w3.org/2000/svg" xml:space="preserve" width="16.9332mm" height="16.9332mm" version="1.1" style="shape-rendering:geometricPrecision; text-rendering:geometricPrecision; image-rendering:optimizeQuality; fill-rule:evenodd; clip-rule:evenodd"
viewBox="0 0 234 234"
 xmlns:xlink="http://www.w3.org/1999/xlink">
 <defs>
  <style type="text/css">
   <![CDATA[
    .fil1 {fill:#4C4C4C}
    .fil0 {fill:#FF6600}
   ]]>
  </style>
 </defs>
 <g id="Layer_x0020_1">
  <metadata id="CorelCorpID_0Corel-Layer"/>
  <g id="_787038000">
   <path class="fil0" d="M117 0c-65,0 -117,52 -117,117 0,13 2,26 6,37l35 0 0 -98 76 76 76 -76 0 98 35 0c4,-11 6,-24 6,-37 0,-65 -52,-117 -117,-117z"/>
   <path class="fil1" d="M100 149l-34 -33 0 62 -49 0c21,34 58,56 100,56 43,0 80,-22 100,-56l-49 0 0 -62 -33 33 -18 18 -17 -18 0 0 0 0z"/>
  </g>
 </g>
</svg>
