<?xml version="1.0" encoding="UTF-8"?>
<!DOCTYPE svg PUBLIC "-//W3C//DTD SVG 1.1//EN" "http://www.w3.org/Graphics/SVG/1.1/DTD/svg11.dtd">
<!-- Creator: CorelDRAW X7 -->
<svg xmlns="http://www.w3.org/2000/svg" xml:space="preserve" width="16.9332mm" height="16.9332mm" version="1.1" style="shape-rendering:geometricPrecision; text-rendering:geometricPrecision; image-rendering:optimizeQuality; fill-rule:evenodd; clip-rule:evenodd"
viewBox="0 0 200 200"
 xmlns:xlink="http://www.w3.org/1999/xlink">
 <defs>
  <style type="text/css">
   <![CDATA[
    .fil0 {fill:#FEFEFE}
    .fil1 {fill:black}
    .fil4 {fill:#00C4B3}
    .fil3 {fill:#67B2E8}
    .fil2 {fill:#F7A800}
   ]]>
  </style>
 </defs>
 <g id="Layer_x0020_1">
  <metadata id="CorelCorpID_0Corel-Layer"/>
  <g id="_784677536">
   <circle id="_466879672" class="fil0" cx="100" cy="100" r="100"/>
   <g>
    <g>
     <path class="fil1" d="M100 175l-1 -1c-31,-18 -54,-47 -63,-82 -2,-6 -3,-12 -3,-17 -1,-6 -2,-12 -2,-18 0,-1 0,-1 1,-1 16,-9 33,-15 51,-17 6,-1 11,-1 17,-1 1,0 2,0 3,0 4,0 8,0 11,1 19,2 37,7 53,17 0,0 1,0 1,0 0,0 0,0 0,1l0 1c0,3 0,6 0,10 -1,5 -1,9 -2,14 -2,10 -5,20 -10,30 -6,15 -15,28 -27,40 -8,9 -18,16 -28,22 0,0 -1,0 -1,1l0 0 0 0z"/>
     <path class="fil2" d="M38 60c8,-4 17,-8 26,-11 12,-4 25,-5 38,-5 6,0 16,1 18,2 0,0 0,0 0,0 -1,0 -1,0 -2,1 -11,4 -18,14 -21,25 0,2 0,4 0,6 0,3 0,5 -1,8 -3,10 -11,18 -22,21 -13,3 -27,-4 -33,-16 0,-1 0,-2 0,-3 -1,-4 -2,-8 -3,-12 0,-5 0,-10 0,-15 0,0 0,0 0,0 0,0 0,-1 0,-1l0 0 0 0z"/>
     <g>
      <path class="fil3" d="M134 139c0,-1 0,-3 0,-4 1,-6 -1,-12 -4,-18 -3,-5 -7,-10 -12,-13 -1,0 -1,-1 -2,-1 -7,-5 -11,-11 -13,-19 -3,-16 7,-30 22,-34 5,-1 10,-1 15,1 5,1 9,3 13,5 3,1 5,2 8,4 0,0 1,0 1,0 0,1 0,1 0,1 0,4 0,7 0,11 -1,5 -2,10 -3,15 -3,15 -9,28 -17,41 -2,3 -5,7 -7,10 -1,0 -1,1 -1,1l0 0zm0 0l0 0 0 0z"/>
     </g>
     <path class="fil4" d="M100 168c-1,0 -4,-2 -7,-4 -8,-5 -14,-11 -20,-17 -6,-6 -11,-13 -16,-20 -4,-7 -8,-14 -11,-21 0,0 0,-1 0,-1 0,0 0,0 1,1 2,1 4,3 7,4 3,1 7,2 10,3 8,0 15,-1 21,-5 4,-2 7,-3 11,-3 14,-2 27,6 32,20 2,7 1,14 -2,21 -1,1 -1,2 -2,3 0,0 0,1 -1,1 -6,7 -14,13 -22,18 -1,0 -1,0 -1,0l0 0 0 0z"/>
    </g>
   </g>
  </g>
 </g>
</svg>
