<?xml version="1.0" encoding="UTF-8"?>
<!DOCTYPE svg PUBLIC "-//W3C//DTD SVG 1.1//EN" "http://www.w3.org/Graphics/SVG/1.1/DTD/svg11.dtd">
<!-- Creator: CorelDRAW -->
<svg xmlns="http://www.w3.org/2000/svg" xml:space="preserve" width="16.9332mm" height="16.9332mm" style="shape-rendering:geometricPrecision; text-rendering:geometricPrecision; image-rendering:optimizeQuality; fill-rule:evenodd; clip-rule:evenodd"
viewBox="0 0 0.925219 0.925219"
 xmlns:xlink="http://www.w3.org/1999/xlink">
 <defs>
  <style type="text/css">
   <![CDATA[
    .fil4 {fill:#FEFEFE}
    .fil5 {fill:#FEFEFE;fill-rule:nonzero}
    .fil0 {fill:#010101;fill-rule:nonzero}
    .fil2 {fill:#022E64;fill-rule:nonzero}
    .fil3 {fill:#076F74;fill-rule:nonzero}
    .fil1 {fill:#D10429;fill-rule:nonzero}
   ]]>
  </style>
 </defs>
<symbol id="Fm4-477-0" viewBox="-0.352659 -6.9626 0.713174 1.00439">
 <polygon class="fil0" points="-0.352659,-6.54151 -0.352659,-5.95821 0.360516,-6.9626 "/>
</symbol>
<symbol id="Fm0-469-0" viewBox="-1.06541 -7.42173 1.42551 0.74527">
 <polygon class="fil0" points="-0.352659,-7.42173 -1.06541,-7.09776 -0.352659,-6.67646 0.360095,-7.09776 "/>
</symbol>
<symbol id="Fm1-471-0" viewBox="-1.06541 -8.2804 0.712754 1.60394">
 <polygon class="fil0" points="-1.06541,-7.09776 -0.352653,-6.67646 -0.352653,-7.42173 -0.352653,-8.2804 "/>
</symbol>
<symbol id="Fm2-473-0" viewBox="-0.352659 -8.2804 0.712754 1.60394">
 <polygon class="fil0" points="-0.352659,-8.2804 -0.352659,-7.42173 -0.352659,-6.67646 0.360095,-7.09776 "/>
</symbol>
<symbol id="Fm3-475-0" viewBox="-1.06541 -6.96261 0.712754 1.00439">
 <polygon class="fil0" points="-1.06541,-6.96261 -0.352653,-5.95822 -0.352653,-6.54152 "/>
</symbol>
 <g id="__x0023_Layer_x0020_1">
  <metadata id="CorelCorpID_0Corel-Layer"/>
  <g id="_394737720">
   <path id="_393242848" class="fil1" d="M0.443988 0.000404331c0.0299096,0.0146051 0.0454545,0.0479733 0.036439,0.0867454l-0.17354 0.745046c-0.00474269,0.0201619 -0.0154793,0.0388814 -0.0298713,0.0542514 -0.163087,-0.0715174 -0.277016,-0.234365 -0.277016,-0.423826 0,-0.249248 0.197139,-0.452436 0.443988,-0.462216z"/>
   <path id="_393243112" class="fil2" d="M0.806679 0.153411l-0.158077 0.678784c-0.0052563,0.0224732 -0.00753476,0.0431596 -0.0126272,0.0594093 -0.0535411,0.021659 -0.112049,0.0336141 -0.173354,0.0336141 -0.144062,0 -0.272738,-0.0658568 -0.357587,-0.169098l0.155788 -0.668971c0.00473177,-0.0200526 0.0153154,-0.0386573 0.0295052,-0.0539673 0.053257,-0.0213858 0.111393,-0.0331825 0.172294,-0.0331825 0.136609,0 0.259373,0.0592345 0.344058,0.153411z"/>
   <path id="_393243568" class="fil3" d="M0.536444 0.919329c-0.0306691,-0.0143155 -0.0466784,-0.0480116 -0.0374935,-0.0871333l0.173535 -0.745046c0.00248063,-0.0106656 0.00663322,-0.0209214 0.0121026,-0.0304942 0.143395,0.0785768 0.240632,0.230911 0.240632,0.405965 0,0.230343 -0.168393,0.421357 -0.388775,0.456708z"/>
   <g>
    <path id="_394613800" class="fil4" d="M0.614774 0.613551l0.0233529 0 0.00669878 -0.0224349 -0.0232818 0 -0.00676981 0.0224349zm0.0186593 -0.0619938l0 0 -0.00802105 0.0265875c0,0 0.00889528,-0.0045296 0.013638,-0.00597208 0.00480826,-0.00108186 0.0121245,-0.0019998 0.0121245,-0.0019998l0.00566064 -0.0186156 -0.023402 0zm0.0116273 -0.0381874l0 0 -0.00775879 0.0255439c0,0 0.00873137,-0.0039395 0.0134249,-0.00523445 0.00480826,-0.00127856 0.0120043,-0.00169928 0.0120043,-0.00169928l0.00561692 -0.0186102 -0.0232873 0zm0.0516615 0l0 0 -0.0302156 0.0999463 0.00816312 0 -0.00632177 0.0206427 -0.00807023 0 -0.00191238 0.00636548 -0.0287512 0 0.00195609 -0.00636548 -0.0583603 0 0.00582455 -0.0191074 0.00594476 0 0.0306199 -0.101482 0.00610868 -0.020457 0.0293031 0 -0.00307073 0.0103104c0,0 0.00780796,-0.00561692 0.0152171,-0.00752384 0.00738177,-0.00196155 0.0498693,-0.0026664 0.0498693,-0.0026664l-0.00627806 0.0203368 -0.0100263 0z"/>
    <path id="_393357376" class="fil5" d="M0.70965 0.493033l0.0313302 0 0.00030598 0.0116491c-0.000213093,0.00198341 0.00148619,0.00290681 0.00514156,0.00290681l0.00637095 0 -0.00583002 0.0192494 -0.0169109 0c-0.014627,0.00103268 -0.0201947,-0.00523991 -0.0198177,-0.0123157l-0.000590105 -0.0214897z"/>
    <path id="_394735848" class="fil5" d="M0.713803 0.584346l-0.0298385 0 0.00511971 -0.017124 0.0341113 0 0.00483558 -0.0156651 -0.0336633 0 0.00573167 -0.0193205 0.0936737 0 -0.00583002 0.0193205 -0.0314176 0 -0.00490661 0.0156651 0.031516 0 -0.00523991 0.017124 -0.0340403 0 -0.0060595 0.00721786 0.0138238 0 0.00337125 0.021588c0.000377011,0.00214733 0.000377011,0.00356248 0.00108732,0.00448043 0.000704847,0.000754023 0.00485744,0.00115835 0.00726703,0.00115835l0.0041963 0 -0.0063928 0.0209924 -0.0106383 0c-0.00162825,0 -0.00408156,-0.000120207 -0.00748013,-0.000262269 -0.00315815,-0.000278661 -0.00539837,-0.00214186 -0.00757301,-0.00322918 -0.00195609,-0.000917941 -0.00485744,-0.00327836 -0.00556228,-0.00731074l-0.00332754 -0.0215388 -0.0155012 0.0212055c-0.00490661,0.0067261 -0.0115562,0.0118403 -0.0228065,0.0118403l-0.021659 0 0.00568795 -0.0187522 0.00827786 0c0.00240413,0 0.00448043,-0.000939797 0.00606497,-0.00174299 0.00157908,-0.000661136 0.00299424,-0.00148619 0.00457331,-0.00382475l0.0225988 -0.0318219z"/>
    <path id="_394735128" class="fil5" d="M0.387136 0.537427l0.0790249 0 -0.00585187 0.0188287 -0.0315815 0 -0.00493393 0.0160858 0.0323192 0 -0.00589558 0.0194352 -0.0322973 0 -0.00785167 0.0261395c-0.000945261,0.00287949 0.00768775,0.0032565 0.0108022,0.0032565l0.016135 -0.00221836 -0.00648569 0.0215334 -0.0364007 0c-0.00295052,0 -0.00511971,-0.000420723 -0.00827786,-0.00113103 -0.00307073,-0.000775879 -0.00443671,-0.00214186 -0.00578084,-0.00422362 -0.00132227,-0.00212001 -0.00339857,-0.00386846 -0.00198341,-0.00844178l0.0104744 -0.0345812 -0.017949 0 0.00596662 -0.0197685 0.0179982 0 0.00478641 -0.0160858 -0.017949 0 0.00573167 -0.0188287z"/>
    <path id="_394602016" class="fil5" d="M0.440284 0.503551l0.0324121 0 -0.00587373 0.0196975 -0.0442797 0 -0.00478641 0.00415259c-0.00207629,0.00200526 -0.00278114,0.00118021 -0.00547486,0.00262269 -0.00249702,0.00124578 -0.00773693,0.00374826 -0.0145505,0.00374826l-0.0141789 0 0.00570435 -0.0189216 0.0042728 0c0.00358434,0 0.00606497,-0.000327836 0.00731621,-0.00110918 0.00141516,-0.000917941 0.00299424,-0.0029232 0.00473723,-0.00615239l0.00818497 -0.0147909 0.0321771 0 -0.00566064 0.010753z"/>
    <path id="_394614712" class="fil4" d="M0.502441 0.535963c0,0 0.00884611,-0.00809209 0.0239867,-0.0107093 0.00344774,-0.000633816 0.0249374,-0.000420723 0.0249374,-0.000420723l0.00327836 -0.0108514 -0.0455965 0 -0.0066059 0.0219814zm0.0427662 0.00823415l0 0 -0.0452195 0 -0.00278661 0.00910838 0.03916 0c0.00460063,-0.000546393 0.00556775,0.000114743 0.00596662,-9.83508e-005l0.00287949 -0.00901003zm-0.0585952 -0.0511643l0 0 0.0275983 0 -0.00403238 0.0138948c0,0 0.00873137,-0.00698291 0.01484,-0.00948539 0.0060595,-0.00224021 0.0198122,-0.00426733 0.0198122,-0.00426733l0.0446786 -0.000262269 -0.0152116 0.0506944c-0.00257351,0.00866033 -0.00556775,0.0142718 -0.00743095,0.0168453 -0.00167743,0.00257351 -0.00366084,0.00481373 -0.0075293,0.00693373 -0.00374826,0.00202712 -0.00719054,0.00316362 -0.0103542,0.00349145 -0.00295052,0.000213093 -0.00748013,0.000284125 -0.0137527,0.000377011l-0.0430503 0 -0.0121026 0.0400561c-0.00115289,0.00398867 -0.00169928,0.00589558 -0.000945261,0.00698291 0.000617424,0.000917941 0.00207629,0.00200526 0.00410341,0.00200526l0.0189926 -0.00179217 -0.00651301 0.0219814 -0.0212055 0c-0.00676981,0 -0.0116764,-0.000163918 -0.0151187,-0.000420723 -0.00327836,-0.000284125 -0.00669878,0 -0.00901003,-0.00174846 -0.00195609,-0.00174299 -0.00497764,-0.00405424 -0.00490661,-0.0063928 0.000213093,-0.00216918 0.00113103,-0.00577538 0.00250248,-0.010753l0.0386355 -0.12814z"/>
    <path id="_391019880" class="fil5" d="M0.567102 0.574795l-0.00257351 0.0121682c-0.00108186,0.00382475 -0.00202712,0.00665507 -0.00490661,0.00910838 -0.00301609,0.00257351 -0.00655672,0.00526177 -0.01484,0.00526177l-0.0153318 0.000633816 -0.000114743 0.0137527c-0.000169382,0.00386846 0.000868765,0.00349145 0.00148073,0.00410888 0.000710311,0.000704847 0.00134959,0.000967116 0.00201073,0.00124578l0.00485744 -0.000278661 0.014627 -0.000803198 -0.00606497 0.0200745 -0.0167961 0c-0.0117475,0 -0.0204734,-0.000284125 -0.0233037,-0.00252434 -0.00283578,-0.00179217 -0.00320733,-0.00403238 -0.00316362,-0.00790631l0.00108732 -0.0536394 0.0267951 0 -0.000377011 0.0109661 0.00644198 0c0.00221836,0 0.00370455,-0.000213093 0.00462249,-0.000797734 0.000825054,-0.000611961 0.00141516,-0.00144248 0.00179217,-0.00278661l0.00268826 -0.00858384 0.0210689 0z"/>
    <path id="_391019184" class="fil5" d="M0.184665 0.305871c-0.000917941,0.004393 -0.0181129,0.0836965 -0.0181621,0.0837676 -0.00370455,0.0160421 -0.0063928,0.0274836 -0.0155449,0.0348654 -0.00519074,0.00429465 -0.0112502,0.00637095 -0.0182823,0.00637095 -0.0112994,0 -0.017878,-0.00561146 -0.0189872,-0.0162552l-0.000213093 -0.00365537c0,0 0.00344228,-0.0214897 0.00344228,-0.0216099 0,0 0.0180474,-0.0722769 0.0212766,-0.0818279 0.000163918,-0.000546393 0.000213093,-0.000825054 0.000262269,-0.00108732 -0.0351276,0.00030598 -0.0413565,0 -0.0417772,-0.000568249 -0.000240413,0.000781342 -0.00110918,0.00526177 -0.00110918,0.00526177l-0.0184244 0.0814563 -0.00157908 0.00691188 -0.00307073 0.0225988c0,0.00669878 0.00132227,0.0121736 0.00394496,0.0167961 0.00839807,0.0146707 0.032341,0.0168672 0.0458807,0.0168672 0.0174518,0 0.0338272,-0.00370455 0.0448917,-0.0104744 0.0192003,-0.0113486 0.0242216,-0.0290845 0.0287075,-0.0448425l0.00207629 -0.00809209c0,0 0.0185883,-0.0750635 0.0217465,-0.0848276 0.000120207,-0.000546393 0.000163918,-0.000825054 0.0003333,-0.00108732 -0.0254783,0.000262269 -0.0330022,0 -0.0354118,-0.000568249z"/>
    <path id="_391020264" class="fil5" d="M0.287518 0.454982c-0.0124304,-0.000213093 -0.0168672,-0.000213093 -0.0314231,0.000568249l-0.000540929 -0.00110918c0.00125124,-0.00556775 0.00261722,-0.0110153 0.00386846,-0.0166322l0.00179217 -0.00759487c0.00268826,-0.0117693 0.00531094,-0.0254783 0.00561692,-0.0296746 0.000284125,-0.00250248 0.00115289,-0.00877508 -0.00603765,-0.00877508 -0.00302156,0 -0.00618517,0.00145887 -0.0093925,0.00294506 -0.00174299,0.00627806 -0.00528362,0.0238992 -0.00698291,0.0319203 -0.0036062,0.0169163 -0.00381929,0.0188724 -0.00544754,0.0272213l-0.00103815 0.00113103c-0.0128348,-0.000213093 -0.0173152,-0.000213093 -0.0320842,0.000568249l-0.000661136 -0.0012731c0.00245331,-0.0100263 0.00490661,-0.0201674 0.00726703,-0.030221 0.00620703,-0.0272705 0.00769322,-0.0376957 0.00936518,-0.0515631l0.00120207 -0.000803198c0.0144139,-0.00202712 0.0179053,-0.00245331 0.0334994,-0.00561692l0.00132227 0.00146433 -0.00240959 0.00868219c0.0026664,-0.00158454 0.00519074,-0.00316362 0.00785714,-0.0045296 0.00735992,-0.00361166 0.0155449,-0.00469352 0.0200308,-0.00469352 0.0068627,0 0.0143374,0.00191238 0.0174518,0.00981322 0.00295052,0.00704847 0.000994436,0.0157088 -0.00290135,0.0327891l-0.00200526 0.0087259c-0.00398321,0.0189926 -0.00464434,0.0224841 -0.00688456,0.0355265l-0.00146433 0.00113103z"/>
    <path id="_391820616" class="fil5" d="M0.338141 0.454982c-0.00752384,-4.37115e-005 -0.0123867,-0.000213093 -0.0170803,-4.37115e-005 -0.00469352,4.37115e-005 -0.00926683,0.000278661 -0.0162552,0.000611961l-0.000377011 -0.000611961 -0.000448043 -0.000661136c0.00191238,-0.007196 0.00295052,-0.00969848 0.00389578,-0.0122665 0.000967116,-0.00257351 0.00184135,-0.00511971 0.00353517,-0.0124304 0.0021965,-0.00955642 0.00354063,-0.016206 0.00441486,-0.0220579 0.00103815,-0.00566064 0.00157908,-0.0104744 0.00235496,-0.0160421l0.000546393 -0.000426187 0.000590105 -0.000540929c0.00747466,-0.00103815 0.0122174,-0.00174299 0.0170803,-0.00252434 0.00490661,-0.000633816 0.00983508,-0.00162825 0.017572,-0.00311444l0.000284125 0.000661136 0.000207629 0.000710311c-0.00141516,0.00589558 -0.00290135,0.0117912 -0.00431104,0.0177851 -0.00137145,0.00601579 -0.00283578,0.0118895 -0.00415259,0.0177851 -0.00278661,0.0125507 -0.00391764,0.0172442 -0.00457878,0.0206427 -0.000661136,0.00316362 -0.000825054,0.00490661 -0.00191238,0.0113923l-0.000704847 0.000590105 -0.000661136 0.000540929z"/>
    <path id="_391820328" class="fil5" d="M0.417423 0.41068c-0.000611961,0.00323465 -0.00344228,0.0152389 -0.00726157,0.0203586 -0.0026664,0.00377558 -0.00583002,0.00606497 -0.00931601,0.00606497 -0.00104361,0 -0.00722332,0 -0.00731621,-0.00917941 -4.91754e-005,-0.0045296 0.000874229,-0.00915209 0.00200526,-0.0141734 0.00327836,-0.0145122 0.00714683,-0.0266804 0.0170311,-0.0266804 0.00773693,0 0.00830518,0.0090592 0.00485744,0.0236097zm0.0326525 0.00137145l0 0c0.00436022,-0.0191566 0.000967116,-0.0280955 -0.00330568,-0.0335486 -0.00648569,-0.00829972 -0.017949,-0.0109661 -0.0298385,-0.0109661 -0.00714683,0 -0.0241779,0.000710311 -0.0374826,0.0129768 -0.00955642,0.00884064 -0.0139658,0.0208504 -0.0166322,0.0323629 -0.00268826,0.0117256 -0.00578084,0.0328382 0.0136325,0.0406899 0.00599394,0.00257351 0.014627,0.00327836 0.0201947,0.00327836 0.0142226,0 0.0288059,-0.00391218 0.039772,-0.0155449 0.00844724,-0.00943621 0.0123157,-0.0234731 0.0136598,-0.0292484z"/>
    <path id="_391820184" class="fil5" d="M0.754706 0.456255c-0.0150477,-0.000114743 -0.0193642,-0.000114743 -0.033259,0.000475362l-0.000874229 -0.00113103c0.00375372,-0.0142991 0.0075293,-0.0285436 0.0109005,-0.0430066 0.00436568,-0.0187522 0.00535465,-0.0267241 0.00676981,-0.0376957l0.00113103 -0.000917941c0.0149548,-0.00212547 0.0191074,-0.00273743 0.0346523,-0.00561692l0.000448043 0.00130042c-0.00285217,0.0117912 -0.00563332,0.0235168 -0.00841992,0.0353571 -0.00570981,0.0247243 -0.00778611,0.0372695 -0.00997714,0.0501972l-0.00137145 0.00103815z"/>
    <path id="_391018776" class="fil5" d="M0.732134 0.412336c-0.000759487,0.00310898 -0.00361166,0.0152116 -0.00743095,0.0202821 -0.00255166,0.00361166 -0.00861116,0.00585187 -0.0121026,0.00585187 -0.000988972,0 -0.00710311,0 -0.00731074,-0.00901003 -4.91754e-005,-0.00448043 0.000868765,-0.00910291 0.00202712,-0.0141789 0.00332754,-0.0142499 0.00714683,-0.0262979 0.0170529,-0.0262979 0.00776425,0 0.0110863,0.00876961 0.00776425,0.0233529zm0.0297183 0.00141516l0 0c0.00436568,-0.0190418 -0.0132555,-0.00169928 -0.0160366,-0.00797734 -0.00429465,-0.00981322 -0.00162825,-0.0296746 -0.0189216,-0.0363242 -0.00664961,-0.00262269 -0.0222655,0.000754023 -0.0356904,0.0129714 -0.00943621,0.0087259 -0.0139658,0.0206865 -0.0165339,0.0321552 -0.00271557,0.0115562 -0.00583002,0.0326689 0.0134905,0.0401927 0.00615785,0.00262269 0.0116764,0.00339857 0.0172933,0.00311444 0.0194134,-0.00103815 0.0342042,-0.0303795 0.0451703,-0.041963 0.00844724,-0.00920126 0.00993343,0.00344228 0.0112284,-0.00216918z"/>
    <path id="_391020432" class="fil5" d="M0.535181 0.454982c-0.0125015,-0.000213093 -0.0167688,-0.000213093 -0.0313739,0.000568249l-0.000540929 -0.00110918c0.00125124,-0.00556775 0.0026664,-0.0110153 0.00396135,-0.0166322l0.00169928 -0.00759487c0.00273743,-0.0117693 0.00535465,-0.0254783 0.00561692,-0.0296746 0.000278661,-0.00250248 0.00115289,-0.00877508 -0.00599394,-0.00877508 -0.00311444,0 -0.00622888,0.00145887 -0.00943621,0.00294506 -0.00169928,0.00627806 -0.00530548,0.0238992 -0.00705394,0.0319203 -0.00349145,0.0169163 -0.00374826,0.0188724 -0.00532734,0.0272213l-0.00110918 0.00113103c-0.0128129,-0.000213093 -0.0172223,-0.000213093 -0.0320132,0.000568249l-0.000661136 -0.0012731c0.00245331,-0.0100263 0.00490661,-0.0201674 0.00726703,-0.030221 0.00620156,-0.0272705 0.00761672,-0.0376957 0.00936518,-0.0515631l0.00110918 -0.000803198c0.0143865,-0.00202712 0.017949,-0.00245331 0.0335431,-0.00561692l0.00120207 0.00146433 -0.00224021 0.00868219c0.00257351,-0.00158454 0.00519074,-0.00316362 0.00780796,-0.0045296 0.00731074,-0.00361166 0.0155449,-0.00469352 0.0200308,-0.00469352 0.00676981,0 0.0142937,0.00191238 0.017501,0.00981322 0.00290135,0.00704847 0.000917941,0.0157088 -0.0029997,0.0327891l-0.00195609 0.0087259c-0.00410341,0.0189926 -0.00469352,0.0224841 -0.00688456,0.0355265l-0.00151351 0.00113103z"/>
    <path id="_391020648" class="fil5" d="M0.643154 0.305778c-7.10311e-005,0 -0.0103815,9.28869e-005 -0.0103815,9.28869e-005 -0.0269372,0.0003333 -0.0377449,0.000240413 -0.0421761,-0.00030598 -0.000377011,0.00196155 -0.00108732,0.00545301 -0.00108732,0.00545301 0,0 -0.00964931,0.0447223 -0.00964931,0.0447933 0,0 -0.0230906,0.0950888 -0.0241779,0.0995747 0.0235168,-0.000284125 0.0331661,-0.000284125 0.0372258,0.000163918 0.000917941,-0.00448043 0.00636548,-0.0310461 0.00641466,-0.0310461 0,0 0.00464981,-0.0194844 0.00493393,-0.0201892 0,0 0.00145887,-0.00203258 0.0029232,-0.00283032l0.00214733 0c0.0202876,0 0.0431924,0 0.0611414,-0.0132118 0.0122228,-0.0090592 0.0205717,-0.0224349 0.0242981,-0.0386901 0.000967116,-0.00398321 0.00167743,-0.0087259 0.00167743,-0.0134686 0,-0.00622342 -0.00125124,-0.0123813 -0.0048629,-0.017195 -0.00915209,-0.0128075 -0.0273852,-0.0130479 -0.0484268,-0.0131408zm0.0134686 0.0465418l0 0c-0.00219104,0.00993343 -0.00863302,0.0182823 -0.0169109,0.0223147 -0.00681899,0.00342589 -0.0151733,0.00370455 -0.023779,0.00370455l-0.00556775 0 0.000420723 -0.00224021c0,0 0.0102613,-0.0446294 0.0102176,-0.0444655l0.000327836 -0.00228939 0.000142062 -0.00174299 0.00410341 0.000420723c0,0 0.0211618,0.00181949 0.021659,0.00186867 0.00834889,0.00322918 0.0117912,0.0115562 0.00938704,0.0224294z"/>
    <path id="_391030792" class="fil5" d="M0.877797 0.368247l-0.00120207 -0.00137145c-0.015381,0.00311444 -0.0181621,0.00361166 -0.0322918,0.00551857l-0.00103815 0.00103815c-4.91754e-005,0.000169382 -9.28869e-005,0.000426187 -0.000169382,0.000661136l-4.37115e-005 -0.000234949c-0.0105235,0.0242763 -0.0102121,0.0190363 -0.0187795,0.0381437 -4.37115e-005,-0.000874229 -4.37115e-005,-0.00141516 -9.28869e-005,-0.0023331l-0.00214733 -0.0414221 -0.00134413 -0.00137145c-0.0161131,0.00311444 -0.0164902,0.00361166 -0.0313739,0.00551857l-0.00115835 0.00103815c-0.000163918,0.000497218 -0.000163918,0.00103815 -0.000256805,0.00162825l9.28869e-005 0.000213093c0.0018632,0.00950724 0.00141516,0.00738724 0.00327836,0.0223857 0.000874229,0.00735992 0.00203258,0.014769 0.00290135,0.022036 0.00146433,0.0121682 0.00228939,0.0181621 0.00408156,0.0367286 -0.0100482,0.0165776 -0.0124304,0.0228556 -0.0221016,0.0374116l0.000611961 0.00136598c0.0145067,-0.000540929 0.0178835,-0.000540929 0.0286365,-0.000540929l0.00233856 -0.0026664c0.0081358,-0.0175283 0.0700586,-0.123747 0.0700586,-0.123747z"/>
    <path id="_391033792" class="fil5" d="M0.351774 0.378503c0.00826147,-0.0057262 0.00929415,-0.0136325 0.00236042,-0.0177359 -0.00702662,-0.00415259 -0.0193642,-0.00283032 -0.0276694,0.00290135 -0.00828332,0.00561146 -0.00922312,0.0135888 -0.00221836,0.0177851 0.00691188,0.00403238 0.0192986,0.00283032 0.0275273,-0.00295052z"/>
    <path id="_391038040" class="fil5" d="M0.806651 0.493459l-0.0121026 0.0207356c-0.00381929,0.00709765 -0.0109169,0.0123813 -0.0222218,0.0124304l-0.0192494 -0.0003333 0.00561692 -0.0186593 0.00377558 0c0.00195609,0 0.00337125,-9.28869e-005 0.00445857,-0.000633816 0.000988972,-0.0003333 0.00169382,-0.00110918 0.00247516,-0.00224021l0.00714683 -0.0112994 0.0301008 0z"/>
   </g>
  </g>
 </g>
</svg>
