<svg width="134" height="46" xmlns="http://www.w3.org/2000/svg">
 <defs>
  <linearGradient y2="0.059487" x2="0.879458" y1="1.111273" x1="0.153553" id="paint0_linear_443_6694">
   <stop stop-color="#1ED478"/>
   <stop stop-color="#3F71F1" offset="1"/>
  </linearGradient>
 </defs>
 <g>
  <title>background</title>
  <rect fill="none" id="canvas_background" height="402" width="582" y="-1" x="-1"/>
 </g>
 <g>
  <title>Layer 1</title>
  <path id="svg_1" fill="url(#paint0_linear_443_6694)" d="m20.9312,1.65854l-13.99578,44.34146l45.40568,-10.0292l-31.4099,-34.31226zm24.1218,31.99036l-32.5064,7.1914l10.0293,-31.73239l22.4771,24.54099z"/>
  <path id="svg_2" fill="#3F71F1" d="m28.3806,4.85111c0.258,0.06449 0.516,0.12899 0.7418,0.12899c0.3869,0 0.8062,-0.09674 1.1609,-0.29023c0.5805,-0.32249 1.0319,-0.83846 1.2254,-1.45118c0.1935,-0.64497 0.129,-1.32218 -0.1612,-1.90265c-0.3225,-0.58047 -0.8385,-1.03195 -1.4512,-1.22544c-0.645,-0.19349 -1.3222,-0.12899 -1.9026,0.16124c-0.5805,0.32249 -1.032,0.83846 -1.2255,1.45118c-0.4515,1.32218 0.2903,2.74111 1.6124,3.12809z"/>
  <path id="svg_3" fill="#13CA88" d="m4.19438,37.0027c-0.64497,-0.1935 -1.32218,-0.129 -1.90265,0.1613c-0.58047,0.3224 -1.03195,0.8384 -1.22544,1.4511c-0.19349,0.645 -0.12899,1.3222 0.16124,1.9027c0.32249,0.5805 0.83846,1.0319 1.45118,1.2254c0.25798,0.0645 0.48372,0.129 0.74171,0.129c1.09644,0 2.0639,-0.7094 2.38638,-1.7414c0.19349,-0.645 0.12899,-1.3222 -0.16124,-1.9026c-0.32249,-0.5805 -0.83846,-1.032 -1.45118,-1.2255z"/>
  <path id="svg_4" fill="#2BABAA" d="m49.3097,39.4214c-0.6449,-0.1935 -1.3221,-0.129 -1.9026,0.1612c-0.5805,0.3225 -1.032,0.8385 -1.2255,1.4512c-0.1934,0.6449 -0.1289,1.3222 0.1613,1.9026c0.3225,0.5805 0.8384,1.032 1.4512,1.2255c0.258,0.0645 0.5159,0.129 0.7417,0.129c0.387,0 0.8062,-0.0968 1.1609,-0.2903c0.5805,-0.3225 1.032,-0.8384 1.2255,-1.4511c0.1934,-0.645 0.1289,-1.3222 -0.1613,-1.9027c-0.2902,-0.5805 -0.8062,-1.0319 -1.4512,-1.2254z"/>
  <path id="svg_5" fill="#ffffff" d="m15.2235,27.3282c-0.387,-1.0319 -0.774,-2.0316 -1.1287,-2.9668c-0.3548,-0.903 -0.7417,-1.8059 -1.0965,-2.6444c-0.3547,-0.8385 -0.7417,-1.6447 -1.1287,-2.4509l-0.0967,-0.1935l-2.83787,0l-0.09675,0.1935c-0.38698,0.8062 -0.77396,1.6124 -1.12869,2.4509c-0.35473,0.8385 -0.74171,1.7092 -1.09644,2.6444c-0.35473,0.9029 -0.74171,1.9026 -1.12869,2.9668c-0.38698,1.032 -0.80621,2.1606 -1.22544,3.4183l-0.16124,0.4515l3.38607,0l0.0645,-0.2257c0.12899,-0.387 0.25799,-0.8062 0.38698,-1.2255l0.35473,-1.0319l3.96654,0l0.3547,1.0319c0.129,0.4193 0.2903,0.8062 0.4193,1.2255l0.0645,0.2257l3.4828,0l-0.1613,-0.4515c-0.3869,-1.2254 -0.8062,-2.3863 -1.1931,-3.4183zm-4.9018,-4.3535c0.0968,0.258 0.1935,0.516 0.3225,0.8384c0.1612,0.387 0.2902,0.774 0.4515,1.2255c0.0967,0.3225 0.2257,0.6127 0.3547,0.9674l-2.28963,0c0.12899,-0.3225 0.22574,-0.6449 0.35473,-0.9352c0.16124,-0.4515 0.32248,-0.8707 0.48373,-1.2254c0.09677,-0.3225 0.22577,-0.6127 0.32247,-0.8707z"/>
  <path id="svg_6" fill="#ffffff" d="m22.9629,19.1049l-3.2571,0l0,12.0931l8.2878,0l0,-2.8701l-5.0307,0l0,-9.223z"/>
  <path id="svg_7" fill="#ffffff" d="m34.6692,21.9427l5.063,0l0,-2.8378l-8.3201,0l0,12.0931l3.2571,0l0,-4.7082l3.1603,0l0,-2.8379l-3.1603,0l0,-1.7092z"/>
  <path id="svg_8" fill="#ffffff" d="m52.3412,27.3282c-0.387,-1.0319 -0.774,-2.0316 -1.1287,-2.9668c-0.3548,-0.903 -0.7418,-1.8059 -1.0965,-2.6444c-0.3547,-0.8385 -0.7417,-1.6447 -1.1287,-2.4509l-0.0967,-0.1935l-2.8701,0l-0.0968,0.1935c-0.3869,0.8062 -0.7739,1.6124 -1.1287,2.4509c-0.3547,0.8385 -0.7417,1.7092 -1.0964,2.6444c-0.3547,0.9029 -0.7417,1.9026 -1.1287,2.9668c-0.387,1.032 -0.8062,2.1606 -1.2254,3.4183l-0.1613,0.4515l3.3861,0l0.0645,-0.2257c0.129,-0.387 0.258,-0.8062 0.387,-1.2255l0.3547,-1.0319l3.9666,0l0.3547,1.0319c0.129,0.4193 0.2902,0.8062 0.4192,1.2255l0.0645,0.2257l3.4828,0l-0.1612,-0.4515c-0.3547,-1.2254 -0.774,-2.3863 -1.1609,-3.4183zm-4.9018,-4.3535c0.0967,0.258 0.1935,0.516 0.3225,0.8384c0.1612,0.387 0.2902,0.774 0.4515,1.2255c0.0967,0.3225 0.2257,0.6127 0.3547,0.9674l-2.2896,0c0.129,-0.3225 0.2257,-0.6449 0.3547,-0.9352c0.1612,-0.4515 0.3225,-0.8707 0.4837,-1.2254c0.129,-0.3225 0.2258,-0.6127 0.3225,-0.8707z"/>
  <path id="svg_9" fill="#ffffff" d="m64.3698,27.8764c-0.129,0.0645 -0.2903,0.129 -0.4838,0.2258c-0.1612,0.0645 -0.3547,0.129 -0.5482,0.1935c-0.2257,0.0645 -0.4837,0.0967 -0.7417,0.1612c-0.2902,0.0323 -0.6127,0.0645 -0.9674,0.0645c-0.5483,0 -0.9997,-0.0967 -1.3867,-0.258c-0.3547,-0.1612 -0.6772,-0.387 -0.8707,-0.6772c-0.2258,-0.2902 -0.387,-0.645 -0.4838,-1.0642c-0.0967,-0.4192 -0.1612,-0.9029 -0.1612,-1.3867c0,-0.6127 0.0968,-1.1287 0.2257,-1.5479c0.1613,-0.4192 0.3548,-0.7417 0.6128,-0.9997c0.258,-0.258 0.5482,-0.4515 0.8707,-0.5482c0.3547,-0.129 0.6772,-0.1935 1.0319,-0.1935c0.5482,0 1.0642,0.0645 1.4834,0.1935c0.4515,0.129 0.8385,0.2902 1.161,0.4515l0.3547,0.1935l0.9675,-2.7089l-0.2258,-0.1612c-0.0967,-0.0645 -0.258,-0.129 -0.4514,-0.258c-0.2258,-0.0968 -0.4838,-0.2258 -0.8063,-0.3225c-0.3224,-0.0968 -0.6772,-0.1935 -1.0642,-0.258c-0.4192,-0.0645 -0.8707,-0.0967 -1.3866,-0.0967c-0.8707,0 -1.677,0.1289 -2.4509,0.4192c-0.7417,0.2902 -1.4189,0.7094 -1.9672,1.2254c-0.5482,0.5482 -0.9674,1.2255 -1.2899,1.9994c-0.3225,0.774 -0.4837,1.6769 -0.4837,2.6444c0,1.9671 0.516,3.5473 1.5479,4.6437c1.032,1.0965 2.5476,1.6447 4.4825,1.6447c0.903,0 1.6769,-0.0967 2.3864,-0.2902c0.7095,-0.1935 1.2254,-0.387 1.6124,-0.645l0.2258,-0.129l-0.9352,-2.6766l-0.258,0.1612z"/>
  <path id="svg_10" fill="#ffffff" d="m75.5923,23.4584l-3.6441,0l0,-4.3535l-3.257,0l0,12.0931l3.257,0l0,-4.8372l3.6441,0l0,4.8372l3.2571,0l0,-12.0931l-3.2571,0l0,4.3535z"/>
  <path id="svg_11" fill="#ffffff" d="m94.1673,31.198l-0.1613,-0.4515c-0.4192,-1.2254 -0.8384,-2.3863 -1.2254,-3.4183c-0.387,-1.0319 -0.774,-2.0316 -1.1287,-2.9668c-0.3547,-0.903 -0.7417,-1.8059 -1.0964,-2.6444c-0.3548,-0.8385 -0.7418,-1.6447 -1.0965,-2.4509l-0.0967,-0.1935l-2.8701,0l-0.0968,0.1935c-0.387,0.8062 -0.7739,1.6124 -1.1287,2.4509c-0.3547,0.8385 -0.7417,1.7092 -1.0964,2.6444c-0.3548,0.9029 -0.7417,1.9026 -1.1287,2.9668c-0.387,1.032 -0.8062,2.1606 -1.2255,3.4183l-0.1612,0.4515l3.3861,0l0.0645,-0.2257c0.129,-0.387 0.258,-0.8062 0.387,-1.2255l0.3547,-1.0319l3.9665,0l0.3548,1.0319c0.129,0.4193 0.2902,0.8062 0.4192,1.2255l0.0645,0.2257l3.5151,0zm-6.2885,-8.2233c0.0968,0.258 0.1935,0.516 0.3225,0.8384c0.1613,0.387 0.2903,0.774 0.4515,1.2255c0.0967,0.3225 0.2257,0.6127 0.3547,0.9674l-2.2896,0c0.129,-0.3225 0.2257,-0.6449 0.3547,-0.9352c0.1613,-0.4515 0.3225,-0.8707 0.4838,-1.2254c0.1289,-0.3225 0.2257,-0.6127 0.3224,-0.8707z"/>
  <path id="svg_12" fill="#ffffff" d="m99.9399,24.3291c0.7421,0.903 1.4511,1.8704 2.0961,2.8379c0.839,1.2577 1.645,2.5476 2.386,3.8375l0.097,0.1613l2.709,0l0,-12.0932l-3.225,0l0,5.966c-0.193,-0.2903 -0.419,-0.6127 -0.645,-0.9352c-0.451,-0.645 -0.903,-1.2577 -1.354,-1.8704c-0.452,-0.6127 -0.903,-1.161 -1.355,-1.7092c-0.451,-0.5482 -0.8703,-0.9997 -1.2251,-1.3544l-0.0967,-0.0968l-2.5799,0l0,12.0932l3.2248,0l0,-6.8367l-0.0322,0z"/>
  <path id="svg_13" fill="#ffffff" d="m112.194,29.7791c0.516,0.5482 1.161,0.9674 1.903,1.2254c0.742,0.2902 1.548,0.4192 2.451,0.4192c0.999,0 1.87,-0.0645 2.58,-0.2257c0.709,-0.129 1.225,-0.2902 1.548,-0.4192l0.225,-0.0968l0,-6.2239l-3.257,0l0,4.031c-0.064,0 -0.129,0 -0.226,0.0323c-0.193,0 -0.419,0 -0.709,0c-0.484,0 -0.903,-0.0968 -1.225,-0.2258c-0.355,-0.1612 -0.645,-0.3869 -0.871,-0.6772c-0.226,-0.2902 -0.419,-0.6449 -0.516,-1.0642c-0.129,-0.4192 -0.194,-0.9029 -0.194,-1.4189c0,-1.0642 0.258,-1.9026 0.71,-2.5154c0.451,-0.5804 1.258,-0.8707 2.322,-0.8707c0.516,0 0.967,0.0645 1.386,0.1935c0.42,0.129 0.807,0.2903 1.161,0.4515l0.355,0.1935l0.968,-2.6766l-0.226,-0.1613c-0.097,-0.0645 -0.258,-0.129 -0.452,-0.2579c-0.225,-0.0968 -0.483,-0.1935 -0.838,-0.3225c-0.323,-0.0968 -0.71,-0.1935 -1.161,-0.258c-0.452,-0.0645 -0.968,-0.0968 -1.516,-0.0968c-0.838,0 -1.612,0.129 -2.354,0.4193c-0.742,0.2902 -1.387,0.7094 -1.935,1.2254c-0.548,0.5482 -0.967,1.1932 -1.29,1.9994c-0.322,0.774 -0.483,1.6769 -0.483,2.6766c0,0.9675 0.129,1.8704 0.419,2.6444c0.29,0.7739 0.709,1.4512 1.225,1.9994z"/>
  <path id="svg_14" fill="#ffffff" d="m133.317,28.3602l-5.547,0l-0.032,-1.9672l3.225,0l0,-2.7733l-3.225,0l0.032,-1.677l5.547,0l0,-2.8378l-8.804,0l0,12.0931l8.804,0l0,-2.8378z"/>
 </g>
</svg>