<?xml version="1.0" encoding="utf-8"?>
<!-- Generator: Adobe Illustrator 23.0.3, SVG Export Plug-In . SVG Version: 6.00 Build 0)  -->
<svg version="1.1" id="Layer_1" xmlns="http://www.w3.org/2000/svg" xmlns:xlink="http://www.w3.org/1999/xlink" x="0px" y="0px"
	 viewBox="0 0 48 48" style="enable-background:new 0 0 48 48;" xml:space="preserve">
<style type="text/css">
	.st0{fill-rule:evenodd;clip-rule:evenodd;fill:#FFFFFF;}
	.st1{fill:#FF8C00;}
</style>
<g id="__x0023_Layer_x0020_1">
	<g id="_394734552">
		<circle id="_393463704" class="st0" cx="24" cy="24" r="24"/>
		<g id="Слой_x0020_1">
			<path class="st1" d="M30.9,31.2c-0.3,0-0.5,0.1-0.6,0.3c-0.4,0.4-0.2,1.2,0.4,1.7c0.2,0.2,0.6,0.3,0.9,0.3c0.3,0,0.6-0.1,0.8-0.4
				c0.3-0.4,0.1-1-0.5-1.5C31.6,31.3,31.3,31.2,30.9,31.2z M33.9,29c-0.3-0.1-0.5,0-0.6,0.2c-0.1,0.3,0,0.8,0.3,1.3
				c0.3,0.5,0.6,0.7,0.8,0.7c0.1,0,0.1,0,0.2-0.1c0.1-0.1,0.2-0.4,0.1-0.8C34.6,29.9,34.4,29.2,33.9,29z M39.9,39.7
				c0.3,0.3-0.1,0.7-0.5,0.4c-3.1-2.8-5.7-3.5-8.3-3.7c-1.4-0.1-2.7,0.1-4.2,0.2c-0.3,0-0.6,0.1-0.9,0.1c-0.1,0-0.3,0-0.4,0
				c-0.5,0.1-1,0.1-1.5,0.1c-2.4,0-4.7-0.6-6.9-1.8c-2.1-1.2-3.8-2.8-5-4.9c-1.2-2.1-1.8-4.4-1.8-6.8c0-2.4,0.6-4.7,1.8-6.8
				c1.2-2.1,2.9-3.8,4.9-5c2.1-1.2,4.3-1.8,6.7-1.8c2.5,0,4.8,0.6,6.9,1.8c2.1,1.2,3.8,2.8,5,4.9c1.2,2.1,1.8,4.4,1.8,6.8
				c0,0.9-0.1,1.9-0.3,2.8c0,0.1-0.1,0.3-0.1,0.5c0,0.1-0.1,0.3-0.1,0.4l0,0c-0.2,0.8-0.7,1.9-1.5,3.3c-0.1,0.1-0.1,0-0.2,0
				c-0.3-2.1-1.2-3.6-2.8-4.7c0,0-0.1,0-0.1,0c-0.3-0.2-0.5-0.3-0.8-0.4c-0.4-0.2-0.8-0.3-1.2-0.4c-0.3-0.1-0.9,0-0.7-0.3
				c0.1-0.1,1.4-0.1,2.9,0c0,0,0.1,0,0.1,0c0-0.3,0-0.6,0-1c0-2.6-0.9-4.7-2.6-6.4c-1.8-1.7-3.8-2.6-6.3-2.6c-2.5,0-4.6,0.9-6.3,2.6
				c-1.7,1.8-2.5,3.8-2.5,6.4c0,2.5,0.8,4.6,2.6,6.4c1.7,1.7,3.8,2.6,6.2,2.6c0.1,0,0.2,0,0.3,0c0,0,0-0.1,0-0.1
				c-0.1-1.8-0.2-3.3,0.2-2.7c0.1,0.2,0.3,0.4,0.4,0.6c0.5,0.7,1,1.3,1.4,1.8c0,0,0,0,0.1,0.1c1.7,1.8,3.4,2.2,5.2,2.6
				c0,0,0.1,0,0.1,0c0.3,0.1,0.6,0.1,0.9,0.2C34.9,35.4,37.2,36.4,39.9,39.7z"/>
		</g>
	</g>
</g>
</svg>
