<svg width="603" height="269" viewBox="0 0 603 269" fill="none" xmlns="http://www.w3.org/2000/svg">
<path d="M364.3 107.856C363.897 106.244 358.658 102.718 352.11 99.8971C352.916 93.8523 352.714 87.8075 351.707 81.9642C357.449 79.7478 363.393 76.8262 363.998 73.9045C365.408 67.8597 356.945 53.1507 354.628 51.841C353.117 51.035 346.77 52.244 340.02 54.9641C336.494 50.2291 332.262 45.9977 327.427 42.4716C329.945 36.8298 332.061 30.5835 330.449 27.9641C327.124 22.7252 310.803 18.2924 308.285 18.9976C306.673 19.4006 303.147 24.6394 300.326 31.0872C294.18 30.0797 288.035 30.0797 282.091 30.8857C279.975 25.3446 277.154 19.8036 274.232 19.1991C268.188 17.7886 253.479 26.2514 252.169 28.5685C251.363 29.979 252.37 35.6208 254.788 41.7663C249.65 45.3932 245.016 49.8261 241.087 55.0649C235.949 52.8485 230.609 51.3373 228.292 52.7477C223.053 56.0724 218.62 72.3933 219.326 74.912C219.729 76.3224 223.96 79.3448 229.501 81.9642C228.393 88.6135 228.393 95.3635 229.4 101.811C224.464 103.826 220.131 106.345 219.527 108.964C218.117 115.009 226.579 129.718 228.896 131.028C230.206 131.733 235.042 130.927 240.684 128.912C244.613 134.252 249.449 138.987 254.99 142.916C252.975 147.752 251.665 152.688 253.076 154.905C256.4 160.144 272.721 164.576 275.24 163.871C276.65 163.468 279.673 159.237 282.292 153.595C288.841 154.502 295.49 154.3 301.837 153.091C303.953 158.229 306.572 163.065 309.192 163.67C315.236 165.08 329.945 156.618 331.255 154.3C332.061 152.89 330.953 147.248 328.636 141.002C333.471 137.173 337.804 132.64 341.43 127.401C346.871 129.819 352.613 131.632 355.132 130.02C360.572 126.696 365.005 110.375 364.3 107.856ZM280.378 117.931C266.173 112.188 259.423 96.0688 265.065 81.8635C270.807 67.6582 286.927 60.9082 301.132 66.55C315.236 72.3933 322.087 88.5128 316.345 102.617C310.602 116.823 294.483 123.673 280.378 117.931Z" fill="#13CA88"/>
<path d="M288.337 131.33C284.206 131.028 280.176 130.121 276.247 128.509C266.475 124.58 258.717 117.024 254.587 107.252C250.456 97.4792 250.355 86.6993 254.285 76.9269C258.214 67.1545 265.77 59.397 275.542 55.2664C285.315 51.1358 296.094 51.035 305.867 54.9641C315.639 58.8933 323.397 66.4493 327.527 76.2217C331.658 85.9941 331.759 96.774 327.729 106.546C323.8 116.319 316.244 124.076 306.471 128.207C300.729 130.826 294.482 131.834 288.337 131.33ZM293.878 53.3522C287.833 52.9492 281.788 53.9567 276.147 56.3746C266.676 60.4045 259.322 67.8597 255.494 77.4306C251.665 87.0016 251.766 97.4792 255.695 106.949C259.725 116.42 267.18 123.774 276.751 127.602C286.322 131.431 296.8 131.33 306.27 127.401C315.74 123.371 323.094 115.916 326.923 106.345C330.751 96.774 330.65 86.2963 326.721 76.8262C322.691 67.356 315.236 60.0015 305.665 56.1731C301.736 54.5612 297.807 53.6544 293.878 53.3522Z" fill="white"/>
<path d="M347.173 102.214C346.972 102.114 346.669 101.912 346.468 101.811C345.763 105.841 344.755 109.77 343.143 113.699C331.457 142.513 298.513 156.517 269.699 144.83C250.759 137.173 238.266 120.449 235.143 101.61C234.841 101.61 234.639 101.509 234.337 101.408C237.46 120.55 250.154 137.677 269.397 145.435C298.613 157.222 332.061 143.117 343.848 113.901C345.46 110.073 346.569 106.143 347.173 102.214Z" fill="white"/>
<path d="M275.643 38.1395C287.229 34.8148 300.024 35.2178 312.113 40.1544C312.315 40.2551 312.617 40.3559 312.818 40.4566C312.818 40.1544 312.818 39.9529 312.818 39.6507C312.617 39.5499 312.516 39.5499 312.315 39.4492C300.124 34.5126 287.33 34.1096 275.542 37.4342C275.542 37.6357 275.643 37.938 275.643 38.1395Z" fill="white"/>
<path d="M430.289 79.5463C429.282 79.7478 426.763 82.9717 424.647 86.9008C420.819 86.0949 416.991 85.9941 413.162 86.2964C412.054 82.468 410.442 78.6396 408.629 78.0351C404.8 76.9269 395.129 81.5613 394.121 82.9717C393.517 83.8784 394.02 88.009 395.431 92.4419C392.308 94.4568 389.386 96.9755 386.867 99.8972C383.341 97.983 379.513 96.371 377.8 97.2777C374.274 99.1919 370.748 109.367 371.05 110.979C371.252 111.987 374.375 114.505 378.405 116.621C377.498 120.449 377.196 124.379 377.397 128.207C373.77 129.315 370.143 130.826 369.539 132.64C368.431 136.468 373.065 146.14 374.476 147.147C375.281 147.651 379.009 147.349 383.039 146.14C385.155 149.565 387.774 152.789 390.897 155.509C389.285 158.733 387.976 161.957 388.882 163.569C390.796 167.095 400.972 170.621 402.584 170.319C403.491 170.118 405.606 167.599 407.52 164.174C411.752 165.181 415.983 165.483 420.114 165.181C421.222 168.405 422.532 171.327 424.144 171.83C427.972 172.938 437.644 168.304 438.651 166.894C439.155 166.088 438.853 162.965 437.845 159.237C441.472 157.02 444.696 154.099 447.416 150.774C450.438 152.285 453.461 153.394 454.972 152.588C458.498 150.673 462.024 140.498 461.722 138.886C461.521 137.979 459.002 135.864 455.476 133.95C456.383 129.819 456.483 125.588 456.08 121.457C459.506 120.349 462.629 118.938 463.133 117.226C464.241 113.397 459.606 103.726 458.196 102.718C457.39 102.114 453.662 102.517 449.632 103.826C447.416 100.502 444.696 97.58 441.573 95.0613C443.386 91.7367 444.797 88.1098 443.89 86.4979C442.177 82.871 432.002 79.2441 430.289 79.5463ZM432.808 133.547C428.476 142.311 417.897 145.938 409.132 141.606C400.367 137.274 396.741 126.696 401.073 117.931C405.405 109.166 415.983 105.539 424.748 109.871C433.513 114.203 437.039 124.782 432.808 133.547Z" fill="#BBE7D7"/>
<path d="M441.673 129.114C441.27 131.733 440.464 134.252 439.356 136.67C436.334 142.714 431.196 147.248 424.748 149.464C418.3 151.681 411.449 151.177 405.405 148.256C399.36 145.233 394.826 140.095 392.61 133.647C390.393 127.199 390.897 120.349 393.819 114.304C396.841 108.259 401.979 103.726 408.427 101.509C414.875 99.2927 421.726 99.7964 427.77 102.718C433.815 105.74 438.349 110.879 440.565 117.326C441.976 121.155 442.278 125.185 441.673 129.114ZM392.207 121.961C391.602 125.789 392.005 129.718 393.315 133.446C395.431 139.692 399.864 144.729 405.707 147.651C411.651 150.573 418.3 150.976 424.546 148.86C430.793 146.744 435.83 142.311 438.651 136.468C441.573 130.524 441.976 123.875 439.86 117.629C437.744 111.382 433.311 106.345 427.468 103.423C421.524 100.502 414.875 100.099 408.628 102.214C402.382 104.33 397.345 108.763 394.423 114.606C393.416 116.923 392.61 119.442 392.207 121.961Z" fill="white"/>
<path d="M425.856 90.2255C425.756 90.3262 425.655 90.5277 425.554 90.6285C428.073 91.233 430.491 92.1397 432.909 93.3486C450.741 102.114 458.095 123.774 449.33 141.606C443.588 153.293 432.304 160.446 420.215 161.554C420.215 161.756 420.114 161.856 420.114 162.058C432.405 160.95 443.991 153.696 449.834 141.808C458.7 123.774 451.244 101.811 433.211 92.8449C430.793 91.7367 428.375 90.83 425.856 90.2255Z" fill="white"/>
<path d="M381.729 132.841C380.218 125.285 381.024 117.125 384.651 109.67C384.752 109.569 384.852 109.367 384.852 109.267C384.651 109.267 384.55 109.267 384.349 109.166C384.349 109.267 384.248 109.367 384.147 109.468C380.419 117.024 379.614 125.185 381.125 132.841C381.427 132.841 381.528 132.841 381.729 132.841Z" fill="white"/>
<path d="M404.296 64.7366C400.166 82.7702 442.58 85.0874 460.11 85.2889C464.946 85.3896 469.781 84.8859 474.517 83.8784C489.326 80.856 521.666 72.9978 517.132 62.3186C511.289 48.5164 493.658 58.0873 493.658 58.0873C493.658 58.0873 495.875 47.6096 465.953 40.7589C436.031 33.9081 436.132 56.8783 436.132 56.8783C436.132 56.8783 409.434 42.0686 404.296 64.7366Z" fill="#DCE6FF"/>
<path d="M274.736 103.625H103.064C103.064 103.625 93.7953 91.8374 103.064 83.8784C108.202 79.5463 114.247 79.9493 118.68 81.259C121.501 82.065 124.422 80.1508 125.027 77.2292C126.034 72.3933 129.258 66.0463 138.527 62.3187C147.594 58.591 153.337 64.2328 156.661 70.0761C157.769 71.9903 160.691 71.6881 161.296 69.5724C164.217 60.4045 174.191 48.3149 207.236 48.3149C249.147 48.3149 244.512 70.5799 240.785 79.8486C240.18 81.4605 241.49 83.1732 243.203 82.7702C249.65 81.3598 261.639 79.5463 267.08 83.7777C274.736 89.9232 274.736 103.625 274.736 103.625Z" fill="#DCE6FF"/>
<path d="M134.194 147.651C134.194 147.651 131.575 70.0761 78.0785 50.5313C13.7014 124.177 86.2389 187.345 86.2389 187.345L134.194 147.651Z" fill="#5887FF"/>
<path d="M78.079 50.5313C77.8775 50.8335 77.676 51.035 77.3737 51.3373L103.266 139.088L51.3811 115.311C51.3811 115.916 51.3811 116.621 51.4818 117.226L103.87 141.304L111.325 166.591L112.736 165.382L97.8253 114.908L118.982 89.5202C118.68 89.0165 118.378 88.412 118.176 87.9083L97.2208 112.994L78.9857 51.035C78.7842 50.8335 78.4819 50.632 78.079 50.5313Z" fill="white"/>
<path d="M109.411 138.483C109.411 138.483 59.0376 79.7478 5.7426 91.3337C-13.3993 153.998 53.1943 185.935 53.1943 185.935L120.795 189.562L109.411 138.483Z" fill="#13CA88"/>
<path d="M65.082 102.819L60.7499 136.871L7.05192 91.0314C6.64893 91.1322 6.24594 91.2329 5.74221 91.2329C5.64146 91.4344 5.64146 91.7366 5.54072 91.9381L34.3543 116.52L2.82056 121.054C2.82056 121.356 2.92131 121.658 2.92131 121.961L3.02205 122.767L36.0669 118.032L84.0223 158.935L28.9139 168.606C29.4177 169.11 30.0222 169.614 30.5259 170.017L85.735 160.244L119.787 189.259L120.896 189.36L120.493 187.748L62.2611 138.08L66.6939 103.625C66.1902 103.423 65.5857 103.121 65.082 102.819Z" fill="white"/>
<path d="M102.863 174.953C102.863 174.953 40.1985 159.338 15.1125 194.8C49.7694 276.305 155.956 238.021 155.956 238.021L102.863 174.953Z" fill="#424A65"/>
<g opacity="0.3">
<path d="M15.1121 194.8C15.2128 195.103 15.4143 195.405 15.515 195.707L101.754 210.215L66.2913 241.95C66.8958 242.151 67.601 242.353 68.2055 242.554L103.971 210.618L137.721 216.259L136.008 214.245L70.422 203.162L49.2652 173.744C48.6607 173.845 48.0562 174.047 47.4517 174.147L68.004 202.759L15.7165 193.994C15.515 194.297 15.3136 194.599 15.1121 194.8Z" fill="#13CA88"/>
</g>
<path d="M471.192 147.651C471.192 147.651 473.811 70.0761 527.308 50.5313C591.685 124.177 519.147 187.345 519.147 187.345L471.192 147.651Z" fill="#5887FF"/>
<path d="M527.308 50.5313C527.509 50.8335 527.711 51.035 528.013 51.3372L502.121 139.088L554.006 115.311C554.006 115.916 554.006 116.621 553.905 117.226L501.517 141.304L494.061 166.591L492.651 165.382L507.561 114.908L486.405 89.5202C486.707 89.0165 487.009 88.412 487.211 87.9083L508.166 112.994L526.401 51.035C526.602 50.8335 526.905 50.632 527.308 50.5313Z" fill="white"/>
<path d="M495.875 138.483C495.875 138.483 546.248 79.7478 599.543 91.3337C618.685 153.998 552.091 185.935 552.091 185.935L484.49 189.562L495.875 138.483Z" fill="#13CA88"/>
<path d="M540.304 102.819L544.636 136.871L598.334 91.0314C598.737 91.1322 599.14 91.2329 599.644 91.2329C599.745 91.4344 599.745 91.7367 599.845 91.9381L571.032 116.52L602.565 121.054C602.565 121.356 602.465 121.658 602.465 121.961L602.364 122.767L569.319 118.032L521.364 158.935L576.472 168.606C575.968 169.11 575.364 169.614 574.86 170.017L519.651 160.244L485.599 189.461L484.49 189.562L484.893 187.95L543.125 138.282L538.692 103.826C539.196 103.423 539.7 103.121 540.304 102.819Z" fill="white"/>
<path d="M502.524 174.953C502.524 174.953 565.189 159.338 590.275 194.8C555.517 276.405 449.33 238.021 449.33 238.021L502.524 174.953Z" fill="#424A65"/>
<g opacity="0.3">
<path d="M590.174 194.8C590.073 195.103 589.872 195.405 589.771 195.707L503.532 210.215L538.995 241.95C538.39 242.151 537.685 242.353 537.081 242.554L501.316 210.618L467.565 216.259L469.278 214.245L534.864 203.162L556.021 173.744C556.625 173.845 557.23 174.047 557.834 174.147L537.282 202.759L589.57 193.994C589.872 194.297 589.973 194.599 590.174 194.8Z" fill="#13CA88"/>
</g>
<path d="M588.864 25.0424L591.484 32.7999L584.129 29.8782L559.245 17.7887L588.864 25.0424Z" fill="#82A5FF"/>
<path d="M591.483 32.7999L578.689 30.0797L582.013 28.8708L591.483 32.7999Z" fill="#DCE6FF"/>
<path d="M588.864 25.0424L592.189 18.4939L559.245 17.7887L588.864 25.0424Z" fill="white"/>
<path d="M559.245 17.7887L584.129 29.8783L578.789 39.3484L559.245 17.7887Z" fill="white"/>
<path d="M587.554 39.5499C587.655 39.5499 587.655 39.4492 587.756 39.4492C588.058 39.2477 588.058 38.8447 587.857 38.5425C587.151 37.7365 586.345 36.9305 585.539 36.326C585.237 36.1246 584.935 36.1246 584.633 36.4268C584.431 36.729 584.431 37.0313 584.733 37.3335C585.539 37.938 586.245 38.6432 586.849 39.4492C587.051 39.5499 587.353 39.5499 587.554 39.5499Z" fill="#5887FF"/>
<path d="M568.312 104.733C568.211 104.431 568.312 104.028 568.614 103.927C570.427 103.222 572.14 102.114 573.651 100.703C573.953 100.502 574.256 100.502 574.558 100.703C574.759 101.005 574.759 101.308 574.558 101.61C572.845 103.121 571.032 104.229 569.118 105.035C568.715 105.237 568.412 105.035 568.312 104.733ZM576.271 98.9904C575.968 98.789 575.968 98.386 576.17 98.0837C577.379 96.4718 578.386 94.7591 579.192 92.8449C579.293 92.5427 579.696 92.3412 579.998 92.5427C580.3 92.6434 580.502 93.0464 580.3 93.3486C579.494 95.3636 578.386 97.177 577.076 98.8897C576.976 98.9905 576.875 99.0912 576.774 99.0912C576.673 99.0912 576.371 99.0912 576.271 98.9904ZM580.703 90.1248C580.401 90.024 580.2 89.7218 580.2 89.4195L580.3 89.1173C580.703 87.3038 580.804 85.2889 580.804 83.3747C580.804 83.0725 581.106 82.7702 581.409 82.7702C581.711 82.7702 582.013 83.0725 582.013 83.3747C582.013 85.4904 581.812 87.5053 581.409 89.4195L581.308 89.7218C581.308 89.9233 581.106 90.1248 580.905 90.1248C580.905 90.1248 580.804 90.1248 580.703 90.1248ZM581.308 80.2516C581.006 80.2516 580.703 80.0501 580.603 79.7478C580.401 77.8337 579.998 75.8187 579.494 73.7031C579.394 73.4008 579.595 72.9978 579.897 72.9978C580.2 72.8971 580.603 73.0986 580.603 73.4008C581.106 75.5165 581.509 77.6322 581.812 79.6471C581.812 79.9493 581.711 80.2516 581.409 80.2516H581.308ZM579.192 70.4792C578.89 70.5799 578.487 70.3784 578.386 70.0762C578.285 69.8747 578.285 69.7739 578.185 69.5724C577.479 69.7739 576.774 69.8747 576.069 69.9754C575.767 69.9754 575.465 69.7739 575.364 69.4717C575.364 69.1694 575.565 68.8672 575.867 68.7665C576.472 68.6657 577.077 68.565 577.681 68.4642C577.177 67.1545 576.674 65.8448 576.17 64.3336C576.069 64.0314 576.17 63.6284 576.472 63.5276C576.774 63.4269 577.177 63.5276 577.278 63.8299C577.882 65.3411 578.386 66.7515 578.89 68.162C579.797 67.8597 580.804 67.5575 581.61 67.1545C581.912 67.0538 582.315 67.1545 582.416 67.4568C582.517 67.759 582.416 68.162 582.114 68.2627C581.207 68.6657 580.2 69.0687 579.192 69.3709C579.192 69.4717 579.293 69.6732 579.293 69.7739C579.696 70.0762 579.595 70.3784 579.192 70.4792ZM584.834 66.0463C584.632 65.7441 584.632 65.3411 584.935 65.1396C585.942 64.3336 586.849 63.5276 587.554 62.6209C588.058 62.0164 588.461 61.412 588.864 60.7067C589.065 60.4045 589.368 60.3037 589.67 60.5052C589.972 60.7067 590.073 61.009 589.871 61.3112C589.468 62.0164 588.965 62.7217 588.461 63.3261C587.655 64.3336 586.647 65.2403 585.64 66.0463C585.539 66.0463 585.539 66.1471 585.438 66.1471C585.237 66.3485 584.935 66.2478 584.834 66.0463ZM572.341 70.0762C570.125 69.9754 568.009 69.4717 566.095 68.6657C565.793 68.565 565.591 68.162 565.793 67.8597C565.894 67.5575 566.297 67.356 566.599 67.5575C568.412 68.3635 570.427 68.7665 572.442 68.8672C572.744 68.8672 573.047 69.1694 573.047 69.4717C573.047 69.7739 572.845 69.9754 572.644 69.9754C572.543 70.0762 572.442 70.0762 572.341 70.0762ZM590.778 58.2888C590.476 58.1881 590.274 57.7851 590.375 57.4828C590.98 55.5687 591.282 53.6545 591.282 51.5388C591.282 51.2366 591.584 50.9343 591.886 50.9343C592.188 50.9343 592.491 51.2366 592.491 51.5388C592.491 53.7552 592.188 55.8709 591.483 57.8858C591.382 58.0873 591.282 58.1881 591.08 58.2888C590.98 58.2888 590.879 58.2888 590.778 58.2888ZM562.77 66.8523C562.267 66.55 561.864 66.1471 561.461 65.8448C560.252 64.8373 559.244 63.4269 558.539 62.0164C558.338 61.7142 558.539 61.3112 558.841 61.2105C559.144 61.009 559.547 61.2105 559.647 61.5127C560.353 62.8224 561.259 64.0314 562.367 64.9381C562.77 65.2403 563.173 65.6433 563.576 65.9456C563.879 66.147 563.879 66.55 563.677 66.8523C563.576 66.953 563.476 67.0538 563.375 67.0538C563.173 66.953 562.972 66.953 562.77 66.8523ZM574.86 60.9082C573.853 58.6918 572.845 57.0799 571.737 55.6694C571.535 55.3672 571.535 55.0649 571.838 54.7627C572.14 54.5612 572.442 54.5612 572.744 54.8634C573.953 56.2739 574.961 57.9866 575.968 60.3037C576.069 60.606 575.968 61.009 575.666 61.1097C575.666 61.1097 575.666 61.1097 575.565 61.1097C575.364 61.3112 575.062 61.2105 574.86 60.9082ZM591.685 48.4156C591.382 48.5164 590.979 48.2141 590.979 47.9119C590.778 47.0052 590.577 46.0985 590.274 45.2925C589.972 44.285 589.468 43.2776 588.965 42.2701C588.763 41.9679 588.864 41.5649 589.166 41.4641C589.468 41.2626 589.871 41.3634 589.972 41.6656C590.476 42.6731 590.98 43.7813 591.383 44.8895C591.685 45.7962 591.987 46.8037 592.088 47.7104C592.188 48.0127 592.088 48.3149 591.685 48.4156ZM558.035 58.7925C557.733 58.7925 557.431 58.5911 557.33 58.2888C557.129 56.4754 557.532 54.8634 558.539 53.453C558.942 52.9492 559.345 52.5463 559.748 52.1433C560.05 51.9418 560.453 51.9418 560.655 52.244C560.856 52.5463 560.856 52.9492 560.554 53.1507C560.151 53.453 559.849 53.7552 559.547 54.1582C558.741 55.2664 558.438 56.5761 558.539 58.0873C558.539 58.3896 558.438 58.6918 558.136 58.6918C558.136 58.7925 558.035 58.7925 558.035 58.7925ZM569.218 53.2515C567.606 52.244 565.591 51.7403 563.677 51.9418C563.375 51.9418 563.073 51.7403 562.972 51.438C562.972 51.1358 563.173 50.8336 563.476 50.7328C565.692 50.5313 568.009 51.0351 569.823 52.244C570.125 52.4455 570.226 52.8485 570.024 53.05C569.923 53.1507 569.823 53.2515 569.722 53.2515C569.621 53.453 569.42 53.453 569.218 53.2515Z" fill="#5887FF"/>
<path d="M565.39 106.143C565.692 106.043 565.793 105.74 565.793 105.438C565.793 105.136 565.39 104.834 565.088 104.934C564.08 105.035 563.173 105.035 562.166 105.035C561.864 105.035 561.561 105.237 561.461 105.64C561.461 105.942 561.662 106.244 562.065 106.345C563.173 106.446 564.181 106.446 565.289 106.244C565.289 106.143 565.39 106.143 565.39 106.143Z" fill="#5887FF"/>
<path d="M71.6309 95.162H271.915L322.288 239.028H117.874L71.6309 95.162Z" fill="#82A5FF"/>
<path d="M80.1943 99.9979H266.777L313.725 234.092H123.213L80.1943 99.9979Z" fill="#424A65"/>
<path d="M375.382 245.98H120.191C117.471 245.98 115.254 243.763 115.254 241.043V237.92C115.254 235.2 117.471 232.983 120.191 232.983H375.382C378.102 232.983 380.319 235.2 380.319 237.92V241.043C380.419 243.763 378.203 245.98 375.382 245.98Z" fill="#5887FF"/>
<path d="M207.74 245.98H118.277C116.665 245.98 115.254 244.67 115.254 242.957V235.905C115.254 234.293 116.564 232.883 118.277 232.883H207.74C210.661 232.883 213.079 235.301 213.079 238.222V240.64C213.079 243.562 210.661 245.98 207.74 245.98Z" fill="#82A5FF"/>
<path d="M301.434 241.144C302.491 241.144 303.348 240.287 303.348 239.23C303.348 238.173 302.491 237.316 301.434 237.316C300.377 237.316 299.52 238.173 299.52 239.23C299.52 240.287 300.377 241.144 301.434 241.144Z" fill="#3F71F1"/>
<path d="M289.949 241.144C291.006 241.144 291.863 240.287 291.863 239.23C291.863 238.173 291.006 237.316 289.949 237.316C288.892 237.316 288.035 238.173 288.035 239.23C288.035 240.287 288.892 241.144 289.949 241.144Z" fill="#3F71F1"/>
<path d="M184.568 241.245H173.184C171.975 241.245 170.967 240.237 170.967 239.028C170.967 237.819 171.975 236.812 173.184 236.812H184.568C185.777 236.812 186.785 237.819 186.785 239.028C186.785 240.237 185.777 241.245 184.568 241.245Z" fill="#3F71F1"/>
<path d="M164.116 241.245H152.732C151.523 241.245 150.516 240.237 150.516 239.028C150.516 237.819 151.523 236.812 152.732 236.812H164.116C165.325 236.812 166.333 237.819 166.333 239.028C166.434 240.237 165.426 241.245 164.116 241.245Z" fill="#3F71F1"/>
<path d="M502.524 62.0164C511.088 62.0164 517.938 69.3709 517.938 78.3373V230.666C517.938 239.633 510.987 246.987 502.524 246.987H448.121C439.558 246.987 432.707 239.633 432.707 230.666V78.3373C432.707 69.3709 439.658 62.0164 448.121 62.0164H502.524Z" fill="#C9CDE0"/>
<path d="M493.256 62.0164C501.819 62.0164 508.67 69.3709 508.67 78.3374V230.666C508.67 239.633 501.718 246.987 493.256 246.987H438.852C430.289 246.987 423.438 239.633 423.438 230.666V78.3374C423.438 69.3709 430.39 62.0164 438.852 62.0164H493.256Z" fill="#DFE2EF"/>
<path d="M494.968 64.938C503.028 64.938 506.252 71.8896 506.252 80.3523V228.651C506.252 237.215 502.927 244.066 494.968 244.066H438.147C430.087 244.066 425.755 238.222 425.755 229.76V79.2441C425.755 70.6806 430.087 64.938 438.147 64.938H494.968Z" fill="white"/>
<path d="M503.129 87.2031H428.878V220.995H503.129V87.2031Z" fill="#424A65"/>
<path d="M480.763 77.2292C480.964 77.2292 481.065 76.9269 481.065 76.6247C481.065 76.3224 480.964 76.0202 480.763 76.0202H451.849C451.647 76.0202 451.546 76.3224 451.546 76.6247C451.546 76.9269 451.647 77.2292 451.849 77.2292H480.763Z" fill="#A2A8BE"/>
<path d="M466.659 238.323C469.886 238.323 472.502 235.707 472.502 232.48C472.502 229.253 469.886 226.636 466.659 226.636C463.431 226.636 460.815 229.253 460.815 232.48C460.815 235.707 463.431 238.323 466.659 238.323Z" fill="#DFE2EF"/>
<path d="M250.255 196.815L312.113 142.211H419.61V190.368L406.21 191.274L394.927 196.009L331.658 233.689L315.236 243.663C313.121 245.577 309.393 244.368 307.68 242.353L305.968 240.439C304.255 238.524 304.255 235.704 306.471 233.789L320.677 221.398L318.863 219.383L299.822 235.905C296.8 238.625 292.77 238.121 290.352 235.301L287.934 232.58C285.516 229.76 285.516 225.73 288.639 223.11L307.479 206.689L305.867 204.875L281.184 226.536C277.859 229.457 273.426 228.954 270.807 225.83L268.188 222.808C265.568 219.786 265.568 215.353 268.994 212.431L293.676 190.972L291.762 188.856L264.258 212.834C260.833 215.856 256.098 215.05 253.076 211.625L250.154 208.2C246.93 204.674 246.728 199.838 250.255 196.815Z" fill="#F8B68F"/>
<path d="M233.229 200.241L235.445 147.349H261.438L304.859 132.64C304.859 132.64 359.061 132.136 360.069 132.64C360.069 132.64 360.774 137.677 360.774 140.196L359.867 144.729C356.24 151.479 350.699 152.991 346.065 152.991L313.624 152.588C311.71 152.588 303.852 151.882 302.441 150.774L247.736 200.341H233.229V200.241Z" fill="#F4A086"/>
<path d="M349.39 228.047C351.404 230.969 355.837 231.472 359.162 229.155C362.487 226.838 363.494 222.607 361.479 219.685L354.225 209.308C352.21 206.386 348.181 206.386 344.856 208.704C341.531 211.021 340.121 214.748 342.136 217.67L349.39 228.047Z" fill="#F4A086"/>
<path d="M363.594 217.67C366.012 221.196 370.747 222.103 374.072 219.786C377.397 217.468 378.102 212.733 375.684 209.308L367.121 197.017C364.703 193.491 360.471 193.189 357.147 195.506C353.822 197.823 352.613 201.853 355.031 205.379L363.594 217.67Z" fill="#F4A086"/>
<path d="M378.908 208.603C381.024 211.424 385.457 211.726 388.681 209.308C391.904 206.89 392.811 202.558 390.595 199.737L382.938 189.662C380.822 186.841 376.792 187.043 373.569 189.461C370.345 191.879 369.035 195.707 371.251 198.528L378.908 208.603Z" fill="#F4A086"/>
<path d="M335.99 236.51C337.703 238.928 341.229 239.33 344.05 237.416C346.77 235.502 347.677 231.976 345.964 229.558L340.02 220.995C338.307 218.577 335.083 218.577 332.263 220.491C329.542 222.405 328.333 225.427 330.046 227.845L335.99 236.51Z" fill="#F4A086"/>
<path d="M123.415 99.5949L79.187 98.9904L84.5266 125.084C88.1535 126.998 91.3774 129.718 93.9968 133.144C94.6012 133.95 95.3065 134.755 96.0117 135.461C98.7319 138.382 101.15 142.513 102.762 145.737C103.668 147.55 103.971 149.162 104.676 151.379C105.381 153.696 106.086 155.106 106.288 157.121C106.288 157.524 106.389 158.028 106.389 158.431L145.982 169.715L237.661 205.177L256.803 146.241L123.415 99.5949Z" fill="#82A5FF"/>
<path d="M86.6421 120.248L98.228 156.315L237.661 205.58L247.131 176.364L86.6421 120.248Z" fill="#5887FF"/>
<path d="M234.538 138.282L214.49 199.032L237.762 206.286L257.912 145.535L234.538 138.282Z" fill="#DCE6FF"/>
<path d="M231.113 187.849C229.098 187.144 226.881 188.252 226.176 190.368C225.471 192.383 226.68 194.599 228.695 195.304C230.71 196.009 232.926 194.901 233.631 192.786C234.236 190.771 233.128 188.554 231.113 187.849Z" fill="#424A65"/>
<path d="M503.733 102.013L383.946 141.908L403.087 200.845L495.774 170.722L503.733 156.718V102.013Z" fill="#13CA88"/>
<path d="M503.733 137.073C473.509 146.241 393.718 172.032 393.718 172.032L403.188 201.148L503.733 168.506V137.073Z" fill="#08AC71"/>
<path d="M406.311 133.95L425.453 194.599L403.087 201.853L384.046 141.203L406.311 133.95Z" fill="#E2FFF5"/>
<path d="M149.508 37.132L128.25 25.3447L117.269 23.1282L109.109 24.3372L149.508 37.132Z" fill="white"/>
<path d="M149.508 37.132L109.612 26.8559L109.109 24.3372" fill="#DCE6FF"/>
<path d="M108.403 33.7066L108.504 33.8074L110.217 39.9529L149.407 37.132L108.403 33.7066Z" fill="#82A5FF"/>
<path d="M100.847 30.0797L106.489 25.4454L149.307 37.0312L112.433 35.923L100.847 30.0797Z" fill="white"/>
<path d="M10.9813 109.166C12.291 108.662 13.6007 108.158 14.8096 107.453C15.1119 107.352 15.4141 107.453 15.6156 107.655C15.7163 107.957 15.6156 108.259 15.4141 108.461C14.1044 109.166 12.7947 109.67 11.3842 110.173C10.8805 110.375 10.3768 110.476 9.87304 110.677C9.67154 110.778 9.47005 110.677 9.3693 110.576C9.26856 110.476 9.16781 110.375 9.16781 110.274C9.06706 109.972 9.26856 109.67 9.5708 109.569C10.0745 109.468 10.4775 109.367 10.9813 109.166Z" fill="#5887FF"/>
<path d="M89.1608 25.7476C90.9742 25.9491 92.8884 26.2513 94.9033 26.6543C95.2056 26.7551 95.4071 27.0573 95.4071 27.3596C95.3063 27.6618 95.0041 27.8633 94.7018 27.8633C92.6869 27.4603 90.7727 27.1581 88.9593 26.9566C88.8585 26.9566 88.7578 26.8558 88.657 26.8558C88.4555 26.7551 88.3548 26.5536 88.4555 26.3521C88.5563 25.9491 88.8585 25.6469 89.1608 25.7476Z" fill="#5887FF"/>
<path d="M79.4891 26.1506C79.3883 26.0499 79.2876 25.8484 79.2876 25.6469C79.2876 25.3446 79.5898 25.0424 79.8921 25.0424C81.7055 25.0424 83.7205 25.1431 85.7354 25.2439C86.0376 25.2439 86.3399 25.5461 86.2391 25.8484C86.2391 26.1506 85.9369 26.4528 85.6346 26.3521C83.6197 26.1506 81.7055 26.1506 79.8921 26.1506C79.6906 26.2513 79.5898 26.2513 79.4891 26.1506Z" fill="#5887FF"/>
<path d="M22.1643 102.214C22.3658 102.013 22.7688 102.013 22.9703 102.214C23.1718 102.416 23.1718 102.819 22.9703 103.02C21.5598 104.431 20.0486 105.64 18.4367 106.748C18.2352 106.849 17.9329 106.849 17.7315 106.748C17.6307 106.748 17.6307 106.647 17.6307 106.647C17.4292 106.345 17.53 106.043 17.8322 105.841C19.3434 104.733 20.8546 103.524 22.1643 102.214Z" fill="#5887FF"/>
<path d="M24.5822 100.502C24.3807 100.3 24.2799 99.8972 24.4814 99.6957C24.7837 99.2927 25.0859 98.8897 25.3881 98.4867C26.1941 97.3785 27.0001 96.1695 27.6046 94.9606C27.8061 94.6583 28.1083 94.5576 28.4105 94.7591C28.7128 94.9606 28.8135 95.2628 28.612 95.565C27.9068 96.774 27.2016 97.983 26.2949 99.1919C25.9926 99.5949 25.6904 99.9979 25.2874 100.502C25.1866 100.602 24.8844 100.703 24.5822 100.502Z" fill="#5887FF"/>
<path d="M29.4182 92.6434C29.4182 92.6434 29.3174 92.6434 29.3174 92.5426C29.1159 92.3411 29.0152 92.1396 29.1159 91.8374C29.8212 90.1247 30.4256 88.412 30.9294 86.3971C31.0301 86.0948 31.3324 85.8933 31.6346 85.9941C31.9368 86.0948 32.1383 86.3971 32.0376 86.6993C31.5339 88.7142 30.9294 90.5277 30.2242 92.2404C30.1234 92.6434 29.7204 92.7441 29.4182 92.6434Z" fill="#5887FF"/>
<path d="M44.8324 43.0761C44.3287 43.6805 43.9257 44.285 43.4219 44.8895C42.7167 45.7962 42.1122 46.8037 41.5078 47.7104C41.3063 48.0126 41.004 48.1134 40.7018 47.9119C40.5003 47.7104 40.3995 47.4082 40.601 47.1059C41.2055 46.0985 41.9107 45.091 42.616 44.1843C43.1197 43.5798 43.5227 42.9753 44.0264 42.3708C44.2279 42.1693 44.5302 42.0686 44.8324 42.2701C45.0339 42.4716 45.0339 42.8746 44.8324 43.0761Z" fill="#5887FF"/>
<path d="M39.7948 50.7328C38.8881 52.4455 38.1829 54.1582 37.4777 55.9716C37.3769 56.2739 37.0747 56.4754 36.7724 56.2739C36.6717 56.2739 36.6717 56.2739 36.6717 56.1731C36.4702 56.0724 36.3694 55.7701 36.4702 55.4679C37.1754 53.6544 37.8806 51.841 38.7874 50.1283C38.8881 49.8261 39.2911 49.7253 39.5933 49.9268C39.7948 50.1283 39.8956 50.4306 39.7948 50.7328Z" fill="#5887FF"/>
<path d="M51.2799 36.6282C49.7687 37.8372 48.3583 39.1469 47.0486 40.5574C46.8471 40.7589 46.5448 40.7589 46.2426 40.6581C46.2426 40.6581 46.2426 40.6581 46.1418 40.6581C45.9403 40.4566 45.9403 40.0536 46.1418 39.8521C47.4515 38.4417 48.9627 37.132 50.4739 35.8223C50.6754 35.6208 51.0784 35.6208 51.2799 35.923C51.5822 36.1245 51.5822 36.4267 51.2799 36.6282Z" fill="#5887FF"/>
<path d="M62.0598 30.0797C61.8583 30.1805 61.6568 30.1805 61.4553 29.979C61.3546 29.8782 61.3546 29.8782 61.2538 29.7775C61.1531 29.4753 61.2538 29.173 61.5561 28.9715C63.3695 28.1656 65.183 27.4603 67.0971 26.9566C67.3994 26.8558 67.7016 27.0573 67.8024 27.3596C67.9031 27.6618 67.7016 27.9641 67.3994 28.0648C65.5859 28.5685 63.7725 29.2738 62.0598 30.0797Z" fill="#5887FF"/>
<path d="M33.4476 74.6097C33.3468 74.6097 33.2461 74.509 33.1453 74.509C32.9438 74.4082 32.8431 74.2067 32.9438 74.0052L33.0446 73.3C33.2461 71.5873 33.4476 69.9754 33.6491 68.2627C33.6491 67.9605 33.9513 67.759 34.2535 67.759C34.5558 67.759 34.7573 68.0612 34.7573 68.3634C34.5558 70.0761 34.3543 71.6881 34.1528 73.4008L34.052 74.106C34.052 74.4082 33.7498 74.6097 33.4476 74.6097Z" fill="#5887FF"/>
<path d="M54.1009 34.6133C53.8994 34.7141 53.5971 34.7141 53.3956 34.6133L53.2949 34.5126C53.0934 34.2103 53.1941 33.9081 53.3956 33.7066C55.0076 32.5984 56.7203 31.4902 58.433 30.5835C58.7352 30.4827 59.0374 30.5835 59.2389 30.7849C59.3397 31.0872 59.2389 31.3894 59.0374 31.5909C57.224 32.4976 55.6121 33.5051 54.1009 34.6133Z" fill="#5887FF"/>
<path d="M33.1457 76.8262C33.4479 76.8262 33.6494 77.1284 33.6494 77.4306C33.3472 79.6471 33.0449 81.5612 32.7427 83.1732C32.642 83.4754 32.3397 83.6769 32.0375 83.6769C31.9367 83.6769 31.836 83.5762 31.836 83.5762C31.6345 83.4754 31.5337 83.2739 31.6345 82.9717C31.9367 81.3598 32.239 79.5463 32.5412 77.2291C32.5412 77.0277 32.8435 76.8262 33.1457 76.8262Z" fill="#5887FF"/>
<path d="M6.24629 110.476C6.54853 110.375 6.85077 110.576 6.95152 110.979C7.05227 111.282 6.85077 111.584 6.44779 111.684C4.63435 112.087 2.72016 112.289 0.604478 112.39C0.503732 112.39 0.302241 112.39 0.201494 112.289C0.100747 112.188 0 112.087 0 111.886C0 111.584 0.201493 111.282 0.503733 111.282C2.61941 111.08 4.43285 110.778 6.24629 110.476Z" fill="#5887FF"/>
<path d="M36.0675 58.591C36.3697 58.6918 36.5712 58.994 36.4705 59.2963C35.9667 61.0089 35.6645 62.8224 35.2615 64.9381C35.1608 65.2403 34.9593 65.4418 34.5563 65.4418C34.4555 65.4418 34.3548 65.341 34.3548 65.341C34.1533 65.2403 34.0525 65.0388 34.1533 64.7366C34.5563 62.6209 34.8585 60.7067 35.3622 58.994C35.463 58.6918 35.7652 58.4903 36.0675 58.591Z" fill="#5887FF"/>
<path d="M74.2504 25.4454C74.9556 25.3446 75.5601 25.3446 76.2653 25.2439C76.5676 25.2439 76.8698 25.4454 76.8698 25.7476C76.8698 26.0498 76.6683 26.3521 76.3661 26.3521C75.6609 26.3521 75.0564 26.4528 74.3511 26.5536C73.1422 26.6543 71.9332 26.8558 70.6235 27.1581C70.422 27.1581 70.3213 27.1581 70.1198 27.0573C70.019 26.9566 69.9183 26.8558 69.9183 26.7551C69.8176 26.4528 70.019 26.1506 70.3213 26.0498C71.7317 25.8483 73.0414 25.6469 74.2504 25.4454Z" fill="#5887FF"/>
<path d="M84.2243 258.875C84.2243 258.875 85.131 260.084 89.2616 261.193C90.1684 261.394 91.1758 261.596 91.1758 263.107C89.2617 263.107 87.0452 263.107 87.0452 263.107L82.8139 262.401V263.107H80.4967C80.4967 263.107 79.8922 259.379 81.2019 258.875C82.5116 258.875 84.2243 258.875 84.2243 258.875Z" fill="#212B53"/>
<path d="M84.4256 256.155L84.2241 258.875C83.4181 259.48 82.3099 259.48 81.4032 258.976L81.2017 258.875V256.155H84.4256Z" fill="#F8B68F"/>
<path d="M63.0671 259.379C63.0671 259.379 63.9738 260.588 68.1044 261.696C69.0111 261.898 70.0186 262.099 70.0186 263.61C68.1044 263.61 65.888 263.61 65.888 263.61L61.6566 262.905V263.61H59.3395C59.3395 263.61 58.735 259.883 60.0447 259.379C61.3544 259.379 63.0671 259.379 63.0671 259.379Z" fill="#212B53"/>
<path d="M63.2683 256.76L63.0668 259.48C62.2609 260.084 61.1527 260.084 60.2459 259.581L60.0444 259.48V256.76H63.2683Z" fill="#F8B68F"/>
<path d="M86.0373 190.468L85.0298 257.666H80.0933C80.0933 257.666 72.638 203.364 74.25 190.468C75.8619 177.472 86.0373 190.468 86.0373 190.468Z" fill="#00666A"/>
<path d="M80.8993 190.468C80.8993 190.468 79.1866 211.121 75.2575 222.506C71.3284 233.89 64.2761 257.666 64.2761 257.666H59.2388C59.2388 257.666 67.7015 208.099 65.7873 190.468H80.8993Z" fill="#01898C"/>
<path d="M85.3325 156.215C85.3325 156.215 91.3773 170.319 92.8885 170.319C94.0974 170.319 92.3847 158.834 92.3847 158.834H97.4221C97.4221 158.834 103.769 178.58 98.7318 182.106C93.6944 185.733 82.6123 171.931 82.6123 171.931L85.3325 156.215Z" fill="url(#paint0_linear)"/>
<path d="M67.2983 192.181L69.1118 196.715C70.0185 198.528 73.2424 198.528 75.3581 197.924C75.6603 197.823 75.7611 197.42 75.5596 197.218C74.3506 195.909 71.3282 192.584 70.22 191.879L67.2983 192.181Z" fill="#F8B68F"/>
<path d="M80.2946 153.293C82.3096 153.293 84.123 154.3 85.1305 156.013C85.4327 156.618 85.735 157.222 85.735 157.927C85.735 160.345 85.735 190.468 85.735 190.468H67.2983V160.043C67.2983 160.043 67.7013 153.293 74.2499 153.293C77.0708 153.293 79.0857 153.293 80.2946 153.293Z" fill="url(#paint1_linear)"/>
<path d="M85.4329 190.468V161.252H86.0373V190.468H85.4329Z" fill="#93CFC7"/>
<path d="M73.5449 147.047L75.5599 154.502C75.5599 154.502 77.2725 155.912 79.489 155.308C81.7054 154.703 81.3024 153.091 81.3024 153.091L79.9927 148.356H76.4666L73.5449 147.047Z" fill="#F4A086"/>
<path d="M80.5973 149.565C81.3025 149.364 81.907 149.062 82.1085 148.659C83.2167 145.032 78.7839 137.073 78.7839 137.073L71.9331 140.297L73.2428 146.039C73.545 147.55 74.6533 148.86 76.0637 149.464C77.5749 149.968 79.1869 150.069 80.5973 149.565Z" fill="#F8B68F"/>
<path d="M75.3582 139.591C75.3582 139.591 77.8769 139.39 80.2948 138.282C82.7127 137.173 80.3956 134.856 80.3956 134.856C80.3956 134.856 78.7836 136.166 75.3582 136.569C73.0411 136.871 72.3358 136.569 71.1269 137.677C69.4142 139.188 70.8246 142.614 70.8246 142.614L73.847 149.767L74.25 149.666C74.25 149.666 73.1418 145.233 72.7388 143.722C72.9403 142.916 73.4441 142.815 73.847 142.916C74.25 143.017 74.5523 143.319 74.7538 143.823L76.7687 151.479C76.7687 151.479 82.209 152.285 83.418 151.58C84.5262 150.875 82.209 145.435 82.209 145.435C82.209 145.435 80.5971 145.233 79.7911 146.744C78.9851 148.256 77.3732 147.349 77.3732 147.349L75.3582 139.591Z" fill="#212B53"/>
<path d="M96.5153 158.834L96.3138 157.826C95.9108 155.711 93.8959 152.991 91.7802 152.285H89.6646L90.3698 156.92L93.3922 158.834H96.5153Z" fill="#F8B68F"/>
<path d="M73.1417 142.916C73.6455 142.714 74.3507 143.117 74.6529 143.823C74.9552 144.528 74.7537 145.233 74.1492 145.334C73.6455 145.535 72.9402 145.132 72.638 144.427C72.4365 143.722 72.638 143.017 73.1417 142.916Z" fill="#F8B68F"/>
<path d="M91.1756 156.416L95.3062 158.834H92.6868L88.2539 155.106C88.2539 155.106 88.5561 154.502 89.5636 155.006C90.6718 155.509 91.1756 156.416 91.1756 156.416Z" fill="#F8B68F"/>
<path d="M69.3136 155.308C69.3136 155.308 58.8359 166.894 58.8359 173.845C58.8359 180.797 67.2987 193.088 67.2987 193.088L71.53 191.879C71.53 191.879 67.7016 176.666 67.7016 172.636C67.7016 168.606 75.4591 162.662 75.4591 162.662" fill="url(#paint2_linear)"/>
<path d="M68.0039 172.636C68.0039 176.062 71.127 188.856 71.8323 191.778C71.6308 191.879 71.53 191.879 71.2278 191.98C70.3211 188.353 67.3994 176.062 67.3994 172.737C67.3994 168.606 74.9554 162.763 75.2576 162.562L75.6606 163.065C75.5599 162.965 68.0039 168.808 68.0039 172.636Z" fill="#93CFC7"/>
<path d="M88.4553 149.464C88.4553 149.464 88.153 153.998 91.3769 157.222C91.5784 157.423 91.8807 157.524 92.1829 157.524C92.7874 157.524 93.2911 157.222 93.5934 157.121C94.0971 156.92 94.2986 156.617 94.3993 156.416C94.5001 156.214 94.3993 156.013 94.2986 155.811C93.5934 155.006 91.5784 152.386 91.9814 149.767C90.3695 148.759 88.4553 149.464 88.4553 149.464Z" fill="#00666A"/>
<path d="M93.9967 156.92C94.2989 156.718 94.2989 156.617 94.3997 156.416C94.5004 156.215 94.3997 156.013 94.2989 155.812C93.5937 155.006 91.5788 152.386 91.9817 149.767C91.3773 149.364 90.7728 149.263 90.269 149.263C90.5713 152.084 91.3773 153.797 93.9967 156.92Z" fill="#01898C"/>
<path d="M92.2832 153.812C92.5466 153.723 92.5861 153.138 92.3715 152.506C92.1568 151.873 91.7692 151.433 91.5058 151.523C91.2424 151.612 91.2028 152.197 91.4175 152.83C91.6322 153.462 92.0197 153.902 92.2832 153.812Z" fill="#00666A"/>
<path d="M91.377 151.58L91.6788 151.479V151.58L91.4776 151.68L91.377 151.58Z" fill="#F59C42"/>
<path d="M92.1834 153.796L92.4852 153.696H92.0828L92.1834 153.796Z" fill="#E8375E"/>
<path d="M92.4653 153.716C92.7287 153.627 92.7683 153.042 92.5537 152.409C92.3391 151.777 91.9516 151.337 91.6882 151.426C91.4247 151.516 91.3851 152.101 91.5997 152.733C91.8143 153.365 92.2018 153.805 92.4653 153.716Z" fill="#63C1C5"/>
<path d="M86.9442 145.838L86.4405 145.938C85.5338 146.039 84.8285 146.845 84.9293 147.752L85.1308 149.061C85.2315 149.968 86.1382 150.573 87.045 150.472L87.5487 150.371L86.9442 145.838Z" fill="#00666A"/>
<path d="M101.042 151.827C102.035 151.703 102.482 148.737 102.039 145.204C101.596 141.671 100.431 138.908 99.4375 139.032C98.4438 139.157 97.9973 142.122 98.4403 145.655C98.8833 149.189 100.048 151.952 101.042 151.827Z" fill="#212B53"/>
<path d="M98.1271 143.319L99.6383 144.125L99.8398 146.14L98.5301 147.651L97.7241 145.032L98.1271 143.319Z" fill="white"/>
<path d="M98.4294 145.636C98.0265 142.714 98.3287 140.095 99.0339 139.289C93.5936 144.326 86.6421 145.838 86.6421 145.838L87.2466 150.371C87.2466 150.371 96.7167 148.659 100.646 151.681C99.7391 151.076 98.8324 148.659 98.4294 145.636Z" fill="#043C5E"/>
<path d="M99.8585 146.136C99.9689 146.123 100.002 145.664 99.933 145.112C99.8637 144.56 99.718 144.123 99.6076 144.137C99.4972 144.151 99.4639 144.61 99.5331 145.162C99.6024 145.714 99.7481 146.15 99.8585 146.136Z" fill="#FFD247"/>
<path d="M94.198 155.509C94.0973 155.61 93.4928 155.912 91.8808 155.912C90.6719 155.912 90.1682 154.401 89.8659 153.595C89.7652 153.293 89.7652 152.89 90.0674 152.688L91.9816 152.386L94.198 155.509Z" fill="#F8B68F"/>
<path d="M481.972 153.192L481.569 158.834L476.028 159.035L478.245 150.27L481.972 153.192Z" fill="#F4A086"/>
<path d="M484.39 154.2C485.095 154.2 485.7 154.099 486.103 153.797C488.118 150.875 485.8 142.916 485.8 142.916L482.576 141.505L478.446 144.024L478.244 149.364C478.144 150.774 478.849 152.185 480.058 152.991C481.368 153.797 482.879 154.2 484.39 154.2Z" fill="#F8B68F"/>
<path d="M479.05 147.147C479.252 146.241 479.151 144.226 480.058 144.326C480.763 144.427 482.979 144.528 483.785 144.528C485.599 144.528 488.823 143.823 488.823 141.002C488.823 139.591 487.513 138.382 486.606 138.08C485.8 137.778 484.793 137.778 483.987 138.08C481.972 138.785 479.353 140.296 478.244 140.095C476.431 139.692 474.718 140.8 474.718 142.311C474.718 143.923 475.625 146.341 476.431 147.953C476.935 148.86 477.539 149.666 478.244 150.371L479.05 147.147Z" fill="#212B53"/>
<path d="M477.237 147.349C477.64 146.946 478.446 147.047 478.95 147.55C479.453 147.953 479.554 148.658 479.151 148.961C478.748 149.364 477.942 149.263 477.438 148.759C476.935 148.356 476.834 147.651 477.237 147.349Z" fill="#F8B68F"/>
<path d="M497.588 157.524C497.689 157.222 498.091 156.416 499.603 155.207C501.013 154.099 504.539 152.789 503.028 151.681C501.114 151.882 498.897 151.782 498.897 151.782C497.789 151.983 496.379 153.394 495.774 154.401L494.162 157.826C494.162 157.826 494.968 159.539 494.968 159.64L495.774 159.539C496.177 158.733 496.782 158.129 497.588 157.524Z" fill="#F8B68F"/>
<path d="M497.688 156.517C497.688 156.517 497.688 156.416 497.688 156.214C497.487 156.214 497.185 156.315 496.983 156.315C496.177 156.819 495.371 157.222 494.666 157.726C494.968 158.129 495.472 158.733 495.472 158.733L501.215 156.718C501.215 156.718 501.315 155.912 500.006 155.912C498.696 156.013 497.688 156.517 497.688 156.517Z" fill="#F8B68F"/>
<path d="M488.923 169.211L497.789 160.95L494.666 156.416L482.576 162.159L487.815 171.427L488.923 169.211Z" fill="url(#paint3_linear)"/>
<path d="M479.05 155.409C466.356 152.789 468.573 194.7 468.573 194.7H488.621C488.621 194.7 488.924 187.446 489.629 178.177C490.233 170.319 485.8 161.453 479.05 155.409Z" fill="url(#paint4_linear)"/>
<path d="M485.599 264.013C485.599 264.013 487.614 265.827 492.046 267.036C493.054 267.338 494.061 266.935 494.061 268.547C491.946 268.547 488.621 268.547 488.621 268.547L484.087 267.741V268.547H481.669C481.669 268.547 480.964 264.517 482.375 264.013C483.785 264.013 485.599 264.013 485.599 264.013Z" fill="#212B53"/>
<path d="M485.397 261.192L485.699 264.114C484.792 264.719 483.583 264.819 482.676 264.215L482.475 264.114L481.971 261.192H485.397Z" fill="#F8B68F"/>
<path d="M514.009 168.606C514.312 168.606 515.218 168.405 516.73 167.196C518.039 166.088 520.256 162.964 520.961 164.677C520.356 166.491 519.953 168.707 519.953 168.707C519.55 169.815 517.838 170.722 516.629 171.125L512.901 171.931C512.901 171.931 511.39 170.823 511.39 170.722L511.692 170.017C512.498 169.614 513.304 169.211 514.009 168.606Z" fill="#F8B68F"/>
<path d="M514.916 168.707C514.916 168.707 515.017 168.707 515.218 168.707C515.118 168.909 515.017 169.211 514.916 169.412C514.312 170.017 513.707 170.722 513.002 171.427C512.7 171.024 512.196 170.42 512.196 170.42L515.521 165.282C515.521 165.282 516.327 165.382 516.024 166.591C515.722 167.8 514.916 168.707 514.916 168.707Z" fill="#F8B68F"/>
<path d="M466.356 259.983C466.356 259.983 468.371 261.797 472.804 263.006C473.812 263.308 474.819 262.905 474.819 264.517C472.703 264.517 469.379 264.517 469.379 264.517L464.845 263.711V264.517H462.427C462.427 264.517 461.722 260.487 463.133 259.983C464.543 259.983 466.356 259.983 466.356 259.983Z" fill="#212B53"/>
<path d="M466.053 257.163L466.356 260.084C465.449 260.689 464.24 260.789 463.333 260.185L463.132 260.084L462.628 257.163H466.053Z" fill="#F8B68F"/>
<path d="M468.573 194.7C468.573 194.7 470.185 203.162 468.774 220.793C468.472 223.916 467.867 226.939 466.658 229.86C462.83 239.733 462.226 257.969 462.226 257.969H466.658L482.173 213.539L468.573 194.7Z" fill="#212B53"/>
<path d="M476.028 169.312C476.028 169.312 479.453 182.207 488.823 183.416C498.192 184.625 513.606 172.737 513.606 172.737L511.894 169.312L495.573 173.845C493.054 174.55 490.435 173.442 489.226 171.125L484.289 162.058L476.028 169.312Z" fill="url(#paint5_linear)"/>
<path d="M488.621 194.7L485.7 261.898H481.771C481.771 261.898 477.338 246.181 477.64 233.89C477.741 229.961 477.035 226.032 475.625 222.405C469.58 207.494 468.573 194.7 468.573 194.7H488.621Z" fill="#043C5E"/>
<path d="M523.077 162.159L508.871 172.737L492.651 160.144L505.95 150.27L523.077 162.159Z" fill="white"/>
<path d="M504.237 175.457C504.136 174.047 503.834 172.838 503.33 171.729L511.995 169.312L513.707 172.737C513.707 172.737 509.375 176.062 503.834 179.084C504.136 177.774 504.237 176.666 504.237 175.457Z" fill="url(#paint6_linear)"/>
<path d="M476.33 169.211C476.33 169.312 479.856 181.905 488.923 183.114C497.386 184.222 511.188 174.248 513.304 172.737C513.405 172.838 513.506 173.039 513.606 173.14C511.591 174.651 499.099 183.718 490.334 183.718C489.83 183.718 489.326 183.718 488.923 183.618C479.453 182.409 475.927 169.513 475.826 169.311L476.33 169.211Z" fill="#63C1C5"/>
<path d="M516.427 171.125L513.405 171.83C513.102 171.125 512.699 170.42 512.296 169.715C512.901 169.412 513.505 169.009 514.009 168.506C514.311 168.506 515.218 168.304 516.729 167.095C516.427 168.203 516.326 169.312 516.427 170.42C516.427 170.722 516.427 170.923 516.427 171.125Z" fill="#F8B68F"/>
<path d="M512.498 170.017L515.621 165.181C515.621 165.181 516.427 165.282 516.125 166.491C515.822 167.7 515.117 168.606 515.117 168.606C515.117 168.606 515.218 168.606 515.419 168.606C515.319 168.808 515.218 169.11 515.117 169.312C514.513 169.916 513.908 170.621 513.304 171.226C513.002 170.923 512.699 170.42 512.498 170.017Z" fill="#F8B68F"/>
<path d="M498.595 154.804H498.696C497.789 155.61 497.588 156.214 497.487 156.416C497.084 156.718 496.782 157.02 496.479 157.323C496.479 157.02 496.379 156.718 496.278 156.416C497.084 155.912 497.89 155.409 498.595 154.804Z" fill="#F8B68F"/>
<path d="M497.991 155.207C498.394 155.006 499.099 154.905 499.905 154.804C501.214 154.804 501.114 155.61 501.114 155.61L496.479 157.222C496.479 156.92 496.379 156.617 496.278 156.315C496.882 156.013 497.487 155.711 497.991 155.207Z" fill="#F8B68F"/>
<path d="M481.972 158.431V155.711L477.438 153.797L475.726 155.912L481.972 158.431Z" fill="white"/>
<path d="M544.233 164.375L538.692 174.853L544.837 174.55L545.24 164.073L544.233 164.375Z" fill="#F8B68F"/>
<path d="M552.998 159.741H547.86L545.744 192.886H554.912L552.998 159.741Z" fill="white"/>
<path d="M562.368 257.062C562.368 257.062 563.677 258.069 563.375 259.278C563.174 260.588 562.771 263.51 562.771 263.51H561.461V260.689C561.461 260.487 558.64 263.51 558.237 263.51H551.386C551.386 263.51 550.883 261.595 555.013 260.991C559.043 260.487 562.368 257.062 562.368 257.062Z" fill="#043C5E"/>
<path d="M559.345 255.752L558.439 258.17C558.237 258.875 557.733 259.379 557.129 259.782C556.424 260.185 555.416 260.789 553.905 261.293C555.819 262.905 558.741 261.192 560.454 260.084C561.26 259.48 561.864 258.674 562.166 257.666L562.569 255.853H559.345V255.752Z" fill="#F8B68F"/>
<path d="M549.27 257.062C549.27 257.062 550.58 258.069 550.278 259.278C550.076 260.588 549.673 263.51 549.673 263.51H548.364V260.689C548.364 260.487 545.543 263.51 545.14 263.51H538.289C538.289 263.51 537.785 261.595 541.916 260.991C545.946 260.487 549.27 257.062 549.27 257.062Z" fill="#043C5E"/>
<path d="M546.248 255.752L545.341 258.17C545.14 258.875 544.636 259.379 544.032 259.782C543.326 260.185 542.319 260.789 540.808 261.293C542.722 262.905 545.643 261.192 547.356 260.084C548.162 259.48 548.767 258.674 549.069 257.666L549.472 255.853H546.248V255.752Z" fill="#F8B68F"/>
<path d="M556.927 192.886C556.927 192.886 557.834 197.823 552.796 222.204C556.826 234.898 550.378 256.155 550.378 256.155H545.744L542.52 192.987H556.927V192.886Z" fill="#01898C"/>
<path d="M548.364 159.741L546.651 199.939L541.11 197.621C541.11 197.621 543.629 190.065 543.327 179.588C544.133 172.032 539.901 175.961 545.14 161.453C547.256 159.741 548.364 159.741 548.364 159.741Z" fill="#FFDB71"/>
<path d="M547.659 155.61L548.263 159.035C548.565 160.547 550.278 161.252 551.487 160.446L553.703 159.035L549.674 149.867L547.659 155.61Z" fill="#F4A086"/>
<path d="M561.36 192.886C561.36 192.886 567.506 197.823 562.569 222.204C566.599 234.898 563.073 256.155 563.073 256.155H558.841L547.054 192.886H561.36Z" fill="#63C1C5"/>
<path d="M552.998 156.416C552.998 156.416 558.136 159.338 559.748 161.957C561.259 164.476 561.763 170.017 561.964 175.054C562.166 181.905 565.49 200.039 565.49 200.039H551.587L551.285 160.647L552.998 156.416Z" fill="#FFDB71"/>
<path d="M542.722 145.435C545.845 144.629 548.867 147.852 548.867 147.852L551.184 160.547L554.811 154.905C554.811 154.905 555.013 147.349 551.487 142.311C548.968 139.289 544.132 140.095 541.714 143.117C540.505 144.528 540.304 146.543 540.404 148.356C540.606 150.774 541.21 164.979 541.21 164.979L548.363 159.64C548.363 159.64 548.162 158.229 547.457 155.61C546.449 151.177 540.606 146.039 542.722 145.435Z" fill="#212B53"/>
<path d="M549.875 147.651C549.371 147.45 548.767 147.752 548.565 148.356C548.263 148.961 548.464 149.565 548.867 149.767C549.371 149.968 549.976 149.666 550.177 149.061C550.479 148.457 550.278 147.852 549.875 147.651Z" fill="#F8B68F"/>
<path d="M546.45 156.214C545.845 156.416 545.341 156.517 544.938 156.416C542.218 154.401 541.211 146.543 541.211 146.543L543.326 144.226L547.658 145.132L549.774 149.867C550.379 151.076 550.278 152.588 549.573 153.797C548.867 154.905 547.759 155.812 546.45 156.214Z" fill="#F8B68F"/>
<path d="M542.017 145.334C542.218 147.752 548.867 147.953 548.867 147.953L549.17 144.729L545.341 142.614L542.319 144.427C542.319 144.326 542.017 144.931 542.017 145.334Z" fill="#212B53"/>
<path d="M542.117 145.737C542.319 146.644 541.412 148.155 541.412 148.155L540.908 147.248V146.442L541.412 145.838C541.513 145.737 541.916 144.931 542.117 145.737Z" fill="#212B53"/>
<path d="M558.337 161.856C565.088 162.662 561.864 179.991 560.453 187.043C560.05 188.756 558.337 189.864 556.625 189.36C550.781 187.547 542.218 179.89 542.218 179.89L543.528 178.177L554.912 180.797C554.912 180.797 550.58 160.95 558.337 161.856Z" fill="#F8B68F"/>
<path d="M544.838 174.147L547.054 187.748C547.155 188.151 546.853 188.453 546.45 188.453H537.785C537.483 188.453 537.181 188.252 537.181 187.95L535.065 174.349C534.964 173.946 535.267 173.644 535.67 173.644H544.334C544.535 173.543 544.838 173.845 544.838 174.147Z" fill="white"/>
<path d="M535.267 180.091C535.166 179.588 535.267 179.285 535.367 178.379C535.569 177.069 535.569 175.054 536.879 176.062C538.088 177.573 538.289 179.285 538.289 179.285C538.591 180.192 537.987 181.502 537.483 182.106L536.576 184.021C536.476 184.121 534.964 182.308 535.267 180.091Z" fill="#F8B68F"/>
<path d="M540.304 179.588C540.694 179.588 541.009 179.272 541.009 178.882C541.009 178.493 540.694 178.177 540.304 178.177C539.915 178.177 539.599 178.493 539.599 178.882C539.599 179.272 539.915 179.588 540.304 179.588Z" fill="url(#paint7_linear)"/>
<path d="M416.083 107.755L415.479 111.08C416.486 111.785 417.897 111.886 419.005 111.181L419.207 111.08L420.013 107.755H416.083Z" fill="#F8B68F"/>
<path d="M443.084 29.7775C440.061 39.6507 430.087 54.8634 430.087 54.8634L438.046 51.6395L443.688 38.6432C443.587 38.6432 446.005 19.9043 443.084 29.7775Z" fill="#00666A"/>
<path d="M421.524 69.4717L415.278 108.058H420.819C420.819 108.058 433.311 73.4008 434.621 63.1246C434.621 57.3821 422.028 63.1246 422.028 63.1246L421.524 69.4717Z" fill="#212B53"/>
<path d="M442.177 14.1618L444.292 19.6021L448.826 16.2774L445.804 10.0311L442.177 14.1618Z" fill="#F4A086"/>
<path d="M440.565 15.0685C439.86 15.1692 439.154 15.27 438.852 15.0685C436.233 12.5498 436.837 4.2886 436.837 4.2886L439.759 2.27367L444.292 3.88561L445.602 9.12444C446.005 10.5349 445.602 12.0461 444.595 13.1543C443.486 14.061 442.076 14.867 440.565 15.0685Z" fill="#F8B68F"/>
<path d="M443.487 5.69905C443.084 4.89308 442.076 4.49009 441.27 4.79233C440.666 4.99383 439.86 5.29606 439.154 5.49756C437.341 5.90054 434.016 5.7998 433.412 3.07964C432.807 0.35948 436.434 0.560973 436.434 0.560973L441.169 0.863212C442.58 0.963959 443.99 0.661718 445.199 0.157985C446.308 -0.345748 447.315 0.762464 447.617 1.46769C448.121 2.97889 447.617 5.69905 447.113 7.311C446.811 8.31846 446.408 9.22518 445.804 10.0312L443.487 5.69905Z" fill="#212B53"/>
<path d="M446.106 6.80725C445.602 6.50501 444.897 6.80725 444.494 7.31098C444.091 7.81471 444.091 8.51994 444.595 8.82218C445.098 9.12442 445.804 8.82218 446.207 8.31845C446.609 7.81471 446.609 7.10949 446.106 6.80725Z" fill="#F8B68F"/>
<path d="M415.378 110.677C415.378 110.677 415.378 114.304 408.125 116.42C406.613 116.823 407.117 117.326 406.815 117.931C409.132 117.931 415.076 117.931 415.076 117.931L418.3 114.304L419.308 115.211L421.625 112.893C421.625 112.893 421.222 109.569 419.408 109.569C418.099 110.073 415.378 110.677 415.378 110.677Z" fill="#212B53"/>
<path d="M435.83 106.647L437.14 109.77C438.349 110.073 439.658 109.67 440.464 108.763L440.565 108.561L439.457 105.337L435.83 106.647Z" fill="#F8B68F"/>
<path d="M443.285 18.0909C443.285 18.0909 442.68 17.1842 447.819 14.5648C455.475 22.2215 457.994 51.5388 457.994 51.5388C457.994 51.5388 440.061 51.5388 437.945 51.5388C437.24 34.8148 443.285 18.0909 443.285 18.0909Z" fill="#01898C"/>
<path d="M423.539 50.8335C423.438 50.4306 423.639 50.0276 423.942 49.8261L427.166 47.9119C427.972 47.4082 428.878 47.3074 429.886 47.5089L433.412 47.6096L433.916 48.2141L434.621 51.3373C433.916 51.1358 433.513 51.035 433.513 51.035L431.296 51.1358C431.296 51.1358 427.065 55.0649 424.949 51.6395C424.848 55.2664 423.841 54.9641 423.841 54.9641L423.539 50.8335Z" fill="#F8B68F"/>
<path d="M457.994 51.5388L458.297 54.0574V54.1582C458.8 58.8933 455.677 63.3261 451.144 64.6358C451.144 64.6358 441.976 67.6582 430.491 68.2627C438.047 77.9344 440.162 105.237 440.162 105.237L435.326 107.05L416.487 62.2179C415.278 59.397 416.991 56.0724 420.013 55.4679L437.946 51.6395H457.994V51.5388Z" fill="#043C5E"/>
<path d="M445.502 27.6618C445.502 27.6618 449.229 31.0872 451.446 34.6133C452.05 35.6208 451.949 36.8297 451.244 37.7365C447.114 42.5723 432.203 47.2066 432.203 47.2066L433.211 52.647C433.211 52.647 454.367 48.5164 461.823 40.9604C469.479 33.3036 449.632 17.1842 449.632 17.1842" fill="#01898C"/>
<path d="M451.143 34.7141C451.647 35.6208 451.647 36.729 450.942 37.4343C449.028 39.6507 443.99 41.9679 439.557 43.6805C439.557 43.9828 439.557 43.9828 439.557 44.285C444.192 42.5723 449.33 40.2552 451.445 37.8372C452.251 36.8298 452.352 35.5201 451.748 34.4119C449.531 30.8857 445.804 27.4603 445.804 27.4603L445.401 27.8633C445.3 27.8633 449.028 31.2887 451.143 34.7141Z" fill="#63C1C5"/>
<path d="M457.289 43.882C449.229 48.2142 437.341 51.438 433.009 52.244C433.009 52.4455 433.11 52.647 433.11 52.8485C437.24 52.0425 448.927 49.0201 457.289 44.5873C457.289 44.3858 457.289 44.0835 457.289 43.882Z" fill="#63C1C5"/>
<path d="M415.58 57.2813L409.333 35.0163L410.542 34.7141L416.487 55.9716L434.419 52.8485L434.621 54.0574L415.58 57.2813Z" fill="#01898C"/>
<path d="M436.837 109.065C436.837 109.065 437.14 112.692 429.886 114.808C428.375 115.211 428.878 115.714 428.576 116.319C430.893 116.319 436.837 116.319 436.837 116.319L440.061 112.692L441.069 113.599L443.386 111.282C443.386 111.282 442.278 107.957 440.565 107.957C439.255 108.461 436.837 109.065 436.837 109.065Z" fill="#212B53"/>
<path d="M274.836 106.546L285.616 105.64C287.027 105.64 288.739 105.942 289.042 107.151C289.042 107.151 289.344 107.957 289.344 108.763C289.042 109.267 274.635 109.871 274.635 109.871H274.534C272.922 108.158 274.836 106.546 274.836 106.546Z" fill="#043C5E"/>
<path d="M289.344 108.763L274.736 109.972L274.836 110.476L289.445 109.267L289.344 108.763Z" fill="white"/>
<path d="M279.068 106.143H280.075L279.874 107.453L278.967 107.554L279.068 106.143Z" fill="white"/>
<path d="M281.184 106.043L282.191 105.942L281.99 107.252L280.982 107.352L281.184 106.043Z" fill="white"/>
<path d="M273.829 103.02L274.836 106.546C275.743 106.949 276.851 106.849 277.758 106.345L277.959 106.244L278.161 102.617L273.829 103.02Z" fill="#F8B68F"/>
<path d="M271.512 108.964L282.292 108.058C283.702 108.058 285.415 108.36 285.717 109.569C285.717 109.569 286.02 110.375 286.02 111.181C285.717 111.684 271.311 112.39 271.311 112.39H271.21C269.598 110.677 271.512 108.964 271.512 108.964Z" fill="#043C5E"/>
<path d="M286.02 111.181L271.311 112.39L271.512 112.994L286.02 111.684V111.181Z" fill="white"/>
<path d="M275.743 108.662L276.751 108.561L276.549 109.871L275.542 109.972L275.743 108.662Z" fill="white"/>
<path d="M277.859 108.461L278.766 108.36L278.564 109.77H277.658L277.859 108.461Z" fill="white"/>
<path d="M270.404 105.539L271.411 109.065C272.318 109.468 273.426 109.367 274.333 108.864L274.534 108.763L274.736 105.136L270.404 105.539Z" fill="#F8B68F"/>
<path d="M228.09 81.5612C228.09 81.5612 229.803 95.162 242.195 95.7665C254.586 96.371 269.295 82.1657 269.295 82.1657L274.031 103.625L278.766 103.726C278.766 103.726 281.889 71.0836 275.24 69.4716C268.59 67.8597 243.807 78.6396 243.807 78.6396L228.09 81.5612Z" fill="#212B53"/>
<path d="M237.862 43.2775L235.445 48.1134L239.575 49.6246L241.489 45.7962L237.862 43.2775Z" fill="#F4A086"/>
<path d="M238.971 34.6133L237.258 41.2626C237.963 41.4641 238.064 42.2701 237.762 42.7738C237.762 42.9753 237.762 43.076 237.762 43.2775C238.669 44.3857 240.381 46.0984 243.101 46.4007C247.433 46.9044 247.433 38.1394 247.433 38.1394L238.971 34.6133Z" fill="#F8B68F"/>
<path d="M235.344 38.8447C235.445 38.341 235.143 37.132 234.84 36.729C233.128 34.0089 235.646 33.2029 236.553 32.9006C237.561 32.5984 237.863 31.0872 239.172 30.5835C241.187 29.7775 242.296 31.5909 243.404 31.7924C244.512 31.8932 245.62 30.785 246.829 31.9939C248.139 33.2029 247.534 34.3111 247.937 35.0163C248.24 35.6208 249.549 34.6133 250.557 36.6283C252.068 39.7514 247.333 39.3484 247.333 39.3484C247.333 39.3484 244.613 39.5499 241.893 37.3335C241.49 37.0313 240.986 36.9305 240.583 37.2327C239.475 38.0387 237.762 43.479 237.762 43.479L236.956 42.2701C237.057 42.2701 234.84 41.1619 235.344 38.8447Z" fill="#212B53"/>
<path d="M238.75 41.1587C239.304 41.1111 239.715 40.6231 239.667 40.0688C239.62 39.5144 239.132 39.1036 238.577 39.1512C238.023 39.1988 237.612 39.6868 237.66 40.2412C237.708 40.7955 238.195 41.2063 238.75 41.1587Z" fill="#F8B68F"/>
<path d="M224.564 80.453C224.564 80.453 224.866 94.1546 237.157 95.968C249.448 97.7815 265.467 85.1881 265.467 85.1881L270.202 106.244L275.038 105.841C275.038 105.841 279.269 75.5165 272.822 73.1993C266.374 70.8821 240.583 79.0426 240.583 79.0426L224.564 80.453Z" fill="#043C5E"/>
<path d="M224.564 80.453L245.116 78.7403C245.116 78.7403 244.008 74.2067 244.109 69.5724C244.109 66.0463 245.62 63.0239 245.62 63.0239C245.016 55.1656 242.698 47.4081 235.747 47.8111C223.758 49.7253 224.564 80.453 224.564 80.453Z" fill="#01898C"/>
<path d="M283.199 55.2664L275.038 72.7963L257.206 69.4716L256.904 70.8821L275.844 74.4082L284.508 55.8709L283.199 55.2664Z" fill="#01898C"/>
<path d="M237.46 63.4269L245.519 62.7216L245.822 71.7888L260.228 68.2627L263.553 66.3485C264.359 65.8448 265.367 65.744 266.374 65.9455L270.202 66.7515C270.605 66.8522 270.908 67.1545 270.908 67.5575L272.016 71.7888C272.016 71.7888 271.008 72.3933 269.799 68.8672C268.792 72.9978 263.15 69.8746 263.15 69.8746L261.135 71.1844C261.135 71.1844 245.217 81.3598 241.59 79.1433C237.863 76.6247 237.46 63.4269 237.46 63.4269Z" fill="#F8B68F"/>
<path d="M270.907 67.5575C270.907 67.1545 270.605 66.8522 270.202 66.7515L266.374 65.9455C265.467 65.744 264.46 65.9455 263.553 66.3485L260.228 68.2627L259.725 68.3634L260.027 71.6881C260.631 71.2851 261.034 71.0836 261.034 71.0836L263.049 69.7739C263.049 69.7739 268.691 72.897 269.699 68.7664C271.008 72.3933 271.915 71.6881 271.915 71.6881L270.907 67.5575Z" fill="#F8B68F"/>
<defs>
<linearGradient id="paint0_linear" x1="82.6275" y1="169.447" x2="100.74" y2="169.447" gradientUnits="userSpaceOnUse">
<stop stop-color="#E0F0EB"/>
<stop offset="1" stop-color="#C0E4EF"/>
</linearGradient>
<linearGradient id="paint1_linear" x1="67.3093" y1="171.832" x2="85.7797" y2="171.832" gradientUnits="userSpaceOnUse">
<stop stop-color="#E0F0EB"/>
<stop offset="1" stop-color="#C0E4EF"/>
</linearGradient>
<linearGradient id="paint2_linear" x1="58.8338" y1="174.159" x2="75.4791" y2="174.159" gradientUnits="userSpaceOnUse">
<stop stop-color="#E0F0EB"/>
<stop offset="1" stop-color="#C0E4EF"/>
</linearGradient>
<linearGradient id="paint3_linear" x1="497.761" y1="163.892" x2="482.562" y2="163.892" gradientUnits="userSpaceOnUse">
<stop stop-color="#E0F0EB"/>
<stop offset="1" stop-color="#C0E4EF"/>
</linearGradient>
<linearGradient id="paint4_linear" x1="489.678" y1="175.021" x2="468.44" y2="175.021" gradientUnits="userSpaceOnUse">
<stop stop-color="#E0F0EB"/>
<stop offset="1" stop-color="#C0E4EF"/>
</linearGradient>
<linearGradient id="paint5_linear" x1="505.171" y1="179.807" x2="458.525" y2="150.972" gradientUnits="userSpaceOnUse">
<stop stop-color="#E0F0EB"/>
<stop offset="1" stop-color="#C0E4EF"/>
</linearGradient>
<linearGradient id="paint6_linear" x1="508.464" y1="174.48" x2="461.818" y2="145.644" gradientUnits="userSpaceOnUse">
<stop stop-color="#E0F0EB"/>
<stop offset="1" stop-color="#C0E4EF"/>
</linearGradient>
<linearGradient id="paint7_linear" x1="540.933" y1="178.849" x2="539.609" y2="178.849" gradientUnits="userSpaceOnUse">
<stop stop-color="#E0F0EB"/>
<stop offset="1" stop-color="#C0E4EF"/>
</linearGradient>
</defs>
</svg>
